<svg width="624" height="157" viewBox="0 0 624 157" fill="none" xmlns="http://www.w3.org/2000/svg">
<g filter="url(#filter0_d_346_10)">
<circle cx="117.5" cy="112.5" r="11.5" fill="#38C976"/>
</g>
<path d="M678.234 -40.3619C606.343 -75.9012 526.926 -43.0135 472.961 -9.16081C445.186 8.26427 418.123 28.9433 391.95 48.9567C358.064 74.8644 323.031 101.653 286.2 121.519C250.26 140.915 159.081 179.403 89.0561 118.202C48.7759 82.9862 20.9129 18.2371 6.2437 -74.2493C4.85914 -82.944 3.62556 -91.7561 2.42206 -100.568L0.886594 -100.575C2.10467 -91.6253 3.36793 -82.6751 4.76706 -73.8424C19.5097 19.1762 47.582 84.34 88.2074 119.833C158.848 181.569 250.599 142.848 286.766 123.334C323.687 103.41 358.78 76.6014 392.711 50.6545C418.869 30.6608 445.903 10.0013 473.617 -7.38465C527.325 -41.081 606.321 -73.8326 677.716 -38.5124C703.143 -25.9434 726.313 -5.24826 748.732 14.7539C758.082 23.0914 767.536 31.5082 777.218 39.4139L777.226 37.1089C767.829 29.4016 758.66 21.2225 749.581 13.1226C727.101 -6.95861 703.856 -27.6935 678.234 -40.3619Z" fill="url(#paint0_linear_346_10)" fill-opacity="0.2"/>
<path d="M751.678 68.0192C720.336 55.3045 696.345 28.2815 673.674 -1.65122C651.857 -30.4767 630.241 -60.8379 601.761 -78.4449C543.045 -114.751 473.856 -96.7884 416.124 -66.1841C351.605 -31.9666 290.924 19.6846 221.234 34.5119C187.052 41.7808 150.531 38.0457 120.873 12.9468C96.303 -7.85335 83.0655 -40.6581 77.6249 -77.5049C74.537 -98.4419 73.5276 -119.685 72.7441 -140.965L65.2927 -141C65.5125 -134.97 65.7322 -128.941 66.0424 -122.95C67.7719 -88.1104 71.2729 -51.9031 85.1506 -21.361C100.926 13.3272 129.013 35.4439 158.791 43.5609C195.125 53.4814 232.881 44.3574 267.662 29.4077C301.177 15.0038 332.936 -5.37767 364.708 -25.2075C425.356 -63.068 492.569 -101.45 561.351 -85.0547C577.445 -81.2172 593.061 -74.2297 607.279 -63.6434C621.333 -53.1957 633.674 -39.5053 645.304 -24.9119C668.071 3.64215 688.641 36.0475 715.857 57.6676C744.004 80.0407 777.96 89.9896 810.717 85.5707C810.762 85.5709 810.807 85.5514 810.867 85.5517L810.902 75.5634C791.082 78.3479 770.874 75.7916 751.678 68.0192Z" fill="url(#paint1_linear_346_10)" fill-opacity="0.2"/>
<defs>
<filter id="filter0_d_346_10" x="87" y="82" width="61" height="61" filterUnits="userSpaceOnUse" color-interpolation-filters="sRGB">
<feFlood flood-opacity="0" result="BackgroundImageFix"/>
<feColorMatrix in="SourceAlpha" type="matrix" values="0 0 0 0 0 0 0 0 0 0 0 0 0 0 0 0 0 0 127 0" result="hardAlpha"/>
<feOffset/>
<feGaussianBlur stdDeviation="9.5"/>
<feComposite in2="hardAlpha" operator="out"/>
<feColorMatrix type="matrix" values="0 0 0 0 0.207843 0 0 0 0 0.835294 0 0 0 0 0.647059 0 0 0 0.94 0"/>
<feBlend mode="normal" in2="BackgroundImageFix" result="effect1_dropShadow_346_10"/>
<feBlend mode="normal" in="SourceGraphic" in2="effect1_dropShadow_346_10" result="shape"/>
</filter>
<linearGradient id="paint0_linear_346_10" x1="742.681" y1="36.4072" x2="95.3613" y2="34.9593" gradientUnits="userSpaceOnUse">
<stop stop-color="#263959"/>
<stop offset="1" stop-color="#F4F8FD"/>
</linearGradient>
<linearGradient id="paint1_linear_346_10" x1="753.244" y1="59.6463" x2="94.738" y2="-22.592" gradientUnits="userSpaceOnUse">
<stop offset="0.0467524" stop-color="#F4F8FD"/>
<stop offset="0.473931" stop-color="#3EE8B5"/>
<stop offset="1" stop-color="#EFF1FD"/>
</linearGradient>
</defs>
</svg>
