<svg width="1900" height="1139" viewBox="0 0 1900 1139" fill="none" xmlns="http://www.w3.org/2000/svg">
<rect width="1900" height="898" fill="#263959"/>
<path d="M1413.93 1138.53L1373.59 1126.3L1333.25 1138.53L1292.91 1126.3L1252.57 1138.53L1212.23 1126.3L1171.89 1138.53L1131.55 1126.3L1091.22 1138.53L1050.86 1126.3L1010.52 1138.53L970.181 1126.3L929.824 1138.53L889.305 1126.25L889.648 1125.65L929.824 1137.82L970.181 1125.6L1010.52 1137.82L1050.86 1125.6L1091.22 1137.82L1131.55 1125.6L1171.89 1137.82L1212.23 1125.6L1252.57 1137.82L1292.91 1125.6L1333.25 1137.82L1373.59 1125.6L1413.93 1137.82L1454.26 1125.6L1494.78 1137.88L1494.44 1138.48L1454.26 1126.3L1413.93 1138.53Z" fill="#287E74" fill-opacity="0.25"/>
<path d="M1413.93 1126.87L1373.59 1114.64L1333.25 1126.87L1292.91 1114.64L1252.57 1126.87L1212.23 1114.64L1171.89 1126.87L1131.55 1114.64L1091.22 1126.87L1050.86 1114.64L1010.52 1126.87L970.181 1114.64L929.824 1126.87L889.305 1114.59L889.648 1113.99L929.824 1126.16L970.181 1113.93L1010.52 1126.16L1050.86 1113.93L1091.22 1126.16L1131.55 1113.93L1171.89 1126.16L1212.23 1113.93L1252.57 1126.16L1292.91 1113.93L1333.25 1126.16L1373.59 1113.93L1413.93 1126.16L1454.26 1113.93L1494.78 1126.21L1494.44 1126.82L1454.26 1114.64L1413.93 1126.87Z" fill="#287E74" fill-opacity="0.25"/>
<path d="M1413.93 1115.21L1373.59 1102.98L1333.25 1115.21L1292.91 1102.98L1252.57 1115.21L1212.23 1102.98L1171.89 1115.21L1131.55 1102.98L1091.22 1115.21L1050.86 1102.98L1010.52 1115.21L970.181 1102.98L929.824 1115.21L889.305 1102.93L889.648 1102.32L929.824 1114.5L970.181 1102.27L1010.52 1114.5L1050.86 1102.27L1091.22 1114.5L1131.55 1102.27L1171.89 1114.5L1212.23 1102.27L1252.57 1114.5L1292.91 1102.27L1333.25 1114.5L1373.59 1102.27L1413.93 1114.5L1454.26 1102.27L1494.78 1114.55L1494.44 1115.15L1454.26 1102.98L1413.93 1115.21Z" fill="#287E74" fill-opacity="0.25"/>
<path d="M1413.93 1103.54L1373.59 1091.32L1333.25 1103.54L1292.91 1091.32L1252.57 1103.54L1212.23 1091.32L1171.89 1103.54L1131.55 1091.32L1091.22 1103.54L1050.86 1091.32L1010.52 1103.54L970.181 1091.32L929.824 1103.54L889.305 1091.26L889.648 1090.66L929.824 1102.83L970.181 1090.61L1010.52 1102.83L1050.86 1090.61L1091.22 1102.83L1131.55 1090.61L1171.89 1102.83L1212.23 1090.61L1252.57 1102.83L1292.91 1090.61L1333.25 1102.83L1373.59 1090.61L1413.93 1102.83L1454.26 1090.61L1494.78 1102.89L1494.44 1103.49L1454.26 1091.32L1413.93 1103.54Z" fill="#287E74" fill-opacity="0.25"/>
<path d="M1413.93 1091.88L1373.59 1079.65L1333.25 1091.88L1292.91 1079.65L1252.57 1091.88L1212.23 1079.65L1171.89 1091.88L1131.55 1079.65L1091.22 1091.88L1050.86 1079.65L1010.52 1091.88L970.181 1079.65L929.824 1091.88L889.305 1079.6L889.648 1078.98L929.824 1091.17L970.181 1078.93L1010.52 1091.17L1050.86 1078.93L1091.22 1091.17L1131.55 1078.93L1171.89 1091.17L1212.23 1078.93L1252.57 1091.17L1292.91 1078.93L1333.25 1091.17L1373.59 1078.93L1413.93 1091.17L1454.26 1078.93L1494.78 1091.22L1494.44 1091.83L1454.26 1079.65L1413.93 1091.88Z" fill="#287E74" fill-opacity="0.25"/>
<path d="M1413.93 1080.22L1373.59 1067.98L1333.25 1080.22L1292.91 1067.98L1252.57 1080.22L1212.23 1067.98L1171.89 1080.22L1131.55 1067.98L1091.22 1080.22L1050.86 1067.98L1010.52 1080.22L970.181 1067.98L929.824 1080.22L889.305 1067.92L889.648 1067.32L929.824 1079.51L970.181 1067.27L1010.52 1079.51L1050.86 1067.27L1091.22 1079.51L1131.55 1067.27L1171.89 1079.51L1212.23 1067.27L1252.57 1079.51L1292.91 1067.27L1333.25 1079.51L1373.59 1067.27L1413.93 1079.51L1454.26 1067.27L1494.78 1079.56L1494.44 1080.16L1454.26 1067.98L1413.93 1080.22Z" fill="#287E74" fill-opacity="0.25"/>
<path d="M1413.93 1068.55L1373.59 1056.31L1333.25 1068.55L1292.91 1056.31L1252.57 1068.55L1212.23 1056.31L1171.89 1068.55L1131.55 1056.31L1091.22 1068.55L1050.86 1056.31L1010.52 1068.55L970.181 1056.31L929.824 1068.55L889.305 1056.26L889.648 1055.66L929.824 1067.85L970.181 1055.6L1010.52 1067.85L1050.86 1055.6L1091.22 1067.85L1131.55 1055.6L1171.89 1067.85L1212.23 1055.6L1252.57 1067.85L1292.91 1055.6L1333.25 1067.85L1373.59 1055.6L1413.93 1067.85L1454.26 1055.6L1494.78 1067.9L1494.44 1068.5L1454.26 1056.31L1413.93 1068.55Z" fill="#287E74" fill-opacity="0.25"/>
<path d="M1413.93 1056.89L1373.59 1044.65L1333.25 1056.89L1292.91 1044.65L1252.57 1056.89L1212.23 1044.65L1171.89 1056.89L1131.55 1044.65L1091.22 1056.89L1050.86 1044.65L1010.52 1056.89L970.181 1044.65L929.824 1056.89L889.305 1044.6L889.648 1043.99L929.824 1056.17L970.181 1043.94L1010.52 1056.17L1050.86 1043.94L1091.22 1056.17L1131.55 1043.94L1171.89 1056.17L1212.23 1043.94L1252.57 1056.17L1292.91 1043.94L1333.25 1056.17L1373.59 1043.94L1413.93 1056.17L1454.26 1043.94L1494.78 1056.22L1494.44 1056.84L1454.26 1044.65L1413.93 1056.89Z" fill="#287E74" fill-opacity="0.25"/>
<path d="M1413.93 1045.21L1373.59 1032.99L1333.25 1045.21L1292.91 1032.99L1252.57 1045.21L1212.23 1032.99L1171.89 1045.21L1131.55 1032.99L1091.22 1045.21L1050.86 1032.99L1010.52 1045.21L970.181 1032.99L929.824 1045.21L889.305 1032.93L889.648 1032.33L929.824 1044.51L970.181 1032.28L1010.52 1044.51L1050.86 1032.28L1091.22 1044.51L1131.55 1032.28L1171.89 1044.51L1212.23 1032.28L1252.57 1044.51L1292.91 1032.28L1333.25 1044.51L1373.59 1032.28L1413.93 1044.51L1454.26 1032.28L1494.78 1044.56L1494.44 1045.16L1454.26 1032.99L1413.93 1045.21Z" fill="#287E74" fill-opacity="0.25"/>
<path d="M1413.93 1033.55L1373.59 1021.32L1333.25 1033.55L1292.91 1021.32L1252.57 1033.55L1212.23 1021.32L1171.89 1033.55L1131.55 1021.32L1091.22 1033.55L1050.86 1021.32L1010.52 1033.55L970.181 1021.32L929.824 1033.55L889.305 1021.27L889.648 1020.67L929.824 1032.84L970.181 1020.61L1010.52 1032.84L1050.86 1020.61L1091.22 1032.84L1131.55 1020.61L1171.89 1032.84L1212.23 1020.61L1252.57 1032.84L1292.91 1020.61L1333.25 1032.84L1373.59 1020.61L1413.93 1032.84L1454.26 1020.61L1494.78 1032.9L1494.44 1033.5L1454.26 1021.32L1413.93 1033.55Z" fill="#287E74" fill-opacity="0.25"/>
<path d="M1413.93 1021.89L1373.59 1009.66L1333.25 1021.89L1292.91 1009.66L1252.57 1021.89L1212.23 1009.66L1171.89 1021.89L1131.55 1009.66L1091.22 1021.89L1050.86 1009.66L1010.52 1021.89L970.181 1009.66L929.824 1021.89L889.305 1009.61L889.648 1009L929.824 1021.18L970.181 1008.95L1010.52 1021.18L1050.86 1008.95L1091.22 1021.18L1131.55 1008.95L1171.89 1021.18L1212.23 1008.95L1252.57 1021.18L1292.91 1008.95L1333.25 1021.18L1373.59 1008.95L1413.93 1021.18L1454.26 1008.95L1494.78 1021.23L1494.44 1021.84L1454.26 1009.66L1413.93 1021.89Z" fill="#287E74" fill-opacity="0.25"/>
<path d="M1413.93 1010.23L1373.59 997.998L1333.25 1010.23L1292.91 997.998L1252.57 1010.23L1212.23 997.998L1171.89 1010.23L1131.55 997.998L1091.22 1010.23L1050.86 997.998L1010.52 1010.23L970.181 997.998L929.824 1010.23L889.305 997.945L889.648 997.328L929.824 1009.52L970.181 997.275L1010.52 1009.52L1050.86 997.275L1091.22 1009.52L1131.55 997.275L1171.89 1009.52L1212.23 997.275L1252.57 1009.52L1292.91 997.275L1333.25 1009.52L1373.59 997.275L1413.93 1009.52L1454.26 997.275L1494.78 1009.57L1494.44 1010.17L1454.26 997.998L1413.93 1010.23Z" fill="#287E74" fill-opacity="0.25"/>
<path d="M1413.93 998.563L1373.59 986.335L1333.25 998.563L1292.91 986.335L1252.57 998.563L1212.23 986.335L1171.89 998.563L1131.55 986.335L1091.22 998.563L1050.86 986.335L1010.52 998.563L970.181 986.335L929.824 998.563L889.305 986.282L889.648 985.665L929.824 997.853L970.181 985.612L1010.52 997.853L1050.86 985.612L1091.22 997.853L1131.55 985.612L1171.89 997.853L1212.23 985.612L1252.57 997.853L1292.91 985.612L1333.25 997.853L1373.59 985.612L1413.93 997.853L1454.26 985.612L1494.78 997.906L1494.44 998.51L1454.26 986.335L1413.93 998.563Z" fill="#287E74" fill-opacity="0.25"/>
<path d="M1010.52 986.899L970.181 974.658L929.824 986.899L889.305 974.606L889.648 974.002L929.824 986.19L970.181 973.949L1010.52 986.19L1050.86 973.949L1091.22 986.19L1131.55 973.949L1171.89 986.19L1212.23 973.949L1252.57 986.19L1292.91 973.949L1333.25 986.19L1373.59 973.949L1413.93 986.19L1454.26 973.949L1494.78 986.243L1494.44 986.847L1454.26 974.658L1413.93 986.899L1373.59 974.658L1333.25 986.899L1292.91 974.658L1252.57 986.899L1212.23 974.658L1171.89 986.899L1131.55 974.658L1091.22 986.899L1050.86 974.658L1010.52 986.899Z" fill="#287E74" fill-opacity="0.25"/>
<path d="M1413.93 975.236L1373.59 962.995L1333.25 975.236L1292.91 962.995L1252.57 975.236L1212.23 962.995L1171.89 975.236L1131.55 962.995L1091.22 975.236L1050.86 962.995L1010.52 975.236L970.181 962.995L929.824 975.236L889.305 962.943L889.648 962.339L929.824 974.514L970.181 962.286L1010.52 974.514L1050.86 962.286L1091.22 974.514L1131.55 962.286L1171.89 974.514L1212.23 962.286L1252.57 974.514L1292.91 962.286L1333.25 974.514L1373.59 962.286L1413.93 974.514L1454.26 962.286L1494.78 974.567L1494.44 975.184L1454.26 962.995L1413.93 975.236Z" fill="#287E74" fill-opacity="0.25"/>
<path d="M1413.93 963.573L1373.59 951.332L1333.25 963.573L1292.91 951.332L1252.57 963.573L1212.23 951.332L1171.89 963.573L1131.55 951.332L1091.22 963.573L1050.86 951.332L1010.52 963.573L970.181 951.332L929.824 963.573L889.305 951.279L889.648 950.675L929.824 962.85L970.181 950.623L1010.52 962.85L1050.86 950.623L1091.22 962.85L1131.55 950.623L1171.89 962.85L1212.23 950.623L1252.57 962.85L1292.91 950.623L1333.25 962.85L1373.59 950.623L1413.93 962.85L1454.26 950.623L1494.78 962.903L1494.44 963.52L1454.26 951.332L1413.93 963.573Z" fill="#287E74" fill-opacity="0.25"/>
<path d="M1413.93 951.897L1373.59 939.669L1333.25 951.897L1292.91 939.669L1252.57 951.897L1212.23 939.669L1171.89 951.897L1131.55 939.669L1091.22 951.897L1050.86 939.669L1010.52 951.897L970.181 939.669L929.824 951.897L889.305 939.617L889.648 939.013L929.824 951.188L970.181 938.96L1010.52 951.188L1050.86 938.96L1091.22 951.188L1131.55 938.96L1171.89 951.188L1212.23 938.96L1252.57 951.188L1292.91 938.96L1333.25 951.188L1373.59 938.96L1413.93 951.188L1454.26 938.96L1494.78 951.24L1494.44 951.845L1454.26 939.669L1413.93 951.897Z" fill="#287E74" fill-opacity="0.25"/>
<path d="M1413.93 940.234L1373.59 928.006L1333.25 940.234L1292.91 928.006L1252.57 940.234L1212.23 928.006L1171.89 940.234L1131.55 928.006L1091.22 940.234L1050.86 928.006L1010.52 940.234L970.181 928.006L929.824 940.234L889.305 927.954L889.648 927.349L929.824 939.525L970.181 927.297L1010.52 939.525L1050.86 927.297L1091.22 939.525L1131.55 927.297L1171.89 939.525L1212.23 927.297L1252.57 939.525L1292.91 927.297L1333.25 939.525L1373.59 927.297L1413.93 939.525L1454.26 927.297L1494.78 939.577L1494.44 940.181L1454.26 928.006L1413.93 940.234Z" fill="#287E74" fill-opacity="0.25"/>
<path d="M1413.93 928.571L1373.59 916.343L1333.25 928.571L1292.91 916.343L1252.57 928.571L1212.23 916.343L1171.89 928.571L1131.55 916.343L1091.22 928.571L1050.86 916.343L1010.52 928.571L970.181 916.343L929.824 928.571L889.305 916.29L889.648 915.686L929.824 927.862L970.181 915.634L1010.52 927.862L1050.86 915.634L1091.22 927.862L1131.55 915.634L1171.89 927.862L1212.23 915.634L1252.57 927.862L1292.91 915.634L1333.25 927.862L1373.59 915.634L1413.93 927.862L1454.26 915.634L1494.78 927.914L1494.44 928.518L1454.26 916.343L1413.93 928.571Z" fill="#287E74" fill-opacity="0.25"/>
<path d="M1413.93 916.908L1373.59 904.68L1333.25 916.908L1292.91 904.68L1252.57 916.908L1212.23 904.68L1171.89 916.908L1131.55 904.68L1091.22 916.908L1050.86 904.68L1010.52 916.908L970.181 904.68L929.824 916.908L889.305 904.627L889.648 904.01L929.824 916.199L970.181 903.958L1010.52 916.199L1050.86 903.958L1091.22 916.199L1131.55 903.958L1171.89 916.199L1212.23 903.958L1252.57 916.199L1292.91 903.958L1333.25 916.199L1373.59 903.958L1413.93 916.199L1454.26 903.958L1494.78 916.251L1494.44 916.855L1454.26 904.68L1413.93 916.908Z" fill="#287E74" fill-opacity="0.25"/>
<path d="M1413.93 905.245L1373.59 893.017L1333.25 905.245L1292.91 893.017L1252.57 905.245L1212.23 893.017L1171.89 905.245L1131.55 893.017L1091.22 905.245L1050.86 893.017L1010.52 905.245L970.181 893.017L929.824 905.245L889.305 892.964L889.648 892.347L929.824 904.535L970.181 892.294L1010.52 904.535L1050.86 892.294L1091.22 904.535L1131.55 892.294L1171.89 904.535L1212.23 892.294L1252.57 904.535L1292.91 892.294L1333.25 904.535L1373.59 892.294L1413.93 904.535L1454.26 892.294L1494.78 904.588L1494.44 905.192L1454.26 893.017L1413.93 905.245Z" fill="#287E74" fill-opacity="0.25"/>
<path d="M1413.93 893.582L1373.59 881.341L1333.25 893.582L1292.91 881.341L1252.57 893.582L1212.23 881.341L1171.89 893.582L1131.55 881.341L1091.22 893.582L1050.86 881.341L1010.52 893.582L970.181 881.341L929.824 893.582L889.305 881.288L889.648 880.684L929.824 892.872L970.181 880.631L1010.52 892.872L1050.86 880.631L1091.22 892.872L1131.55 880.631L1171.89 892.872L1212.23 880.631L1252.57 892.872L1292.91 880.631L1333.25 892.872L1373.59 880.631L1413.93 892.872L1454.26 880.631L1494.78 892.925L1494.44 893.529L1454.26 881.341L1413.93 893.582Z" fill="#287E74" fill-opacity="0.25"/>
<path d="M1413.93 881.919L1373.59 869.678L1333.25 881.919L1292.91 869.678L1252.57 881.919L1212.23 869.678L1171.89 881.919L1131.55 869.678L1091.22 881.919L1050.86 869.678L1010.52 881.919L970.181 869.678L929.824 881.919L889.305 869.625L889.648 869.021L929.824 881.196L970.181 868.968L1010.52 881.196L1050.86 868.968L1091.22 881.196L1131.55 868.968L1171.89 881.196L1212.23 868.968L1252.57 881.196L1292.91 868.968L1333.25 881.196L1373.59 868.968L1413.93 881.196L1454.26 868.968L1494.78 881.249L1494.44 881.866L1454.26 869.678L1413.93 881.919Z" fill="#287E74" fill-opacity="0.25"/>
<path d="M1413.93 870.242L1373.59 858.014L1333.25 870.242L1292.91 858.014L1252.57 870.242L1212.23 858.014L1171.89 870.242L1131.55 858.014L1091.22 870.242L1050.86 858.014L1010.52 870.242L970.181 858.014L929.824 870.242L889.305 857.962L889.648 857.358L929.824 869.533L970.181 857.305L1010.52 869.533L1050.86 857.305L1091.22 869.533L1131.55 857.305L1171.89 869.533L1212.23 857.305L1252.57 869.533L1292.91 857.305L1333.25 869.533L1373.59 857.305L1413.93 869.533L1454.26 857.305L1494.78 869.586L1494.44 870.203L1454.26 858.014L1413.93 870.242Z" fill="#287E74" fill-opacity="0.25"/>
<path d="M1413.93 858.579L1373.59 846.351L1333.25 858.579L1292.91 846.351L1252.57 858.579L1212.23 846.351L1171.89 858.579L1131.55 846.351L1091.22 858.579L1050.86 846.351L1010.52 858.579L970.181 846.351L929.824 858.579L889.305 846.299L889.648 845.695L929.824 857.87L970.181 845.642L1010.52 857.87L1050.86 845.642L1091.22 857.87L1131.55 845.642L1171.89 857.87L1212.23 845.642L1252.57 857.87L1292.91 845.642L1333.25 857.87L1373.59 845.642L1413.93 857.87L1454.26 845.642L1494.78 857.923L1494.44 858.527L1454.26 846.351L1413.93 858.579Z" fill="#287E74" fill-opacity="0.25"/>
<path d="M1413.93 846.916L1373.59 834.688L1333.25 846.916L1292.91 834.688L1252.57 846.916L1212.23 834.688L1171.89 846.916L1131.55 834.688L1091.22 846.916L1050.86 834.688L1010.52 846.916L970.181 834.688L929.824 846.916L889.305 834.636L889.648 834.032L929.824 846.207L970.181 833.979L1010.52 846.207L1050.86 833.979L1091.22 846.207L1131.55 833.979L1171.89 846.207L1212.23 833.979L1252.57 846.207L1292.91 833.979L1333.25 846.207L1373.59 833.979L1413.93 846.207L1454.26 833.979L1494.78 846.259L1494.44 846.864L1454.26 834.688L1413.93 846.916Z" fill="#287E74" fill-opacity="0.25"/>
<path d="M1413.93 835.253L1373.59 823.025L1333.25 835.253L1292.91 823.025L1252.57 835.253L1212.23 823.025L1171.89 835.253L1131.55 823.025L1091.22 835.253L1050.86 823.025L1010.52 835.253L970.181 823.025L929.824 835.253L889.305 822.973L889.648 822.368L929.824 834.544L970.181 822.316L1010.52 834.544L1050.86 822.316L1091.22 834.544L1131.55 822.316L1171.89 834.544L1212.23 822.316L1252.57 834.544L1292.91 822.316L1333.25 834.544L1373.59 822.316L1413.93 834.544L1454.26 822.316L1494.78 834.596L1494.44 835.2L1454.26 823.025L1413.93 835.253Z" fill="#287E74" fill-opacity="0.25"/>
<path d="M1413.93 823.59L1373.59 811.362L1333.25 823.59L1292.91 811.362L1252.57 823.59L1212.23 811.362L1171.89 823.59L1131.55 811.362L1091.22 823.59L1050.86 811.362L1010.52 823.59L970.181 811.362L929.824 823.59L889.305 811.309L889.648 810.692L929.824 822.881L970.181 810.64L1010.52 822.881L1050.86 810.64L1091.22 822.881L1131.55 810.64L1171.89 822.881L1212.23 810.64L1252.57 822.881L1292.91 810.64L1333.25 822.881L1373.59 810.64L1413.93 822.881L1454.26 810.64L1494.78 822.933L1494.44 823.537L1454.26 811.362L1413.93 823.59Z" fill="#287E74" fill-opacity="0.25"/>
<path d="M1413.93 811.926L1373.59 799.698L1333.25 811.926L1292.91 799.698L1252.57 811.926L1212.23 799.698L1171.89 811.926L1131.55 799.698L1091.22 811.926L1050.86 799.698L1010.52 811.926L970.181 799.698L929.824 811.926L889.305 799.646L889.648 799.029L929.824 811.217L970.181 798.976L1010.52 811.217L1050.86 798.976L1091.22 811.217L1131.55 798.976L1171.89 811.217L1212.23 798.976L1252.57 811.217L1292.91 798.976L1333.25 811.217L1373.59 798.976L1413.93 811.217L1454.26 798.976L1494.78 811.27L1494.44 811.874L1454.26 799.698L1413.93 811.926Z" fill="#287E74" fill-opacity="0.25"/>
<path d="M1413.93 800.264L1373.59 788.023L1333.25 800.264L1292.91 788.023L1252.57 800.264L1212.23 788.023L1171.89 800.264L1131.55 788.023L1091.22 800.264L1050.86 788.023L1010.52 800.264L970.181 788.023L929.824 800.264L889.305 787.97L889.648 787.366L929.824 799.554L970.181 787.313L1010.52 799.554L1050.86 787.313L1091.22 799.554L1131.55 787.313L1171.89 799.554L1212.23 787.313L1252.57 799.554L1292.91 787.313L1333.25 799.554L1373.59 787.313L1413.93 799.554L1454.26 787.313L1494.78 799.607L1494.44 800.211L1454.26 788.023L1413.93 800.264Z" fill="#287E74" fill-opacity="0.25"/>
<path d="M1413.93 788.6L1373.59 776.359L1333.25 788.6L1292.91 776.359L1252.57 788.6L1212.23 776.359L1171.89 788.6L1131.55 776.359L1091.22 788.6L1050.86 776.359L1010.52 788.6L970.181 776.359L929.824 788.6L889.305 776.307L889.648 775.702L929.824 787.878L970.181 775.65L1010.52 787.878L1050.86 775.65L1091.22 787.878L1131.55 775.65L1171.89 787.878L1212.23 775.65L1252.57 787.878L1292.91 775.65L1333.25 787.878L1373.59 775.65L1413.93 787.878L1454.26 775.65L1494.78 787.93L1494.44 788.548L1454.26 776.359L1413.93 788.6Z" fill="#287E74" fill-opacity="0.25"/>
<path d="M1413.93 776.924L1373.59 764.697L1333.25 776.924L1292.91 764.697L1252.57 776.924L1212.23 764.697L1171.89 776.924L1131.55 764.697L1091.22 776.924L1050.86 764.697L1010.52 776.924L970.181 764.697L929.824 776.924L889.305 764.644L889.648 764.04L929.824 776.215L970.181 763.987L1010.52 776.215L1050.86 763.987L1091.22 776.215L1131.55 763.987L1171.89 776.215L1212.23 763.987L1252.57 776.215L1292.91 763.987L1333.25 776.215L1373.59 763.987L1413.93 776.215L1454.26 763.987L1494.78 776.268L1494.44 776.872L1454.26 764.697L1413.93 776.924Z" fill="#287E74" fill-opacity="0.25"/>
<path d="M1413.93 765.261L1373.59 753.033L1333.25 765.261L1292.91 753.033L1252.57 765.261L1212.23 753.033L1171.89 765.261L1131.55 753.033L1091.22 765.261L1050.86 753.033L1010.52 765.261L970.181 753.033L929.824 765.261L889.305 752.981L889.648 752.377L929.824 764.552L970.181 752.324L1010.52 764.552L1050.86 752.324L1091.22 764.552L1131.55 752.324L1171.89 764.552L1212.23 752.324L1252.57 764.552L1292.91 752.324L1333.25 764.552L1373.59 752.324L1413.93 764.552L1454.26 752.324L1494.78 764.605L1494.44 765.209L1454.26 753.033L1413.93 765.261Z" fill="#287E74" fill-opacity="0.25"/>
<path d="M1413.93 753.598L1373.59 741.37L1333.25 753.598L1292.91 741.37L1252.57 753.598L1212.23 741.37L1171.89 753.598L1131.55 741.37L1091.22 753.598L1050.86 741.37L1010.52 753.598L970.181 741.37L929.824 753.598L889.305 741.317L889.648 740.713L929.824 752.889L970.181 740.661L1010.52 752.889L1050.86 740.661L1091.22 752.889L1131.55 740.661L1171.89 752.889L1212.23 740.661L1252.57 752.889L1292.91 740.661L1333.25 752.889L1373.59 740.661L1413.93 752.889L1454.26 740.661L1494.78 752.941L1494.44 753.545L1454.26 741.37L1413.93 753.598Z" fill="#287E74" fill-opacity="0.25"/>
<path d="M1413.93 741.935L1373.59 729.707L1333.25 741.935L1292.91 729.707L1252.57 741.935L1212.23 729.707L1171.89 741.935L1131.55 729.707L1091.22 741.935L1050.86 729.707L1010.52 741.935L970.181 729.707L929.824 741.935L889.305 729.655L889.648 729.051L929.824 741.226L970.181 728.998L1010.52 741.226L1050.86 728.998L1091.22 741.226L1131.55 728.998L1171.89 741.226L1212.23 728.998L1252.57 741.226L1292.91 728.998L1333.25 741.226L1373.59 728.998L1413.93 741.226L1454.26 728.998L1494.78 741.278L1494.44 741.883L1454.26 729.707L1413.93 741.935Z" fill="#287E74" fill-opacity="0.25"/>
<path d="M1413.93 730.272L1373.59 718.044L1333.25 730.272L1292.91 718.044L1252.57 730.272L1212.23 718.044L1171.89 730.272L1131.55 718.044L1091.22 730.272L1050.86 718.044L1010.52 730.272L970.181 718.044L929.824 730.272L889.305 717.992L889.648 717.374L929.824 729.563L970.181 717.322L1010.52 729.563L1050.86 717.322L1091.22 729.563L1131.55 717.322L1171.89 729.563L1212.23 717.322L1252.57 729.563L1292.91 717.322L1333.25 729.563L1373.59 717.322L1413.93 729.563L1454.26 717.322L1494.78 729.615L1494.44 730.219L1454.26 718.044L1413.93 730.272Z" fill="#287E74" fill-opacity="0.25"/>
<path d="M1413.93 718.609L1373.59 706.381L1333.25 718.609L1292.91 706.381L1252.57 718.609L1212.23 706.381L1171.89 718.609L1131.55 706.381L1091.22 718.609L1050.86 706.381L1010.52 718.609L970.181 706.381L929.824 718.609L889.305 706.329L889.648 705.711L929.824 717.9L970.181 705.659L1010.52 717.9L1050.86 705.659L1091.22 717.9L1131.55 705.659L1171.89 717.9L1212.23 705.659L1252.57 717.9L1292.91 705.659L1333.25 717.9L1373.59 705.659L1413.93 717.9L1454.26 705.659L1494.78 717.952L1494.44 718.556L1454.26 706.381L1413.93 718.609Z" fill="#287E74" fill-opacity="0.25"/>
<path d="M1413.93 706.946L1373.59 694.705L1333.25 706.946L1292.91 694.705L1252.57 706.946L1212.23 694.705L1171.89 706.946L1131.55 694.705L1091.22 706.946L1050.86 694.705L1010.52 706.946L970.181 694.705L929.824 706.946L889.305 694.652L889.648 694.048L929.824 706.237L970.181 693.996L1010.52 706.237L1050.86 693.996L1091.22 706.237L1131.55 693.996L1171.89 706.237L1212.23 693.996L1252.57 706.237L1292.91 693.996L1333.25 706.237L1373.59 693.996L1413.93 706.237L1454.26 693.996L1494.78 706.289L1494.44 706.893L1454.26 694.705L1413.93 706.946Z" fill="#287E74" fill-opacity="0.25"/>
<path d="M1413.93 695.283L1373.59 683.042L1333.25 695.283L1292.91 683.042L1252.57 695.283L1212.23 683.042L1171.89 695.283L1131.55 683.042L1091.22 695.283L1050.86 683.042L1010.52 695.283L970.181 683.042L929.824 695.283L889.305 682.989L889.648 682.385L929.824 694.56L970.181 682.333L1010.52 694.56L1050.86 682.333L1091.22 694.56L1131.55 682.333L1171.89 694.56L1212.23 682.333L1252.57 694.56L1292.91 682.333L1333.25 694.56L1373.59 682.333L1413.93 694.56L1454.26 682.333L1494.78 694.613L1494.44 695.23L1454.26 683.042L1413.93 695.283Z" fill="#287E74" fill-opacity="0.25"/>
<path d="M1413.93 683.607L1373.59 671.379L1333.25 683.607L1292.91 671.379L1252.57 683.607L1212.23 671.379L1171.89 683.607L1131.55 671.379L1091.22 683.607L1050.86 671.379L1010.52 683.607L970.181 671.379L929.824 683.607L889.305 671.326L889.648 670.722L929.824 682.897L970.181 670.669L1010.52 682.897L1050.86 670.669L1091.22 682.897L1131.55 670.669L1171.89 682.897L1212.23 670.669L1252.57 682.897L1292.91 670.669L1333.25 682.897L1373.59 670.669L1413.93 682.897L1454.26 670.669L1494.78 682.95L1494.44 683.554L1454.26 671.379L1413.93 683.607Z" fill="#287E74" fill-opacity="0.25"/>
<path d="M1413.93 671.943L1373.59 659.715L1333.25 671.943L1292.91 659.715L1252.57 671.943L1212.23 659.715L1171.89 671.943L1131.55 659.715L1091.22 671.943L1050.86 659.715L1010.52 671.943L970.181 659.715L929.824 671.943L889.305 659.663L889.648 659.058L929.824 671.234L970.181 659.006L1010.52 671.234L1050.86 659.006L1091.22 671.234L1131.55 659.006L1171.89 671.234L1212.23 659.006L1252.57 671.234L1292.91 659.006L1333.25 671.234L1373.59 659.006L1413.93 671.234L1454.26 659.006L1494.78 671.286L1494.44 671.89L1454.26 659.715L1413.93 671.943Z" fill="#287E74" fill-opacity="0.25"/>
<path d="M1413.93 660.28L1373.59 648.052L1333.25 660.28L1292.91 648.052L1252.57 660.28L1212.23 648.052L1171.89 660.28L1131.55 648.052L1091.22 660.28L1050.86 648.052L1010.52 660.28L970.181 648.052L929.824 660.28L889.305 647.999L889.648 647.395L929.824 659.571L970.181 647.343L1010.52 659.571L1050.86 647.343L1091.22 659.571L1131.55 647.343L1171.89 659.571L1212.23 647.343L1252.57 659.571L1292.91 647.343L1333.25 659.571L1373.59 647.343L1413.93 659.571L1454.26 647.343L1494.78 659.623L1494.44 660.227L1454.26 648.052L1413.93 660.28Z" fill="#287E74" fill-opacity="0.25"/>
<path d="M1413.93 648.617L1373.59 636.389L1333.25 648.617L1292.91 636.389L1252.57 648.617L1212.23 636.389L1171.89 648.617L1131.55 636.389L1091.22 648.617L1050.86 636.389L1010.52 648.617L970.181 636.389L929.824 648.617L889.305 636.337L889.648 635.72L929.824 647.908L970.181 635.667L1010.52 647.908L1050.86 635.667L1091.22 647.908L1131.55 635.667L1171.89 647.908L1212.23 635.667L1252.57 647.908L1292.91 635.667L1333.25 647.908L1373.59 635.667L1413.93 647.908L1454.26 635.667L1494.78 647.961L1494.44 648.565L1454.26 636.389L1413.93 648.617Z" fill="#287E74" fill-opacity="0.25"/>
<path d="M1413.93 636.954L1373.59 624.726L1333.25 636.954L1292.91 624.726L1252.57 636.954L1212.23 624.726L1171.89 636.954L1131.55 624.726L1091.22 636.954L1050.86 624.726L1010.52 636.954L970.181 624.726L929.824 636.954L889.305 624.673L889.648 624.056L929.824 636.244L970.181 624.003L1010.52 636.244L1050.86 624.003L1091.22 636.244L1131.55 624.003L1171.89 636.244L1212.23 624.003L1252.57 636.244L1292.91 624.003L1333.25 636.244L1373.59 624.003L1413.93 636.244L1454.26 624.003L1494.78 636.297L1494.44 636.901L1454.26 624.726L1413.93 636.954Z" fill="#287E74" fill-opacity="0.25"/>
<path d="M1413.93 625.291L1373.59 613.05L1333.25 625.291L1292.91 613.05L1252.57 625.291L1212.23 613.05L1171.89 625.291L1131.55 613.05L1091.22 625.291L1050.86 613.05L1010.52 625.291L970.181 613.05L929.824 625.291L889.305 612.998L889.648 612.393L929.824 624.582L970.181 612.341L1010.52 624.582L1050.86 612.341L1091.22 624.582L1131.55 612.341L1171.89 624.582L1212.23 612.341L1252.57 624.582L1292.91 612.341L1333.25 624.582L1373.59 612.341L1413.93 624.582L1454.26 612.341L1494.78 624.634L1494.44 625.239L1454.26 613.05L1413.93 625.291Z" fill="#287E74" fill-opacity="0.25"/>
<path d="M1413.93 613.627L1373.59 601.386L1333.25 613.627L1292.91 601.386L1252.57 613.627L1212.23 601.386L1171.89 613.627L1131.55 601.386L1091.22 613.627L1050.86 601.386L1010.52 613.627L970.181 601.386L929.824 613.627L889.305 601.334L889.648 600.73L929.824 612.905L970.181 600.677L1010.52 612.905L1050.86 600.677L1091.22 612.905L1131.55 600.677L1171.89 612.905L1212.23 600.677L1252.57 612.905L1292.91 600.677L1333.25 612.905L1373.59 600.677L1413.93 612.905L1454.26 600.677L1494.78 612.958L1494.44 613.575L1454.26 601.386L1413.93 613.627Z" fill="#287E74" fill-opacity="0.25"/>
<path d="M1413.93 601.964L1373.59 589.723L1333.25 601.964L1292.91 589.723L1252.57 601.964L1212.23 589.723L1171.89 601.964L1131.55 589.723L1091.22 601.964L1050.86 589.723L1010.52 601.964L970.181 589.723L929.824 601.964L889.305 589.671L889.648 589.067L929.824 601.242L970.181 589.014L1010.52 601.242L1050.86 589.014L1091.22 601.242L1131.55 589.014L1171.89 601.242L1212.23 589.014L1252.57 601.242L1292.91 589.014L1333.25 601.242L1373.59 589.014L1413.93 601.242L1454.26 589.014L1494.78 601.295L1494.44 601.912L1454.26 589.723L1413.93 601.964Z" fill="#287E74" fill-opacity="0.25"/>
</svg>
