<svg width="927" height="713" viewBox="0 0 927 713" fill="none" xmlns="http://www.w3.org/2000/svg">
<mask id="mask0_330_198" style="mask-type:alpha" maskUnits="userSpaceOnUse" x="340" y="-50" width="630" height="701">
<path d="M340 3.13551C340 -28.3284 367.478 -52.7311 398.721 -49.0143L923.686 13.4377C950.105 16.5806 970 38.9826 970 65.5875V543.087C970 569.986 949.675 592.537 922.92 595.322L397.955 649.967C366.967 653.193 340 628.887 340 597.732V3.13551Z" fill="#DDE3EB"/>
</mask>
<g mask="url(#mask0_330_198)">
<rect width="333.106" height="519.973" rx="131.221" transform="matrix(0.828641 0.55978 -0.57812 0.815952 624.605 74.5325)" fill="#906CF9"/>
<path d="M586.662 416.128L566.466 410.006L546.269 416.128L526.073 410.006L505.877 416.128L485.68 410.006L465.484 416.128L445.287 410.006L425.091 416.128L404.885 410.006L384.689 416.128L364.492 410.006L344.287 416.128L324 409.98L324.172 409.677L344.287 415.773L364.492 409.651L384.689 415.773L404.885 409.651L425.091 415.773L445.287 409.651L465.484 415.773L485.68 409.651L505.877 415.773L526.073 409.651L546.269 415.773L566.466 409.651L586.662 415.773L606.859 409.651L627.146 415.8L626.974 416.102L606.859 410.006L586.662 416.128Z" fill="#287E74" fill-opacity="0.36"/>
<path d="M586.662 410.289L566.466 404.167L546.269 410.289L526.073 404.167L505.877 410.289L485.68 404.167L465.484 410.289L445.287 404.167L425.091 410.289L404.885 404.167L384.689 410.289L364.492 404.167L344.287 410.289L324 404.14L324.172 403.838L344.287 409.934L364.492 403.812L384.689 409.934L404.885 403.812L425.091 409.934L445.287 403.812L465.484 409.934L485.68 403.812L505.877 409.934L526.073 403.812L546.269 409.934L566.466 403.812L586.662 409.934L606.859 403.812L627.146 409.96L626.974 410.263L606.859 404.167L586.662 410.289Z" fill="#287E74" fill-opacity="0.36"/>
<path d="M586.662 404.45L566.466 398.328L546.269 404.45L526.073 398.328L505.877 404.45L485.68 398.328L465.484 404.45L445.287 398.328L425.091 404.45L404.885 398.328L384.689 404.45L364.492 398.328L344.287 404.45L324 398.301L324.172 397.999L344.287 404.095L364.492 397.972L384.689 404.095L404.885 397.972L425.091 404.095L445.287 397.972L465.484 404.095L485.68 397.972L505.877 404.095L526.073 397.972L546.269 404.095L566.466 397.972L586.662 404.095L606.859 397.972L627.146 404.121L626.974 404.423L606.859 398.328L586.662 404.45Z" fill="#287E74" fill-opacity="0.36"/>
<path d="M586.662 398.61L566.466 392.488L546.269 398.61L526.073 392.488L505.877 398.61L485.68 392.488L465.484 398.61L445.287 392.488L425.091 398.61L404.885 392.488L384.689 398.61L364.492 392.488L344.287 398.61L324 392.462L324.172 392.159L344.287 398.255L364.492 392.133L384.689 398.255L404.885 392.133L425.091 398.255L445.287 392.133L465.484 398.255L485.68 392.133L505.877 398.255L526.073 392.133L546.269 398.255L566.466 392.133L586.662 398.255L606.859 392.133L627.146 398.281L626.974 398.584L606.859 392.488L586.662 398.61Z" fill="#287E74" fill-opacity="0.36"/>
<path d="M586.662 392.771L566.466 386.649L546.269 392.771L526.073 386.649L505.877 392.771L485.68 386.649L465.484 392.771L445.287 386.649L425.091 392.771L404.885 386.649L384.689 392.771L364.492 386.649L344.287 392.771L324 386.622L324.172 386.313L344.287 392.416L364.492 386.287L384.689 392.416L404.885 386.287L425.091 392.416L445.287 386.287L465.484 392.416L485.68 386.287L505.877 392.416L526.073 386.287L546.269 392.416L566.466 386.287L586.662 392.416L606.859 386.287L627.146 392.442L626.974 392.744L606.859 386.649L586.662 392.771Z" fill="#287E74" fill-opacity="0.36"/>
<path d="M586.662 386.932L566.466 380.803L546.269 386.932L526.073 380.803L505.877 386.932L485.68 380.803L465.484 386.932L445.287 380.803L425.091 386.932L404.885 380.803L384.689 386.932L364.492 380.803L344.287 386.932L324 380.777L324.172 380.474L344.287 386.576L364.492 380.448L384.689 386.576L404.885 380.448L425.091 386.576L445.287 380.448L465.484 386.576L485.68 380.448L505.877 386.576L526.073 380.448L546.269 386.576L566.466 380.448L586.662 386.576L606.859 380.448L627.146 386.603L626.974 386.905L606.859 380.803L586.662 386.932Z" fill="#287E74" fill-opacity="0.36"/>
<path d="M586.662 381.092L566.466 374.963L546.269 381.092L526.073 374.963L505.877 381.092L485.68 374.963L465.484 381.092L445.287 374.963L425.091 381.092L404.885 374.963L384.689 381.092L364.492 374.963L344.287 381.092L324 374.937L324.172 374.635L344.287 380.737L364.492 374.608L384.689 380.737L404.885 374.608L425.091 380.737L445.287 374.608L465.484 380.737L485.68 374.608L505.877 380.737L526.073 374.608L546.269 380.737L566.466 374.608L586.662 380.737L606.859 374.608L627.146 380.763L626.974 381.066L606.859 374.963L586.662 381.092Z" fill="#287E74" fill-opacity="0.36"/>
<path d="M586.662 375.253L566.466 369.124L546.269 375.253L526.073 369.124L505.877 375.253L485.68 369.124L465.484 375.253L445.287 369.124L425.091 375.253L404.885 369.124L384.689 375.253L364.492 369.124L344.287 375.253L324 369.098L324.172 368.795L344.287 374.891L364.492 368.769L384.689 374.891L404.885 368.769L425.091 374.891L445.287 368.769L465.484 374.891L485.68 368.769L505.877 374.891L526.073 368.769L546.269 374.891L566.466 368.769L586.662 374.891L606.859 368.769L627.146 374.917L626.974 375.226L606.859 369.124L586.662 375.253Z" fill="#287E74" fill-opacity="0.36"/>
<path d="M586.662 369.407L566.466 363.285L546.269 369.407L526.073 363.285L505.877 369.407L485.68 363.285L465.484 369.407L445.287 363.285L425.091 369.407L404.885 363.285L384.689 369.407L364.492 363.285L344.287 369.407L324 363.258L324.172 362.956L344.287 369.052L364.492 362.93L384.689 369.052L404.885 362.93L425.091 369.052L445.287 362.93L465.484 369.052L485.68 362.93L505.877 369.052L526.073 362.93L546.269 369.052L566.466 362.93L586.662 369.052L606.859 362.93L627.146 369.078L626.974 369.381L606.859 363.285L586.662 369.407Z" fill="#287E74" fill-opacity="0.36"/>
<path d="M586.662 363.567L566.466 357.445L546.269 363.567L526.073 357.445L505.877 363.567L485.68 357.445L465.484 363.567L445.287 357.445L425.091 363.567L404.885 357.445L384.689 363.567L364.492 357.445L344.287 363.567L324 357.419L324.172 357.116L344.287 363.212L364.492 357.09L384.689 363.212L404.885 357.09L425.091 363.212L445.287 357.09L465.484 363.212L485.68 357.09L505.877 363.212L526.073 357.09L546.269 363.212L566.466 357.09L586.662 363.212L606.859 357.09L627.146 363.239L626.974 363.541L606.859 357.445L586.662 363.567Z" fill="#287E74" fill-opacity="0.36"/>
<path d="M586.662 357.728L566.466 351.606L546.269 357.728L526.073 351.606L505.877 357.728L485.68 351.606L465.484 357.728L445.287 351.606L425.091 357.728L404.885 351.606L384.689 357.728L364.492 351.606L344.287 357.728L324 351.58L324.172 351.277L344.287 357.373L364.492 351.251L384.689 357.373L404.885 351.251L425.091 357.373L445.287 351.251L465.484 357.373L485.68 351.251L505.877 357.373L526.073 351.251L546.269 357.373L566.466 351.251L586.662 357.373L606.859 351.251L627.146 357.399L626.974 357.702L606.859 351.606L586.662 357.728Z" fill="#287E74" fill-opacity="0.36"/>
<path d="M586.662 351.888L566.466 345.766L546.269 351.888L526.073 345.766L505.877 351.888L485.68 345.766L465.484 351.888L445.287 345.766L425.091 351.888L404.885 345.766L384.689 351.888L364.492 345.766L344.287 351.888L324 345.74L324.172 345.431L344.287 351.533L364.492 345.405L384.689 351.533L404.885 345.405L425.091 351.533L445.287 345.405L465.484 351.533L485.68 345.405L505.877 351.533L526.073 345.405L546.269 351.533L566.466 345.405L586.662 351.533L606.859 345.405L627.146 351.56L626.974 351.862L606.859 345.766L586.662 351.888Z" fill="#287E74" fill-opacity="0.36"/>
<path d="M586.662 346.049L566.466 339.927L546.269 346.049L526.073 339.927L505.877 346.049L485.68 339.927L465.484 346.049L445.287 339.927L425.091 346.049L404.885 339.927L384.689 346.049L364.492 339.927L344.287 346.049L324 339.901L324.172 339.592L344.287 345.694L364.492 339.565L384.689 345.694L404.885 339.565L425.091 345.694L445.287 339.565L465.484 345.694L485.68 339.565L505.877 345.694L526.073 339.565L546.269 345.694L566.466 339.565L586.662 345.694L606.859 339.565L627.146 345.72L626.974 346.023L606.859 339.927L586.662 346.049Z" fill="#287E74" fill-opacity="0.36"/>
<path d="M384.689 340.21L364.492 334.081L344.287 340.21L324 334.055L324.172 333.752L344.287 339.855L364.492 333.726L384.689 339.855L404.885 333.726L425.091 339.855L445.287 333.726L465.484 339.855L485.68 333.726L505.877 339.855L526.073 333.726L546.269 339.855L566.466 333.726L586.662 339.855L606.859 333.726L627.146 339.881L626.974 340.184L606.859 334.081L586.662 340.21L566.466 334.081L546.269 340.21L526.073 334.081L505.877 340.21L485.68 334.081L465.484 340.21L445.287 334.081L425.091 340.21L404.885 334.081L384.689 340.21Z" fill="#287E74" fill-opacity="0.36"/>
<path d="M586.662 334.37L566.466 328.242L546.269 334.37L526.073 328.242L505.877 334.37L485.68 328.242L465.484 334.37L445.287 328.242L425.091 334.37L404.885 328.242L384.689 334.37L364.492 328.242L344.287 334.37L324 328.215L324.172 327.913L344.287 334.009L364.492 327.887L384.689 334.009L404.885 327.887L425.091 334.009L445.287 327.887L465.484 334.009L485.68 327.887L505.877 334.009L526.073 327.887L546.269 334.009L566.466 327.887L586.662 334.009L606.859 327.887L627.146 334.035L626.974 334.344L606.859 328.242L586.662 334.37Z" fill="#287E74" fill-opacity="0.36"/>
<path d="M586.662 328.531L566.466 322.402L546.269 328.531L526.073 322.402L505.877 328.531L485.68 322.402L465.484 328.531L445.287 322.402L425.091 328.531L404.885 322.402L384.689 328.531L364.492 322.402L344.287 328.531L324 322.376L324.172 322.074L344.287 328.169L364.492 322.047L384.689 328.169L404.885 322.047L425.091 328.169L445.287 322.047L465.484 328.169L485.68 322.047L505.877 328.169L526.073 322.047L546.269 328.169L566.466 322.047L586.662 328.169L606.859 322.047L627.146 328.196L626.974 328.505L606.859 322.402L586.662 328.531Z" fill="#287E74" fill-opacity="0.36"/>
<path d="M586.662 322.685L566.466 316.563L546.269 322.685L526.073 316.563L505.877 322.685L485.68 316.563L465.484 322.685L445.287 316.563L425.091 322.685L404.885 316.563L384.689 322.685L364.492 316.563L344.287 322.685L324 316.537L324.172 316.234L344.287 322.33L364.492 316.208L384.689 322.33L404.885 316.208L425.091 322.33L445.287 316.208L465.484 322.33L485.68 316.208L505.877 322.33L526.073 316.208L546.269 322.33L566.466 316.208L586.662 322.33L606.859 316.208L627.146 322.356L626.974 322.659L606.859 316.563L586.662 322.685Z" fill="#287E74" fill-opacity="0.36"/>
<path d="M586.662 316.846L566.466 310.724L546.269 316.846L526.073 310.724L505.877 316.846L485.68 310.724L465.484 316.846L445.287 310.724L425.091 316.846L404.885 310.724L384.689 316.846L364.492 310.724L344.287 316.846L324 310.697L324.172 310.395L344.287 316.491L364.492 310.368L384.689 316.491L404.885 310.368L425.091 316.491L445.287 310.368L465.484 316.491L485.68 310.368L505.877 316.491L526.073 310.368L546.269 316.491L566.466 310.368L586.662 316.491L606.859 310.368L627.146 316.517L626.974 316.819L606.859 310.724L586.662 316.846Z" fill="#287E74" fill-opacity="0.36"/>
<path d="M586.662 311.006L566.466 304.884L546.269 311.006L526.073 304.884L505.877 311.006L485.68 304.884L465.484 311.006L445.287 304.884L425.091 311.006L404.885 304.884L384.689 311.006L364.492 304.884L344.287 311.006L324 304.858L324.172 304.555L344.287 310.651L364.492 304.529L384.689 310.651L404.885 304.529L425.091 310.651L445.287 304.529L465.484 310.651L485.68 304.529L505.877 310.651L526.073 304.529L546.269 310.651L566.466 304.529L586.662 310.651L606.859 304.529L627.146 310.678L626.974 310.98L606.859 304.884L586.662 311.006Z" fill="#287E74" fill-opacity="0.36"/>
<path d="M586.662 305.167L566.466 299.045L546.269 305.167L526.073 299.045L505.877 305.167L485.68 299.045L465.484 305.167L445.287 299.045L425.091 305.167L404.885 299.045L384.689 305.167L364.492 299.045L344.287 305.167L324 299.018L324.172 298.709L344.287 304.812L364.492 298.683L384.689 304.812L404.885 298.683L425.091 304.812L445.287 298.683L465.484 304.812L485.68 298.683L505.877 304.812L526.073 298.683L546.269 304.812L566.466 298.683L586.662 304.812L606.859 298.683L627.146 304.838L626.974 305.141L606.859 299.045L586.662 305.167Z" fill="#287E74" fill-opacity="0.36"/>
<path d="M586.662 299.328L566.466 293.205L546.269 299.328L526.073 293.205L505.877 299.328L485.68 293.205L465.484 299.328L445.287 293.205L425.091 299.328L404.885 293.205L384.689 299.328L364.492 293.205L344.287 299.328L324 293.179L324.172 292.87L344.287 298.972L364.492 292.844L384.689 298.972L404.885 292.844L425.091 298.972L445.287 292.844L465.484 298.972L485.68 292.844L505.877 298.972L526.073 292.844L546.269 298.972L566.466 292.844L586.662 298.972L606.859 292.844L627.146 298.999L626.974 299.301L606.859 293.205L586.662 299.328Z" fill="#287E74" fill-opacity="0.36"/>
<path d="M586.662 293.488L566.466 287.359L546.269 293.488L526.073 287.359L505.877 293.488L485.68 287.359L465.484 293.488L445.287 287.359L425.091 293.488L404.885 287.359L384.689 293.488L364.492 287.359L344.287 293.488L324 287.333L324.172 287.031L344.287 293.133L364.492 287.004L384.689 293.133L404.885 287.004L425.091 293.133L445.287 287.004L465.484 293.133L485.68 287.004L505.877 293.133L526.073 287.004L546.269 293.133L566.466 287.004L586.662 293.133L606.859 287.004L627.146 293.159L626.974 293.462L606.859 287.359L586.662 293.488Z" fill="#287E74" fill-opacity="0.36"/>
<path d="M586.662 287.649L566.466 281.52L546.269 287.649L526.073 281.52L505.877 287.649L485.68 281.52L465.484 287.649L445.287 281.52L425.091 287.649L404.885 281.52L384.689 287.649L364.492 281.52L344.287 287.649L324 281.494L324.172 281.191L344.287 287.287L364.492 281.165L384.689 287.287L404.885 281.165L425.091 287.287L445.287 281.165L465.484 287.287L485.68 281.165L505.877 287.287L526.073 281.165L546.269 287.287L566.466 281.165L586.662 287.287L606.859 281.165L627.146 287.313L626.974 287.623L606.859 281.52L586.662 287.649Z" fill="#287E74" fill-opacity="0.36"/>
<path d="M586.662 281.803L566.466 275.681L546.269 281.803L526.073 275.681L505.877 281.803L485.68 275.681L465.484 281.803L445.287 275.681L425.091 281.803L404.885 275.681L384.689 281.803L364.492 275.681L344.287 281.803L324 275.654L324.172 275.352L344.287 281.448L364.492 275.326L384.689 281.448L404.885 275.326L425.091 281.448L445.287 275.326L465.484 281.448L485.68 275.326L505.877 281.448L526.073 275.326L546.269 281.448L566.466 275.326L586.662 281.448L606.859 275.326L627.146 281.474L626.974 281.783L606.859 275.681L586.662 281.803Z" fill="#287E74" fill-opacity="0.36"/>
<path d="M586.662 275.963L566.466 269.841L546.269 275.963L526.073 269.841L505.877 275.963L485.68 269.841L465.484 275.963L445.287 269.841L425.091 275.963L404.885 269.841L384.689 275.963L364.492 269.841L344.287 275.963L324 269.815L324.172 269.513L344.287 275.608L364.492 269.486L384.689 275.608L404.885 269.486L425.091 275.608L445.287 269.486L465.484 275.608L485.68 269.486L505.877 275.608L526.073 269.486L546.269 275.608L566.466 269.486L586.662 275.608L606.859 269.486L627.146 275.635L626.974 275.937L606.859 269.841L586.662 275.963Z" fill="#287E74" fill-opacity="0.36"/>
<path d="M586.662 270.124L566.466 264.002L546.269 270.124L526.073 264.002L505.877 270.124L485.68 264.002L465.484 270.124L445.287 264.002L425.091 270.124L404.885 264.002L384.689 270.124L364.492 264.002L344.287 270.124L324 263.976L324.172 263.673L344.287 269.769L364.492 263.647L384.689 269.769L404.885 263.647L425.091 269.769L445.287 263.647L465.484 269.769L485.68 263.647L505.877 269.769L526.073 263.647L546.269 269.769L566.466 263.647L586.662 269.769L606.859 263.647L627.146 269.795L626.974 270.098L606.859 264.002L586.662 270.124Z" fill="#287E74" fill-opacity="0.36"/>
<path d="M586.662 264.285L566.466 258.163L546.269 264.285L526.073 258.163L505.877 264.285L485.68 258.163L465.484 264.285L445.287 258.163L425.091 264.285L404.885 258.163L384.689 264.285L364.492 258.163L344.287 264.285L324 258.136L324.172 257.834L344.287 263.93L364.492 257.807L384.689 263.93L404.885 257.807L425.091 263.93L445.287 257.807L465.484 263.93L485.68 257.807L505.877 263.93L526.073 257.807L546.269 263.93L566.466 257.807L586.662 263.93L606.859 257.807L627.146 263.956L626.974 264.258L606.859 258.163L586.662 264.285Z" fill="#287E74" fill-opacity="0.36"/>
<path d="M586.662 258.445L566.466 252.323L546.269 258.445L526.073 252.323L505.877 258.445L485.68 252.323L465.484 258.445L445.287 252.323L425.091 258.445L404.885 252.323L384.689 258.445L364.492 252.323L344.287 258.445L324 252.297L324.172 251.988L344.287 258.09L364.492 251.961L384.689 258.09L404.885 251.961L425.091 258.09L445.287 251.961L465.484 258.09L485.68 251.961L505.877 258.09L526.073 251.961L546.269 258.09L566.466 251.961L586.662 258.09L606.859 251.961L627.146 258.117L626.974 258.419L606.859 252.323L586.662 258.445Z" fill="#287E74" fill-opacity="0.36"/>
<path d="M586.662 252.606L566.466 246.484L546.269 252.606L526.073 246.484L505.877 252.606L485.68 246.484L465.484 252.606L445.287 246.484L425.091 252.606L404.885 246.484L384.689 252.606L364.492 246.484L344.287 252.606L324 246.457L324.172 246.148L344.287 252.251L364.492 246.122L384.689 252.251L404.885 246.122L425.091 252.251L445.287 246.122L465.484 252.251L485.68 246.122L505.877 252.251L526.073 246.122L546.269 252.251L566.466 246.122L586.662 252.251L606.859 246.122L627.146 252.277L626.974 252.58L606.859 246.484L586.662 252.606Z" fill="#287E74" fill-opacity="0.36"/>
<path d="M586.662 246.767L566.466 240.638L546.269 246.767L526.073 240.638L505.877 246.767L485.68 240.638L465.484 246.767L445.287 240.638L425.091 246.767L404.885 240.638L384.689 246.767L364.492 240.638L344.287 246.767L324 240.612L324.172 240.309L344.287 246.412L364.492 240.283L384.689 246.412L404.885 240.283L425.091 246.412L445.287 240.283L465.484 246.412L485.68 240.283L505.877 246.412L526.073 240.283L546.269 246.412L566.466 240.283L586.662 246.412L606.859 240.283L627.146 246.438L626.974 246.74L606.859 240.638L586.662 246.767Z" fill="#287E74" fill-opacity="0.36"/>
<path d="M586.662 240.927L566.466 234.799L546.269 240.927L526.073 234.799L505.877 240.927L485.68 234.799L465.484 240.927L445.287 234.799L425.091 240.927L404.885 234.799L384.689 240.927L364.492 234.799L344.287 240.927L324 234.772L324.172 234.47L344.287 240.566L364.492 234.443L384.689 240.566L404.885 234.443L425.091 240.566L445.287 234.443L465.484 240.566L485.68 234.443L505.877 240.566L526.073 234.443L546.269 240.566L566.466 234.443L586.662 240.566L606.859 234.443L627.146 240.592L626.974 240.901L606.859 234.799L586.662 240.927Z" fill="#287E74" fill-opacity="0.36"/>
<path d="M586.662 235.081L566.466 228.959L546.269 235.081L526.073 228.959L505.877 235.081L485.68 228.959L465.484 235.081L445.287 228.959L425.091 235.081L404.885 228.959L384.689 235.081L364.492 228.959L344.287 235.081L324 228.933L324.172 228.63L344.287 234.726L364.492 228.604L384.689 234.726L404.885 228.604L425.091 234.726L445.287 228.604L465.484 234.726L485.68 228.604L505.877 234.726L526.073 228.604L546.269 234.726L566.466 228.604L586.662 234.726L606.859 228.604L627.146 234.752L626.974 235.055L606.859 228.959L586.662 235.081Z" fill="#287E74" fill-opacity="0.36"/>
<path d="M586.662 229.242L566.466 223.12L546.269 229.242L526.073 223.12L505.877 229.242L485.68 223.12L465.484 229.242L445.287 223.12L425.091 229.242L404.885 223.12L384.689 229.242L364.492 223.12L344.287 229.242L324 223.093L324.172 222.791L344.287 228.887L364.492 222.765L384.689 228.887L404.885 222.765L425.091 228.887L445.287 222.765L465.484 228.887L485.68 222.765L505.877 228.887L526.073 222.765L546.269 228.887L566.466 222.765L586.662 228.887L606.859 222.765L627.146 228.913L626.974 229.215L606.859 223.12L586.662 229.242Z" fill="#287E74" fill-opacity="0.36"/>
<path d="M586.662 223.402L566.466 217.28L546.269 223.402L526.073 217.28L505.877 223.402L485.68 217.28L465.484 223.402L445.287 217.28L425.091 223.402L404.885 217.28L384.689 223.402L364.492 217.28L344.287 223.402L324 217.254L324.172 216.951L344.287 223.047L364.492 216.925L384.689 223.047L404.885 216.925L425.091 223.047L445.287 216.925L465.484 223.047L485.68 216.925L505.877 223.047L526.073 216.925L546.269 223.047L566.466 216.925L586.662 223.047L606.859 216.925L627.146 223.074L626.974 223.376L606.859 217.28L586.662 223.402Z" fill="#287E74" fill-opacity="0.36"/>
<path d="M586.662 217.563L566.466 211.441L546.269 217.563L526.073 211.441L505.877 217.563L485.68 211.441L465.484 217.563L445.287 211.441L425.091 217.563L404.885 211.441L384.689 217.563L364.492 211.441L344.287 217.563L324 211.415L324.172 211.112L344.287 217.208L364.492 211.086L384.689 217.208L404.885 211.086L425.091 217.208L445.287 211.086L465.484 217.208L485.68 211.086L505.877 217.208L526.073 211.086L546.269 217.208L566.466 211.086L586.662 217.208L606.859 211.086L627.146 217.234L626.974 217.537L606.859 211.441L586.662 217.563Z" fill="#287E74" fill-opacity="0.36"/>
<path d="M586.662 211.724L566.466 205.602L546.269 211.724L526.073 205.602L505.877 211.724L485.68 205.602L465.484 211.724L445.287 205.602L425.091 211.724L404.885 205.602L384.689 211.724L364.492 205.602L344.287 211.724L324 205.575L324.172 205.266L344.287 211.369L364.492 205.24L384.689 211.369L404.885 205.24L425.091 211.369L445.287 205.24L465.484 211.369L485.68 205.24L505.877 211.369L526.073 205.24L546.269 211.369L566.466 205.24L586.662 211.369L606.859 205.24L627.146 211.395L626.974 211.697L606.859 205.602L586.662 211.724Z" fill="#287E74" fill-opacity="0.36"/>
<path d="M586.662 205.884L566.466 199.762L546.269 205.884L526.073 199.762L505.877 205.884L485.68 199.762L465.484 205.884L445.287 199.762L425.091 205.884L404.885 199.762L384.689 205.884L364.492 199.762L344.287 205.884L324 199.736L324.172 199.427L344.287 205.529L364.492 199.401L384.689 205.529L404.885 199.401L425.091 205.529L445.287 199.401L465.484 205.529L485.68 199.401L505.877 205.529L526.073 199.401L546.269 205.529L566.466 199.401L586.662 205.529L606.859 199.401L627.146 205.556L626.974 205.858L606.859 199.762L586.662 205.884Z" fill="#287E74" fill-opacity="0.36"/>
<path d="M586.662 200.045L566.466 193.916L546.269 200.045L526.073 193.916L505.877 200.045L485.68 193.916L465.484 200.045L445.287 193.916L425.091 200.045L404.885 193.916L384.689 200.045L364.492 193.916L344.287 200.045L324 193.89L324.172 193.587L344.287 199.69L364.492 193.561L384.689 199.69L404.885 193.561L425.091 199.69L445.287 193.561L465.484 199.69L485.68 193.561L505.877 199.69L526.073 193.561L546.269 199.69L566.466 193.561L586.662 199.69L606.859 193.561L627.146 199.716L626.974 200.019L606.859 193.916L586.662 200.045Z" fill="#287E74" fill-opacity="0.36"/>
<path d="M586.662 194.206L566.466 188.077L546.269 194.206L526.073 188.077L505.877 194.206L485.68 188.077L465.484 194.206L445.287 188.077L425.091 194.206L404.885 188.077L384.689 194.206L364.492 188.077L344.287 194.206L324 188.051L324.172 187.748L344.287 193.844L364.492 187.722L384.689 193.844L404.885 187.722L425.091 193.844L445.287 187.722L465.484 193.844L485.68 187.722L505.877 193.844L526.073 187.722L546.269 193.844L566.466 187.722L586.662 193.844L606.859 187.722L627.146 193.87L626.974 194.179L606.859 188.077L586.662 194.206Z" fill="#287E74" fill-opacity="0.36"/>
<path d="M586.662 188.36L566.466 182.237L546.269 188.36L526.073 182.237L505.877 188.36L485.68 182.237L465.484 188.36L445.287 182.237L425.091 188.36L404.885 182.237L384.689 188.36L364.492 182.237L344.287 188.36L324 182.211L324.172 181.909L344.287 188.005L364.492 181.882L384.689 188.005L404.885 181.882L425.091 188.005L445.287 181.882L465.484 188.005L485.68 181.882L505.877 188.005L526.073 181.882L546.269 188.005L566.466 181.882L586.662 188.005L606.859 181.882L627.146 188.031L626.974 188.333L606.859 182.237L586.662 188.36Z" fill="#287E74" fill-opacity="0.36"/>
<path d="M586.662 182.52L566.466 176.398L546.269 182.52L526.073 176.398L505.877 182.52L485.68 176.398L465.484 182.52L445.287 176.398L425.091 182.52L404.885 176.398L384.689 182.52L364.492 176.398L344.287 182.52L324 176.372L324.172 176.069L344.287 182.165L364.492 176.043L384.689 182.165L404.885 176.043L425.091 182.165L445.287 176.043L465.484 182.165L485.68 176.043L505.877 182.165L526.073 176.043L546.269 182.165L566.466 176.043L586.662 182.165L606.859 176.043L627.146 182.191L626.974 182.494L606.859 176.398L586.662 182.52Z" fill="#287E74" fill-opacity="0.36"/>
<path d="M586.662 176.681L566.466 170.559L546.269 176.681L526.073 170.559L505.877 176.681L485.68 170.559L465.484 176.681L445.287 170.559L425.091 176.681L404.885 170.559L384.689 176.681L364.492 170.559L344.287 176.681L324 170.532L324.172 170.23L344.287 176.326L364.492 170.203L384.689 176.326L404.885 170.203L425.091 176.326L445.287 170.203L465.484 176.326L485.68 170.203L505.877 176.326L526.073 170.203L546.269 176.326L566.466 170.203L586.662 176.326L606.859 170.203L627.146 176.352L626.974 176.654L606.859 170.559L586.662 176.681Z" fill="#287E74" fill-opacity="0.36"/>
<path d="M586.662 170.841L566.466 164.719L546.269 170.841L526.073 164.719L505.877 170.841L485.68 164.719L465.484 170.841L445.287 164.719L425.091 170.841L404.885 164.719L384.689 170.841L364.492 164.719L344.287 170.841L324 164.693L324.172 164.384L344.287 170.486L364.492 164.358L384.689 170.486L404.885 164.358L425.091 170.486L445.287 164.358L465.484 170.486L485.68 164.358L505.877 170.486L526.073 164.358L546.269 170.486L566.466 164.358L586.662 170.486L606.859 164.358L627.146 170.513L626.974 170.815L606.859 164.719L586.662 170.841Z" fill="#287E74" fill-opacity="0.36"/>
<path d="M586.662 165.002L566.466 158.88L546.269 165.002L526.073 158.88L505.877 165.002L485.68 158.88L465.484 165.002L445.287 158.88L425.091 165.002L404.885 158.88L384.689 165.002L364.492 158.88L344.287 165.002L324 158.854L324.172 158.545L344.287 164.647L364.492 158.518L384.689 164.647L404.885 158.518L425.091 164.647L445.287 158.518L465.484 164.647L485.68 158.518L505.877 164.647L526.073 158.518L546.269 164.647L566.466 158.518L586.662 164.647L606.859 158.518L627.146 164.673L626.974 164.976L606.859 158.88L586.662 165.002Z" fill="#287E74" fill-opacity="0.36"/>
<path d="M586.662 159.163L566.466 153.034L546.269 159.163L526.073 153.034L505.877 159.163L485.68 153.034L465.484 159.163L445.287 153.034L425.091 159.163L404.885 153.034L384.689 159.163L364.492 153.034L344.287 159.163L324 153.008L324.172 152.705L344.287 158.808L364.492 152.679L384.689 158.808L404.885 152.679L425.091 158.808L445.287 152.679L465.484 158.808L485.68 152.679L505.877 158.808L526.073 152.679L546.269 158.808L566.466 152.679L586.662 158.808L606.859 152.679L627.146 158.834L626.974 159.136L606.859 153.034L586.662 159.163Z" fill="#287E74" fill-opacity="0.36"/>
<path d="M586.662 153.323L566.466 147.195L546.269 153.323L526.073 147.195L505.877 153.323L485.68 147.195L465.484 153.323L445.287 147.195L425.091 153.323L404.885 147.195L384.689 153.323L364.492 147.195L344.287 153.323L324 147.168L324.172 146.866L344.287 152.962L364.492 146.839L384.689 152.962L404.885 146.839L425.091 152.962L445.287 146.839L465.484 152.962L485.68 146.839L505.877 152.962L526.073 146.839L546.269 152.962L566.466 146.839L586.662 152.962L606.859 146.839L627.146 152.988L626.974 153.297L606.859 147.195L586.662 153.323Z" fill="#287E74" fill-opacity="0.36"/>
<path d="M586.662 147.484L566.466 141.355L546.269 147.484L526.073 141.355L505.877 147.484L485.68 141.355L465.484 147.484L445.287 141.355L425.091 147.484L404.885 141.355L384.689 147.484L364.492 141.355L344.287 147.484L324 141.329L324.172 141.026L344.287 147.122L364.492 141L384.689 147.122L404.885 141L425.091 147.122L445.287 141L465.484 147.122L485.68 141L505.877 147.122L526.073 141L546.269 147.122L566.466 141L586.662 147.122L606.859 141L627.146 147.148L626.974 147.458L606.859 141.355L586.662 147.484Z" fill="#287E74" fill-opacity="0.36"/>
</g>
<g clip-path="url(#clip0_330_198)">
<path d="M604.13 456.293C609.38 447.949 606.757 424.111 606.757 424.111L712.722 381.438C712.722 381.438 712.722 463.916 727.759 478.233C727.759 478.233 699.118 499.213 665.466 499.213C631.815 499.213 604.13 456.293 604.13 456.293Z" fill="#FFCEBA"/>
<path d="M604.925 436.508C604.925 436.508 625.929 449.621 639.611 452.241C653.293 454.862 667.623 452.325 684.084 442.777C695.302 436.269 717.113 392.686 717.113 392.686L711.523 374.899L600.821 419.813L604.925 436.508Z" fill="#E88E80"/>
<path d="M565.945 366.181C569.285 380.246 594.823 417.912 601.507 423.156C608.19 428.4 628.952 439.845 639.452 442.229C649.953 444.613 669.764 438.892 679.311 431.264C688.858 423.635 718.45 385.969 720.36 372.381C722.27 358.792 720.36 341.627 720.36 341.627C741.928 344.964 754.251 280.836 737.067 274.4C719.883 267.963 710.813 291.325 710.813 291.325C617.974 291.564 562.602 352.116 565.945 366.181Z" fill="#FFCEBA"/>
<path d="M719.406 326.131L721.076 351.907L725.414 349.231C725.414 349.231 723.697 335.844 719.406 326.131Z" fill="#E88E80"/>
<path d="M739.834 306.772C742.638 301.944 737.759 281.356 732.334 279.734C726.909 278.113 718.802 291.091 718.855 297.419C722.634 289.308 726.355 285.305 730.384 285.256C734.412 285.206 739.033 298.044 739.834 306.772Z" fill="#E88E80"/>
<path d="M720.896 299.261C718.893 300.114 718.79 301.829 719.419 304.282C720.049 306.734 726.922 312.726 725.159 315.443C723.395 318.16 717.824 319.14 717.992 321.512C718.16 323.883 736.965 321.141 735.69 309.741C734.416 298.34 722.9 298.409 720.896 299.261Z" fill="#E88E80"/>
<path d="M614.908 401.553C618.382 403.42 657.328 392.929 673.942 382.334C671.312 382.054 650.009 384.491 647.195 385.614C644.381 386.738 641.655 390.208 639.309 390.958C636.963 391.709 633.211 391.105 629.83 392.042C626.449 392.978 614.908 401.553 614.908 401.553Z" fill="#E88E80"/>
<path d="M637.34 409.614C645.384 407.809 653.313 405.523 661.083 402.767C650.29 412.521 637.34 409.614 637.34 409.614Z" fill="#E88E80"/>
<path d="M626.372 363.85C621.897 363.196 618.167 361.892 616.488 362.639C614.808 363.386 613.88 364.313 614.438 366.178C614.995 368.042 620.202 364.13 626.372 363.85Z" fill="#E88E80"/>
<path d="M631.669 361.406C635.53 357.933 638.253 354.294 640.34 353.958C642.428 353.622 643.927 353.937 644.6 356.109C645.273 358.281 637.745 357.777 631.669 361.406Z" fill="#E88E80"/>
<path d="M645.896 347.783C645.896 347.783 653.854 356.408 645.272 361.985C653.604 359.109 651.504 353.395 650.741 351.241C649.977 349.088 645.896 347.783 645.896 347.783Z" fill="#E88E80"/>
<path d="M609.621 357.282C609.621 357.282 605.801 368.406 617.872 370.087C609.77 371.764 607.57 366.523 607.306 363.828C607.202 362.635 607.356 361.434 607.755 360.305C608.154 359.176 608.79 358.146 609.621 357.282V357.282Z" fill="#E88E80"/>
<path d="M712.963 309.682C711.371 290.042 715.798 282.557 715.798 282.557C715.798 282.557 718.447 276.553 727.757 273.285C722.027 236.979 709.373 229.114 709.373 229.114C709.373 229.114 711.76 226.967 716.294 229.114C709.127 216.954 696.006 215.526 696.006 215.526C696.006 215.526 693.62 200.505 673.812 193.829C679.302 198.597 677.632 202.889 677.632 202.889C677.632 202.889 650.661 190.732 620.112 190.732C630.376 193.829 632.523 200.505 632.523 200.505C632.523 200.505 593.144 193.829 580.487 199.789C590.751 199.789 594.821 204.558 594.821 204.558C594.821 204.558 564.986 205.273 554.962 215.762C565.799 212.426 574.533 216.718 574.533 216.718C574.533 216.718 542.791 226.73 529.664 250.21C537.064 247.72 542.551 250.21 542.551 250.21C535.871 261.773 540.059 281.667 540.059 281.667C540.059 281.667 631.897 252.236 655.484 255.336C679.071 258.436 694.345 281.082 701.506 288.234C708.666 295.386 712.963 309.682 712.963 309.682Z" fill="url(#paint0_linear_330_198)"/>
<path d="M687.982 247.698C687.982 247.698 723.781 255.168 727.76 260.571C728.912 262.126 729.661 263.941 729.938 265.855C730.215 267.769 730.013 269.722 729.349 271.539C729.349 271.539 710.965 278.212 703.447 280.914L687.982 247.698Z" fill="#0C0A14"/>
<path d="M544.969 371.005L530.801 361.668L695.912 299.731L676.139 241.162C700.131 244.997 711.292 299.737 711.292 299.737L712.012 305.71C712.612 310.701 711.376 315.74 708.535 319.888C705.694 324.037 701.441 327.014 696.567 328.266L646.88 341.026C646.88 341.026 610.923 340.451 604.386 355.431L570.753 372.449C562.274 376.959 551.381 374.488 544.969 371.005Z" fill="url(#paint1_linear_330_198)"/>
<path d="M512.685 307.618L657.515 239.457L662.295 239.062C669.657 238.42 676.99 240.569 682.838 245.081C687.69 248.866 689.768 251.066 693.41 257.412C697.053 263.758 702.256 285.648 702.256 285.648C706.871 303.292 697.458 315.066 684.374 319.548C684.374 319.548 635.726 333.759 615.538 341.058C595.35 348.356 552.142 366.579 552.142 366.579C539.348 370.961 526.28 360.712 522.541 350.158C518.802 339.604 510.591 319.713 512.685 307.618Z" fill="url(#paint2_linear_330_198)"/>
<path d="M527.315 286.373L645.342 242.719C668.608 233.883 675.566 243.288 679.015 252.955L686.98 275.221C692.277 289.999 687.092 310.036 672.335 315.399L552.501 358.932C549.604 359.983 546.527 360.449 543.448 360.304C540.369 360.159 537.35 359.404 534.565 358.085C531.781 356.765 529.286 354.907 527.226 352.617C525.165 350.327 523.58 347.652 522.563 344.746L514.2 317.416C509.856 304.997 514.926 290.845 527.315 286.373Z" fill="url(#paint3_linear_330_198)"/>
<path d="M548.522 284.172C548.522 284.172 540.885 300.195 543.988 308.038C547.091 315.881 556.209 307.298 560.216 316.13C564.223 324.963 556.399 352.415 556.399 352.415L585.205 341.285C585.205 341.285 590.05 311.602 581.466 304.926C572.882 298.25 564.998 300.799 557.125 299.762C549.251 298.726 548.522 284.172 548.522 284.172Z" fill="url(#paint4_linear_330_198)"/>
<path d="M517.892 464.943C517.892 464.943 566.656 442.257 600.314 450.162C600.314 450.162 645.494 518.012 723.463 479.089C724.087 474.638 719.703 459.845 719.703 459.845C719.703 459.845 755.286 456.54 793.384 464.632C859.497 480.128 926.991 578.109 926.991 578.109V645.555V713H582.173C582.173 713 567.569 673.631 565.802 654.879C565.802 654.879 550.908 697.983 514.078 691.749C455.845 681.895 418.613 549.513 418.613 526.304C418.613 503.095 517.892 464.943 517.892 464.943Z" fill="url(#paint5_linear_330_198)"/>
<path d="M586.629 541.221C581.856 604.655 565.803 654.879 565.803 654.879L570.296 676.355C581.856 658.381 586.629 608.791 586.629 608.791C586.629 608.791 593.285 589.024 611.451 590.677C600.632 582.411 588.627 591.629 588.627 591.629C588.627 591.629 593.313 560.154 586.629 541.221Z" fill="#0B0838"/>
<path d="M500.687 499.207C500.687 499.207 545.898 501.669 547.17 580.752C538.579 513.748 504.69 512.538 504.69 512.538L500.687 499.207Z" fill="#0B0838"/>
<path d="M824.338 523.92C821.316 545.706 866.185 713 866.185 713H874.779C874.779 713 846.614 606.961 845.661 589.08C844.707 571.2 849.559 557.135 849.559 557.135C849.559 557.135 841.127 564.051 840.17 574.539C832.901 562.603 828.476 535.681 824.338 523.92Z" fill="#0B0838"/>
<path opacity="0.2" d="M354.506 650.628H599.737C615.741 650.628 628.715 637.669 628.715 621.683V376.729C628.715 360.743 615.741 347.783 599.737 347.783L354.506 347.783C338.502 347.783 325.529 360.743 325.529 376.729L325.529 621.683C325.529 637.669 338.502 650.628 354.506 650.628Z" fill="#7B61FF"/>
<path d="M599.735 652.184H354.513C346.418 652.175 338.656 648.958 332.931 643.24C327.207 637.522 323.987 629.769 323.978 621.683V376.738C323.987 368.651 327.207 360.898 332.931 355.18C338.656 349.462 346.418 346.246 354.513 346.236H599.735C607.83 346.246 615.592 349.462 621.317 355.18C627.041 360.898 630.261 368.651 630.27 376.738V621.683C630.261 629.769 627.041 637.522 621.317 643.24C615.592 648.958 607.83 652.175 599.735 652.184V652.184ZM354.513 349.349C347.244 349.357 340.274 352.245 335.134 357.38C329.993 362.515 327.102 369.476 327.093 376.738V621.683C327.102 628.944 329.993 635.906 335.134 641.04C340.274 646.175 347.244 649.063 354.513 649.072H599.735C607.004 649.063 613.974 646.175 619.114 641.04C624.255 635.906 627.146 628.944 627.154 621.683V376.738C627.147 369.476 624.256 362.514 619.115 357.379C613.975 352.244 607.004 349.356 599.735 349.349H354.513Z" fill="#7B61FF"/>
<path d="M469.923 571.499C466.371 571.497 462.826 571.185 459.328 570.565C448.597 568.663 438.788 564.044 430.955 557.203L433.005 554.86C448.195 568.125 470.708 572.124 489.048 564.819C505.777 558.153 516.035 543.241 517.939 522.836L521.054 523.126C519.038 544.754 508.086 560.587 490.207 567.711C483.748 570.249 476.864 571.535 469.923 571.499V571.499Z" fill="#7B61FF"/>
<path d="M531.253 537.863L528.277 536.929C528.32 536.789 532.683 522.472 531.583 506.636C530.134 485.746 520.322 472.201 502.418 466.378L503.384 463.418C513.978 466.86 522.026 472.963 527.336 481.557C531.558 488.404 534.035 496.786 534.699 506.506C535.817 522.92 531.439 537.262 531.253 537.863Z" fill="#7B61FF"/>
<path d="M442.534 585.548C425.356 579.781 412.703 571.144 404.925 559.874C398.67 550.809 395.674 539.896 396.425 528.912C397.419 513.26 405.271 500.9 411.693 499.63L412.316 502.684C407.733 503.599 400.476 514.349 399.541 529.111C398.818 540.509 401.657 568.539 443.531 582.6L442.534 585.548Z" fill="#7B61FF"/>
<path d="M506.438 518.358L499.754 496.107C512.801 484.822 516.992 472.161 521.818 462.677C526.645 453.194 555.922 429.997 563.241 420.454C570.56 410.912 564.989 391.198 545.898 395.82C526.807 400.442 511.688 424.429 492.117 425.861C492.117 425.861 469.994 396.775 460.694 362.128C451.393 327.481 424.655 257.864 418.451 248.175C412.248 238.486 389.333 238.321 393.63 259.379C397.927 280.438 427.593 357.469 422.222 374.898C422.222 374.898 399.117 333.193 390.128 324.621C381.138 316.05 343.988 292.517 327.757 282.744C311.526 272.971 293.709 290.609 310.573 305.39C327.436 320.17 347.811 333.361 360.455 344.011C373.099 354.662 385.276 388.83 385.276 388.83C385.276 388.83 352.578 365.67 341.838 360.323C331.097 354.976 290.843 343.852 274.774 341.468C258.705 339.084 256.795 353.706 267.773 362.605C278.75 371.503 319.007 381.836 326.644 384.702C334.282 387.569 359.421 413.15 359.421 413.15C359.421 413.15 327.95 401.88 316.462 401.391C304.973 400.902 276.544 399.166 259.977 402.014C243.409 404.861 248.202 422.197 259.977 424.112C271.752 426.026 302.459 426.443 314.393 428.562C326.327 430.682 348.559 441.588 352.26 447.473C355.962 453.359 385.036 502.942 417.735 511.84L424.178 530.437C424.178 530.437 443.59 562.062 477.878 553.083C512.165 544.103 506.438 518.358 506.438 518.358Z" fill="#FFCEBA"/>
<path d="M464.75 501.828C491.322 502.621 499.754 496.107 499.754 496.107L502.368 504.822C502.368 504.822 480.981 510.888 464.75 501.828Z" fill="#E88E80"/>
<path d="M417.734 511.84C417.734 511.84 431.338 512.463 446.454 503.894C436.589 517.881 420.199 519.456 420.199 519.456L417.734 511.84Z" fill="#E88E80"/>
<path d="M492.117 425.861C484.88 426.843 477.543 426.843 470.306 425.861C487.967 424.569 489.718 422.54 489.718 422.54L492.117 425.861Z" fill="#E88E80"/>
<path d="M376.604 458.124C381.845 453.451 386.916 448.662 391.816 443.757C396.724 438.842 401.457 433.779 405.931 428.506C406.489 427.843 407.056 427.193 407.605 426.524L409.24 424.513C409.795 423.85 410.315 423.162 410.854 422.487L411.655 421.469L412.44 420.436C414.556 417.706 416.538 414.877 418.476 412.014L419.909 409.854L421.286 407.653C421.517 407.286 421.757 406.925 421.975 406.551L422.633 405.434C423.069 404.687 423.536 403.949 423.951 403.19C425.695 400.183 427.228 397.065 428.793 393.915C428.341 395.605 427.908 397.32 427.313 398.976C427.176 399.393 427.035 399.813 426.889 400.221C426.742 400.629 426.599 401.055 426.431 401.466L425.462 403.928C425.306 404.342 425.119 404.74 424.938 405.142L424.393 406.349C424.035 407.155 423.664 407.958 423.259 408.743L422.056 411.108L420.769 413.424C419.02 416.498 417.113 419.48 415.058 422.359C414.802 422.72 414.553 423.084 414.291 423.439L413.497 424.501C412.961 425.204 412.444 425.92 411.895 426.611L410.241 428.68C409.683 429.368 409.11 430.041 408.542 430.716C403.967 436.087 398.988 441.101 393.648 445.715C390.981 448.018 388.239 450.228 385.404 452.31C383.977 453.34 382.553 454.37 381.085 455.338C379.618 456.306 378.138 457.262 376.604 458.124Z" fill="#E88E80"/>
<path d="M462.84 405.515C462.376 405.674 461.905 405.826 461.444 405.973L460.746 406.197C460.516 406.274 460.288 406.368 460.061 406.452L458.69 406.95C458.238 407.13 457.796 407.326 457.35 407.513L456.683 407.796L456.029 408.108C455.596 408.319 455.156 408.509 454.733 408.73L453.486 409.421C453.066 409.648 452.673 409.922 452.268 410.168C450.672 411.174 449.179 412.335 447.809 413.632C446.474 414.928 445.285 416.366 444.263 417.921C442.25 421.045 440.873 424.535 440.213 428.192C439.862 430.031 439.639 431.893 439.543 433.763C439.435 435.649 439.435 437.539 439.543 439.424C439.636 441.317 439.817 443.212 440.069 445.105C440.322 446.997 440.636 448.883 441.004 450.766C441.372 452.649 441.799 454.523 442.25 456.393C442.702 458.264 443.226 460.128 443.765 461.977C444.846 465.69 446.07 469.372 447.388 473.029C448.707 476.686 450.124 480.318 451.626 483.922C449.485 480.628 447.551 477.204 445.837 473.67C444.104 470.13 442.557 466.503 441.203 462.802C439.837 459.083 438.707 455.283 437.82 451.423C437.377 449.487 437.003 447.529 436.713 445.553C436.424 443.576 436.227 441.584 436.118 439.58C435.886 435.532 436.2 431.471 437.053 427.507C437.91 423.474 439.621 419.672 442.073 416.355C443.31 414.718 444.739 413.234 446.329 411.936C447.913 410.67 449.632 409.582 451.455 408.693C453.253 407.817 455.131 407.115 457.063 406.598C458.958 406.088 460.889 405.726 462.84 405.515Z" fill="#E88E80"/>
<path d="M426.802 424.569C425.774 427.375 424.456 430.066 422.87 432.599C421.311 435.149 419.563 437.58 417.641 439.869C416.707 441.03 415.669 442.117 414.653 443.212C414.12 443.738 413.591 444.267 413.052 444.768C412.781 445.027 412.519 445.294 412.238 445.543L411.394 446.281C409.16 448.27 406.726 450.022 404.131 451.51C406.156 449.303 408.244 447.252 410.194 445.058C411.204 444 412.142 442.879 413.13 441.799L414.554 440.134C415.043 439.589 415.488 439.023 415.968 438.46C417.838 436.221 419.669 433.938 421.461 431.612C423.259 429.312 425.02 426.972 426.802 424.569Z" fill="#E88E80"/>
<path d="M364.194 419.978C364.371 420.527 364.505 421.089 364.593 421.659C364.689 422.23 364.754 422.805 364.786 423.383C364.851 424.547 364.808 425.714 364.658 426.869C364.355 429.212 363.624 431.479 362.502 433.558C361.369 435.641 359.841 437.483 358.002 438.982C356.194 440.452 354.107 441.54 351.867 442.182C353.632 440.825 355.293 439.337 356.834 437.731C358.288 436.152 359.544 434.401 360.573 432.518C361.596 430.62 362.4 428.612 362.969 426.533C363.281 425.484 363.505 424.413 363.708 423.321C363.91 422.229 364.081 421.121 364.194 419.978Z" fill="#E88E80"/>
<path d="M383.877 390.557C383.889 391.23 383.848 391.904 383.755 392.571C383.668 393.24 383.543 393.904 383.381 394.559C383.062 395.88 382.616 397.167 382.051 398.403C380.913 400.914 379.308 403.186 377.321 405.098C377.065 405.331 376.822 405.574 376.557 405.798L375.766 406.461C375.495 406.676 375.211 406.872 374.934 407.084C374.66 407.292 374.375 407.486 374.08 407.666C372.928 408.412 371.706 409.046 370.432 409.558C367.917 410.571 365.235 411.105 362.523 411.133C364.991 410.286 367.387 409.245 369.69 408.02C370.804 407.408 371.877 406.725 372.903 405.976C373.926 405.237 374.894 404.426 375.8 403.548C376.711 402.671 377.564 401.735 378.352 400.747C379.139 399.752 379.867 398.713 380.533 397.634C381.889 395.408 383.008 393.045 383.87 390.585L383.877 390.557Z" fill="#E88E80"/>
<path d="M420.692 377.058C420.356 377.773 419.964 378.46 419.52 379.113C419.082 379.771 418.607 380.405 418.099 381.011C417.079 382.237 415.943 383.362 414.706 384.369C412.21 386.416 409.345 387.967 406.265 388.938C405.499 389.197 404.707 389.374 403.928 389.561C403.134 389.701 402.342 389.872 401.541 389.944C400.741 390.015 399.937 390.081 399.136 390.118C398.734 390.118 398.332 390.118 397.933 390.118C397.534 390.118 397.132 390.118 396.734 390.065C393.567 389.845 390.463 389.073 387.563 387.784C390.609 388.228 393.687 388.418 396.765 388.353C397.142 388.353 397.519 388.322 397.896 388.291C398.273 388.26 398.647 388.247 399.021 388.21C399.768 388.107 400.516 388.051 401.252 387.899C402.731 387.667 404.189 387.32 405.614 386.859C408.477 385.956 411.198 384.653 413.697 382.991C414.969 382.158 416.188 381.247 417.345 380.261C418.53 379.268 419.648 378.198 420.692 377.058V377.058Z" fill="#E88E80"/>
<path d="M457.297 370.98C456.886 371.526 456.429 372.036 455.932 372.505C455.439 372.978 454.919 373.422 454.374 373.834C453.284 374.667 452.113 375.389 450.878 375.988C448.38 377.212 445.665 377.932 442.889 378.107C442.194 378.16 441.496 378.148 440.804 378.145C440.112 378.142 439.414 378.07 438.729 377.964C438.043 377.858 437.361 377.737 436.685 377.6C436.348 377.519 436.018 377.429 435.685 377.339C435.351 377.248 435.021 377.155 434.697 377.027C432.107 376.168 429.695 374.847 427.577 373.128C430.04 374.059 432.569 374.805 435.143 375.359C435.454 375.434 435.766 375.487 436.077 375.533C436.389 375.58 436.701 375.645 437.012 375.692C437.635 375.751 438.28 375.86 438.919 375.885C440.185 375.99 441.457 375.998 442.724 375.91C445.274 375.75 447.791 375.239 450.202 374.391C451.43 373.97 452.63 373.475 453.797 372.907C455.003 372.338 456.171 371.694 457.297 370.98Z" fill="#E88E80"/>
<path d="M438.629 310.945C438.403 311.413 438.134 311.859 437.826 312.277C437.522 312.701 437.192 313.105 436.838 313.488C436.124 314.262 435.329 314.957 434.467 315.561C432.718 316.795 430.734 317.654 428.637 318.085C428.113 318.203 427.584 318.266 427.054 318.337C426.524 318.409 425.988 318.424 425.452 318.412C424.916 318.399 424.39 318.381 423.86 318.34C423.33 318.3 422.807 318.219 422.302 318.104C420.25 317.701 418.298 316.896 416.56 315.735C418.526 316.076 420.511 316.298 422.505 316.401C422.748 316.42 422.991 316.42 423.231 316.401H423.954C424.433 316.37 424.91 316.383 425.387 316.326C426.33 316.26 427.267 316.128 428.191 315.931C430.062 315.541 431.876 314.913 433.588 314.064C434.467 313.636 435.322 313.161 436.149 312.641C437.005 312.119 437.833 311.553 438.629 310.945V310.945Z" fill="#E88E80"/>
<path d="M388.759 331.518C388.76 332.102 388.708 332.684 388.603 333.258C388.508 333.837 388.375 334.408 388.205 334.97C387.864 336.102 387.402 337.195 386.827 338.228C385.662 340.329 384.07 342.163 382.154 343.613C381.2 344.338 380.175 344.964 379.094 345.48C378.826 345.617 378.555 345.735 378.277 345.847C378 345.96 377.729 346.081 377.449 346.181C376.885 346.37 376.33 346.576 375.754 346.71C373.488 347.317 371.13 347.496 368.799 347.239C370.975 346.656 373.112 345.937 375.199 345.088C375.713 344.892 376.199 344.634 376.698 344.413C376.941 344.294 377.177 344.157 377.421 344.039C377.664 343.921 377.903 343.79 378.134 343.65L378.838 343.246L379.518 342.807C379.751 342.67 379.963 342.495 380.184 342.352C380.406 342.209 380.627 342.041 380.836 341.876C382.558 340.568 384.092 339.027 385.391 337.298C386.057 336.419 386.669 335.5 387.223 334.546C387.797 333.569 388.31 332.558 388.759 331.518V331.518Z" fill="#E88E80"/>
<path d="M344.589 365.393C344.749 365.915 344.862 366.451 344.928 366.993C345.002 367.536 345.042 368.082 345.05 368.63C345.071 369.734 344.978 370.838 344.773 371.923C344.566 373.02 344.253 374.095 343.838 375.132C343.415 376.173 342.893 377.172 342.28 378.114C341.968 378.587 341.635 379.047 341.295 379.48C340.956 379.912 340.575 380.342 340.174 380.725C337.835 383.095 334.846 384.72 331.583 385.393C333.327 384.217 334.99 382.927 336.562 381.531C336.759 381.366 336.933 381.176 337.114 380.999C337.294 380.821 337.488 380.653 337.656 380.463C337.999 380.087 338.354 379.729 338.672 379.337C339.329 378.578 339.931 377.772 340.473 376.928C341.024 376.087 341.52 375.211 341.959 374.307C342.399 373.396 342.787 372.461 343.121 371.506C343.462 370.531 343.753 369.539 343.991 368.534C344.237 367.503 344.439 366.467 344.589 365.393Z" fill="#E88E80"/>
<path d="M319.864 405.836C320.165 406.174 320.432 406.541 320.661 406.931C320.896 407.318 321.104 407.721 321.284 408.136C321.656 408.972 321.933 409.846 322.11 410.744C322.472 412.57 322.442 414.452 322.023 416.265C321.923 416.72 321.78 417.162 321.643 417.607C321.506 418.052 321.331 418.478 321.116 418.895C320.901 419.312 320.699 419.72 320.471 420.121C320.244 420.523 319.985 420.906 319.702 421.264C318.626 422.727 317.254 423.949 315.676 424.849C316.611 423.318 317.511 421.867 318.24 420.37C318.337 420.187 318.424 419.997 318.505 419.807L318.761 419.244C318.904 418.858 319.072 418.491 319.206 418.101C319.488 417.342 319.72 416.564 319.898 415.773C320.265 414.185 320.436 412.557 320.409 410.927C320.387 409.217 320.205 407.512 319.864 405.836Z" fill="#E88E80"/>
<path d="M282.832 406.299C283.374 406.789 283.836 407.361 284.203 407.992C284.578 408.622 284.884 409.291 285.112 409.988C285.58 411.406 285.744 412.906 285.592 414.392C285.444 415.883 284.972 417.324 284.209 418.615C283.469 419.876 282.44 420.943 281.205 421.727C281.741 420.377 282.261 419.141 282.648 417.893C283.029 416.677 283.289 415.426 283.424 414.158C283.551 412.885 283.558 411.604 283.442 410.33C283.316 408.976 283.112 407.63 282.832 406.299V406.299Z" fill="#E88E80"/>
<path d="M298.377 353.09C298.788 353.692 299.103 354.353 299.312 355.051C299.535 355.75 299.68 356.471 299.745 357.201C299.876 358.689 299.692 360.187 299.206 361.599C298.722 363.017 297.934 364.313 296.897 365.396C295.888 366.46 294.641 367.268 293.258 367.756C294.09 366.563 294.875 365.477 295.536 364.354C296.187 363.256 296.726 362.095 297.146 360.89C297.562 359.676 297.859 358.425 298.034 357.155C298.227 355.808 298.341 354.45 298.377 353.09Z" fill="#E88E80"/>
<path d="M346.49 299.927C347.091 301.795 347.007 303.843 346.53 305.776C346.022 307.733 345.081 309.552 343.776 311.098C341.157 314.123 337.477 316.03 333.493 316.426C335.138 315.393 336.721 314.416 338.167 313.314C338.889 312.778 339.584 312.205 340.248 311.599C340.56 311.288 340.903 310.995 341.183 310.665C341.464 310.335 341.785 310.018 342.074 309.688C343.214 308.335 344.158 306.83 344.879 305.215C345.644 303.53 346.185 301.752 346.49 299.927V299.927Z" fill="#E88E80"/>
<path d="M423.926 273.41C423.418 275.302 422.237 276.98 420.788 278.346C419.3 279.717 417.523 280.737 415.588 281.331C414.623 281.619 413.633 281.813 412.631 281.91C409.678 282.165 406.713 281.591 404.068 280.254C406.01 280.276 407.87 280.31 409.677 280.176C410.574 280.117 411.467 280.013 412.354 279.865C412.79 279.775 413.232 279.709 413.659 279.594C414.086 279.479 414.513 279.373 414.937 279.252C416.628 278.731 418.237 277.977 419.72 277.011C421.271 275.996 422.685 274.786 423.926 273.41V273.41Z" fill="#E88E80"/>
</g>
<g filter="url(#filter0_d_330_198)">
<circle cx="384" cy="651" r="40" fill="url(#paint6_linear_330_198)"/>
</g>
<g clip-path="url(#clip1_330_198)">
<path d="M374.278 655.72L375.854 656.263C378.907 657.316 379.005 661.652 375.935 662.801C375.935 663.626 375.32 664.147 374.645 664.147C373.978 664.147 373.355 663.633 373.355 662.801C372.037 662.308 371.095 661.036 371.095 659.547C371.095 658.835 371.673 658.257 372.386 658.257C373.098 658.257 373.676 658.835 373.676 659.547C373.676 660.039 374.077 660.44 374.569 660.44H374.721C375.729 660.44 375.958 659.029 375.012 658.703L373.437 658.16C370.384 657.107 370.285 652.771 373.355 651.622C373.355 650.798 373.971 650.276 374.645 650.276C375.313 650.276 375.935 650.79 375.935 651.622C377.254 652.115 378.195 653.388 378.195 654.876C378.195 655.589 377.617 656.166 376.905 656.166C376.192 656.166 375.614 655.589 375.614 654.876C375.614 654.384 375.214 653.983 374.721 653.983H374.569C373.562 653.983 373.333 655.394 374.278 655.72V655.72ZM385.29 657.212C385.29 663.081 380.515 667.857 374.645 667.857C368.775 667.857 364 663.081 364 657.212C364 651.342 368.775 646.566 374.645 646.566C380.515 646.566 385.29 651.342 385.29 657.212ZM382.71 657.212C382.71 652.765 379.092 649.147 374.645 649.147C370.198 649.147 366.581 652.765 366.581 657.212C366.581 661.658 370.198 665.276 374.645 665.276C379.092 665.276 382.71 661.658 382.71 657.212ZM402.71 665.276H401.823V643.986C401.823 643.273 401.245 642.695 400.532 642.695C399.82 642.695 399.242 643.273 399.242 643.986V665.276H392.71V649.147C392.71 648.434 392.132 647.857 391.419 647.857C390.707 647.857 390.129 648.434 390.129 649.147V665.276H384.645C383.932 665.276 383.355 665.854 383.355 666.566C383.355 667.279 383.932 667.857 384.645 667.857H402.71C403.422 667.857 404 667.279 404 666.566C404 665.854 403.422 665.276 402.71 665.276ZM383.864 648.043L388.476 643.432L390.507 645.463C391.011 645.967 391.828 645.967 392.332 645.463L399.242 638.553V639.147C399.242 639.86 399.82 640.437 400.532 640.437C401.245 640.437 401.823 639.86 401.823 639.147C401.823 635.052 401.829 635.4 401.808 635.255C401.746 634.815 401.457 634.424 401.026 634.245C400.706 634.113 400.805 634.147 396.823 634.147C396.11 634.147 395.532 634.725 395.532 635.437C395.532 636.15 396.11 636.728 396.823 636.728H397.417L391.419 642.725L389.388 640.694C388.884 640.19 388.067 640.19 387.563 640.694L382.039 646.219C381.535 646.722 381.535 647.539 382.039 648.043C382.543 648.547 383.36 648.547 383.864 648.043V648.043Z" fill="white" fill-opacity="0.86"/>
</g>
<ellipse rx="57.3308" ry="56.0532" transform="matrix(0.97863 0.20563 -0.533322 0.845912 226 529.128)" fill="url(#paint7_linear_330_198)"/>
<circle r="56.3602" transform="matrix(0.97863 0.20563 -0.533322 0.845912 225.596 525.265)" fill="white"/>
<g clip-path="url(#clip2_330_198)">
<path d="M269.953 523.429C268.088 526.387 265.202 529.017 261.83 530.829C258.459 532.641 254.832 533.513 251.624 533.282C253.651 533.365 255.912 532.778 258.003 531.624C260.093 530.471 261.879 528.826 263.042 526.982C264.343 524.917 264.764 522.762 264.21 520.992C263.656 519.221 262.173 517.98 260.088 517.54L246.306 514.644L251.877 505.807L265.319 508.632C268.589 509.319 270.914 511.264 271.783 514.039C272.652 516.814 271.994 520.192 269.953 523.429ZM243.542 508.997L243.565 518.989L254.685 501.352L243.542 508.997Z" fill="#FF9900"/>
<path d="M209.638 539.196L209.565 529.423L226.906 501.789C227.409 500.996 228.208 500.303 229.129 499.862C230.05 499.421 231.017 499.269 231.818 499.437L240.792 501.323C241.42 501.455 241.935 501.747 242.287 502.169C242.639 502.592 242.815 503.131 242.798 503.733L242.337 520.041C242.319 520.651 242.101 521.305 241.707 521.936L224.597 549.075L220.932 548.305C220.424 548.198 220.063 547.896 219.928 547.465C219.793 547.034 219.895 546.51 220.212 546.007L235.639 521.539C235.82 521.251 235.917 520.952 235.916 520.676L235.871 506.324L232.247 505.563C231.561 505.419 230.701 505.783 230.327 506.376L209.638 539.196Z" fill="url(#paint8_linear_330_198)"/>
<path opacity="0.2" d="M209.565 529.423L209.592 534.322L228.929 503.646C228.929 503.646 229.294 503.068 230.194 502.659C230.928 502.326 231.327 502.399 231.975 502.535C234.226 503.008 238.192 503.921 239.202 503.907C241.55 503.874 240.102 501.178 240.102 501.178L231.818 499.437C231.017 499.269 230.05 499.421 229.129 499.862C228.208 500.303 227.409 500.996 226.906 501.789L209.565 529.423Z" fill="white"/>
<path d="M233.978 499.876L240.78 501.305C241.408 501.437 241.924 501.729 242.275 502.151C242.627 502.574 242.803 503.113 242.787 503.715L242.325 520.023C242.307 520.634 242.09 521.288 241.695 521.918L224.585 549.057L220.92 548.287C220.412 548.18 220.051 547.878 219.916 547.447C219.781 547.017 219.883 546.492 220.2 545.989L235.627 521.521C235.809 521.234 235.905 520.934 235.904 520.658C235.904 520.658 235.962 509.815 235.859 506.312C235.809 504.614 235.766 503.35 235.599 501.771C235.57 501.495 235.516 501.239 235.329 500.905C235.196 500.666 234.942 500.427 234.727 500.281C234.277 499.974 233.978 499.876 233.978 499.876Z" fill="#FF8C01"/>
<path d="M233.979 499.876L238.2 500.763C238.828 500.895 239.343 501.187 239.695 501.609C240.047 502.032 240.223 502.571 240.206 503.173L239.745 519.481C239.727 520.092 239.509 520.746 239.115 521.376L222.004 548.515L220.92 548.287C220.412 548.18 220.051 547.878 219.916 547.447C219.781 547.017 219.883 546.492 220.2 545.989L235.627 521.521C235.809 521.234 235.905 520.934 235.904 520.658C235.904 520.658 235.962 509.815 235.859 506.312C235.809 504.614 235.766 503.35 235.599 501.771C235.57 501.495 235.516 501.239 235.329 500.905C235.196 500.666 234.942 500.427 234.727 500.281C234.278 499.974 233.979 499.876 233.979 499.876Z" fill="#FFA31A"/>
<path fill-rule="evenodd" clip-rule="evenodd" d="M263.221 520.434C263.083 519.39 262.501 518.544 261.568 518.03C263.117 518.764 264.109 520.057 264.378 521.689C264.646 523.322 264.174 525.194 263.04 526.989C261.737 529.055 259.66 530.862 257.263 532.012C254.867 533.163 252.349 533.563 250.263 533.124L236.475 530.227L239.859 524.86L253.951 527.821C255.319 528.108 256.971 527.846 258.543 527.091C260.114 526.336 261.477 525.151 262.331 523.797C263.046 522.661 263.36 521.479 263.221 520.434ZM215.093 519.659L234.285 523.691L230.904 529.054L211.713 525.021L215.093 519.659Z" fill="url(#paint9_linear_330_198)"/>
<path d="M190.467 531.955C189.534 531.44 188.952 530.594 188.814 529.55C188.675 528.506 188.989 527.323 189.704 526.188C190.558 524.833 191.921 523.648 193.492 522.894C195.064 522.139 196.715 521.877 198.084 522.164L212.176 525.125L215.56 519.758L201.772 516.861C199.686 516.422 197.168 516.822 194.772 517.973C192.375 519.123 190.297 520.93 188.995 522.995C187.861 524.791 187.389 526.663 187.657 528.296C187.925 529.928 188.918 531.221 190.467 531.955Z" fill="url(#paint10_linear_330_198)"/>
<path opacity="0.2" d="M232.583 526.39L213.937 522.472L212.247 525.151L230.894 529.069L232.583 526.39Z" fill="white"/>
<path opacity="0.2" d="M263.497 520.245C263.073 519.243 262.486 518.541 261.552 518.027C263.101 518.761 264.094 520.053 264.362 521.686C264.631 523.319 264.158 525.191 263.025 526.986C261.722 529.052 259.644 530.858 257.248 532.009C254.852 533.159 252.334 533.559 250.247 533.121L236.46 530.224L238.15 527.544L252.242 530.505C256.079 531.175 260.083 529.289 262.384 525.639C264.414 522.419 263.766 521.214 263.497 520.245Z" fill="white"/>
<path d="M188.539 529.74C188.963 530.742 189.55 531.444 190.484 531.958C188.935 531.224 187.942 529.931 187.674 528.299C187.405 526.666 187.878 524.794 189.011 522.999C190.314 520.933 192.392 519.126 194.788 517.976C197.184 516.826 199.703 516.425 201.789 516.864L215.576 519.761L213.886 522.441L199.795 519.48C195.958 518.81 191.953 520.696 189.652 524.346C187.622 527.566 188.27 528.771 188.539 529.74Z" fill="url(#paint11_linear_330_198)"/>
<path d="M269.953 523.429C268.088 526.387 265.202 529.017 261.83 530.829C258.459 532.641 254.832 533.513 251.624 533.282C253.651 533.365 255.912 532.778 258.003 531.624C260.093 530.471 261.879 528.826 263.042 526.982C264.343 524.917 264.764 522.762 264.21 520.992C263.656 519.221 262.173 517.98 260.088 517.54L246.306 514.644L251.877 505.807L265.319 508.632C268.589 509.319 270.914 511.264 271.783 514.039C272.652 516.814 271.994 520.192 269.953 523.429ZM243.542 508.997L243.565 518.989L254.685 501.352L243.542 508.997Z" fill="#FFA31A"/>
<path d="M182.15 526.558C184.015 523.6 186.902 520.97 190.273 519.158C193.645 517.346 197.272 516.474 200.48 516.705C198.452 516.622 196.192 517.209 194.101 518.363C192.01 519.516 190.224 521.161 189.062 523.005C187.76 525.07 187.34 527.225 187.894 528.996C188.448 530.766 189.93 532.008 192.016 532.447L205.798 535.343L200.226 544.18L186.784 541.355C183.515 540.668 181.189 538.723 180.32 535.948C179.451 533.173 180.109 529.796 182.15 526.558ZM208.562 540.99L208.538 530.998L197.418 548.635L208.562 540.99Z" fill="#FFA31A"/>
<path d="M262.875 513.06L249.093 510.164L243.511 508.991L254.654 501.345L251.844 505.8L265.285 508.625C268.555 509.312 270.88 511.257 271.749 514.032C272.618 516.806 271.961 520.183 269.921 523.421C268.057 526.381 265.17 529.012 261.797 530.826C273.708 519.334 266.025 513.721 262.875 513.06Z" fill="#FF8C01"/>
<path d="M189.228 536.928L203.01 539.824L208.592 540.997L197.448 548.642L200.259 544.187L186.817 541.362C183.548 540.675 181.223 538.73 180.354 535.956C179.484 533.181 180.142 529.804 182.182 526.566C184.046 523.607 186.933 520.975 190.305 519.161C178.394 530.653 186.077 536.266 189.228 536.928Z" fill="#FF8C01"/>
<path opacity="0.2" d="M190.535 531.989C189.601 531.474 189.019 530.628 188.881 529.584C188.743 528.54 189.056 527.357 189.771 526.222C190.625 524.867 191.988 523.682 193.56 522.928C195.131 522.173 196.783 521.91 198.151 522.198L212.243 525.159L215.627 519.791L201.84 516.894C199.753 516.456 197.235 516.856 194.839 518.007C192.443 519.157 190.365 520.964 189.062 523.029C187.929 524.825 187.456 526.697 187.725 528.329C187.993 529.962 188.986 531.255 190.535 531.989Z" fill="white"/>
<path d="M188.606 529.774C189.03 530.776 189.617 531.478 190.551 531.992C189.001 531.258 188.009 529.966 187.74 528.333C187.472 526.7 187.945 524.828 189.078 523.033C190.381 520.967 192.459 519.161 194.855 518.01C197.251 516.86 199.769 516.46 201.856 516.898L217.75 520.238L216.06 522.918L199.861 519.514C196.024 518.845 192.02 520.73 189.719 524.38C187.689 527.6 188.337 528.805 188.606 529.774Z" fill="url(#paint12_linear_330_198)"/>
</g>
<g filter="url(#filter1_d_330_198)">
<circle cx="813" cy="102" r="54" fill="url(#paint13_linear_330_198)"/>
</g>
<path d="M793 101.297C793 104.528 795.629 107.156 798.859 107.156C802.09 107.156 804.719 104.528 804.719 101.297C804.719 101.127 804.682 100.96 804.611 100.806L800.681 92.29C802.522 92.1839 804.344 91.7006 805.993 90.876L806.124 90.8107C807.553 90.0963 809.077 89.6119 810.656 89.3684V109.109H815.344V89.3684C816.923 89.612 818.447 90.0964 819.876 90.8106L820.007 90.8759C821.656 91.7005 823.478 92.1838 825.32 92.29L821.389 100.806C821.318 100.96 821.281 101.127 821.281 101.297C821.281 104.528 823.91 107.156 827.141 107.156C830.371 107.156 833 104.528 833 101.297C833 101.127 832.963 100.96 832.892 100.806L828.787 91.9119C830.204 91.4786 831.502 90.7026 832.579 89.6255C833.036 89.1679 833.036 88.4259 832.579 87.9682C832.121 87.5106 831.379 87.5106 830.921 87.9682C829.631 89.2583 827.916 89.9688 826.092 89.9688C824.352 89.9688 822.611 89.5576 821.055 88.7797L820.924 88.7143C819.22 87.8623 817.398 87.2933 815.51 87.023C815.455 87.0152 815.399 87.0112 815.344 87.0112V84.3438C815.344 83.0493 814.294 82 813 82C811.706 82 810.656 83.0493 810.656 84.3438V87.0112C810.601 87.0112 810.545 87.0152 810.49 87.023C808.602 87.2932 806.78 87.8623 805.076 88.7143L804.945 88.7797C803.389 89.5576 801.648 89.9688 799.908 89.9688C798.084 89.9688 796.369 89.2583 795.079 87.9683C794.621 87.5107 793.879 87.5107 793.421 87.9683C792.964 88.4259 792.964 89.1679 793.421 89.6255C794.498 90.7027 795.796 91.4787 797.213 91.912L793.108 100.806C793.037 100.96 793 101.127 793 101.297V101.297ZM824.285 100.125L827.141 93.9371L829.997 100.125H824.285ZM798.859 93.9371L801.715 100.125H796.003L798.859 93.9371Z" fill="white"/>
<path d="M831.828 119.656H824.914C824.914 118.362 823.865 117.312 822.57 117.312H803.43C802.135 117.312 801.086 118.362 801.086 119.656H794.172C793.525 119.656 793 120.181 793 120.828C793 121.475 793.525 122 794.172 122H831.828C832.475 122 833 121.475 833 120.828C833 120.181 832.475 119.656 831.828 119.656Z" fill="white"/>
<path d="M817.883 111.453H808.117C806.823 111.453 805.773 112.502 805.773 113.797V114.969H820.227V113.797C820.227 112.502 819.177 111.453 817.883 111.453Z" fill="white"/>
<g filter="url(#filter2_d_330_198)">
<circle cx="877.5" cy="322.5" r="22.5" fill="#38C976"/>
</g>
<path d="M558.607 718.669L528.034 709.402L497.462 718.669L466.889 709.402L436.317 718.669L405.744 709.402L375.172 718.669L344.599 709.402L314.027 718.669L283.441 709.402L252.868 718.669L222.295 709.402L191.709 718.669L161 709.362L161.26 708.894L191.709 718.132L222.295 708.854L252.868 718.132L283.441 708.854L314.027 718.132L344.599 708.854L375.172 718.132L405.744 708.854L436.317 718.132L466.889 708.854L497.462 718.132L528.034 708.854L558.607 718.132L589.179 708.854L619.889 718.172L619.629 718.629L589.179 709.402L558.607 718.669Z" fill="#287E74" fill-opacity="0.25"/>
<path d="M558.607 709.83L528.034 700.553L497.462 709.83L466.889 700.553L436.317 709.83L405.744 700.553L375.172 709.83L344.599 700.553L314.027 709.83L283.441 700.553L252.868 709.83L222.295 700.553L191.709 709.83L161 700.513L161.26 700.055L191.709 709.292L222.295 700.015L252.868 709.292L283.441 700.015L314.027 709.292L344.599 700.015L375.172 709.292L405.744 700.015L436.317 709.292L466.889 700.015L497.462 709.292L528.034 700.015L558.607 709.292L589.179 700.015L619.889 709.332L619.629 709.79L589.179 700.553L558.607 709.83Z" fill="#287E74" fill-opacity="0.25"/>
<path d="M558.607 700.991L528.034 691.713L497.462 700.991L466.889 691.713L436.317 700.991L405.744 691.713L375.172 700.991L344.599 691.713L314.027 700.991L283.441 691.713L252.868 700.991L222.295 691.713L191.709 700.991L161 691.673L161.26 691.215L191.709 700.443L222.295 691.176L252.868 700.443L283.441 691.176L314.027 700.443L344.599 691.176L375.172 700.443L405.744 691.176L436.317 700.443L466.889 691.176L497.462 700.443L528.034 691.176L558.607 700.443L589.179 691.176L619.889 700.483L619.629 700.951L589.179 691.713L558.607 700.991Z" fill="#287E74" fill-opacity="0.25"/>
<path d="M558.607 692.141L528.034 682.874L497.462 692.141L466.889 682.874L436.317 692.141L405.744 682.874L375.172 692.141L344.599 682.874L314.027 692.141L283.441 682.874L252.868 692.141L222.295 682.874L191.709 692.141L161 682.834L161.26 682.376L191.709 691.604L222.295 682.336L252.868 691.604L283.441 682.336L314.027 691.604L344.599 682.336L375.172 691.604L405.744 682.336L436.317 691.604L466.889 682.336L497.462 691.604L528.034 682.336L558.607 691.604L589.179 682.336L619.889 691.643L619.629 692.111L589.179 682.874L558.607 692.141Z" fill="#287E74" fill-opacity="0.25"/>
<path d="M558.607 683.302L528.034 674.034L497.462 683.302L466.889 674.034L436.317 683.302L405.744 674.034L375.172 683.302L344.599 674.034L314.027 683.302L283.441 674.034L252.868 683.302L222.295 674.034L191.709 683.302L161 673.995L161.26 673.537L191.709 682.764L222.295 673.497L252.868 682.764L283.441 673.497L314.027 682.764L344.599 673.497L375.172 682.764L405.744 673.497L436.317 682.764L466.889 673.497L497.462 682.764L528.034 673.497L558.607 682.764L589.179 673.497L619.889 682.804L619.629 683.262L589.179 674.034L558.607 683.302Z" fill="#287E74" fill-opacity="0.25"/>
<path d="M558.607 674.462L528.034 665.195L497.462 674.462L466.889 665.195L436.317 674.462L405.744 665.195L375.172 674.462L344.599 665.195L314.027 674.462L283.441 665.195L252.868 674.462L222.295 665.195L191.709 674.462L161 665.155L161.26 664.697L191.709 673.925L222.295 664.657L252.868 673.925L283.441 664.657L314.027 673.925L344.599 664.657L375.172 673.925L405.744 664.657L436.317 673.925L466.889 664.657L497.462 673.925L528.034 664.657L558.607 673.925L589.179 664.657L619.889 673.965L619.629 674.423L589.179 665.195L558.607 674.462Z" fill="#287E74" fill-opacity="0.25"/>
<path d="M558.607 665.623L528.034 656.356L497.462 665.623L466.889 656.356L436.317 665.623L405.744 656.356L375.172 665.623L344.599 656.356L314.027 665.623L283.441 656.356L252.868 665.623L222.295 656.356L191.709 665.623L161 656.316L161.26 655.858L191.709 665.086L222.295 655.818L252.868 665.086L283.441 655.818L314.027 665.086L344.599 655.818L375.172 665.086L405.744 655.818L436.317 665.086L466.889 655.818L497.462 665.086L528.034 655.818L558.607 665.086L589.179 655.818L619.889 665.125L619.629 665.583L589.179 656.356L558.607 665.623Z" fill="#287E74" fill-opacity="0.25"/>
<path d="M558.607 656.784L528.034 647.516L497.462 656.784L466.889 647.516L436.317 656.784L405.744 647.516L375.172 656.784L344.599 647.516L314.027 656.784L283.441 647.516L252.868 656.784L222.295 647.516L191.709 656.784L161 647.476L161.26 647.008L191.709 656.246L222.295 646.969L252.868 656.246L283.441 646.969L314.027 656.246L344.599 646.969L375.172 656.246L405.744 646.969L436.317 656.246L466.889 646.969L497.462 656.246L528.034 646.969L558.607 656.246L589.179 646.969L619.889 656.286L619.629 656.744L589.179 647.516L558.607 656.784Z" fill="#287E74" fill-opacity="0.25"/>
<path d="M558.607 647.944L528.034 638.677L497.462 647.944L466.889 638.677L436.317 647.944L405.744 638.677L375.172 647.944L344.599 638.677L314.027 647.944L283.441 638.677L252.868 647.944L222.295 638.677L191.709 647.944L161 638.637L161.26 638.169L191.709 647.407L222.295 638.129L252.868 647.407L283.441 638.129L314.027 647.407L344.599 638.129L375.172 647.407L405.744 638.129L436.317 647.407L466.889 638.129L497.462 647.407L528.034 638.129L558.607 647.407L589.179 638.129L619.889 647.446L619.629 647.904L589.179 638.677L558.607 647.944Z" fill="#287E74" fill-opacity="0.25"/>
<path d="M558.607 639.105L528.034 629.827L497.462 639.105L466.889 629.827L436.317 639.105L405.744 629.827L375.172 639.105L344.599 629.827L314.027 639.105L283.441 629.827L252.868 639.105L222.295 629.827L191.709 639.105L161 629.788L161.26 629.33L191.709 638.567L222.295 629.29L252.868 638.567L283.441 629.29L314.027 638.567L344.599 629.29L375.172 638.567L405.744 629.29L436.317 638.567L466.889 629.29L497.462 638.567L528.034 629.29L558.607 638.567L589.179 629.29L619.889 638.607L619.629 639.065L589.179 629.827L558.607 639.105Z" fill="#287E74" fill-opacity="0.25"/>
<path d="M558.607 630.265L528.034 620.988L497.462 630.265L466.889 620.988L436.317 630.265L405.744 620.988L375.172 630.265L344.599 620.988L314.027 630.265L283.441 620.988L252.868 630.265L222.295 620.988L191.709 630.265L161 620.948L161.26 620.49L191.709 629.718L222.295 620.451L252.868 629.718L283.441 620.451L314.027 629.718L344.599 620.451L375.172 629.718L405.744 620.451L436.317 629.718L466.889 620.451L497.462 629.718L528.034 620.451L558.607 629.718L589.179 620.451L619.889 629.758L619.629 630.226L589.179 620.988L558.607 630.265Z" fill="#287E74" fill-opacity="0.25"/>
<path d="M558.607 621.416L528.034 612.149L497.462 621.416L466.889 612.149L436.317 621.416L405.744 612.149L375.172 621.416L344.599 612.149L314.027 621.416L283.441 612.149L252.868 621.416L222.295 612.149L191.709 621.416L161 612.109L161.26 611.651L191.709 620.879L222.295 611.611L252.868 620.879L283.441 611.611L314.027 620.879L344.599 611.611L375.172 620.879L405.744 611.611L436.317 620.879L466.889 611.611L497.462 620.879L528.034 611.611L558.607 620.879L589.179 611.611L619.889 620.918L619.629 621.376L589.179 612.149L558.607 621.416Z" fill="#287E74" fill-opacity="0.25"/>
<path d="M558.607 612.577L528.034 603.309L497.462 612.577L466.889 603.309L436.317 612.577L405.744 603.309L375.172 612.577L344.599 603.309L314.027 612.577L283.441 603.309L252.868 612.577L222.295 603.309L191.709 612.577L161 603.269L161.26 602.811L191.709 612.039L222.295 602.772L252.868 612.039L283.441 602.772L314.027 612.039L344.599 602.772L375.172 612.039L405.744 602.772L436.317 612.039L466.889 602.772L497.462 612.039L528.034 602.772L558.607 612.039L589.179 602.772L619.889 612.079L619.629 612.537L589.179 603.309L558.607 612.577Z" fill="#287E74" fill-opacity="0.25"/>
<path d="M558.607 603.737L528.034 594.47L497.462 603.737L466.889 594.47L436.317 603.737L405.744 594.47L375.172 603.737L344.599 594.47L314.027 603.737L283.441 594.47L252.868 603.737L222.295 594.47L191.709 603.737L161 594.43L161.26 593.972L191.709 603.2L222.295 593.932L252.868 603.2L283.441 593.932L314.027 603.2L344.599 593.932L375.172 603.2L405.744 593.932L436.317 603.2L466.889 593.932L497.462 603.2L528.034 593.932L558.607 603.2L589.179 593.932L619.889 603.24L619.629 603.697L589.179 594.47L558.607 603.737Z" fill="#287E74" fill-opacity="0.25"/>
<path d="M558.607 594.898L528.034 585.63L497.462 594.898L466.889 585.63L436.317 594.898L405.744 585.63L375.172 594.898L344.599 585.63L314.027 594.898L283.441 585.63L252.868 594.898L222.295 585.63L191.709 594.898L161 585.59L161.26 585.133L191.709 594.36L222.295 585.093L252.868 594.36L283.441 585.093L314.027 594.36L344.599 585.093L375.172 594.36L405.744 585.093L436.317 594.36L466.889 585.093L497.462 594.36L528.034 585.093L558.607 594.36L589.179 585.093L619.889 594.4L619.629 594.858L589.179 585.63L558.607 594.898Z" fill="#287E74" fill-opacity="0.25"/>
<path d="M558.607 586.058L528.034 576.791L497.462 586.058L466.889 576.791L436.317 586.058L405.744 576.791L375.172 586.058L344.599 576.791L314.027 586.058L283.441 576.791L252.868 586.058L222.295 576.791L191.709 586.058L161 576.751L161.26 576.283L191.709 585.521L222.295 576.243L252.868 585.521L283.441 576.243L314.027 585.521L344.599 576.243L375.172 585.521L405.744 576.243L436.317 585.521L466.889 576.243L497.462 585.521L528.034 576.243L558.607 585.521L589.179 576.243L619.889 585.561L619.629 586.019L589.179 576.791L558.607 586.058Z" fill="#287E74" fill-opacity="0.25"/>
<path d="M558.607 577.219L528.034 567.952L497.462 577.219L466.889 567.952L436.317 577.219L405.744 567.952L375.172 577.219L344.599 567.952L314.027 577.219L283.441 567.952L252.868 577.219L222.295 567.952L191.709 577.219L161 567.912L161.26 567.444L191.709 576.682L222.295 567.404L252.868 576.682L283.441 567.404L314.027 576.682L344.599 567.404L375.172 576.682L405.744 567.404L436.317 576.682L466.889 567.404L497.462 576.682L528.034 567.404L558.607 576.682L589.179 567.404L619.889 576.721L619.629 577.179L589.179 567.952L558.607 577.219Z" fill="#287E74" fill-opacity="0.25"/>
<path d="M558.607 568.38L528.034 559.102L497.462 568.38L466.889 559.102L436.317 568.38L405.744 559.102L375.172 568.38L344.599 559.102L314.027 568.38L283.441 559.102L252.868 568.38L222.295 559.102L191.709 568.38L161 559.062L161.26 558.605L191.709 567.842L222.295 558.565L252.868 567.842L283.441 558.565L314.027 567.842L344.599 558.565L375.172 567.842L405.744 558.565L436.317 567.842L466.889 558.565L497.462 567.842L528.034 558.565L558.607 567.842L589.179 558.565L619.889 567.882L619.629 568.34L589.179 559.102L558.607 568.38Z" fill="#287E74" fill-opacity="0.25"/>
<path d="M558.607 559.54L528.034 550.263L497.462 559.54L466.889 550.263L436.317 559.54L405.744 550.263L375.172 559.54L344.599 550.263L314.027 559.54L283.441 550.263L252.868 559.54L222.295 550.263L191.709 559.54L161 550.223L161.26 549.765L191.709 558.993L222.295 549.725L252.868 558.993L283.441 549.725L314.027 558.993L344.599 549.725L375.172 558.993L405.744 549.725L436.317 558.993L466.889 549.725L497.462 558.993L528.034 549.725L558.607 558.993L589.179 549.725L619.889 559.033L619.629 559.5L589.179 550.263L558.607 559.54Z" fill="#287E74" fill-opacity="0.25"/>
<path d="M558.607 550.691L528.034 541.423L497.462 550.691L466.889 541.423L436.317 550.691L405.744 541.423L375.172 550.691L344.599 541.423L314.027 550.691L283.441 541.423L252.868 550.691L222.295 541.423L191.709 550.691L161 541.384L161.26 540.926L191.709 550.153L222.295 540.886L252.868 550.153L283.441 540.886L314.027 550.153L344.599 540.886L375.172 550.153L405.744 540.886L436.317 550.153L466.889 540.886L497.462 550.153L528.034 540.886L558.607 550.153L589.179 540.886L619.889 550.193L619.629 550.651L589.179 541.423L558.607 550.691Z" fill="#287E74" fill-opacity="0.25"/>
<path d="M558.607 541.851L528.034 532.584L497.462 541.851L466.889 532.584L436.317 541.851L405.744 532.584L375.172 541.851L344.599 532.584L314.027 541.851L283.441 532.584L252.868 541.851L222.295 532.584L191.709 541.851L161 532.544L161.26 532.086L191.709 541.314L222.295 532.046L252.868 541.314L283.441 532.046L314.027 541.314L344.599 532.046L375.172 541.314L405.744 532.046L436.317 541.314L466.889 532.046L497.462 541.314L528.034 532.046L558.607 541.314L589.179 532.046L619.889 541.354L619.629 541.812L589.179 532.584L558.607 541.851Z" fill="#287E74" fill-opacity="0.25"/>
<path d="M558.607 533.012L528.034 523.745L497.462 533.012L466.889 523.745L436.317 533.012L405.744 523.745L375.172 533.012L344.599 523.745L314.027 533.012L283.441 523.745L252.868 533.012L222.295 523.745L191.709 533.012L161 523.705L161.26 523.247L191.709 532.474L222.295 523.207L252.868 532.474L283.441 523.207L314.027 532.474L344.599 523.207L375.172 532.474L405.744 523.207L436.317 532.474L466.889 523.207L497.462 532.474L528.034 523.207L558.607 532.474L589.179 523.207L619.889 532.514L619.629 532.972L589.179 523.745L558.607 533.012Z" fill="#287E74" fill-opacity="0.25"/>
<path d="M558.607 524.173L528.034 514.905L497.462 524.173L466.889 514.905L436.317 524.173L405.744 514.905L375.172 524.173L344.599 514.905L314.027 524.173L283.441 514.905L252.868 524.173L222.295 514.905L191.709 524.173L161 514.865L161.26 514.397L191.709 523.635L222.295 514.358L252.868 523.635L283.441 514.358L314.027 523.635L344.599 514.358L375.172 523.635L405.744 514.358L436.317 523.635L466.889 514.358L497.462 523.635L528.034 514.358L558.607 523.635L589.179 514.358L619.889 523.675L619.629 524.133L589.179 514.905L558.607 524.173Z" fill="#287E74" fill-opacity="0.25"/>
<path d="M558.607 515.333L528.034 506.066L497.462 515.333L466.889 506.066L436.317 515.333L405.744 506.066L375.172 515.333L344.599 506.066L314.027 515.333L283.441 506.066L252.868 515.333L222.295 506.066L191.709 515.333L161 506.026L161.26 505.558L191.709 514.796L222.295 505.518L252.868 514.796L283.441 505.518L314.027 514.796L344.599 505.518L375.172 514.796L405.744 505.518L436.317 514.796L466.889 505.518L497.462 514.796L528.034 505.518L558.607 514.796L589.179 505.518L619.889 514.836L619.629 515.293L589.179 506.066L558.607 515.333Z" fill="#287E74" fill-opacity="0.25"/>
<path d="M558.607 506.494L528.034 497.216L497.462 506.494L466.889 497.216L436.317 506.494L405.744 497.216L375.172 506.494L344.599 497.216L314.027 506.494L283.441 497.216L252.868 506.494L222.295 497.216L191.709 506.494L161 497.177L161.26 496.719L191.709 505.956L222.295 496.679L252.868 505.956L283.441 496.679L314.027 505.956L344.599 496.679L375.172 505.956L405.744 496.679L436.317 505.956L466.889 496.679L497.462 505.956L528.034 496.679L558.607 505.956L589.179 496.679L619.889 505.996L619.629 506.454L589.179 497.216L558.607 506.494Z" fill="#287E74" fill-opacity="0.25"/>
<path d="M558.607 497.654L528.034 488.377L497.462 497.654L466.889 488.377L436.317 497.654L405.744 488.377L375.172 497.654L344.599 488.377L314.027 497.654L283.441 488.377L252.868 497.654L222.295 488.377L191.709 497.654L161 488.337L161.26 487.879L191.709 497.107L222.295 487.839L252.868 497.107L283.441 487.839L314.027 497.107L344.599 487.839L375.172 497.107L405.744 487.839L436.317 497.107L466.889 487.839L497.462 497.107L528.034 487.839L558.607 497.107L589.179 487.839L619.889 497.147L619.629 497.615L589.179 488.377L558.607 497.654Z" fill="#287E74" fill-opacity="0.25"/>
<path d="M558.607 488.815L528.034 479.538L497.462 488.815L466.889 479.538L436.317 488.815L405.744 479.538L375.172 488.815L344.599 479.538L314.027 488.815L283.441 479.538L252.868 488.815L222.295 479.538L191.709 488.815L161 479.498L161.26 479.04L191.709 488.267L222.295 479L252.868 488.267L283.441 479L314.027 488.267L344.599 479L375.172 488.267L405.744 479L436.317 488.267L466.889 479L497.462 488.267L528.034 479L558.607 488.267L589.179 479L619.889 488.307L619.629 488.775L589.179 479.538L558.607 488.815Z" fill="#287E74" fill-opacity="0.25"/>
<defs>
<filter id="filter0_d_330_198" x="295" y="562" width="178" height="178" filterUnits="userSpaceOnUse" color-interpolation-filters="sRGB">
<feFlood flood-opacity="0" result="BackgroundImageFix"/>
<feColorMatrix in="SourceAlpha" type="matrix" values="0 0 0 0 0 0 0 0 0 0 0 0 0 0 0 0 0 0 127 0" result="hardAlpha"/>
<feOffset/>
<feGaussianBlur stdDeviation="24.5"/>
<feComposite in2="hardAlpha" operator="out"/>
<feColorMatrix type="matrix" values="0 0 0 0 1 0 0 0 0 0.509804 0 0 0 0 0.180392 0 0 0 1 0"/>
<feBlend mode="normal" in2="BackgroundImageFix" result="effect1_dropShadow_330_198"/>
<feBlend mode="normal" in="SourceGraphic" in2="effect1_dropShadow_330_198" result="shape"/>
</filter>
<filter id="filter1_d_330_198" x="710" y="-1" width="206" height="206" filterUnits="userSpaceOnUse" color-interpolation-filters="sRGB">
<feFlood flood-opacity="0" result="BackgroundImageFix"/>
<feColorMatrix in="SourceAlpha" type="matrix" values="0 0 0 0 0 0 0 0 0 0 0 0 0 0 0 0 0 0 127 0" result="hardAlpha"/>
<feOffset/>
<feGaussianBlur stdDeviation="24.5"/>
<feComposite in2="hardAlpha" operator="out"/>
<feColorMatrix type="matrix" values="0 0 0 0 1 0 0 0 0 0.509804 0 0 0 0 0.180392 0 0 0 0.63 0"/>
<feBlend mode="normal" in2="BackgroundImageFix" result="effect1_dropShadow_330_198"/>
<feBlend mode="normal" in="SourceGraphic" in2="effect1_dropShadow_330_198" result="shape"/>
</filter>
<filter id="filter2_d_330_198" x="836" y="281" width="83" height="83" filterUnits="userSpaceOnUse" color-interpolation-filters="sRGB">
<feFlood flood-opacity="0" result="BackgroundImageFix"/>
<feColorMatrix in="SourceAlpha" type="matrix" values="0 0 0 0 0 0 0 0 0 0 0 0 0 0 0 0 0 0 127 0" result="hardAlpha"/>
<feOffset/>
<feGaussianBlur stdDeviation="9.5"/>
<feComposite in2="hardAlpha" operator="out"/>
<feColorMatrix type="matrix" values="0 0 0 0 0.207843 0 0 0 0 0.835294 0 0 0 0 0.647059 0 0 0 0.94 0"/>
<feBlend mode="normal" in2="BackgroundImageFix" result="effect1_dropShadow_330_198"/>
<feBlend mode="normal" in="SourceGraphic" in2="effect1_dropShadow_330_198" result="shape"/>
</filter>
<linearGradient id="paint0_linear_330_198" x1="545.624" y1="292.638" x2="712.915" y2="227.431" gradientUnits="userSpaceOnUse">
<stop stop-color="#142130"/>
<stop offset="1" stop-color="#20364F"/>
</linearGradient>
<linearGradient id="paint1_linear_330_198" x1="530.801" y1="308.038" x2="712.159" y2="308.038" gradientUnits="userSpaceOnUse">
<stop stop-color="#19181C"/>
<stop offset="0.11" stop-color="#151417"/>
<stop offset="0.46" stop-color="#0D0C0F"/>
<stop offset="1" stop-color="#0A0A0C"/>
</linearGradient>
<linearGradient id="paint2_linear_330_198" x1="709.897" y1="260.201" x2="537.757" y2="343.095" gradientUnits="userSpaceOnUse">
<stop stop-color="#906CF9"/>
<stop offset="0.03" stop-color="#A435D4"/>
<stop offset="0.09" stop-color="#A754D0"/>
<stop offset="0.15" stop-color="#A970CC"/>
<stop offset="0.23" stop-color="#AA86C9"/>
<stop offset="0.32" stop-color="#AB97C7"/>
<stop offset="0.42" stop-color="#ACA2C5"/>
<stop offset="0.58" stop-color="#ADA9C4"/>
<stop offset="1" stop-color="#ADABC4"/>
</linearGradient>
<linearGradient id="paint3_linear_330_198" x1="697.01" y1="241.888" x2="504.499" y2="358.982" gradientUnits="userSpaceOnUse">
<stop stop-color="#A323D7"/>
<stop offset="0.02" stop-color="#9622C6"/>
<stop offset="0.08" stop-color="#751F99"/>
<stop offset="0.15" stop-color="#591D72"/>
<stop offset="0.21" stop-color="#421B53"/>
<stop offset="0.28" stop-color="#301A3B"/>
<stop offset="0.36" stop-color="#23192A"/>
<stop offset="0.43" stop-color="#1B181F"/>
<stop offset="0.53" stop-color="#19181C"/>
<stop offset="1" stop-color="#0A0A0C"/>
</linearGradient>
<linearGradient id="paint4_linear_330_198" x1="546.297" y1="298.829" x2="586.702" y2="351.845" gradientUnits="userSpaceOnUse">
<stop stop-color="#534066"/>
<stop offset="1" stop-color="#0B0B0E"/>
</linearGradient>
<linearGradient id="paint5_linear_330_198" x1="521.359" y1="687.106" x2="631.82" y2="400.471" gradientUnits="userSpaceOnUse">
<stop stop-color="#FF9E0F"/>
<stop offset="1" stop-color="#FF7C0F"/>
</linearGradient>
<linearGradient id="paint6_linear_330_198" x1="360.168" y1="683.168" x2="407.789" y2="618.874" gradientUnits="userSpaceOnUse">
<stop stop-color="#FF9E0F"/>
<stop offset="1" stop-color="#FF7C0F"/>
</linearGradient>
<linearGradient id="paint7_linear_330_198" x1="88.8457" y1="7.66811" x2="22.7671" y2="117.72" gradientUnits="userSpaceOnUse">
<stop stop-color="#F7F4FD"/>
<stop offset="1" stop-color="#906CF9"/>
</linearGradient>
<linearGradient id="paint8_linear_330_198" x1="238.196" y1="500.869" x2="208.935" y2="500.535" gradientUnits="userSpaceOnUse">
<stop offset="0.0220136" stop-color="#3C3B3B"/>
<stop offset="0.370212" stop-color="#5E5D5D"/>
<stop offset="0.976214" stop-color="#5E5D5D"/>
</linearGradient>
<linearGradient id="paint9_linear_330_198" x1="267.876" y1="522.398" x2="220.798" y2="505.954" gradientUnits="userSpaceOnUse">
<stop offset="0.0748513" stop-color="#3C3B3B"/>
<stop offset="0.370212" stop-color="#5E5D5D"/>
<stop offset="1" stop-color="#5E5D5D"/>
</linearGradient>
<linearGradient id="paint10_linear_330_198" x1="185.074" y1="527.779" x2="205.423" y2="537.863" gradientUnits="userSpaceOnUse">
<stop offset="0.0748513" stop-color="#3C3B3B"/>
<stop offset="0.370212" stop-color="#5E5D5D"/>
<stop offset="1" stop-color="#5E5D5D"/>
</linearGradient>
<linearGradient id="paint11_linear_330_198" x1="185.09" y1="527.782" x2="205.44" y2="537.866" gradientUnits="userSpaceOnUse">
<stop offset="0.0748513" stop-color="#3C3B3B"/>
<stop offset="0.370212" stop-color="#5E5D5D"/>
<stop offset="1" stop-color="#5E5D5D"/>
</linearGradient>
<linearGradient id="paint12_linear_330_198" x1="185.079" y1="527.8" x2="207.58" y2="538.663" gradientUnits="userSpaceOnUse">
<stop offset="0.0748513" stop-color="#3C3B3B"/>
<stop offset="0.370212" stop-color="#5E5D5D"/>
<stop offset="1" stop-color="#5E5D5D"/>
</linearGradient>
<linearGradient id="paint13_linear_330_198" x1="780.827" y1="145.427" x2="845.116" y2="58.6295" gradientUnits="userSpaceOnUse">
<stop stop-color="#FF9E0F"/>
<stop offset="1" stop-color="#FF7C0F"/>
</linearGradient>
<clipPath id="clip0_330_198">
<rect width="678" height="522" fill="white" transform="translate(249 191)"/>
</clipPath>
<clipPath id="clip1_330_198">
<rect width="40" height="40" fill="white" transform="translate(364 631)"/>
</clipPath>
<clipPath id="clip2_330_198">
<rect width="78.714" height="64.4024" fill="white" transform="matrix(0.97863 0.20563 -0.533322 0.845912 204.316 489.911)"/>
</clipPath>
</defs>
</svg>
