<svg width="786" height="684" viewBox="0 0 786 684" fill="none" xmlns="http://www.w3.org/2000/svg">
<g filter="url(#filter0_d_361_2)">
<circle cx="642.927" cy="95.9272" r="49.9272" fill="url(#paint0_linear_361_2)"/>
</g>
<path d="M663.062 257.636C664.197 257.636 665.117 256.845 665.117 255.869C665.117 254.893 664.197 254.102 663.062 254.102C661.927 254.102 661.007 254.893 661.007 255.869C661.007 256.845 661.927 257.636 663.062 257.636Z" fill="#FFBE16" fill-opacity="0.21"/>
<path d="M692.814 257.636C693.949 257.636 694.869 256.845 694.869 255.869C694.869 254.893 693.949 254.102 692.814 254.102C691.679 254.102 690.759 254.893 690.759 255.869C690.759 256.845 691.679 257.636 692.814 257.636Z" fill="#FFBE16" fill-opacity="0.21"/>
<path d="M724.621 255.869C724.621 256.839 723.694 257.636 722.566 257.636C721.437 257.636 720.51 256.839 720.51 255.869C720.51 254.898 721.437 254.102 722.566 254.102C723.711 254.102 724.621 254.898 724.621 255.869Z" fill="#FFBE16" fill-opacity="0.21"/>
<path d="M752.318 257.636C753.453 257.636 754.373 256.845 754.373 255.869C754.373 254.893 753.453 254.102 752.318 254.102C751.182 254.102 750.262 254.893 750.262 255.869C750.262 256.845 751.182 257.636 752.318 257.636Z" fill="#FFBE16" fill-opacity="0.21"/>
<path d="M782.069 257.636C783.204 257.636 784.124 256.845 784.124 255.869C784.124 254.893 783.204 254.102 782.069 254.102C780.934 254.102 780.014 254.893 780.014 255.869C780.014 256.845 780.934 257.636 782.069 257.636Z" fill="#FFBE16" fill-opacity="0.21"/>
<path d="M663.062 274.832C664.197 274.832 665.117 274.04 665.117 273.064C665.117 272.088 664.197 271.297 663.062 271.297C661.927 271.297 661.007 272.088 661.007 273.064C661.007 274.04 661.927 274.832 663.062 274.832Z" fill="#FFBE16" fill-opacity="0.21"/>
<path d="M692.814 274.832C693.949 274.832 694.869 274.04 694.869 273.064C694.869 272.088 693.949 271.297 692.814 271.297C691.679 271.297 690.759 272.088 690.759 273.064C690.759 274.04 691.679 274.832 692.814 274.832Z" fill="#FFBE16" fill-opacity="0.21"/>
<path d="M724.621 273.064C724.621 274.035 723.694 274.832 722.566 274.832C721.437 274.832 720.51 274.035 720.51 273.064C720.51 272.094 721.437 271.297 722.566 271.297C723.711 271.297 724.621 272.094 724.621 273.064Z" fill="#FFBE16" fill-opacity="0.21"/>
<path d="M752.318 274.832C753.453 274.832 754.373 274.04 754.373 273.064C754.373 272.088 753.453 271.297 752.318 271.297C751.182 271.297 750.262 272.088 750.262 273.064C750.262 274.04 751.182 274.832 752.318 274.832Z" fill="#FFBE16" fill-opacity="0.21"/>
<path d="M782.069 274.832C783.204 274.832 784.124 274.04 784.124 273.064C784.124 272.088 783.204 271.297 782.069 271.297C780.934 271.297 780.014 272.088 780.014 273.064C780.014 274.04 780.934 274.832 782.069 274.832Z" fill="#FFBE16" fill-opacity="0.21"/>
<path d="M663.062 292.027C664.197 292.027 665.117 291.236 665.117 290.26C665.117 289.283 664.197 288.492 663.062 288.492C661.927 288.492 661.007 289.283 661.007 290.26C661.007 291.236 661.927 292.027 663.062 292.027Z" fill="#FFBE16" fill-opacity="0.21"/>
<path d="M692.814 292.027C693.949 292.027 694.869 291.236 694.869 290.26C694.869 289.283 693.949 288.492 692.814 288.492C691.679 288.492 690.759 289.283 690.759 290.26C690.759 291.236 691.679 292.027 692.814 292.027Z" fill="#FFBE16" fill-opacity="0.21"/>
<path d="M724.621 290.26C724.621 291.23 723.694 292.027 722.566 292.027C721.437 292.027 720.51 291.23 720.51 290.26C720.51 289.289 721.437 288.492 722.566 288.492C723.711 288.492 724.621 289.289 724.621 290.26Z" fill="#FFBE16" fill-opacity="0.21"/>
<path d="M752.318 292.027C753.453 292.027 754.373 291.236 754.373 290.26C754.373 289.283 753.453 288.492 752.318 288.492C751.182 288.492 750.262 289.283 750.262 290.26C750.262 291.236 751.182 292.027 752.318 292.027Z" fill="#FFBE16" fill-opacity="0.21"/>
<path d="M782.069 292.027C783.204 292.027 784.124 291.236 784.124 290.26C784.124 289.283 783.204 288.492 782.069 288.492C780.934 288.492 780.014 289.283 780.014 290.26C780.014 291.236 780.934 292.027 782.069 292.027Z" fill="#FFBE16" fill-opacity="0.21"/>
<path d="M663.062 309.222C664.197 309.222 665.117 308.431 665.117 307.455C665.117 306.479 664.197 305.688 663.062 305.688C661.927 305.688 661.007 306.479 661.007 307.455C661.007 308.431 661.927 309.222 663.062 309.222Z" fill="#FFBE16" fill-opacity="0.21"/>
<path d="M692.814 309.222C693.949 309.222 694.869 308.431 694.869 307.455C694.869 306.479 693.949 305.688 692.814 305.688C691.679 305.688 690.759 306.479 690.759 307.455C690.759 308.431 691.679 309.222 692.814 309.222Z" fill="#FFBE16" fill-opacity="0.21"/>
<path d="M724.621 307.455C724.621 308.425 723.694 309.222 722.566 309.222C721.437 309.222 720.51 308.425 720.51 307.455C720.51 306.484 721.437 305.688 722.566 305.688C723.711 305.688 724.621 306.484 724.621 307.455Z" fill="#FFBE16" fill-opacity="0.21"/>
<path d="M752.318 309.222C753.453 309.222 754.373 308.431 754.373 307.455C754.373 306.479 753.453 305.688 752.318 305.688C751.182 305.688 750.262 306.479 750.262 307.455C750.262 308.431 751.182 309.222 752.318 309.222Z" fill="#FFBE16" fill-opacity="0.21"/>
<path d="M782.069 309.222C783.204 309.222 784.124 308.431 784.124 307.455C784.124 306.479 783.204 305.688 782.069 305.688C780.934 305.688 780.014 306.479 780.014 307.455C780.014 308.431 780.934 309.222 782.069 309.222Z" fill="#FFBE16" fill-opacity="0.21"/>
<path d="M663.062 326.417C664.197 326.417 665.117 325.626 665.117 324.65C665.117 323.674 664.197 322.883 663.062 322.883C661.927 322.883 661.007 323.674 661.007 324.65C661.007 325.626 661.927 326.417 663.062 326.417Z" fill="#FFBE16" fill-opacity="0.21"/>
<path d="M692.814 326.417C693.949 326.417 694.869 325.626 694.869 324.65C694.869 323.674 693.949 322.883 692.814 322.883C691.679 322.883 690.759 323.674 690.759 324.65C690.759 325.626 691.679 326.417 692.814 326.417Z" fill="#FFBE16" fill-opacity="0.21"/>
<path d="M724.621 324.65C724.621 325.621 723.694 326.417 722.566 326.417C721.437 326.417 720.51 325.621 720.51 324.65C720.51 323.68 721.437 322.883 722.566 322.883C723.711 322.883 724.621 323.68 724.621 324.65Z" fill="#FFBE16" fill-opacity="0.21"/>
<path d="M752.318 326.417C753.453 326.417 754.373 325.626 754.373 324.65C754.373 323.674 753.453 322.883 752.318 322.883C751.182 322.883 750.262 323.674 750.262 324.65C750.262 325.626 751.182 326.417 752.318 326.417Z" fill="#FFBE16" fill-opacity="0.21"/>
<path d="M782.069 326.417C783.204 326.417 784.124 325.626 784.124 324.65C784.124 323.674 783.204 322.883 782.069 322.883C780.934 322.883 780.014 323.674 780.014 324.65C780.014 325.626 780.934 326.417 782.069 326.417Z" fill="#FFBE16" fill-opacity="0.21"/>
<rect width="307.982" height="480.755" rx="121.324" transform="matrix(0.828641 0.55978 -0.57812 0.815952 442.024 82)" fill="#906CF9"/>
<path d="M406.942 348.194L388.269 343.327L369.596 348.194L350.922 343.327L332.249 348.194L313.576 343.327L294.903 348.194L276.23 343.327L257.556 348.194L238.875 343.327L220.202 348.194L201.529 343.327L182.847 348.194L164.09 343.306L164.249 343.066L182.847 347.912L201.529 343.045L220.202 347.912L238.875 343.045L257.556 347.912L276.23 343.045L294.903 347.912L313.576 343.045L332.249 347.912L350.922 343.045L369.596 347.912L388.269 343.045L406.942 347.912L425.615 343.045L444.372 347.933L444.213 348.174L425.615 343.327L406.942 348.194Z" fill="#287E74" fill-opacity="0.36"/>
<path d="M406.942 343.552L388.269 338.685L369.596 343.552L350.922 338.685L332.249 343.552L313.576 338.685L294.903 343.552L276.23 338.685L257.556 343.552L238.875 338.685L220.202 343.552L201.529 338.685L182.847 343.552L164.09 338.664L164.249 338.423L182.847 343.27L201.529 338.402L220.202 343.27L238.875 338.402L257.556 343.27L276.23 338.402L294.903 343.27L313.576 338.402L332.249 343.27L350.922 338.402L369.596 343.27L388.269 338.402L406.942 343.27L425.615 338.402L444.372 343.29L444.213 343.531L425.615 338.685L406.942 343.552Z" fill="#287E74" fill-opacity="0.36"/>
<path d="M406.942 338.909L388.269 334.042L369.596 338.909L350.922 334.042L332.249 338.909L313.576 334.042L294.903 338.909L276.23 334.042L257.556 338.909L238.875 334.042L220.202 338.909L201.529 334.042L182.847 338.909L164.09 334.021L164.249 333.781L182.847 338.627L201.529 333.76L220.202 338.627L238.875 333.76L257.556 338.627L276.23 333.76L294.903 338.627L313.576 333.76L332.249 338.627L350.922 333.76L369.596 338.627L388.269 333.76L406.942 338.627L425.615 333.76L444.372 338.648L444.213 338.888L425.615 334.042L406.942 338.909Z" fill="#287E74" fill-opacity="0.36"/>
<path d="M406.942 334.267L388.269 329.4L369.596 334.267L350.922 329.4L332.249 334.267L313.576 329.4L294.903 334.267L276.23 329.4L257.556 334.267L238.875 329.4L220.202 334.267L201.529 329.4L182.847 334.267L164.09 329.379L164.249 329.138L182.847 333.984L201.529 329.117L220.202 333.984L238.875 329.117L257.556 333.984L276.23 329.117L294.903 333.984L313.576 329.117L332.249 333.984L350.922 329.117L369.596 333.984L388.269 329.117L406.942 333.984L425.615 329.117L444.372 334.005L444.213 334.246L425.615 329.4L406.942 334.267Z" fill="#287E74" fill-opacity="0.36"/>
<path d="M406.942 329.624L388.269 324.757L369.596 329.624L350.922 324.757L332.249 329.624L313.576 324.757L294.903 329.624L276.23 324.757L257.556 329.624L238.875 324.757L220.202 329.624L201.529 324.757L182.847 329.624L164.09 324.736L164.249 324.491L182.847 329.342L201.529 324.47L220.202 329.342L238.875 324.47L257.556 329.342L276.23 324.47L294.903 329.342L313.576 324.47L332.249 329.342L350.922 324.47L369.596 329.342L388.269 324.47L406.942 329.342L425.615 324.47L444.372 329.363L444.213 329.604L425.615 324.757L406.942 329.624Z" fill="#287E74" fill-opacity="0.36"/>
<path d="M406.942 324.982L388.269 320.109L369.596 324.982L350.922 320.109L332.249 324.982L313.576 320.109L294.903 324.982L276.23 320.109L257.556 324.982L238.875 320.109L220.202 324.982L201.529 320.109L182.847 324.982L164.09 320.089L164.249 319.848L182.847 324.7L201.529 319.827L220.202 324.7L238.875 319.827L257.556 324.7L276.23 319.827L294.903 324.7L313.576 319.827L332.249 324.7L350.922 319.827L369.596 324.7L388.269 319.827L406.942 324.7L425.615 319.827L444.372 324.721L444.213 324.961L425.615 320.109L406.942 324.982Z" fill="#287E74" fill-opacity="0.36"/>
<path d="M406.942 320.339L388.269 315.467L369.596 320.339L350.922 315.467L332.249 320.339L313.576 315.467L294.903 320.339L276.23 315.467L257.556 320.339L238.875 315.467L220.202 320.339L201.529 315.467L182.847 320.339L164.09 315.446L164.249 315.205L182.847 320.057L201.529 315.185L220.202 320.057L238.875 315.185L257.556 320.057L276.23 315.185L294.903 320.057L313.576 315.185L332.249 320.057L350.922 315.185L369.596 320.057L388.269 315.185L406.942 320.057L425.615 315.185L444.372 320.078L444.213 320.318L425.615 315.467L406.942 320.339Z" fill="#287E74" fill-opacity="0.36"/>
<path d="M406.942 315.698L388.269 310.825L369.596 315.698L350.922 310.825L332.249 315.698L313.576 310.825L294.903 315.698L276.23 310.825L257.556 315.698L238.875 310.825L220.202 315.698L201.529 310.825L182.847 315.698L164.09 310.804L164.249 310.564L182.847 315.41L201.529 310.543L220.202 315.41L238.875 310.543L257.556 315.41L276.23 310.543L294.903 315.41L313.576 310.543L332.249 315.41L350.922 310.543L369.596 315.41L388.269 310.543L406.942 315.41L425.615 310.543L444.372 315.431L444.213 315.677L425.615 310.825L406.942 315.698Z" fill="#287E74" fill-opacity="0.36"/>
<path d="M406.942 311.05L388.269 306.183L369.596 311.05L350.922 306.183L332.249 311.05L313.576 306.183L294.903 311.05L276.23 306.183L257.556 311.05L238.875 306.183L220.202 311.05L201.529 306.183L182.847 311.05L164.09 306.162L164.249 305.921L182.847 310.768L201.529 305.9L220.202 310.768L238.875 305.9L257.556 310.768L276.23 305.9L294.903 310.768L313.576 305.9L332.249 310.768L350.922 305.9L369.596 310.768L388.269 305.9L406.942 310.768L425.615 305.9L444.372 310.789L444.213 311.029L425.615 306.183L406.942 311.05Z" fill="#287E74" fill-opacity="0.36"/>
<path d="M406.942 306.407L388.269 301.54L369.596 306.407L350.922 301.54L332.249 306.407L313.576 301.54L294.903 306.407L276.23 301.54L257.556 306.407L238.875 301.54L220.202 306.407L201.529 301.54L182.847 306.407L164.09 301.519L164.249 301.279L182.847 306.125L201.529 301.258L220.202 306.125L238.875 301.258L257.556 306.125L276.23 301.258L294.903 306.125L313.576 301.258L332.249 306.125L350.922 301.258L369.596 306.125L388.269 301.258L406.942 306.125L425.615 301.258L444.372 306.146L444.213 306.386L425.615 301.54L406.942 306.407Z" fill="#287E74" fill-opacity="0.36"/>
<path d="M406.942 301.765L388.269 296.898L369.596 301.765L350.922 296.898L332.249 301.765L313.576 296.898L294.903 301.765L276.23 296.898L257.556 301.765L238.875 296.898L220.202 301.765L201.529 296.898L182.847 301.765L164.09 296.877L164.249 296.636L182.847 301.482L201.529 296.615L220.202 301.482L238.875 296.615L257.556 301.482L276.23 296.615L294.903 301.482L313.576 296.615L332.249 301.482L350.922 296.615L369.596 301.482L388.269 296.615L406.942 301.482L425.615 296.615L444.372 301.503L444.213 301.744L425.615 296.898L406.942 301.765Z" fill="#287E74" fill-opacity="0.36"/>
<path d="M406.942 297.123L388.269 292.255L369.596 297.123L350.922 292.255L332.249 297.123L313.576 292.255L294.903 297.123L276.23 292.255L257.556 297.123L238.875 292.255L220.202 297.123L201.529 292.255L182.847 297.123L164.09 292.234L164.249 291.989L182.847 296.84L201.529 291.968L220.202 296.84L238.875 291.968L257.556 296.84L276.23 291.968L294.903 296.84L313.576 291.968L332.249 296.84L350.922 291.968L369.596 296.84L388.269 291.968L406.942 296.84L425.615 291.968L444.372 296.861L444.213 297.102L425.615 292.255L406.942 297.123Z" fill="#287E74" fill-opacity="0.36"/>
<path d="M406.942 292.48L388.269 287.613L369.596 292.48L350.922 287.613L332.249 292.48L313.576 287.613L294.903 292.48L276.23 287.613L257.556 292.48L238.875 287.613L220.202 292.48L201.529 287.613L182.847 292.48L164.09 287.592L164.249 287.346L182.847 292.198L201.529 287.325L220.202 292.198L238.875 287.325L257.556 292.198L276.23 287.325L294.903 292.198L313.576 287.325L332.249 292.198L350.922 287.325L369.596 292.198L388.269 287.325L406.942 292.198L425.615 287.325L444.372 292.219L444.213 292.459L425.615 287.613L406.942 292.48Z" fill="#287E74" fill-opacity="0.36"/>
<path d="M220.202 287.837L201.529 282.965L182.847 287.837L164.09 282.944L164.249 282.704L182.847 287.555L201.529 282.683L220.202 287.555L238.875 282.683L257.556 287.555L276.23 282.683L294.903 287.555L313.576 282.683L332.249 287.555L350.922 282.683L369.596 287.555L388.269 282.683L406.942 287.555L425.615 282.683L444.372 287.576L444.213 287.816L425.615 282.965L406.942 287.837L388.269 282.965L369.596 287.837L350.922 282.965L332.249 287.837L313.576 282.965L294.903 287.837L276.23 282.965L257.556 287.837L238.875 282.965L220.202 287.837Z" fill="#287E74" fill-opacity="0.36"/>
<path d="M406.942 283.195L388.269 278.322L369.596 283.195L350.922 278.322L332.249 283.195L313.576 278.322L294.903 283.195L276.23 278.322L257.556 283.195L238.875 278.322L220.202 283.195L201.529 278.322L182.847 283.195L164.09 278.301L164.249 278.061L182.847 282.907L201.529 278.04L220.202 282.907L238.875 278.04L257.556 282.907L276.23 278.04L294.903 282.907L313.576 278.04L332.249 282.907L350.922 278.04L369.596 282.907L388.269 278.04L406.942 282.907L425.615 278.04L444.372 282.928L444.213 283.174L425.615 278.322L406.942 283.195Z" fill="#287E74" fill-opacity="0.36"/>
<path d="M406.942 278.552L388.269 273.68L369.596 278.552L350.922 273.68L332.249 278.552L313.576 273.68L294.903 278.552L276.23 273.68L257.556 278.552L238.875 273.68L220.202 278.552L201.529 273.68L182.847 278.552L164.09 273.659L164.249 273.418L182.847 278.265L201.529 273.397L220.202 278.265L238.875 273.397L257.556 278.265L276.23 273.397L294.903 278.265L313.576 273.397L332.249 278.265L350.922 273.397L369.596 278.265L388.269 273.397L406.942 278.265L425.615 273.397L444.372 278.286L444.213 278.531L425.615 273.68L406.942 278.552Z" fill="#287E74" fill-opacity="0.36"/>
<path d="M406.942 273.905L388.269 269.038L369.596 273.905L350.922 269.038L332.249 273.905L313.576 269.038L294.903 273.905L276.23 269.038L257.556 273.905L238.875 269.038L220.202 273.905L201.529 269.038L182.847 273.905L164.09 269.017L164.249 268.777L182.847 273.623L201.529 268.756L220.202 273.623L238.875 268.756L257.556 273.623L276.23 268.756L294.903 273.623L313.576 268.756L332.249 273.623L350.922 268.756L369.596 273.623L388.269 268.756L406.942 273.623L425.615 268.756L444.372 273.644L444.213 273.884L425.615 269.038L406.942 273.905Z" fill="#287E74" fill-opacity="0.36"/>
<path d="M406.942 269.263L388.269 264.396L369.596 269.263L350.922 264.396L332.249 269.263L313.576 264.396L294.903 269.263L276.23 264.396L257.556 269.263L238.875 264.396L220.202 269.263L201.529 264.396L182.847 269.263L164.09 264.375L164.249 264.134L182.847 268.981L201.529 264.113L220.202 268.981L238.875 264.113L257.556 268.981L276.23 264.113L294.903 268.981L313.576 264.113L332.249 268.981L350.922 264.113L369.596 268.981L388.269 264.113L406.942 268.981L425.615 264.113L444.372 269.001L444.213 269.242L425.615 264.396L406.942 269.263Z" fill="#287E74" fill-opacity="0.36"/>
<path d="M406.942 264.62L388.269 259.753L369.596 264.62L350.922 259.753L332.249 264.62L313.576 259.753L294.903 264.62L276.23 259.753L257.556 264.62L238.875 259.753L220.202 264.62L201.529 259.753L182.847 264.62L164.09 259.732L164.249 259.492L182.847 264.338L201.529 259.471L220.202 264.338L238.875 259.471L257.556 264.338L276.23 259.471L294.903 264.338L313.576 259.471L332.249 264.338L350.922 259.471L369.596 264.338L388.269 259.471L406.942 264.338L425.615 259.471L444.372 264.359L444.213 264.599L425.615 259.753L406.942 264.62Z" fill="#287E74" fill-opacity="0.36"/>
<path d="M406.942 259.978L388.269 255.111L369.596 259.978L350.922 255.111L332.249 259.978L313.576 255.111L294.903 259.978L276.23 255.111L257.556 259.978L238.875 255.111L220.202 259.978L201.529 255.111L182.847 259.978L164.09 255.09L164.249 254.844L182.847 259.696L201.529 254.823L220.202 259.696L238.875 254.823L257.556 259.696L276.23 254.823L294.903 259.696L313.576 254.823L332.249 259.696L350.922 254.823L369.596 259.696L388.269 254.823L406.942 259.696L425.615 254.823L444.372 259.717L444.213 259.957L425.615 255.111L406.942 259.978Z" fill="#287E74" fill-opacity="0.36"/>
<path d="M406.942 255.335L388.269 250.468L369.596 255.335L350.922 250.468L332.249 255.335L313.576 250.468L294.903 255.335L276.23 250.468L257.556 255.335L238.875 250.468L220.202 255.335L201.529 250.468L182.847 255.335L164.09 250.447L164.249 250.202L182.847 255.053L201.529 250.181L220.202 255.053L238.875 250.181L257.556 255.053L276.23 250.181L294.903 255.053L313.576 250.181L332.249 255.053L350.922 250.181L369.596 255.053L388.269 250.181L406.942 255.053L425.615 250.181L444.372 255.074L444.213 255.315L425.615 250.468L406.942 255.335Z" fill="#287E74" fill-opacity="0.36"/>
<path d="M406.942 250.693L388.269 245.82L369.596 250.693L350.922 245.82L332.249 250.693L313.576 245.82L294.903 250.693L276.23 245.82L257.556 250.693L238.875 245.82L220.202 250.693L201.529 245.82L182.847 250.693L164.09 245.799L164.249 245.559L182.847 250.411L201.529 245.538L220.202 250.411L238.875 245.538L257.556 250.411L276.23 245.538L294.903 250.411L313.576 245.538L332.249 250.411L350.922 245.538L369.596 250.411L388.269 245.538L406.942 250.411L425.615 245.538L444.372 250.431L444.213 250.672L425.615 245.82L406.942 250.693Z" fill="#287E74" fill-opacity="0.36"/>
<path d="M406.942 246.05L388.269 241.178L369.596 246.05L350.922 241.178L332.249 246.05L313.576 241.178L294.903 246.05L276.23 241.178L257.556 246.05L238.875 241.178L220.202 246.05L201.529 241.178L182.847 246.05L164.09 241.157L164.249 240.916L182.847 245.763L201.529 240.896L220.202 245.763L238.875 240.896L257.556 245.763L276.23 240.896L294.903 245.763L313.576 240.896L332.249 245.763L350.922 240.896L369.596 245.763L388.269 240.896L406.942 245.763L425.615 240.896L444.372 245.784L444.213 246.029L425.615 241.178L406.942 246.05Z" fill="#287E74" fill-opacity="0.36"/>
<path d="M406.942 241.402L388.269 236.535L369.596 241.402L350.922 236.535L332.249 241.402L313.576 236.535L294.903 241.402L276.23 236.535L257.556 241.402L238.875 236.535L220.202 241.402L201.529 236.535L182.847 241.402L164.09 236.514L164.249 236.274L182.847 241.12L201.529 236.253L220.202 241.12L238.875 236.253L257.556 241.12L276.23 236.253L294.903 241.12L313.576 236.253L332.249 241.12L350.922 236.253L369.596 241.12L388.269 236.253L406.942 241.12L425.615 236.253L444.372 241.141L444.213 241.387L425.615 236.535L406.942 241.402Z" fill="#287E74" fill-opacity="0.36"/>
<path d="M406.942 236.761L388.269 231.894L369.596 236.761L350.922 231.894L332.249 236.761L313.576 231.894L294.903 236.761L276.23 231.894L257.556 236.761L238.875 231.894L220.202 236.761L201.529 231.894L182.847 236.761L164.09 231.873L164.249 231.632L182.847 236.479L201.529 231.611L220.202 236.479L238.875 231.611L257.556 236.479L276.23 231.611L294.903 236.479L313.576 231.611L332.249 236.479L350.922 231.611L369.596 236.479L388.269 231.611L406.942 236.479L425.615 231.611L444.372 236.499L444.213 236.74L425.615 231.894L406.942 236.761Z" fill="#287E74" fill-opacity="0.36"/>
<path d="M406.942 232.118L388.269 227.251L369.596 232.118L350.922 227.251L332.249 232.118L313.576 227.251L294.903 232.118L276.23 227.251L257.556 232.118L238.875 227.251L220.202 232.118L201.529 227.251L182.847 232.118L164.09 227.23L164.249 226.99L182.847 231.836L201.529 226.969L220.202 231.836L238.875 226.969L257.556 231.836L276.23 226.969L294.903 231.836L313.576 226.969L332.249 231.836L350.922 226.969L369.596 231.836L388.269 226.969L406.942 231.836L425.615 226.969L444.372 231.857L444.213 232.097L425.615 227.251L406.942 232.118Z" fill="#287E74" fill-opacity="0.36"/>
<path d="M406.942 227.476L388.269 222.608L369.596 227.476L350.922 222.608L332.249 227.476L313.576 222.608L294.903 227.476L276.23 222.608L257.556 227.476L238.875 222.608L220.202 227.476L201.529 222.608L182.847 227.476L164.09 222.588L164.249 222.347L182.847 227.193L201.529 222.326L220.202 227.193L238.875 222.326L257.556 227.193L276.23 222.326L294.903 227.193L313.576 222.326L332.249 227.193L350.922 222.326L369.596 227.193L388.269 222.326L406.942 227.193L425.615 222.326L444.372 227.214L444.213 227.455L425.615 222.608L406.942 227.476Z" fill="#287E74" fill-opacity="0.36"/>
<path d="M406.942 222.833L388.269 217.966L369.596 222.833L350.922 217.966L332.249 222.833L313.576 217.966L294.903 222.833L276.23 217.966L257.556 222.833L238.875 217.966L220.202 222.833L201.529 217.966L182.847 222.833L164.09 217.945L164.249 217.7L182.847 222.551L201.529 217.679L220.202 222.551L238.875 217.679L257.556 222.551L276.23 217.679L294.903 222.551L313.576 217.679L332.249 222.551L350.922 217.679L369.596 222.551L388.269 217.679L406.942 222.551L425.615 217.679L444.372 222.572L444.213 222.813L425.615 217.966L406.942 222.833Z" fill="#287E74" fill-opacity="0.36"/>
<path d="M406.942 218.191L388.269 213.324L369.596 218.191L350.922 213.324L332.249 218.191L313.576 213.324L294.903 218.191L276.23 213.324L257.556 218.191L238.875 213.324L220.202 218.191L201.529 213.324L182.847 218.191L164.09 213.303L164.249 213.057L182.847 217.909L201.529 213.036L220.202 217.909L238.875 213.036L257.556 217.909L276.23 213.036L294.903 217.909L313.576 213.036L332.249 217.909L350.922 213.036L369.596 217.909L388.269 213.036L406.942 217.909L425.615 213.036L444.372 217.929L444.213 218.17L425.615 213.324L406.942 218.191Z" fill="#287E74" fill-opacity="0.36"/>
<path d="M406.942 213.548L388.269 208.676L369.596 213.548L350.922 208.676L332.249 213.548L313.576 208.676L294.903 213.548L276.23 208.676L257.556 213.548L238.875 208.676L220.202 213.548L201.529 208.676L182.847 213.548L164.09 208.655L164.249 208.414L182.847 213.266L201.529 208.394L220.202 213.266L238.875 208.394L257.556 213.266L276.23 208.394L294.903 213.266L313.576 208.394L332.249 213.266L350.922 208.394L369.596 213.266L388.269 208.394L406.942 213.266L425.615 208.394L444.372 213.287L444.213 213.527L425.615 208.676L406.942 213.548Z" fill="#287E74" fill-opacity="0.36"/>
<path d="M406.942 208.906L388.269 204.033L369.596 208.906L350.922 204.033L332.249 208.906L313.576 204.033L294.903 208.906L276.23 204.033L257.556 208.906L238.875 204.033L220.202 208.906L201.529 204.033L182.847 208.906L164.09 204.012L164.249 203.772L182.847 208.618L201.529 203.751L220.202 208.618L238.875 203.751L257.556 208.618L276.23 203.751L294.903 208.618L313.576 203.751L332.249 208.618L350.922 203.751L369.596 208.618L388.269 203.751L406.942 208.618L425.615 203.751L444.372 208.639L444.213 208.885L425.615 204.033L406.942 208.906Z" fill="#287E74" fill-opacity="0.36"/>
<path d="M406.942 204.259L388.269 199.392L369.596 204.259L350.922 199.392L332.249 204.259L313.576 199.392L294.903 204.259L276.23 199.392L257.556 204.259L238.875 199.392L220.202 204.259L201.529 199.392L182.847 204.259L164.09 199.371L164.249 199.13L182.847 203.977L201.529 199.109L220.202 203.977L238.875 199.109L257.556 203.977L276.23 199.109L294.903 203.977L313.576 199.109L332.249 203.977L350.922 199.109L369.596 203.977L388.269 199.109L406.942 203.977L425.615 199.109L444.372 203.998L444.213 204.238L425.615 199.392L406.942 204.259Z" fill="#287E74" fill-opacity="0.36"/>
<path d="M406.942 199.616L388.269 194.749L369.596 199.616L350.922 194.749L332.249 199.616L313.576 194.749L294.903 199.616L276.23 194.749L257.556 199.616L238.875 194.749L220.202 199.616L201.529 194.749L182.847 199.616L164.09 194.728L164.249 194.488L182.847 199.334L201.529 194.467L220.202 199.334L238.875 194.467L257.556 199.334L276.23 194.467L294.903 199.334L313.576 194.467L332.249 199.334L350.922 194.467L369.596 199.334L388.269 194.467L406.942 199.334L425.615 194.467L444.372 199.355L444.213 199.595L425.615 194.749L406.942 199.616Z" fill="#287E74" fill-opacity="0.36"/>
<path d="M406.942 194.974L388.269 190.107L369.596 194.974L350.922 190.107L332.249 194.974L313.576 190.107L294.903 194.974L276.23 190.107L257.556 194.974L238.875 190.107L220.202 194.974L201.529 190.107L182.847 194.974L164.09 190.086L164.249 189.845L182.847 194.691L201.529 189.824L220.202 194.691L238.875 189.824L257.556 194.691L276.23 189.824L294.903 194.691L313.576 189.824L332.249 194.691L350.922 189.824L369.596 194.691L388.269 189.824L406.942 194.691L425.615 189.824L444.372 194.712L444.213 194.953L425.615 190.107L406.942 194.974Z" fill="#287E74" fill-opacity="0.36"/>
<path d="M406.942 190.331L388.269 185.464L369.596 190.331L350.922 185.464L332.249 190.331L313.576 185.464L294.903 190.331L276.23 185.464L257.556 190.331L238.875 185.464L220.202 190.331L201.529 185.464L182.847 190.331L164.09 185.443L164.249 185.203L182.847 190.049L201.529 185.182L220.202 190.049L238.875 185.182L257.556 190.049L276.23 185.182L294.903 190.049L313.576 185.182L332.249 190.049L350.922 185.182L369.596 190.049L388.269 185.182L406.942 190.049L425.615 185.182L444.372 190.07L444.213 190.31L425.615 185.464L406.942 190.331Z" fill="#287E74" fill-opacity="0.36"/>
<path d="M406.942 185.688L388.269 180.821L369.596 185.688L350.922 180.821L332.249 185.688L313.576 180.821L294.903 185.688L276.23 180.821L257.556 185.688L238.875 180.821L220.202 185.688L201.529 180.821L182.847 185.688L164.09 180.8L164.249 180.554L182.847 185.406L201.529 180.533L220.202 185.406L238.875 180.533L257.556 185.406L276.23 180.533L294.903 185.406L313.576 180.533L332.249 185.406L350.922 180.533L369.596 185.406L388.269 180.533L406.942 185.406L425.615 180.533L444.372 185.427L444.213 185.667L425.615 180.821L406.942 185.688Z" fill="#287E74" fill-opacity="0.36"/>
<path d="M406.942 181.046L388.269 176.179L369.596 181.046L350.922 176.179L332.249 181.046L313.576 176.179L294.903 181.046L276.23 176.179L257.556 181.046L238.875 176.179L220.202 181.046L201.529 176.179L182.847 181.046L164.09 176.158L164.249 175.913L182.847 180.764L201.529 175.892L220.202 180.764L238.875 175.892L257.556 180.764L276.23 175.892L294.903 180.764L313.576 175.892L332.249 180.764L350.922 175.892L369.596 180.764L388.269 175.892L406.942 180.764L425.615 175.892L444.372 180.785L444.213 181.025L425.615 176.179L406.942 181.046Z" fill="#287E74" fill-opacity="0.36"/>
<path d="M406.942 176.404L388.269 171.531L369.596 176.404L350.922 171.531L332.249 176.404L313.576 171.531L294.903 176.404L276.23 171.531L257.556 176.404L238.875 171.531L220.202 176.404L201.529 171.531L182.847 176.404L164.09 171.51L164.249 171.27L182.847 176.121L201.529 171.249L220.202 176.121L238.875 171.249L257.556 176.121L276.23 171.249L294.903 176.121L313.576 171.249L332.249 176.121L350.922 171.249L369.596 176.121L388.269 171.249L406.942 176.121L425.615 171.249L444.372 176.142L444.213 176.383L425.615 171.531L406.942 176.404Z" fill="#287E74" fill-opacity="0.36"/>
<path d="M406.942 171.761L388.269 166.889L369.596 171.761L350.922 166.889L332.249 171.761L313.576 166.889L294.903 171.761L276.23 166.889L257.556 171.761L238.875 166.889L220.202 171.761L201.529 166.889L182.847 171.761L164.09 166.868L164.249 166.627L182.847 171.474L201.529 166.606L220.202 171.474L238.875 166.606L257.556 171.474L276.23 166.606L294.903 171.474L313.576 166.606L332.249 171.474L350.922 166.606L369.596 171.474L388.269 166.606L406.942 171.474L425.615 166.606L444.372 171.495L444.213 171.74L425.615 166.889L406.942 171.761Z" fill="#287E74" fill-opacity="0.36"/>
<path d="M406.942 167.113L388.269 162.246L369.596 167.113L350.922 162.246L332.249 167.113L313.576 162.246L294.903 167.113L276.23 162.246L257.556 167.113L238.875 162.246L220.202 167.113L201.529 162.246L182.847 167.113L164.09 162.225L164.249 161.985L182.847 166.831L201.529 161.964L220.202 166.831L238.875 161.964L257.556 166.831L276.23 161.964L294.903 166.831L313.576 161.964L332.249 166.831L350.922 161.964L369.596 166.831L388.269 161.964L406.942 166.831L425.615 161.964L444.372 166.852L444.213 167.092L425.615 162.246L406.942 167.113Z" fill="#287E74" fill-opacity="0.36"/>
<path d="M406.942 162.471L388.269 157.604L369.596 162.471L350.922 157.604L332.249 162.471L313.576 157.604L294.903 162.471L276.23 157.604L257.556 162.471L238.875 157.604L220.202 162.471L201.529 157.604L182.847 162.471L164.09 157.583L164.249 157.342L182.847 162.189L201.529 157.321L220.202 162.189L238.875 157.321L257.556 162.189L276.23 157.321L294.903 162.189L313.576 157.321L332.249 162.189L350.922 157.321L369.596 162.189L388.269 157.321L406.942 162.189L425.615 157.321L444.372 162.209L444.213 162.45L425.615 157.604L406.942 162.471Z" fill="#287E74" fill-opacity="0.36"/>
<path d="M406.942 157.829L388.269 152.962L369.596 157.829L350.922 152.962L332.249 157.829L313.576 152.962L294.903 157.829L276.23 152.962L257.556 157.829L238.875 152.962L220.202 157.829L201.529 152.962L182.847 157.829L164.09 152.941L164.249 152.701L182.847 157.547L201.529 152.68L220.202 157.547L238.875 152.68L257.556 157.547L276.23 152.68L294.903 157.547L313.576 152.68L332.249 157.547L350.922 152.68L369.596 157.547L388.269 152.68L406.942 157.547L425.615 152.68L444.372 157.568L444.213 157.808L425.615 152.962L406.942 157.829Z" fill="#287E74" fill-opacity="0.36"/>
<path d="M406.942 153.186L388.269 148.319L369.596 153.186L350.922 148.319L332.249 153.186L313.576 148.319L294.903 153.186L276.23 148.319L257.556 153.186L238.875 148.319L220.202 153.186L201.529 148.319L182.847 153.186L164.09 148.298L164.249 148.052L182.847 152.904L201.529 148.031L220.202 152.904L238.875 148.031L257.556 152.904L276.23 148.031L294.903 152.904L313.576 148.031L332.249 152.904L350.922 148.031L369.596 152.904L388.269 148.031L406.942 152.904L425.615 148.031L444.372 152.925L444.213 153.165L425.615 148.319L406.942 153.186Z" fill="#287E74" fill-opacity="0.36"/>
<path d="M406.942 148.543L388.269 143.676L369.596 148.543L350.922 143.676L332.249 148.543L313.576 143.676L294.903 148.543L276.23 143.676L257.556 148.543L238.875 143.676L220.202 148.543L201.529 143.676L182.847 148.543L164.09 143.655L164.249 143.41L182.847 148.261L201.529 143.389L220.202 148.261L238.875 143.389L257.556 148.261L276.23 143.389L294.903 148.261L313.576 143.389L332.249 148.261L350.922 143.389L369.596 148.261L388.269 143.389L406.942 148.261L425.615 143.389L444.372 148.282L444.213 148.523L425.615 143.676L406.942 148.543Z" fill="#287E74" fill-opacity="0.36"/>
<path d="M406.942 143.902L388.269 139.029L369.596 143.902L350.922 139.029L332.249 143.902L313.576 139.029L294.903 143.902L276.23 139.029L257.556 143.902L238.875 139.029L220.202 143.902L201.529 139.029L182.847 143.902L164.09 139.008L164.249 138.768L182.847 143.62L201.529 138.747L220.202 143.62L238.875 138.747L257.556 143.62L276.23 138.747L294.903 143.62L313.576 138.747L332.249 143.62L350.922 138.747L369.596 143.62L388.269 138.747L406.942 143.62L425.615 138.747L444.372 143.64L444.213 143.881L425.615 139.029L406.942 143.902Z" fill="#287E74" fill-opacity="0.36"/>
<path d="M406.942 139.259L388.269 134.387L369.596 139.259L350.922 134.387L332.249 139.259L313.576 134.387L294.903 139.259L276.23 134.387L257.556 139.259L238.875 134.387L220.202 139.259L201.529 134.387L182.847 139.259L164.09 134.366L164.249 134.125L182.847 138.972L201.529 134.104L220.202 138.972L238.875 134.104L257.556 138.972L276.23 134.104L294.903 138.972L313.576 134.104L332.249 138.972L350.922 134.104L369.596 138.972L388.269 134.104L406.942 138.972L425.615 134.104L444.372 138.993L444.213 139.238L425.615 134.387L406.942 139.259Z" fill="#287E74" fill-opacity="0.36"/>
<path d="M406.942 134.617L388.269 129.744L369.596 134.617L350.922 129.744L332.249 134.617L313.576 129.744L294.903 134.617L276.23 129.744L257.556 134.617L238.875 129.744L220.202 134.617L201.529 129.744L182.847 134.617L164.09 129.723L164.249 129.483L182.847 134.329L201.529 129.462L220.202 134.329L238.875 129.462L257.556 134.329L276.23 129.462L294.903 134.329L313.576 129.462L332.249 134.329L350.922 129.462L369.596 134.329L388.269 129.462L406.942 134.329L425.615 129.462L444.372 134.35L444.213 134.596L425.615 129.744L406.942 134.617Z" fill="#287E74" fill-opacity="0.36"/>
<path d="M423.093 434.968C427.947 427.253 425.521 405.213 425.521 405.213L523.495 365.758C523.495 365.758 523.495 442.015 537.398 455.252C537.398 455.252 510.917 474.651 479.803 474.651C448.689 474.651 423.093 434.968 423.093 434.968Z" fill="#FFCEBA"/>
<path d="M423.828 416.675C423.828 416.675 443.248 428.798 455.898 431.221C468.548 433.644 481.797 431.299 497.017 422.47C507.388 416.453 527.554 376.158 527.554 376.158L522.386 359.712L420.034 401.239L423.828 416.675Z" fill="#E88E80"/>
<path d="M387.787 351.652C390.876 364.656 414.487 399.481 420.667 404.33C426.846 409.179 446.042 419.76 455.75 421.964C465.459 424.168 483.776 418.879 492.603 411.826C501.43 404.773 528.789 369.948 530.555 357.384C532.321 344.82 530.555 328.95 530.555 328.95C550.497 332.035 561.891 272.744 546.003 266.793C530.115 260.842 521.728 282.442 521.728 282.442C435.892 282.663 384.696 338.648 387.787 351.652Z" fill="#FFCEBA"/>
<path d="M548.561 296.722C551.154 292.259 546.642 273.223 541.627 271.724C536.611 270.225 529.115 282.225 529.164 288.075C532.658 280.576 536.098 276.875 539.823 276.829C543.548 276.783 547.82 288.653 548.561 296.722Z" fill="#E88E80"/>
<path d="M531.051 289.779C529.198 290.567 529.103 292.153 529.685 294.42C530.267 296.688 536.622 302.227 534.992 304.74C533.361 307.252 528.21 308.158 528.366 310.351C528.521 312.544 545.908 310.009 544.729 299.468C543.551 288.927 532.903 288.99 531.051 289.779Z" fill="#E88E80"/>
<path d="M433.057 384.355C436.269 386.082 472.278 376.381 487.638 366.586C485.207 366.327 465.51 368.58 462.909 369.619C460.307 370.658 457.787 373.866 455.617 374.56C453.448 375.253 449.979 374.695 446.854 375.561C443.728 376.428 433.057 384.355 433.057 384.355Z" fill="#E88E80"/>
<path d="M453.797 391.808C461.235 390.139 468.566 388.025 475.75 385.478C465.77 394.496 453.797 391.808 453.797 391.808Z" fill="#E88E80"/>
<path d="M443.656 349.496C439.519 348.891 436.071 347.686 434.518 348.376C432.965 349.067 432.107 349.924 432.623 351.648C433.138 353.372 437.952 349.755 443.656 349.496Z" fill="#E88E80"/>
<path d="M448.554 347.237C452.123 344.026 454.641 340.662 456.571 340.351C458.501 340.04 459.887 340.331 460.509 342.34C461.132 344.348 454.171 343.882 448.554 347.237Z" fill="#E88E80"/>
<path d="M461.708 334.642C461.708 334.642 469.066 342.616 461.132 347.772C468.835 345.113 466.894 339.83 466.188 337.839C465.482 335.847 461.708 334.642 461.708 334.642Z" fill="#E88E80"/>
<path d="M428.169 343.424C428.169 343.424 424.637 353.709 435.797 355.262C428.307 356.813 426.273 351.968 426.028 349.475C425.933 348.373 426.075 347.262 426.444 346.219C426.813 345.175 427.401 344.222 428.169 343.424Z" fill="#E88E80"/>
<path d="M523.716 299.413C522.244 281.255 526.338 274.335 526.338 274.335C526.338 274.335 528.787 268.784 537.395 265.762C532.097 232.194 520.397 224.923 520.397 224.923C520.397 224.923 522.604 222.937 526.796 224.923C520.17 213.68 508.038 212.359 508.038 212.359C508.038 212.359 505.832 198.471 487.518 192.299C492.594 196.707 491.05 200.676 491.05 200.676C491.05 200.676 466.113 189.436 437.869 189.436C447.358 192.299 449.343 198.471 449.343 198.471C449.343 198.471 412.935 192.299 401.232 197.809C410.722 197.809 414.484 202.218 414.484 202.218C414.484 202.218 386.9 202.88 377.632 212.578C387.652 209.493 395.727 213.461 395.727 213.461C395.727 213.461 366.379 222.718 354.242 244.427C361.084 242.125 366.158 244.427 366.158 244.427C359.981 255.118 363.853 273.512 363.853 273.512C363.853 273.512 448.764 246.301 470.572 249.167C492.381 252.033 506.503 272.971 513.123 279.583C519.743 286.196 523.716 299.413 523.716 299.413Z" fill="url(#paint1_linear_361_2)"/>
<path d="M500.62 242.105C500.62 242.105 533.719 249.012 537.398 254.007C538.463 255.444 539.155 257.123 539.411 258.893C539.668 260.663 539.481 262.468 538.867 264.148C538.867 264.148 521.87 270.318 514.918 272.816L500.62 242.105Z" fill="#0C0A14"/>
<path d="M368.393 356.112L355.294 347.479L507.952 290.214L489.67 236.062C511.853 239.608 522.172 290.22 522.172 290.22L522.838 295.742C523.392 300.356 522.25 305.015 519.623 308.851C516.996 312.687 513.064 315.439 508.557 316.596L462.619 328.394C462.619 328.394 429.373 327.862 423.329 341.712L392.233 357.447C384.394 361.617 374.322 359.332 368.393 356.112Z" fill="url(#paint2_linear_361_2)"/>
<path d="M352.071 277.863L461.196 237.501C482.707 229.331 489.14 238.027 492.329 246.965L499.693 267.552C504.591 281.215 499.797 299.741 486.153 304.7L375.357 344.949C372.678 345.921 369.833 346.352 366.987 346.218C364.14 346.083 361.349 345.386 358.774 344.166C356.2 342.946 353.893 341.227 351.988 339.11C350.083 336.993 348.618 334.52 347.677 331.833L339.945 306.564C335.929 295.082 340.616 281.998 352.071 277.863Z" fill="url(#paint3_linear_361_2)"/>
<path d="M721 672.316L721.5 547.316C748.599 590.995 775.624 648.849 786 672.316H721Z" fill="url(#paint4_linear_361_2)"/>
<path d="M343.359 442.964C343.359 442.964 388.445 421.989 419.564 429.298C419.564 429.298 461.337 492.031 533.425 456.043C534.002 451.928 529.948 438.251 529.948 438.251C529.948 438.251 562.848 435.195 598.073 442.676C659.199 457.004 721.602 547.595 721.602 547.595V609.954V672.312H402.792C402.792 672.312 389.289 635.913 387.655 618.575C387.655 618.575 373.885 658.428 339.833 652.664C285.992 643.553 251.568 521.155 251.568 499.697C251.568 478.238 343.359 442.964 343.359 442.964Z" fill="url(#paint5_linear_361_2)"/>
<path d="M406.911 513.49C402.498 572.139 387.655 618.576 387.655 618.576L391.81 638.432C402.498 621.813 406.911 575.964 406.911 575.964C406.911 575.964 413.065 557.688 429.86 559.216C419.858 551.573 408.758 560.097 408.758 560.097C408.758 560.097 413.091 530.995 406.911 513.49Z" fill="#0B0838"/>
<path d="M327.45 474.645C327.45 474.645 369.252 476.921 370.427 550.039C362.485 488.089 331.152 486.969 331.152 486.969L327.45 474.645Z" fill="#0B0838"/>
<path d="M626.691 497.493C623.896 517.637 665.381 672.313 665.381 672.313H673.327C673.327 672.313 647.286 574.271 646.405 557.739C645.523 541.207 650.009 528.203 650.009 528.203C650.009 528.203 642.213 534.597 641.329 544.295C634.607 533.259 630.517 508.368 626.691 497.493Z" fill="#0B0838"/>
<path d="M332.769 492.351L326.589 471.778C338.651 461.344 342.526 449.638 346.989 440.87C351.451 432.101 378.52 410.654 385.287 401.832C392.054 393.009 386.903 374.782 369.252 379.055C351.601 383.328 337.623 405.506 319.528 406.83C319.528 406.83 299.074 379.938 290.474 347.905C281.875 315.871 257.154 251.504 251.418 242.546C245.682 233.587 224.496 233.435 228.469 252.905C232.442 272.375 259.871 343.597 254.904 359.712C254.904 359.712 233.542 321.151 225.231 313.226C216.919 305.301 182.571 283.543 167.564 274.507C152.557 265.472 136.084 281.779 151.676 295.445C167.267 309.111 186.105 321.307 197.796 331.154C209.487 341.001 220.745 372.592 220.745 372.592C220.745 372.592 190.513 351.179 180.583 346.236C170.652 341.292 133.434 331.007 118.577 328.803C103.721 326.599 101.955 340.118 112.104 348.345C122.253 356.572 159.474 366.126 166.535 368.776C173.597 371.426 196.84 395.078 196.84 395.078C196.84 395.078 167.743 384.658 157.121 384.206C146.499 383.754 120.214 382.149 104.896 384.782C89.5783 387.415 94.0091 403.443 104.896 405.213C115.783 406.983 144.174 407.368 155.208 409.328C166.242 411.287 186.797 421.371 190.219 426.812C193.642 432.254 220.523 478.098 250.755 486.325L256.713 503.519C256.713 503.519 274.661 532.758 306.362 524.456C338.064 516.154 332.769 492.351 332.769 492.351Z" fill="#FFCEBA"/>
<path d="M294.225 477.067C318.793 477.801 326.589 471.778 326.589 471.778L329.006 479.836C329.006 479.836 309.231 485.444 294.225 477.067Z" fill="#E88E80"/>
<path d="M250.755 486.324C250.755 486.324 263.333 486.9 277.308 478.978C268.187 491.91 253.034 493.366 253.034 493.366L250.755 486.324Z" fill="#E88E80"/>
<path d="M319.528 406.829C312.836 407.738 306.053 407.738 299.361 406.829C315.69 405.635 317.309 403.759 317.309 403.759L319.528 406.829Z" fill="#E88E80"/>
<path d="M212.727 436.66C217.573 432.339 222.261 427.912 226.792 423.376C231.329 418.833 235.705 414.151 239.842 409.276C240.358 408.663 240.882 408.062 241.389 407.443L242.902 405.584C243.415 404.971 243.896 404.335 244.394 403.711L245.134 402.77L245.86 401.814C247.817 399.291 249.649 396.675 251.441 394.027L252.766 392.03L254.039 389.996C254.252 389.656 254.474 389.322 254.676 388.977L255.284 387.944C255.687 387.253 256.119 386.571 256.502 385.869C258.116 383.089 259.533 380.206 260.979 377.294C260.562 378.857 260.161 380.442 259.611 381.973C259.484 382.359 259.354 382.747 259.219 383.124C259.084 383.501 258.951 383.895 258.796 384.275L257.9 386.551C257.756 386.934 257.583 387.302 257.416 387.674L256.911 388.79C256.58 389.535 256.237 390.278 255.863 391.003L254.751 393.19L253.561 395.331C251.943 398.173 250.181 400.931 248.28 403.593C248.044 403.927 247.814 404.263 247.572 404.591L246.837 405.573C246.342 406.223 245.863 406.885 245.356 407.524L243.826 409.437C243.311 410.073 242.781 410.695 242.256 411.319C238.026 416.285 233.423 420.921 228.486 425.186C226.02 427.316 223.485 429.359 220.863 431.284C219.543 432.237 218.227 433.189 216.87 434.084C215.513 434.979 214.145 435.863 212.727 436.66Z" fill="#E88E80"/>
<path d="M292.459 388.019C292.03 388.165 291.595 388.306 291.168 388.442L290.523 388.649C290.31 388.721 290.099 388.807 289.889 388.885L288.621 389.345C288.204 389.512 287.795 389.693 287.383 389.866L286.766 390.128L286.161 390.416C285.761 390.611 285.355 390.787 284.963 390.991L283.81 391.63C283.421 391.84 283.058 392.093 282.684 392.321C281.208 393.251 279.828 394.324 278.561 395.523C277.327 396.722 276.227 398.051 275.283 399.489C273.422 402.377 272.149 405.604 271.538 408.985C271.214 410.686 271.007 412.407 270.918 414.136C270.819 415.879 270.819 417.627 270.918 419.37C271.005 421.12 271.172 422.873 271.405 424.622C271.639 426.372 271.93 428.116 272.27 429.857C272.609 431.598 273.004 433.33 273.422 435.059C273.84 436.789 274.324 438.512 274.822 440.222C275.822 443.655 276.954 447.059 278.172 450.44C279.391 453.822 280.702 457.18 282.091 460.512C280.111 457.467 278.323 454.301 276.738 451.033C275.135 447.76 273.706 444.406 272.454 440.984C271.191 437.547 270.146 434.033 269.325 430.464C268.916 428.674 268.57 426.864 268.303 425.036C268.035 423.209 267.853 421.368 267.752 419.514C267.537 415.772 267.828 412.017 268.617 408.352C269.409 404.623 270.991 401.108 273.258 398.041C274.402 396.528 275.723 395.156 277.193 393.955C278.657 392.784 280.247 391.779 281.932 390.957C283.594 390.147 285.331 389.498 287.118 389.02C288.869 388.549 290.655 388.214 292.459 388.019Z" fill="#E88E80"/>
<path d="M259.139 405.636C258.188 408.23 256.97 410.718 255.503 413.06C254.062 415.418 252.446 417.665 250.669 419.782C249.805 420.856 248.845 421.86 247.906 422.873C247.413 423.359 246.924 423.848 246.425 424.312C246.175 424.55 245.933 424.798 245.673 425.028L244.893 425.71C242.827 427.549 240.577 429.169 238.177 430.545C240.05 428.504 241.98 426.608 243.783 424.579C244.717 423.601 245.584 422.565 246.497 421.566L247.814 420.027C248.266 419.523 248.678 419 249.122 418.479C250.85 416.409 252.543 414.298 254.201 412.148C255.863 410.021 257.491 407.857 259.139 405.636Z" fill="#E88E80"/>
<path d="M201.252 401.391C201.416 401.898 201.54 402.418 201.621 402.945C201.711 403.472 201.77 404.004 201.8 404.539C201.86 405.614 201.82 406.693 201.681 407.762C201.401 409.928 200.726 412.024 199.688 413.946C198.641 415.872 197.228 417.575 195.528 418.961C193.856 420.32 191.927 421.326 189.855 421.92C191.487 420.665 193.022 419.29 194.448 417.805C195.792 416.344 196.953 414.726 197.905 412.985C198.85 411.23 199.594 409.373 200.12 407.451C200.408 406.481 200.616 405.491 200.803 404.481C200.99 403.471 201.149 402.447 201.252 401.391Z" fill="#E88E80"/>
<path d="M219.451 374.188C219.462 374.811 219.425 375.434 219.339 376.05C219.258 376.669 219.142 377.283 218.993 377.889C218.697 379.11 218.286 380.3 217.763 381.443C216.711 383.764 215.227 385.865 213.39 387.633C213.153 387.849 212.929 388.073 212.684 388.28L211.952 388.893C211.701 389.092 211.439 389.273 211.183 389.469C210.929 389.662 210.666 389.841 210.393 390.007C209.328 390.697 208.198 391.283 207.02 391.756C204.695 392.693 202.215 393.187 199.708 393.213C201.99 392.43 204.205 391.467 206.334 390.335C207.364 389.769 208.356 389.137 209.305 388.444C210.251 387.762 211.146 387.012 211.984 386.2C212.826 385.389 213.614 384.524 214.343 383.61C215.07 382.69 215.744 381.729 216.36 380.732C217.614 378.673 218.648 376.489 219.445 374.214L219.451 374.188Z" fill="#E88E80"/>
<path d="M253.489 361.708C253.178 362.368 252.816 363.003 252.406 363.607C252.001 364.216 251.562 364.802 251.092 365.363C250.149 366.496 249.098 367.536 247.955 368.468C245.647 370.36 242.998 371.794 240.15 372.692C239.442 372.931 238.71 373.095 237.99 373.268C237.255 373.397 236.523 373.555 235.783 373.621C235.043 373.688 234.299 373.748 233.559 373.783C233.187 373.783 232.816 373.783 232.447 373.783C232.078 373.783 231.707 373.783 231.338 373.734C228.41 373.53 225.541 372.816 222.859 371.624C225.676 372.035 228.521 372.211 231.367 372.151C231.715 372.151 232.064 372.122 232.412 372.093C232.761 372.065 233.107 372.053 233.452 372.019C234.144 371.924 234.835 371.872 235.515 371.731C236.883 371.517 238.231 371.195 239.548 370.77C242.195 369.934 244.711 368.73 247.021 367.193C248.198 366.423 249.325 365.58 250.395 364.669C251.49 363.751 252.524 362.762 253.489 361.708Z" fill="#E88E80"/>
<path d="M287.333 356.088C286.954 356.593 286.532 357.065 286.072 357.498C285.616 357.935 285.135 358.346 284.631 358.727C283.623 359.497 282.54 360.164 281.399 360.718C279.09 361.85 276.579 362.516 274.012 362.678C273.37 362.727 272.724 362.715 272.085 362.712C271.445 362.709 270.8 362.643 270.166 362.545C269.532 362.447 268.901 362.335 268.276 362.209C267.965 362.134 267.66 362.05 267.352 361.967C267.043 361.883 266.738 361.797 266.438 361.679C264.044 360.885 261.814 359.663 259.855 358.073C262.132 358.935 264.47 359.624 266.85 360.137C267.138 360.206 267.426 360.255 267.715 360.298C268.003 360.341 268.291 360.401 268.579 360.445C269.155 360.499 269.751 360.6 270.342 360.623C271.512 360.72 272.688 360.728 273.859 360.646C276.218 360.498 278.545 360.026 280.774 359.242C281.909 358.853 283.019 358.394 284.098 357.869C285.213 357.343 286.293 356.748 287.333 356.088Z" fill="#E88E80"/>
<path d="M270.074 300.581C269.865 301.014 269.616 301.426 269.331 301.813C269.05 302.204 268.745 302.578 268.418 302.932C267.758 303.648 267.023 304.29 266.225 304.849C264.609 305.99 262.774 306.784 260.835 307.182C260.351 307.292 259.862 307.349 259.372 307.415C258.882 307.482 258.387 307.496 257.891 307.485C257.396 307.473 256.909 307.456 256.419 307.418C255.929 307.381 255.445 307.306 254.978 307.2C253.081 306.827 251.277 306.083 249.669 305.01C251.487 305.325 253.323 305.53 255.166 305.626C255.39 305.643 255.615 305.643 255.837 305.626H256.505C256.949 305.597 257.39 305.608 257.83 305.556C258.702 305.495 259.569 305.373 260.423 305.191C262.153 304.83 263.83 304.25 265.413 303.464C266.225 303.069 267.016 302.63 267.781 302.149C268.572 301.667 269.338 301.143 270.074 300.581Z" fill="#E88E80"/>
<path d="M223.965 319.603C223.966 320.142 223.918 320.68 223.821 321.211C223.733 321.746 223.61 322.275 223.453 322.794C223.138 323.841 222.711 324.851 222.179 325.807C221.102 327.749 219.63 329.444 217.858 330.785C216.977 331.456 216.029 332.034 215.029 332.512C214.781 332.638 214.531 332.748 214.274 332.851C214.018 332.955 213.767 333.067 213.508 333.159C212.986 333.335 212.474 333.525 211.941 333.648C209.846 334.21 207.666 334.376 205.51 334.138C207.522 333.598 209.499 332.934 211.428 332.149C211.903 331.968 212.353 331.729 212.814 331.525C213.038 331.415 213.257 331.289 213.482 331.179C213.707 331.07 213.928 330.949 214.142 330.82L214.793 330.445L215.421 330.04C215.637 329.913 215.833 329.752 216.037 329.62C216.242 329.487 216.446 329.332 216.639 329.179C218.232 327.969 219.65 326.545 220.851 324.946C221.467 324.133 222.033 323.284 222.545 322.402C223.076 321.499 223.55 320.564 223.965 319.603Z" fill="#E88E80"/>
<path d="M183.126 350.923C183.274 351.406 183.379 351.901 183.44 352.402C183.508 352.904 183.545 353.409 183.553 353.916C183.572 354.937 183.486 355.957 183.296 356.96C183.105 357.975 182.816 358.968 182.432 359.927C182.041 360.89 181.559 361.813 180.991 362.684C180.703 363.121 180.395 363.547 180.081 363.947C179.767 364.347 179.416 364.744 179.044 365.098C176.882 367.29 174.118 368.792 171.101 369.415C172.713 368.327 174.251 367.134 175.705 365.843C175.886 365.691 176.048 365.515 176.215 365.351C176.382 365.187 176.561 365.032 176.716 364.856C177.033 364.508 177.362 364.177 177.655 363.815C178.263 363.113 178.819 362.368 179.32 361.587C179.83 360.81 180.289 360.001 180.695 359.164C181.101 358.322 181.46 357.457 181.769 356.575C182.085 355.673 182.353 354.756 182.573 353.826C182.801 352.874 182.988 351.916 183.126 350.923Z" fill="#E88E80"/>
<path d="M160.266 388.314C160.545 388.627 160.792 388.966 161.004 389.327C161.221 389.685 161.413 390.057 161.58 390.441C161.923 391.214 162.179 392.023 162.343 392.852C162.678 394.541 162.651 396.281 162.263 397.957C162.17 398.378 162.038 398.786 161.911 399.198C161.784 399.609 161.623 400.003 161.424 400.389C161.226 400.775 161.038 401.152 160.828 401.523C160.618 401.894 160.379 402.248 160.116 402.579C159.122 403.932 157.854 405.061 156.394 405.894C157.259 404.478 158.091 403.137 158.765 401.753C158.855 401.583 158.935 401.408 159.01 401.232L159.246 400.711C159.379 400.355 159.534 400.015 159.658 399.655C159.919 398.953 160.133 398.234 160.298 397.503C160.637 396.034 160.796 394.529 160.77 393.022C160.75 391.441 160.581 389.864 160.266 388.314Z" fill="#E88E80"/>
<path d="M126.027 388.743C126.528 389.196 126.956 389.724 127.294 390.309C127.642 390.891 127.924 391.509 128.136 392.153C128.568 393.464 128.719 394.852 128.579 396.225C128.442 397.604 128.005 398.937 127.3 400.13C126.616 401.296 125.664 402.282 124.523 403.008C125.018 401.759 125.5 400.616 125.857 399.462C126.21 398.338 126.45 397.181 126.574 396.009C126.692 394.833 126.698 393.647 126.591 392.47C126.475 391.218 126.286 389.974 126.027 388.743Z" fill="#E88E80"/>
<path d="M140.4 339.548C140.779 340.104 141.071 340.716 141.264 341.361C141.47 342.007 141.604 342.674 141.664 343.349C141.785 344.724 141.615 346.11 141.166 347.415C140.718 348.727 139.99 349.925 139.031 350.926C138.098 351.909 136.945 352.657 135.666 353.107C136.435 352.005 137.161 351.001 137.772 349.962C138.374 348.947 138.873 347.874 139.262 346.759C139.645 345.637 139.92 344.481 140.083 343.306C140.261 342.06 140.366 340.806 140.4 339.548Z" fill="#E88E80"/>
<path d="M184.883 290.395C185.439 292.121 185.362 294.015 184.921 295.802C184.451 297.611 183.581 299.293 182.374 300.722C179.953 303.519 176.551 305.283 172.867 305.649C174.388 304.694 175.852 303.79 177.189 302.771C177.856 302.276 178.499 301.746 179.113 301.186C179.401 300.898 179.718 300.627 179.977 300.322C180.236 300.017 180.533 299.724 180.801 299.419C181.855 298.168 182.728 296.776 183.394 295.284C184.101 293.726 184.602 292.082 184.883 290.395Z" fill="#E88E80"/>
<path d="M256.48 265.877C256.01 267.627 254.918 269.178 253.578 270.441C252.202 271.708 250.559 272.651 248.77 273.201C247.878 273.467 246.963 273.646 246.036 273.736C243.306 273.972 240.564 273.442 238.12 272.205C239.914 272.225 241.634 272.257 243.305 272.133C244.134 272.078 244.96 271.982 245.78 271.845C246.183 271.762 246.592 271.701 246.987 271.595C247.382 271.488 247.776 271.391 248.168 271.278C249.732 270.797 251.22 270.099 252.59 269.206C254.025 268.268 255.332 267.149 256.48 265.877Z" fill="#E88E80"/>
<path d="M624.564 94.3414C624.564 96.91 626.994 98.9997 629.981 98.9997C632.969 98.9997 635.399 96.91 635.399 94.3414C635.399 94.2065 635.365 94.0734 635.299 93.9509L631.665 87.1807C633.368 87.0964 635.053 86.7122 636.577 86.0566L636.698 86.0047C638.019 85.4367 639.428 85.0516 640.889 84.858V100.552H645.222V84.858C646.683 85.0516 648.092 85.4368 649.413 86.0046L649.534 86.0565C651.059 86.7121 652.743 87.0963 654.446 87.1807L650.812 93.9509C650.746 94.0734 650.712 94.2065 650.712 94.3414C650.712 96.91 653.142 98.9997 656.13 98.9997C659.117 98.9997 661.547 96.91 661.547 94.3414C661.547 94.2065 661.513 94.0734 661.447 93.9509L657.652 86.8801C658.962 86.5357 660.162 85.9187 661.158 85.0624C661.581 84.6986 661.581 84.1087 661.158 83.7448C660.734 83.3811 660.048 83.3811 659.625 83.7448C658.432 84.7705 656.847 85.3353 655.16 85.3353C653.552 85.3353 651.941 85.0084 650.503 84.39L650.382 84.338C648.806 83.6606 647.122 83.2083 645.376 82.9934C645.325 82.9871 645.274 82.984 645.222 82.984V80.8633C645.222 79.8342 644.252 79 643.056 79C641.859 79 640.889 79.8342 640.889 80.8633V82.984C640.837 82.984 640.786 82.9872 640.735 82.9934C638.989 83.2082 637.305 83.6606 635.729 84.338L635.608 84.39C634.17 85.0084 632.559 85.3353 630.951 85.3353C629.264 85.3353 627.679 84.7705 626.486 83.7449C626.063 83.3811 625.377 83.3811 624.954 83.7449C624.53 84.1087 624.53 84.6986 624.954 85.0625C625.949 85.9188 627.149 86.5357 628.459 86.8802L624.664 93.9509C624.598 94.0734 624.564 94.2065 624.564 94.3414V94.3414ZM653.489 93.4097L656.13 88.4902L658.77 93.4097H653.489ZM629.981 88.4902L632.622 93.4097H627.341L629.981 88.4902Z" fill="white"/>
<path d="M660.464 108.601H654.071C654.071 107.572 653.101 106.737 651.904 106.737H634.207C633.01 106.737 632.04 107.572 632.04 108.601H625.647C625.049 108.601 624.564 109.018 624.564 109.532C624.564 110.047 625.049 110.464 625.647 110.464H660.464C661.062 110.464 661.547 110.047 661.547 109.532C661.547 109.018 661.062 108.601 660.464 108.601Z" fill="white"/>
<path d="M647.57 102.114H638.541C637.344 102.114 636.374 102.948 636.374 103.978V104.909H649.737V103.978C649.737 102.948 648.767 102.114 647.57 102.114Z" fill="white"/>
<g filter="url(#filter1_d_361_2)">
<circle cx="674.803" cy="353.803" r="20.803" fill="#38C976"/>
</g>
<ellipse rx="53.0068" ry="51.8255" transform="matrix(0.97863 0.20563 -0.533322 0.845912 79.5136 493.367)" fill="url(#paint6_linear_361_2)"/>
<circle r="52.1094" transform="matrix(0.97863 0.20563 -0.533322 0.845912 79.1398 489.795)" fill="white"/>
<g clip-path="url(#clip0_361_2)">
<path d="M120.153 488.098C118.428 490.834 115.76 493.265 112.642 494.94C109.525 496.616 106.172 497.422 103.206 497.208C105.08 497.285 107.17 496.742 109.103 495.676C111.037 494.609 112.688 493.088 113.763 491.384C114.966 489.474 115.355 487.482 114.842 485.845C114.33 484.208 112.96 483.06 111.031 482.654L98.289 479.976L103.44 471.806L115.868 474.417C118.891 475.052 121.041 476.851 121.845 479.416C122.648 481.982 122.04 485.105 120.153 488.098ZM95.7333 474.755L95.7551 483.993L106.036 467.686L95.7333 474.755Z" fill="#FF9900"/>
<path d="M64.3867 502.675L64.3192 493.64L80.3526 468.09C80.8174 467.356 81.5566 466.716 82.4079 466.308C83.2593 465.901 84.1534 465.759 84.8942 465.915L93.1909 467.659C93.7717 467.781 94.2482 468.05 94.5735 468.441C94.8987 468.832 95.0616 469.33 95.046 469.887L94.6194 484.965C94.6028 485.53 94.4017 486.134 94.0369 486.717L78.2172 511.809L74.8285 511.097C74.359 510.998 74.0252 510.719 73.9005 510.321C73.7758 509.923 73.8703 509.438 74.1633 508.973L88.4263 486.35C88.5944 486.084 88.6833 485.808 88.6829 485.552L88.6413 472.283L85.2908 471.579C84.6561 471.446 83.861 471.782 83.5152 472.331L64.3867 502.675Z" fill="url(#paint7_linear_361_2)"/>
<path opacity="0.2" d="M64.3192 493.64L64.3439 498.169L82.2224 469.807C82.2224 469.807 82.5598 469.272 83.3923 468.894C84.0708 468.587 84.4397 468.653 85.039 468.779C87.1203 469.217 90.7875 470.061 91.7205 470.048C93.8922 470.017 92.5531 467.525 92.5531 467.525L84.8942 465.915C84.1534 465.759 83.2593 465.901 82.4079 466.308C81.5566 466.716 80.8174 467.356 80.3526 468.09L64.3192 493.64Z" fill="white"/>
<path d="M86.8913 466.321L93.1799 467.643C93.7608 467.765 94.2373 468.034 94.5625 468.425C94.8878 468.816 95.0506 469.314 95.0351 469.871L94.6085 484.949C94.5918 485.513 94.3907 486.118 94.026 486.701L78.2062 511.793L74.8175 511.081C74.3481 510.982 74.0143 510.703 73.8895 510.305C73.7648 509.906 73.8593 509.421 74.1523 508.957L88.4154 486.334C88.5834 486.068 88.6723 485.791 88.672 485.536C88.672 485.536 88.725 475.511 88.6298 472.272C88.5836 470.702 88.5441 469.534 88.3898 468.074C88.3628 467.818 88.3133 467.582 88.1401 467.272C88.0166 467.052 87.7818 466.83 87.5835 466.695C87.1678 466.412 86.8913 466.321 86.8913 466.321Z" fill="#FF8C01"/>
<path d="M86.8914 466.321L90.7941 467.141C91.3749 467.263 91.8514 467.533 92.1766 467.924C92.5019 468.314 92.6648 468.813 92.6492 469.37L92.2226 484.448C92.2059 485.012 92.0049 485.617 91.6401 486.2L75.8203 511.292L74.8175 511.081C74.3481 510.982 74.0143 510.703 73.8896 510.305C73.7648 509.906 73.8594 509.421 74.1524 508.957L88.4154 486.334C88.5834 486.068 88.6724 485.791 88.672 485.536C88.672 485.536 88.725 475.511 88.6298 472.272C88.5836 470.702 88.5441 469.534 88.3898 468.074C88.3628 467.818 88.3133 467.582 88.1402 467.272C88.0167 467.052 87.7818 466.83 87.5836 466.695C87.1678 466.412 86.8914 466.321 86.8914 466.321Z" fill="#FFA31A"/>
<path fill-rule="evenodd" clip-rule="evenodd" d="M113.928 485.329C113.801 484.364 113.263 483.581 112.399 483.106C113.832 483.785 114.75 484.98 114.998 486.489C115.246 487.998 114.809 489.73 113.761 491.389C112.557 493.299 110.635 494.97 108.42 496.033C106.204 497.097 103.876 497.467 101.947 497.062L89.1997 494.383L92.3286 489.42L105.357 492.158C106.623 492.424 108.15 492.181 109.603 491.483C111.056 490.786 112.316 489.69 113.105 488.437C113.767 487.388 114.056 486.294 113.928 485.329ZM69.4304 484.612L87.1742 488.34L84.0485 493.298L66.3046 489.57L69.4304 484.612Z" fill="url(#paint8_linear_361_2)"/>
<path d="M46.6618 495.981C45.7985 495.505 45.2606 494.723 45.1328 493.758C45.0049 492.792 45.2945 491.698 45.9558 490.649C46.7456 489.396 48.0055 488.301 49.4585 487.603C50.9116 486.905 52.4386 486.663 53.7038 486.928L66.7326 489.666L69.8614 484.703L57.1141 482.025C55.1851 481.62 52.8568 481.989 50.6414 483.053C48.4259 484.117 46.5047 485.787 45.3002 487.697C44.2523 489.357 43.8154 491.088 44.0635 492.597C44.3116 494.107 45.2294 495.302 46.6618 495.981Z" fill="url(#paint9_linear_361_2)"/>
<path opacity="0.2" d="M85.6012 490.835L68.3608 487.213L66.7991 489.69L84.0395 493.312L85.6012 490.835Z" fill="white"/>
<path opacity="0.2" d="M114.183 485.154C113.79 484.228 113.248 483.579 112.384 483.103C113.817 483.782 114.735 484.977 114.983 486.487C115.231 487.996 114.794 489.727 113.746 491.387C112.541 493.297 110.62 494.967 108.405 496.031C106.189 497.095 103.861 497.464 101.932 497.059L89.1847 494.381L90.7472 491.902L103.776 494.64C107.324 495.259 111.026 493.516 113.154 490.141C115.03 487.165 114.431 486.05 114.183 485.154Z" fill="white"/>
<path d="M44.8783 493.933C45.2705 494.859 45.8134 495.508 46.6767 495.983C45.2443 495.305 44.3265 494.11 44.0784 492.6C43.8303 491.091 44.2672 489.36 45.3151 487.7C46.5196 485.79 48.4408 484.12 50.6562 483.056C52.8717 481.992 55.2 481.622 57.1289 482.028L69.8763 484.706L68.3139 487.185L55.285 484.447C51.7374 483.827 48.0353 485.571 45.9075 488.946C44.0307 491.922 44.6298 493.037 44.8783 493.933Z" fill="url(#paint10_linear_361_2)"/>
<path d="M120.153 488.098C118.428 490.834 115.759 493.265 112.642 494.94C109.525 496.616 106.172 497.422 103.205 497.208C105.08 497.285 107.17 496.742 109.103 495.676C111.036 494.609 112.687 493.088 113.762 491.384C114.966 489.474 115.354 487.482 114.842 485.845C114.33 484.208 112.959 483.06 111.031 482.654L98.2888 479.976L103.44 471.806L115.868 474.417C118.891 475.052 121.041 476.851 121.845 479.416C122.648 481.982 122.04 485.105 120.153 488.098ZM95.733 474.755L95.7549 483.993L106.036 467.686L95.733 474.755Z" fill="#FFA31A"/>
<path d="M38.9718 490.991C40.6963 488.256 43.3652 485.825 46.4823 484.149C49.5994 482.474 52.9528 481.668 55.9192 481.882C54.0443 481.805 51.9544 482.348 50.0213 483.414C48.0882 484.481 46.4372 486.002 45.3622 487.706C44.1587 489.616 43.7702 491.608 44.2823 493.245C44.7945 494.882 46.1652 496.03 48.0933 496.436L60.8357 499.113L55.6845 507.284L43.2567 504.673C40.2333 504.037 38.0835 502.239 37.2799 499.673C36.4764 497.108 37.0849 493.985 38.9718 490.991ZM63.3915 504.335L63.3696 495.097L53.0886 511.404L63.3915 504.335Z" fill="#FFA31A"/>
<path d="M113.608 478.511L100.866 475.833L95.7046 474.749L106.007 467.68L103.409 471.799L115.837 474.411C118.86 475.046 121.009 476.844 121.813 479.41C122.617 481.975 122.009 485.097 120.123 488.091C118.399 490.827 115.73 493.261 112.612 494.938C123.624 484.312 116.521 479.123 113.608 478.511Z" fill="#FF8C01"/>
<path d="M45.5156 500.579L58.2581 503.256L63.4192 504.341L53.1163 511.41L55.7147 507.291L43.2869 504.679C40.264 504.044 38.1145 502.246 37.3108 499.68C36.5072 497.115 37.1152 493.992 39.0012 490.999C40.7248 488.262 43.3939 485.829 46.5122 484.152C35.4995 494.777 42.6029 499.967 45.5156 500.579Z" fill="#FF8C01"/>
<path opacity="0.2" d="M46.7235 496.012C45.8603 495.536 45.3223 494.754 45.1945 493.789C45.0667 492.823 45.3563 491.73 46.0176 490.68C46.8073 489.428 48.0673 488.332 49.5203 487.634C50.9733 486.936 52.5004 486.694 53.7655 486.96L66.7944 489.697L69.9232 484.735L57.1758 482.056C55.2468 481.651 52.9186 482.021 50.7031 483.084C48.4877 484.148 46.5664 485.819 45.362 487.728C44.314 489.388 43.8771 491.119 44.1252 492.629C44.3733 494.138 45.2912 495.333 46.7235 496.012Z" fill="white"/>
<path d="M44.9403 493.965C45.3326 494.891 45.8754 495.54 46.7387 496.015C45.3063 495.337 44.3885 494.142 44.1404 492.632C43.8923 491.123 44.3292 489.392 45.3772 487.732C46.5816 485.822 48.5028 484.152 50.7183 483.088C52.9337 482.024 55.262 481.655 57.191 482.06L71.8866 485.148L70.3241 487.626L55.347 484.479C51.7994 483.86 48.0973 485.603 45.9695 488.978C44.0927 491.954 44.6918 493.069 44.9403 493.965Z" fill="url(#paint11_linear_361_2)"/>
</g>
<g filter="url(#filter2_d_361_2)">
<circle cx="218.984" cy="600.983" r="36.9831" fill="url(#paint12_linear_361_2)"/>
</g>
<path d="M209.503 604.856L210.96 605.358C213.782 606.332 213.873 610.341 211.035 611.403C211.035 612.165 210.466 612.647 209.842 612.647C209.225 612.647 208.649 612.172 208.649 611.403C207.43 610.947 206.56 609.77 206.56 608.394C206.56 607.735 207.094 607.201 207.753 607.201C208.412 607.201 208.946 607.735 208.946 608.394C208.946 608.849 209.317 609.22 209.772 609.22H209.913C210.844 609.22 211.056 607.915 210.182 607.614L208.725 607.111C205.902 606.138 205.811 602.129 208.649 601.067C208.649 600.305 209.219 599.822 209.842 599.822C210.46 599.822 211.035 600.297 211.035 601.067C212.254 601.523 213.124 602.699 213.124 604.075C213.124 604.734 212.59 605.268 211.931 605.268C211.272 605.268 210.738 604.734 210.738 604.075C210.738 603.62 210.368 603.25 209.913 603.25H209.772C208.84 603.25 208.629 604.554 209.503 604.856ZM219.685 606.235C219.685 611.662 215.269 616.077 209.842 616.077C204.415 616.077 200 611.662 200 606.235C200 600.808 204.415 596.393 209.842 596.393C215.269 596.393 219.685 600.808 219.685 606.235ZM217.299 606.235C217.299 602.123 213.954 598.779 209.842 598.779C205.731 598.779 202.386 602.123 202.386 606.235C202.386 610.346 205.731 613.691 209.842 613.691C213.954 613.691 217.299 610.346 217.299 606.235ZM235.79 613.691H234.97V594.007C234.97 593.348 234.436 592.814 233.777 592.814C233.118 592.814 232.584 593.348 232.584 594.007V613.691H226.544V598.779C226.544 598.12 226.01 597.586 225.351 597.586C224.692 597.586 224.158 598.12 224.158 598.779V613.691H219.088C218.429 613.691 217.895 614.225 217.895 614.884C217.895 615.543 218.429 616.077 219.088 616.077H235.79C236.449 616.077 236.983 615.543 236.983 614.884C236.983 614.225 236.449 613.691 235.79 613.691ZM218.366 597.758L222.63 593.494L224.508 595.372C224.974 595.838 225.729 595.838 226.195 595.372L232.584 588.983V589.533C232.584 590.192 233.118 590.726 233.777 590.726C234.436 590.726 234.97 590.192 234.97 589.533C234.97 585.747 234.976 586.068 234.957 585.935C234.899 585.527 234.631 585.166 234.233 585.001C233.938 584.878 234.029 584.91 230.347 584.91C229.688 584.91 229.154 585.444 229.154 586.103C229.154 586.762 229.688 587.296 230.347 587.296H230.897L225.351 592.841L223.473 590.963C223.007 590.497 222.252 590.497 221.786 590.963L216.679 596.071C216.213 596.537 216.213 597.292 216.679 597.758C217.145 598.224 217.9 598.224 218.366 597.758Z" fill="white" fill-opacity="0.86"/>
<defs>
<filter id="filter0_d_361_2" x="547.696" y="0.695709" width="190.463" height="190.463" filterUnits="userSpaceOnUse" color-interpolation-filters="sRGB">
<feFlood flood-opacity="0" result="BackgroundImageFix"/>
<feColorMatrix in="SourceAlpha" type="matrix" values="0 0 0 0 0 0 0 0 0 0 0 0 0 0 0 0 0 0 127 0" result="hardAlpha"/>
<feOffset/>
<feGaussianBlur stdDeviation="22.6521"/>
<feComposite in2="hardAlpha" operator="out"/>
<feColorMatrix type="matrix" values="0 0 0 0 1 0 0 0 0 0.509804 0 0 0 0 0.180392 0 0 0 0.63 0"/>
<feBlend mode="normal" in2="BackgroundImageFix" result="effect1_dropShadow_361_2"/>
<feBlend mode="normal" in="SourceGraphic" in2="effect1_dropShadow_361_2" result="shape"/>
</filter>
<filter id="filter1_d_361_2" x="636.433" y="315.433" width="76.7399" height="76.7404" filterUnits="userSpaceOnUse" color-interpolation-filters="sRGB">
<feFlood flood-opacity="0" result="BackgroundImageFix"/>
<feColorMatrix in="SourceAlpha" type="matrix" values="0 0 0 0 0 0 0 0 0 0 0 0 0 0 0 0 0 0 127 0" result="hardAlpha"/>
<feOffset/>
<feGaussianBlur stdDeviation="8.78348"/>
<feComposite in2="hardAlpha" operator="out"/>
<feColorMatrix type="matrix" values="0 0 0 0 0.207843 0 0 0 0 0.835294 0 0 0 0 0.647059 0 0 0 0.94 0"/>
<feBlend mode="normal" in2="BackgroundImageFix" result="effect1_dropShadow_361_2"/>
<feBlend mode="normal" in="SourceGraphic" in2="effect1_dropShadow_361_2" result="shape"/>
</filter>
<filter id="filter2_d_361_2" x="136.696" y="518.696" width="164.575" height="164.574" filterUnits="userSpaceOnUse" color-interpolation-filters="sRGB">
<feFlood flood-opacity="0" result="BackgroundImageFix"/>
<feColorMatrix in="SourceAlpha" type="matrix" values="0 0 0 0 0 0 0 0 0 0 0 0 0 0 0 0 0 0 127 0" result="hardAlpha"/>
<feOffset/>
<feGaussianBlur stdDeviation="22.6521"/>
<feComposite in2="hardAlpha" operator="out"/>
<feColorMatrix type="matrix" values="0 0 0 0 1 0 0 0 0 0.509804 0 0 0 0 0.180392 0 0 0 1 0"/>
<feBlend mode="normal" in2="BackgroundImageFix" result="effect1_dropShadow_361_2"/>
<feBlend mode="normal" in="SourceGraphic" in2="effect1_dropShadow_361_2" result="shape"/>
</filter>
<linearGradient id="paint0_linear_361_2" x1="613.181" y1="136.079" x2="672.621" y2="55.8278" gradientUnits="userSpaceOnUse">
<stop stop-color="#FF9E0F"/>
<stop offset="1" stop-color="#FF7C0F"/>
</linearGradient>
<linearGradient id="paint1_linear_361_2" x1="368.998" y1="283.655" x2="523.672" y2="223.366" gradientUnits="userSpaceOnUse">
<stop stop-color="#142130"/>
<stop offset="1" stop-color="#20364F"/>
</linearGradient>
<linearGradient id="paint2_linear_361_2" x1="355.294" y1="297.894" x2="522.973" y2="297.894" gradientUnits="userSpaceOnUse">
<stop stop-color="#19181C"/>
<stop offset="0.11" stop-color="#151417"/>
<stop offset="0.46" stop-color="#0D0C0F"/>
<stop offset="1" stop-color="#0A0A0C"/>
</linearGradient>
<linearGradient id="paint3_linear_361_2" x1="508.967" y1="236.733" x2="330.976" y2="344.995" gradientUnits="userSpaceOnUse">
<stop stop-color="#A323D7"/>
<stop offset="0.02" stop-color="#9622C6"/>
<stop offset="0.08" stop-color="#751F99"/>
<stop offset="0.15" stop-color="#591D72"/>
<stop offset="0.21" stop-color="#421B53"/>
<stop offset="0.28" stop-color="#301A3B"/>
<stop offset="0.36" stop-color="#23192A"/>
<stop offset="0.43" stop-color="#1B181F"/>
<stop offset="0.53" stop-color="#19181C"/>
<stop offset="1" stop-color="#0A0A0C"/>
</linearGradient>
<linearGradient id="paint4_linear_361_2" x1="751.669" y1="763.983" x2="857.146" y2="604.062" gradientUnits="userSpaceOnUse">
<stop stop-color="#FF9E0F"/>
<stop offset="1" stop-color="#FF7C0F"/>
</linearGradient>
<linearGradient id="paint5_linear_361_2" x1="346.564" y1="648.371" x2="448.694" y2="383.355" gradientUnits="userSpaceOnUse">
<stop stop-color="#FF9E0F"/>
<stop offset="1" stop-color="#FF7C0F"/>
</linearGradient>
<linearGradient id="paint6_linear_361_2" x1="82.1448" y1="7.08977" x2="21.0499" y2="108.841" gradientUnits="userSpaceOnUse">
<stop stop-color="#F7F4FD"/>
<stop offset="1" stop-color="#906CF9"/>
</linearGradient>
<linearGradient id="paint7_linear_361_2" x1="90.7906" y1="467.239" x2="63.7363" y2="466.93" gradientUnits="userSpaceOnUse">
<stop offset="0.0220136" stop-color="#3C3B3B"/>
<stop offset="0.370212" stop-color="#5E5D5D"/>
<stop offset="0.976214" stop-color="#5E5D5D"/>
</linearGradient>
<linearGradient id="paint8_linear_361_2" x1="118.232" y1="487.145" x2="74.7052" y2="471.941" gradientUnits="userSpaceOnUse">
<stop offset="0.0748513" stop-color="#3C3B3B"/>
<stop offset="0.370212" stop-color="#5E5D5D"/>
<stop offset="1" stop-color="#5E5D5D"/>
</linearGradient>
<linearGradient id="paint9_linear_361_2" x1="41.6747" y1="492.119" x2="60.4896" y2="501.443" gradientUnits="userSpaceOnUse">
<stop offset="0.0748513" stop-color="#3C3B3B"/>
<stop offset="0.370212" stop-color="#5E5D5D"/>
<stop offset="1" stop-color="#5E5D5D"/>
</linearGradient>
<linearGradient id="paint10_linear_361_2" x1="41.6896" y1="492.122" x2="60.5045" y2="501.446" gradientUnits="userSpaceOnUse">
<stop offset="0.0748513" stop-color="#3C3B3B"/>
<stop offset="0.370212" stop-color="#5E5D5D"/>
<stop offset="1" stop-color="#5E5D5D"/>
</linearGradient>
<linearGradient id="paint11_linear_361_2" x1="41.6797" y1="492.139" x2="62.4838" y2="502.183" gradientUnits="userSpaceOnUse">
<stop offset="0.0748513" stop-color="#3C3B3B"/>
<stop offset="0.370212" stop-color="#5E5D5D"/>
<stop offset="1" stop-color="#5E5D5D"/>
</linearGradient>
<linearGradient id="paint12_linear_361_2" x1="196.949" y1="630.725" x2="240.979" y2="571.28" gradientUnits="userSpaceOnUse">
<stop stop-color="#FF9E0F"/>
<stop offset="1" stop-color="#FF7C0F"/>
</linearGradient>
<clipPath id="clip0_361_2">
<rect width="72.7772" height="59.545" fill="white" transform="matrix(0.97863 0.20563 -0.533322 0.845912 59.4658 457.108)"/>
</clipPath>
</defs>
</svg>
