<svg width="823" height="340" viewBox="0 0 823 340" fill="none" xmlns="http://www.w3.org/2000/svg">
<rect x="356.505" y="0.958984" width="815.321" height="1172.02" rx="323.689" transform="rotate(55.1769 356.505 0.958984)" fill="url(#paint0_linear_329_203)"/>
<path d="M-241.498 205.172C-200.144 219.764 -168.489 250.777 -138.576 285.129C-109.789 318.211 -81.2686 353.055 -43.6911 373.262C33.7827 414.929 125.073 394.314 201.248 359.191C286.377 319.921 366.442 260.643 458.393 243.626C503.495 235.284 551.683 239.571 590.815 268.376C623.233 292.247 640.699 329.896 647.878 372.183C651.952 396.212 653.284 420.591 654.318 445.014L664.15 445.054C663.86 438.134 663.57 431.214 663.16 424.339C660.879 384.355 656.259 342.801 637.948 307.749C617.134 267.939 580.074 242.557 540.784 233.241C492.843 221.856 443.026 232.327 397.134 249.484C352.914 266.015 311.01 289.406 269.088 312.164C189.067 355.615 100.383 399.664 9.62839 380.848C-11.6065 376.444 -32.2111 368.425 -50.9717 356.275C-69.5145 344.285 -85.7979 328.573 -101.144 311.825C-131.182 279.054 -158.323 241.864 -194.234 217.052C-231.372 191.375 -276.175 179.957 -319.396 185.028C-319.455 185.028 -319.515 185.051 -319.595 185.05L-319.641 196.513C-293.489 193.318 -266.826 196.251 -241.498 205.172Z" fill="url(#paint1_linear_329_203)" fill-opacity="0.2"/>
<path d="M-144.592 329.556C-49.7351 370.343 55.0515 332.599 126.255 293.748C162.902 273.75 198.611 250.017 233.145 227.049C277.855 197.316 324.08 166.571 372.675 143.772C420.097 121.512 540.402 77.3413 632.796 147.579C685.944 187.995 722.707 262.304 742.063 368.447C743.889 378.426 745.517 388.539 747.105 398.652L749.131 398.66C747.524 388.389 745.857 378.117 744.011 367.98C724.559 261.227 687.519 186.441 633.916 145.707C540.71 74.8554 419.649 119.294 371.929 141.689C323.214 164.555 276.91 195.322 232.14 225.1C197.626 248.046 161.957 271.756 125.39 291.709C54.5241 330.381 -49.7057 367.969 -143.908 327.433C-177.457 313.009 -208.029 289.258 -237.61 266.302C-249.946 256.733 -262.42 247.074 -275.195 238.001L-275.206 240.646C-262.807 249.491 -250.709 258.878 -238.73 268.174C-209.069 291.221 -178.399 315.017 -144.592 329.556Z" fill="url(#paint2_linear_329_203)" fill-opacity="0.2"/>
<defs>
<linearGradient id="paint0_linear_329_203" x1="521.286" y1="1058.24" x2="1249.19" y2="374.575" gradientUnits="userSpaceOnUse">
<stop stop-color="#FF9E0F"/>
<stop offset="1" stop-color="#FF7C0F"/>
</linearGradient>
<linearGradient id="paint1_linear_329_203" x1="-243.564" y1="214.781" x2="621.026" y2="338.918" gradientUnits="userSpaceOnUse">
<stop offset="0.0467524" stop-color="#F4F8FD"/>
<stop offset="0.473931" stop-color="#3EE8B5"/>
<stop offset="1" stop-color="#EFF1FD"/>
</linearGradient>
<linearGradient id="paint2_linear_329_203" x1="-229.625" y1="241.451" x2="624.475" y2="243.648" gradientUnits="userSpaceOnUse">
<stop stop-color="#263959"/>
<stop offset="1" stop-color="#F4F8FD"/>
</linearGradient>
</defs>
</svg>
