<svg width="375" height="587" viewBox="0 0 375 587" fill="none" xmlns="http://www.w3.org/2000/svg">
<g clip-path="url(#clip0_32955_285277)">
<rect width="375" height="634" transform="translate(0 0.381836)" fill="#263959"/>
<path d="M302.771 352.761C305.184 334.919 315.006 319.606 326.315 304.714C337.208 290.381 348.832 276.008 353.816 259.215C364.095 224.593 348.189 189.615 327.715 161.924C304.826 130.98 274.318 103.741 259.803 68.1965C252.685 50.7621 250.386 31.0326 258.696 12.8977C265.584 -2.12661 279.257 -12.29 295.654 -18.705C304.971 -22.3481 314.658 -24.9181 324.388 -27.372L323.583 -31.3276C320.826 -30.6335 318.069 -29.9395 315.34 -29.2012C299.46 -24.9469 283.145 -19.622 270.586 -9.3358C256.324 2.35386 249.216 19.3703 248.752 35.9422C248.178 56.1648 256.545 75.3173 267.271 92.3337C277.606 108.731 290.505 123.624 303.151 138.577C327.294 167.12 352.401 199.094 352.414 237.148C352.417 246.052 350.914 255.004 347.597 263.56C344.325 272.015 339.37 279.872 333.92 287.438C323.257 302.249 310.575 316.263 303.6 332.77C296.381 349.842 295.532 368.806 301.178 385.757C301.183 385.781 301.197 385.804 301.203 385.836L305.814 384.897C302.347 374.651 301.3 363.688 302.771 352.761Z" fill="url(#paint0_linear_32955_285277)" fill-opacity="0.2"/>
<path d="M344.673 303.425C353.147 261.889 329.23 222.914 307.672 197.533C296.576 184.47 284.057 172.096 271.943 160.13C256.26 144.638 240.045 128.621 226.826 110.989C213.921 93.7831 186.126 49.1069 206.642 6.1026C218.449 -18.6356 245.246 -39.6161 286.29 -56.2551C290.148 -57.8223 294.077 -59.3206 298.009 -60.803L297.843 -61.6181C293.849 -60.1148 289.859 -58.5875 285.94 -56.9994C244.658 -40.2705 217.693 -19.1392 205.797 5.80868C185.101 49.1905 213.067 94.1482 226.051 111.463C239.308 129.138 255.538 145.184 271.243 160.697C283.347 172.656 295.853 185.016 306.925 198.051C328.383 223.312 352.19 262.075 343.762 303.327C340.765 318.018 333.772 332.289 327.015 346.097C324.199 351.855 321.358 357.675 318.778 363.568L319.842 363.351C322.362 357.629 325.125 351.982 327.861 346.391C334.647 332.544 341.651 318.228 344.673 303.425Z" fill="url(#paint1_linear_32955_285277)" fill-opacity="0.2"/>
<rect x="-346" y="560.541" width="677.417" height="952.315" rx="330" transform="rotate(-38.8746 -346 560.541)" fill="url(#paint2_linear_32955_285277)"/>
</g>
<defs>
<linearGradient id="paint0_linear_32955_285277" x1="306.806" y1="352.79" x2="284.549" y2="-5.13567" gradientUnits="userSpaceOnUse">
<stop offset="0.0467524" stop-color="#F4F8FD"/>
<stop offset="0.473931" stop-color="#3EE8B5"/>
<stop offset="1" stop-color="#EFF1FD"/>
</linearGradient>
<linearGradient id="paint1_linear_32955_285277" x1="316.361" y1="344.961" x2="245.948" y2="1.42993" gradientUnits="userSpaceOnUse">
<stop stop-color="#263959"/>
<stop offset="1" stop-color="#F4F8FD"/>
</linearGradient>
<linearGradient id="paint2_linear_32955_285277" x1="-209.09" y1="1419.63" x2="383.041" y2="850.947" gradientUnits="userSpaceOnUse">
<stop stop-color="#EA8B00"/>
<stop offset="1" stop-color="#EE6C00"/>
</linearGradient>
<clipPath id="clip0_32955_285277">
<rect width="375" height="586" fill="white" transform="translate(0 0.381836)"/>
</clipPath>
</defs>
</svg>
