<svg width="1440" height="470" viewBox="0 0 1440 470" fill="none" xmlns="http://www.w3.org/2000/svg">
<g clip-path="url(#clip0_353_14)">
<rect width="1440" height="471" fill="#263959"/>
<rect x="791.245" y="190.964" width="605.22" height="869.998" rx="245.322" transform="rotate(-46.5539 791.245 190.964)" fill="url(#paint0_linear_353_14)"/>
<path d="M607.782 666.949C612.236 634.013 630.367 605.746 651.243 578.256C671.351 551.798 692.807 525.266 702.008 494.268C720.982 430.359 691.622 365.791 653.826 314.675C611.574 257.554 555.259 207.272 528.466 141.66C515.327 109.477 511.082 73.0575 526.423 39.5815C539.137 11.8475 564.377 -6.91345 594.644 -18.7551C611.843 -25.4801 629.725 -30.2241 647.685 -34.7538L646.199 -42.0556C641.11 -40.7745 636.021 -39.4933 630.983 -38.1304C601.671 -30.2773 571.554 -20.4479 548.371 -1.46019C522.043 20.1182 508.923 51.5295 508.066 82.1201C507.006 119.45 522.451 154.804 542.251 186.215C561.329 216.483 585.14 243.975 608.483 271.578C653.05 324.265 699.395 383.289 699.42 453.533C699.425 469.969 696.65 486.495 690.527 502.288C684.489 517.895 675.341 532.399 665.281 546.366C645.597 573.705 622.188 599.575 609.313 630.045C595.986 661.56 594.419 696.566 604.841 727.857C604.85 727.902 604.876 727.942 604.888 728.001L613.4 726.27C606.999 707.356 605.067 687.118 607.782 666.949Z" fill="url(#paint1_linear_353_14)" fill-opacity="0.2"/>
<path d="M685.13 575.876C700.773 499.203 656.625 427.259 616.829 380.406C596.346 356.293 573.237 333.451 550.875 311.363C521.927 282.765 491.995 253.2 467.592 220.651C443.77 188.891 392.463 106.421 430.335 27.038C452.129 -18.6271 501.595 -57.3559 577.359 -88.0705C584.481 -90.9633 591.733 -93.7292 598.991 -96.4655L598.685 -97.9701C591.312 -95.1952 583.948 -92.3759 576.712 -89.4443C500.51 -58.5638 450.734 -19.5568 428.773 26.4954C390.571 106.576 442.194 189.565 466.162 221.526C490.633 254.153 520.593 283.774 549.584 312.409C571.926 334.485 595.013 357.301 615.45 381.363C655.061 427.992 699.007 499.547 683.45 575.696C677.918 602.814 665.008 629.159 652.535 654.647C647.337 665.275 642.093 676.019 637.33 686.897L639.294 686.497C643.946 675.934 649.046 665.511 654.097 655.189C666.624 629.629 679.553 603.203 685.13 575.876Z" fill="url(#paint2_linear_353_14)" fill-opacity="0.2"/>
<path d="M266.607 471.944L236.034 462.676L205.462 471.944L174.889 462.676L144.317 471.944L113.744 462.676L83.1717 471.944L52.5992 462.676L22.0267 471.944L-8.55949 462.676L-39.132 471.944L-69.7045 462.676L-100.291 471.944L-131 462.637L-130.74 462.169L-100.291 471.406L-69.7045 462.129L-39.132 471.406L-8.55949 462.129L22.0267 471.406L52.5992 462.129L83.1717 471.406L113.744 462.129L144.317 471.406L174.889 462.129L205.462 471.406L236.034 462.129L266.607 471.406L297.179 462.129L327.889 471.446L327.629 471.904L297.179 462.676L266.607 471.944Z" fill="#287E74" fill-opacity="0.25"/>
<path d="M266.607 463.105L236.034 453.828L205.462 463.105L174.889 453.828L144.317 463.105L113.744 453.828L83.1717 463.105L52.5992 453.828L22.0267 463.105L-8.55949 453.828L-39.132 463.105L-69.7045 453.828L-100.291 463.105L-131 453.788L-130.74 453.33L-100.291 462.567L-69.7045 453.29L-39.132 462.567L-8.55949 453.29L22.0267 462.567L52.5992 453.29L83.1717 462.567L113.744 453.29L144.317 462.567L174.889 453.29L205.462 462.567L236.034 453.29L266.607 462.567L297.179 453.29L327.889 462.607L327.629 463.065L297.179 453.828L266.607 463.105Z" fill="#287E74" fill-opacity="0.25"/>
<path d="M266.607 454.265L236.034 444.988L205.462 454.265L174.889 444.988L144.317 454.265L113.744 444.988L83.1717 454.265L52.5992 444.988L22.0267 454.265L-8.55949 444.988L-39.132 454.265L-69.7045 444.988L-100.291 454.265L-131 444.948L-130.74 444.49L-100.291 453.718L-69.7045 444.45L-39.132 453.718L-8.55949 444.45L22.0267 453.718L52.5992 444.45L83.1717 453.718L113.744 444.45L144.317 453.718L174.889 444.45L205.462 453.718L236.034 444.45L266.607 453.718L297.179 444.45L327.889 453.757L327.629 454.225L297.179 444.988L266.607 454.265Z" fill="#287E74" fill-opacity="0.25"/>
<path d="M266.607 445.416L236.034 436.149L205.462 445.416L174.889 436.149L144.317 445.416L113.744 436.149L83.1717 445.416L52.5992 436.149L22.0267 445.416L-8.55949 436.149L-39.132 445.416L-69.7045 436.149L-100.291 445.416L-131 436.109L-130.74 435.651L-100.291 444.879L-69.7045 435.611L-39.132 444.879L-8.55949 435.611L22.0267 444.879L52.5992 435.611L83.1717 444.879L113.744 435.611L144.317 444.879L174.889 435.611L205.462 444.879L236.034 435.611L266.607 444.879L297.179 435.611L327.889 444.919L327.629 445.376L297.179 436.149L266.607 445.416Z" fill="#287E74" fill-opacity="0.25"/>
<path d="M266.607 436.576L236.034 427.309L205.462 436.576L174.889 427.309L144.317 436.576L113.744 427.309L83.1717 436.576L52.5992 427.309L22.0267 436.576L-8.55949 427.309L-39.132 436.576L-69.7045 427.309L-100.291 436.576L-131 427.269L-130.74 426.811L-100.291 436.039L-69.7045 426.771L-39.132 436.039L-8.55949 426.771L22.0267 436.039L52.5992 426.771L83.1717 436.039L113.744 426.771L144.317 436.039L174.889 426.771L205.462 436.039L236.034 426.771L266.607 436.039L297.179 426.771L327.889 436.079L327.629 436.537L297.179 427.309L266.607 436.576Z" fill="#287E74" fill-opacity="0.25"/>
<path d="M266.607 427.738L236.034 418.47L205.462 427.738L174.889 418.47L144.317 427.738L113.744 418.47L83.1717 427.738L52.5992 418.47L22.0267 427.738L-8.55949 418.47L-39.132 427.738L-69.7045 418.47L-100.291 427.738L-131 418.43L-130.74 417.972L-100.291 427.2L-69.7045 417.933L-39.132 427.2L-8.55949 417.933L22.0267 427.2L52.5992 417.933L83.1717 427.2L113.744 417.933L144.317 427.2L174.889 417.933L205.462 427.2L236.034 417.933L266.607 427.2L297.179 417.933L327.889 427.24L327.629 427.698L297.179 418.47L266.607 427.738Z" fill="#287E74" fill-opacity="0.25"/>
<path d="M266.607 418.898L236.034 409.63L205.462 418.898L174.889 409.63L144.317 418.898L113.744 409.63L83.1717 418.898L52.5992 409.63L22.0267 418.898L-8.55949 409.63L-39.132 418.898L-69.7045 409.63L-100.291 418.898L-131 409.59L-130.74 409.133L-100.291 418.36L-69.7045 409.093L-39.132 418.36L-8.55949 409.093L22.0267 418.36L52.5992 409.093L83.1717 418.36L113.744 409.093L144.317 418.36L174.889 409.093L205.462 418.36L236.034 409.093L266.607 418.36L297.179 409.093L327.889 418.4L327.629 418.858L297.179 409.63L266.607 418.898Z" fill="#287E74" fill-opacity="0.25"/>
<path d="M266.607 410.058L236.034 400.791L205.462 410.058L174.889 400.791L144.317 410.058L113.744 400.791L83.1717 410.058L52.5992 400.791L22.0267 410.058L-8.55949 400.791L-39.132 410.058L-69.7045 400.791L-100.291 410.058L-131 400.751L-130.74 400.283L-100.291 409.521L-69.7045 400.243L-39.132 409.521L-8.55949 400.243L22.0267 409.521L52.5992 400.243L83.1717 409.521L113.744 400.243L144.317 409.521L174.889 400.243L205.462 409.521L236.034 400.243L266.607 409.521L297.179 400.243L327.889 409.56L327.629 410.018L297.179 400.791L266.607 410.058Z" fill="#287E74" fill-opacity="0.25"/>
<path d="M266.607 401.219L236.034 391.952L205.462 401.219L174.889 391.952L144.317 401.219L113.744 391.952L83.1717 401.219L52.5992 391.952L22.0267 401.219L-8.55949 391.952L-39.132 401.219L-69.7045 391.952L-100.291 401.219L-131 391.912L-130.74 391.444L-100.291 400.682L-69.7045 391.404L-39.132 400.682L-8.55949 391.404L22.0267 400.682L52.5992 391.404L83.1717 400.682L113.744 391.404L144.317 400.682L174.889 391.404L205.462 400.682L236.034 391.404L266.607 400.682L297.179 391.404L327.889 400.722L327.629 401.179L297.179 391.952L266.607 401.219Z" fill="#287E74" fill-opacity="0.25"/>
<path d="M266.607 392.379L236.034 383.102L205.462 392.379L174.889 383.102L144.317 392.379L113.744 383.102L83.1717 392.379L52.5992 383.102L22.0267 392.379L-8.55949 383.102L-39.132 392.379L-69.7045 383.102L-100.291 392.379L-131 383.062L-130.74 382.604L-100.291 391.842L-69.7045 382.564L-39.132 391.842L-8.55949 382.564L22.0267 391.842L52.5992 382.564L83.1717 391.842L113.744 382.564L144.317 391.842L174.889 382.564L205.462 391.842L236.034 382.564L266.607 391.842L297.179 382.564L327.889 391.882L327.629 392.34L297.179 383.102L266.607 392.379Z" fill="#287E74" fill-opacity="0.25"/>
<path d="M266.607 383.541L236.034 374.263L205.462 383.541L174.889 374.263L144.317 383.541L113.744 374.263L83.1717 383.541L52.5992 374.263L22.0267 383.541L-8.55949 374.263L-39.132 383.541L-69.7045 374.263L-100.291 383.541L-131 374.223L-130.74 373.765L-100.291 382.993L-69.7045 373.726L-39.132 382.993L-8.55949 373.726L22.0267 382.993L52.5992 373.726L83.1717 382.993L113.744 373.726L144.317 382.993L174.889 373.726L205.462 382.993L236.034 373.726L266.607 382.993L297.179 373.726L327.889 383.033L327.629 383.501L297.179 374.263L266.607 383.541Z" fill="#287E74" fill-opacity="0.25"/>
<path d="M266.607 374.691L236.034 365.423L205.462 374.691L174.889 365.423L144.317 374.691L113.744 365.423L83.172 374.691L52.5994 365.423L22.0269 374.691L-8.55925 365.423L-39.1318 374.691L-69.7043 365.423L-100.29 374.691L-131 365.383L-130.74 364.926L-100.29 374.153L-69.7043 364.886L-39.1318 374.153L-8.55925 364.886L22.0269 374.153L52.5994 364.886L83.172 374.153L113.744 364.886L144.317 374.153L174.889 364.886L205.462 374.153L236.034 364.886L266.607 374.153L297.179 364.886L327.889 374.193L327.629 374.651L297.179 365.423L266.607 374.691Z" fill="#287E74" fill-opacity="0.25"/>
<path d="M266.607 365.851L236.034 356.583L205.462 365.851L174.889 356.583L144.317 365.851L113.744 356.583L83.1717 365.851L52.5992 356.583L22.0267 365.851L-8.55949 356.583L-39.132 365.851L-69.7045 356.583L-100.291 365.851L-131 356.544L-130.74 356.086L-100.291 365.313L-69.7045 356.046L-39.132 365.313L-8.55949 356.046L22.0267 365.313L52.5992 356.046L83.1717 365.313L113.744 356.046L144.317 365.313L174.889 356.046L205.462 365.313L236.034 356.046L266.607 365.313L297.179 356.046L327.889 365.353L327.629 365.811L297.179 356.583L266.607 365.851Z" fill="#287E74" fill-opacity="0.25"/>
<path d="M266.607 357.012L236.034 347.745L205.462 357.012L174.889 347.745L144.317 357.012L113.744 347.745L83.1717 357.012L52.5992 347.745L22.0267 357.012L-8.55949 347.745L-39.132 357.012L-69.7045 347.745L-100.291 357.012L-131 347.705L-130.74 347.247L-100.291 356.474L-69.7045 347.207L-39.132 356.474L-8.55949 347.207L22.0267 356.474L52.5992 347.207L83.1717 356.474L113.744 347.207L144.317 356.474L174.889 347.207L205.462 356.474L236.034 347.207L266.607 356.474L297.179 347.207L327.889 356.514L327.629 356.972L297.179 347.745L266.607 357.012Z" fill="#287E74" fill-opacity="0.25"/>
<path d="M266.607 348.172L236.034 338.905L205.462 348.172L174.889 338.905L144.317 348.172L113.744 338.905L83.1717 348.172L52.5992 338.905L22.0267 348.172L-8.55949 338.905L-39.132 348.172L-69.7045 338.905L-100.291 348.172L-131 338.865L-130.74 338.397L-100.291 347.635L-69.7045 338.357L-39.132 347.635L-8.55949 338.357L22.0267 347.635L52.5992 338.357L83.1717 347.635L113.744 338.357L144.317 347.635L174.889 338.357L205.462 347.635L236.034 338.357L266.607 347.635L297.179 338.357L327.889 347.675L327.629 348.133L297.179 338.905L266.607 348.172Z" fill="#287E74" fill-opacity="0.25"/>
<path d="M266.607 339.333L236.034 330.066L205.462 339.333L174.889 330.066L144.317 339.333L113.744 330.066L83.1717 339.333L52.5992 330.066L22.0267 339.333L-8.55949 330.066L-39.132 339.333L-69.7045 330.066L-100.291 339.333L-131 330.026L-130.74 329.558L-100.291 338.796L-69.7045 329.519L-39.132 338.796L-8.55949 329.519L22.0267 338.796L52.5992 329.519L83.1717 338.796L113.744 329.519L144.317 338.796L174.889 329.519L205.462 338.796L236.034 329.519L266.607 338.796L297.179 329.519L327.889 338.836L327.629 339.294L297.179 330.066L266.607 339.333Z" fill="#287E74" fill-opacity="0.25"/>
<path d="M266.607 330.494L236.034 321.216L205.462 330.494L174.889 321.216L144.317 330.494L113.744 321.216L83.1717 330.494L52.5992 321.216L22.0267 330.494L-8.55949 321.216L-39.132 330.494L-69.7045 321.216L-100.291 330.494L-131 321.176L-130.74 320.719L-100.291 329.956L-69.7045 320.679L-39.132 329.956L-8.55949 320.679L22.0267 329.956L52.5992 320.679L83.1717 329.956L113.744 320.679L144.317 329.956L174.889 320.679L205.462 329.956L236.034 320.679L266.607 329.956L297.179 320.679L327.889 329.996L327.629 330.454L297.179 321.216L266.607 330.494Z" fill="#287E74" fill-opacity="0.25"/>
<path d="M266.607 321.655L236.034 312.377L205.462 321.655L174.889 312.377L144.317 321.655L113.744 312.377L83.1717 321.655L52.5992 312.377L22.0267 321.655L-8.55949 312.377L-39.132 321.655L-69.7045 312.377L-100.291 321.655L-131 312.338L-130.74 311.88L-100.291 321.107L-69.7045 311.84L-39.132 321.107L-8.55949 311.84L22.0267 321.107L52.5992 311.84L83.1717 321.107L113.744 311.84L144.317 321.107L174.889 311.84L205.462 321.107L236.034 311.84L266.607 321.107L297.179 311.84L327.889 321.147L327.629 321.615L297.179 312.377L266.607 321.655Z" fill="#287E74" fill-opacity="0.25"/>
<path d="M266.607 312.815L236.034 303.538L205.462 312.815L174.889 303.538L144.317 312.815L113.744 303.538L83.1717 312.815L52.5992 303.538L22.0267 312.815L-8.55949 303.538L-39.132 312.815L-69.7045 303.538L-100.291 312.815L-131 303.498L-130.74 303.04L-100.291 312.267L-69.7045 303L-39.132 312.267L-8.55949 303L22.0267 312.267L52.5992 303L83.1717 312.267L113.744 303L144.317 312.267L174.889 303L205.462 312.267L236.034 303L266.607 312.267L297.179 303L327.889 312.307L327.629 312.775L297.179 303.538L266.607 312.815Z" fill="#287E74" fill-opacity="0.25"/>
<path d="M1234.06 4.10284C1235.19 4.10284 1236.11 3.18264 1236.11 2.04752C1236.11 0.912391 1235.19 -0.0078125 1234.06 -0.0078125C1232.92 -0.0078125 1232 0.912391 1232 2.04752C1232 3.18264 1232.92 4.10284 1234.06 4.10284Z" fill="black" fill-opacity="0.21"/>
<path d="M1263.81 4.10284C1264.94 4.10284 1265.86 3.18264 1265.86 2.04752C1265.86 0.912391 1264.94 -0.0078125 1263.81 -0.0078125C1262.67 -0.0078125 1261.75 0.912391 1261.75 2.04752C1261.75 3.18264 1262.67 4.10284 1263.81 4.10284Z" fill="black" fill-opacity="0.21"/>
<path d="M1293.56 4.10284C1294.69 4.10284 1295.61 3.18264 1295.61 2.04752C1295.61 0.912391 1294.69 -0.0078125 1293.56 -0.0078125C1292.42 -0.0078125 1291.5 0.912391 1291.5 2.04752C1291.5 3.18264 1292.42 4.10284 1293.56 4.10284Z" fill="black" fill-opacity="0.21"/>
<path d="M1323.31 4.10284C1324.45 4.10284 1325.37 3.18264 1325.37 2.04752C1325.37 0.912391 1324.45 -0.0078125 1323.31 -0.0078125C1322.18 -0.0078125 1321.25 0.912391 1321.25 2.04752C1321.25 3.18264 1322.18 4.10284 1323.31 4.10284Z" fill="black" fill-opacity="0.21"/>
<path d="M1353.06 4.10284C1354.2 4.10284 1355.12 3.18264 1355.12 2.04752C1355.12 0.912391 1354.2 -0.0078125 1353.06 -0.0078125C1351.93 -0.0078125 1351.01 0.912391 1351.01 2.04752C1351.01 3.18264 1351.93 4.10284 1353.06 4.10284Z" fill="black" fill-opacity="0.21"/>
<path d="M1382.81 4.10284C1383.95 4.10284 1384.87 3.18264 1384.87 2.04752C1384.87 0.912391 1383.95 -0.0078125 1382.81 -0.0078125C1381.68 -0.0078125 1380.76 0.912391 1380.76 2.04752C1380.76 3.18264 1381.68 4.10284 1382.81 4.10284Z" fill="black" fill-opacity="0.21"/>
<path d="M1414.62 2.04752C1414.62 3.17626 1413.69 4.10284 1412.57 4.10284C1411.44 4.10284 1410.51 3.17626 1410.51 2.04752C1410.51 0.918771 1411.44 -0.0078125 1412.57 -0.0078125C1413.71 -0.0078125 1414.62 0.918771 1414.62 2.04752Z" fill="black" fill-opacity="0.21"/>
<path d="M1234.06 24.0999C1235.19 24.0999 1236.11 23.1797 1236.11 22.0446C1236.11 20.9095 1235.19 19.9893 1234.06 19.9893C1232.92 19.9893 1232 20.9095 1232 22.0446C1232 23.1797 1232.92 24.0999 1234.06 24.0999Z" fill="black" fill-opacity="0.21"/>
<path d="M1263.81 24.0999C1264.94 24.0999 1265.86 23.1797 1265.86 22.0446C1265.86 20.9095 1264.94 19.9893 1263.81 19.9893C1262.67 19.9893 1261.75 20.9095 1261.75 22.0446C1261.75 23.1797 1262.67 24.0999 1263.81 24.0999Z" fill="black" fill-opacity="0.21"/>
<path d="M1293.56 24.0999C1294.69 24.0999 1295.61 23.1797 1295.61 22.0446C1295.61 20.9095 1294.69 19.9893 1293.56 19.9893C1292.42 19.9893 1291.5 20.9095 1291.5 22.0446C1291.5 23.1797 1292.42 24.0999 1293.56 24.0999Z" fill="black" fill-opacity="0.21"/>
<path d="M1323.31 24.0999C1324.45 24.0999 1325.37 23.1797 1325.37 22.0446C1325.37 20.9095 1324.45 19.9893 1323.31 19.9893C1322.18 19.9893 1321.25 20.9095 1321.25 22.0446C1321.25 23.1797 1322.18 24.0999 1323.31 24.0999Z" fill="black" fill-opacity="0.21"/>
<path d="M1353.06 24.0999C1354.2 24.0999 1355.12 23.1797 1355.12 22.0446C1355.12 20.9095 1354.2 19.9893 1353.06 19.9893C1351.93 19.9893 1351.01 20.9095 1351.01 22.0446C1351.01 23.1797 1351.93 24.0999 1353.06 24.0999Z" fill="black" fill-opacity="0.21"/>
<path d="M1382.81 24.0999C1383.95 24.0999 1384.87 23.1797 1384.87 22.0446C1384.87 20.9095 1383.95 19.9893 1382.81 19.9893C1381.68 19.9893 1380.76 20.9095 1380.76 22.0446C1380.76 23.1797 1381.68 24.0999 1382.81 24.0999Z" fill="black" fill-opacity="0.21"/>
<path d="M1414.62 22.0446C1414.62 23.1733 1413.69 24.0999 1412.57 24.0999C1411.44 24.0999 1410.51 23.1733 1410.51 22.0446C1410.51 20.9158 1411.44 19.9893 1412.57 19.9893C1413.71 19.9893 1414.62 20.9158 1414.62 22.0446Z" fill="black" fill-opacity="0.21"/>
<path d="M133.996 423V414.06H135.076L138.424 418.824H137.872L141.196 414.06H142.276V423H141.088V415.548L141.508 415.68L138.184 420.36H138.088L134.8 415.68L135.172 415.548V423H133.996ZM147.106 423.144C146.482 423.144 145.926 422.996 145.438 422.7C144.95 422.404 144.566 422 144.286 421.488C144.006 420.968 143.866 420.388 143.866 419.748C143.866 419.1 144.002 418.524 144.274 418.02C144.554 417.516 144.93 417.12 145.402 416.832C145.882 416.536 146.418 416.388 147.01 416.388C147.49 416.388 147.914 416.476 148.282 416.652C148.658 416.82 148.974 417.052 149.23 417.348C149.494 417.636 149.694 417.968 149.83 418.344C149.974 418.712 150.046 419.096 150.046 419.496C150.046 419.584 150.038 419.684 150.022 419.796C150.014 419.9 150.002 420 149.986 420.096H144.682V419.136H149.338L148.81 419.568C148.882 419.152 148.842 418.78 148.69 418.452C148.538 418.124 148.314 417.864 148.018 417.672C147.722 417.48 147.386 417.384 147.01 417.384C146.634 417.384 146.29 417.48 145.978 417.672C145.666 417.864 145.422 418.14 145.246 418.5C145.078 418.852 145.01 419.272 145.042 419.76C145.01 420.232 145.082 420.648 145.258 421.008C145.442 421.36 145.698 421.636 146.026 421.836C146.362 422.028 146.726 422.124 147.118 422.124C147.55 422.124 147.914 422.024 148.21 421.824C148.506 421.624 148.746 421.368 148.93 421.056L149.866 421.536C149.738 421.832 149.538 422.104 149.266 422.352C149.002 422.592 148.686 422.784 148.318 422.928C147.958 423.072 147.554 423.144 147.106 423.144ZM154.129 423.072C153.497 423.072 153.009 422.892 152.665 422.532C152.329 422.172 152.161 421.664 152.161 421.008V417.6H150.985V416.532H151.225C151.513 416.532 151.741 416.444 151.909 416.268C152.077 416.092 152.161 415.86 152.161 415.572V415.044H153.277V416.532H154.729V417.6H153.277V420.972C153.277 421.188 153.309 421.376 153.373 421.536C153.445 421.696 153.561 421.824 153.721 421.92C153.881 422.008 154.093 422.052 154.357 422.052C154.413 422.052 154.481 422.048 154.561 422.04C154.649 422.032 154.729 422.024 154.801 422.016V423C154.697 423.024 154.581 423.04 154.453 423.048C154.325 423.064 154.217 423.072 154.129 423.072ZM158.073 423.144C157.649 423.144 157.273 423.068 156.945 422.916C156.625 422.756 156.373 422.54 156.189 422.268C156.005 421.988 155.913 421.668 155.913 421.308C155.913 420.964 155.985 420.656 156.129 420.384C156.281 420.104 156.513 419.868 156.825 419.676C157.145 419.484 157.545 419.348 158.025 419.268L160.425 418.872V419.808L158.277 420.168C157.861 420.24 157.557 420.372 157.365 420.564C157.181 420.756 157.089 420.992 157.089 421.272C157.089 421.536 157.193 421.756 157.401 421.932C157.617 422.108 157.885 422.196 158.205 422.196C158.613 422.196 158.965 422.112 159.261 421.944C159.565 421.768 159.801 421.532 159.969 421.236C160.145 420.94 160.233 420.612 160.233 420.252V418.608C160.233 418.256 160.101 417.972 159.837 417.756C159.581 417.532 159.241 417.42 158.817 417.42C158.449 417.42 158.121 417.516 157.833 417.708C157.553 417.892 157.345 418.14 157.209 418.452L156.237 417.948C156.357 417.652 156.549 417.388 156.812 417.156C157.077 416.916 157.385 416.728 157.737 416.592C158.089 416.456 158.457 416.388 158.84 416.388C159.337 416.388 159.773 416.484 160.149 416.676C160.525 416.86 160.817 417.12 161.025 417.456C161.241 417.784 161.349 418.168 161.349 418.608V423H160.257V421.776L160.461 421.848C160.325 422.104 160.141 422.328 159.909 422.52C159.677 422.712 159.405 422.864 159.093 422.976C158.781 423.088 158.441 423.144 158.073 423.144ZM163.211 423V414.06H166.139C167.043 414.06 167.831 414.244 168.503 414.612C169.175 414.98 169.695 415.5 170.063 416.172C170.431 416.836 170.615 417.62 170.615 418.524C170.615 419.42 170.431 420.204 170.063 420.876C169.695 421.548 169.175 422.072 168.503 422.448C167.831 422.816 167.043 423 166.139 423H163.211ZM164.387 421.92H166.151C166.815 421.92 167.387 421.78 167.867 421.5C168.355 421.22 168.731 420.828 168.995 420.324C169.259 419.812 169.391 419.212 169.391 418.524C169.391 417.828 169.255 417.228 168.983 416.724C168.719 416.22 168.343 415.832 167.855 415.56C167.375 415.28 166.807 415.14 166.151 415.14H164.387V421.92ZM173.787 423.144C173.363 423.144 172.987 423.068 172.659 422.916C172.339 422.756 172.087 422.54 171.903 422.268C171.719 421.988 171.627 421.668 171.627 421.308C171.627 420.964 171.699 420.656 171.843 420.384C171.995 420.104 172.227 419.868 172.539 419.676C172.859 419.484 173.259 419.348 173.739 419.268L176.139 418.872V419.808L173.991 420.168C173.575 420.24 173.271 420.372 173.079 420.564C172.895 420.756 172.803 420.992 172.803 421.272C172.803 421.536 172.907 421.756 173.115 421.932C173.331 422.108 173.599 422.196 173.919 422.196C174.327 422.196 174.679 422.112 174.975 421.944C175.279 421.768 175.515 421.532 175.683 421.236C175.859 420.94 175.947 420.612 175.947 420.252V418.608C175.947 418.256 175.815 417.972 175.551 417.756C175.295 417.532 174.955 417.42 174.531 417.42C174.163 417.42 173.835 417.516 173.547 417.708C173.267 417.892 173.059 418.14 172.923 418.452L171.951 417.948C172.071 417.652 172.263 417.388 172.527 417.156C172.791 416.916 173.099 416.728 173.451 416.592C173.803 416.456 174.171 416.388 174.555 416.388C175.051 416.388 175.487 416.484 175.863 416.676C176.239 416.86 176.531 417.12 176.739 417.456C176.955 417.784 177.063 418.168 177.063 418.608V423H175.971V421.776L176.175 421.848C176.039 422.104 175.855 422.328 175.623 422.52C175.391 422.712 175.119 422.864 174.807 422.976C174.495 423.088 174.155 423.144 173.787 423.144ZM178.794 425.4V416.532H179.886V417.924L179.742 417.648C179.982 417.264 180.31 416.96 180.726 416.736C181.142 416.504 181.618 416.388 182.154 416.388C182.762 416.388 183.306 416.536 183.786 416.832C184.274 417.128 184.658 417.532 184.938 418.044C185.218 418.548 185.358 419.124 185.358 419.772C185.358 420.404 185.218 420.976 184.938 421.488C184.658 422 184.274 422.404 183.786 422.7C183.306 422.996 182.758 423.144 182.142 423.144C181.622 423.144 181.146 423.028 180.714 422.796C180.29 422.564 179.962 422.236 179.73 421.812L179.91 421.62V425.4H178.794ZM182.058 422.064C182.466 422.064 182.83 421.964 183.15 421.764C183.47 421.564 183.718 421.292 183.894 420.948C184.078 420.596 184.17 420.204 184.17 419.772C184.17 419.324 184.078 418.932 183.894 418.596C183.718 418.252 183.47 417.98 183.15 417.78C182.83 417.572 182.466 417.468 182.058 417.468C181.65 417.468 181.282 417.568 180.954 417.768C180.634 417.968 180.378 418.244 180.186 418.596C180.002 418.94 179.91 419.332 179.91 419.772C179.91 420.204 180.002 420.596 180.186 420.948C180.378 421.292 180.634 421.564 180.954 421.764C181.282 421.964 181.65 422.064 182.058 422.064ZM193.491 423.144C192.851 423.144 192.251 423.028 191.691 422.796C191.131 422.556 190.639 422.224 190.215 421.8C189.791 421.376 189.459 420.884 189.219 420.324C188.987 419.764 188.871 419.164 188.871 418.524C188.871 417.884 188.987 417.288 189.219 416.736C189.459 416.184 189.791 415.696 190.215 415.272C190.639 414.848 191.127 414.516 191.679 414.276C192.239 414.036 192.843 413.916 193.491 413.916C194.131 413.916 194.727 414.036 195.279 414.276C195.839 414.516 196.331 414.848 196.755 415.272C197.179 415.688 197.507 416.176 197.739 416.736C197.979 417.288 198.099 417.884 198.099 418.524C198.099 419.164 197.979 419.764 197.739 420.324C197.507 420.884 197.179 421.376 196.755 421.8C196.331 422.224 195.839 422.556 195.279 422.796C194.727 423.028 194.131 423.144 193.491 423.144ZM193.491 422.208C194.011 422.208 194.491 422.116 194.931 421.932C195.379 421.74 195.771 421.476 196.107 421.14C196.443 420.804 196.703 420.412 196.887 419.964C197.079 419.516 197.175 419.036 197.175 418.524C197.175 418.012 197.079 417.536 196.887 417.096C196.703 416.648 196.443 416.256 196.107 415.92C195.771 415.584 195.379 415.32 194.931 415.128C194.491 414.936 194.011 414.84 193.491 414.84C192.979 414.84 192.499 414.936 192.051 415.128C191.603 415.312 191.211 415.572 190.875 415.908C190.539 416.244 190.275 416.636 190.083 417.084C189.899 417.524 189.807 418.004 189.807 418.524C189.807 419.036 189.899 419.516 190.083 419.964C190.275 420.412 190.539 420.804 190.875 421.14C191.211 421.476 191.603 421.74 192.051 421.932C192.499 422.116 192.979 422.208 193.491 422.208ZM193.563 421.044C193.099 421.044 192.679 420.936 192.303 420.72C191.935 420.496 191.643 420.196 191.427 419.82C191.219 419.436 191.115 419.004 191.115 418.524C191.115 418.036 191.219 417.604 191.427 417.228C191.643 416.852 191.935 416.556 192.303 416.34C192.671 416.124 193.091 416.016 193.563 416.016C193.907 416.016 194.219 416.076 194.499 416.196C194.787 416.308 195.027 416.464 195.219 416.664C195.411 416.856 195.547 417.068 195.627 417.3L194.775 417.684C194.687 417.46 194.539 417.272 194.331 417.12C194.123 416.96 193.867 416.88 193.563 416.88C193.123 416.88 192.763 417.032 192.483 417.336C192.211 417.64 192.075 418.036 192.075 418.524C192.075 419.012 192.211 419.408 192.483 419.712C192.763 420.016 193.123 420.168 193.563 420.168C193.851 420.168 194.099 420.096 194.307 419.952C194.523 419.8 194.679 419.608 194.775 419.376L195.627 419.76C195.547 419.992 195.411 420.208 195.219 420.408C195.027 420.6 194.787 420.756 194.499 420.876C194.219 420.988 193.907 421.044 193.563 421.044ZM201.664 423V422.184L204.136 419.508C204.624 418.988 205.012 418.56 205.3 418.224C205.596 417.888 205.812 417.588 205.948 417.324C206.084 417.06 206.152 416.78 206.152 416.484C206.152 415.996 206.008 415.62 205.72 415.356C205.432 415.092 205.052 414.96 204.58 414.96C204.1 414.96 203.692 415.1 203.356 415.38C203.02 415.652 202.788 416.04 202.66 416.544L201.592 416.268C201.696 415.788 201.888 415.372 202.168 415.02C202.448 414.668 202.796 414.396 203.212 414.204C203.628 414.012 204.084 413.916 204.58 413.916C205.124 413.916 205.6 414.024 206.008 414.24C206.424 414.448 206.748 414.74 206.98 415.116C207.22 415.492 207.34 415.928 207.34 416.424C207.34 416.752 207.272 417.072 207.136 417.384C207 417.696 206.8 418.028 206.536 418.38C206.272 418.724 205.928 419.124 205.504 419.58L203.296 421.98H207.532V423H201.664ZM212.555 423.144C211.843 423.144 211.219 422.952 210.683 422.568C210.155 422.176 209.743 421.636 209.447 420.948C209.151 420.252 209.003 419.444 209.003 418.524C209.003 417.604 209.151 416.8 209.447 416.112C209.743 415.416 210.155 414.876 210.683 414.492C211.211 414.108 211.831 413.916 212.543 413.916C213.255 413.916 213.875 414.108 214.403 414.492C214.931 414.876 215.343 415.416 215.639 416.112C215.943 416.8 216.095 417.604 216.095 418.524C216.095 419.444 215.947 420.252 215.651 420.948C215.355 421.644 214.939 422.184 214.403 422.568C213.875 422.952 213.259 423.144 212.555 423.144ZM212.555 422.052C213.035 422.052 213.451 421.908 213.803 421.62C214.155 421.324 214.427 420.912 214.619 420.384C214.819 419.856 214.919 419.236 214.919 418.524C214.919 417.812 214.819 417.192 214.619 416.664C214.427 416.136 214.151 415.728 213.791 415.44C213.439 415.152 213.023 415.008 212.543 415.008C212.063 415.008 211.647 415.152 211.295 415.44C210.943 415.728 210.667 416.136 210.467 416.664C210.275 417.192 210.179 417.812 210.179 418.524C210.179 419.228 210.275 419.844 210.467 420.372C210.667 420.9 210.943 421.312 211.295 421.608C211.655 421.904 212.075 422.052 212.555 422.052ZM217.531 423V422.184L220.003 419.508C220.491 418.988 220.879 418.56 221.167 418.224C221.463 417.888 221.679 417.588 221.815 417.324C221.951 417.06 222.019 416.78 222.019 416.484C222.019 415.996 221.875 415.62 221.587 415.356C221.299 415.092 220.919 414.96 220.447 414.96C219.967 414.96 219.559 415.1 219.223 415.38C218.887 415.652 218.655 416.04 218.527 416.544L217.459 416.268C217.563 415.788 217.755 415.372 218.035 415.02C218.315 414.668 218.663 414.396 219.079 414.204C219.495 414.012 219.951 413.916 220.447 413.916C220.991 413.916 221.467 414.024 221.875 414.24C222.291 414.448 222.615 414.74 222.847 415.116C223.087 415.492 223.207 415.928 223.207 416.424C223.207 416.752 223.139 417.072 223.003 417.384C222.867 417.696 222.667 418.028 222.403 418.38C222.139 418.724 221.795 419.124 221.371 419.58L219.163 421.98H223.399V423H217.531ZM224.714 423V422.184L227.186 419.508C227.674 418.988 228.062 418.56 228.35 418.224C228.646 417.888 228.862 417.588 228.998 417.324C229.134 417.06 229.202 416.78 229.202 416.484C229.202 415.996 229.058 415.62 228.77 415.356C228.482 415.092 228.102 414.96 227.63 414.96C227.15 414.96 226.742 415.1 226.406 415.38C226.07 415.652 225.838 416.04 225.71 416.544L224.642 416.268C224.746 415.788 224.938 415.372 225.218 415.02C225.498 414.668 225.846 414.396 226.262 414.204C226.678 414.012 227.134 413.916 227.63 413.916C228.174 413.916 228.65 414.024 229.058 414.24C229.474 414.448 229.798 414.74 230.03 415.116C230.27 415.492 230.39 415.928 230.39 416.424C230.39 416.752 230.322 417.072 230.186 417.384C230.05 417.696 229.85 418.028 229.586 418.38C229.322 418.724 228.978 419.124 228.554 419.58L226.346 421.98H230.582V423H224.714ZM233.456 423L236.66 414.06H238.052L241.256 423H239.996L239.264 420.9H235.448L234.716 423H233.456ZM235.82 419.82H238.892L237.188 414.912H237.524L235.82 419.82ZM242.251 423V413.916H243.367V423H242.251ZM245.098 423V413.916H246.214V423H245.098ZM250.02 423V416.532H251.112V417.72L250.992 417.552C251.144 417.184 251.376 416.912 251.688 416.736C252 416.552 252.38 416.46 252.828 416.46H253.224V417.516H252.66C252.204 417.516 251.836 417.66 251.556 417.948C251.276 418.228 251.136 418.628 251.136 419.148V423H250.02ZM254.216 423V416.532H255.332V423H254.216ZM254.216 415.5V414.06H255.332V415.5H254.216ZM260.147 425.64C259.691 425.64 259.267 425.568 258.875 425.424C258.491 425.28 258.159 425.08 257.879 424.824C257.607 424.576 257.399 424.284 257.255 423.948L258.299 423.468C258.411 423.772 258.623 424.028 258.935 424.236C259.255 424.452 259.655 424.56 260.135 424.56C260.503 424.56 260.835 424.488 261.131 424.344C261.435 424.208 261.675 424 261.851 423.72C262.027 423.448 262.115 423.116 262.115 422.724V421.272L262.319 421.488C262.095 421.928 261.771 422.264 261.347 422.496C260.931 422.728 260.471 422.844 259.967 422.844C259.359 422.844 258.815 422.704 258.335 422.424C257.855 422.136 257.479 421.748 257.207 421.26C256.935 420.764 256.799 420.216 256.799 419.616C256.799 419.008 256.935 418.46 257.207 417.972C257.479 417.484 257.851 417.1 258.323 416.82C258.803 416.532 259.347 416.388 259.955 416.388C260.459 416.388 260.915 416.504 261.323 416.736C261.739 416.96 262.071 417.272 262.319 417.672L262.151 417.972V416.532H263.243V422.724C263.243 423.284 263.111 423.784 262.847 424.224C262.583 424.664 262.215 425.008 261.743 425.256C261.279 425.512 260.747 425.64 260.147 425.64ZM260.063 421.764C260.447 421.764 260.791 421.668 261.095 421.476C261.407 421.284 261.655 421.028 261.839 420.708C262.023 420.38 262.115 420.016 262.115 419.616C262.115 419.224 262.023 418.864 261.839 418.536C261.655 418.208 261.407 417.948 261.095 417.756C260.791 417.564 260.447 417.468 260.063 417.468C259.671 417.468 259.315 417.564 258.995 417.756C258.675 417.948 258.423 418.208 258.239 418.536C258.063 418.856 257.975 419.216 257.975 419.616C257.975 420.016 258.063 420.38 258.239 420.708C258.423 421.028 258.671 421.284 258.983 421.476C259.303 421.668 259.663 421.764 260.063 421.764ZM264.973 423V413.916H266.089V417.792L265.885 417.684C266.045 417.276 266.301 416.96 266.653 416.736C267.013 416.504 267.433 416.388 267.913 416.388C268.377 416.388 268.789 416.492 269.149 416.7C269.517 416.908 269.805 417.196 270.013 417.564C270.229 417.932 270.337 418.348 270.337 418.812V423H269.209V419.172C269.209 418.812 269.141 418.508 269.005 418.26C268.877 418.012 268.697 417.82 268.465 417.684C268.233 417.54 267.965 417.468 267.661 417.468C267.365 417.468 267.097 417.54 266.857 417.684C266.617 417.82 266.429 418.016 266.293 418.272C266.157 418.52 266.089 418.82 266.089 419.172V423H264.973ZM274.562 423.072C273.93 423.072 273.442 422.892 273.098 422.532C272.762 422.172 272.594 421.664 272.594 421.008V417.6H271.418V416.532H271.658C271.946 416.532 272.174 416.444 272.342 416.268C272.51 416.092 272.594 415.86 272.594 415.572V415.044H273.71V416.532H275.162V417.6H273.71V420.972C273.71 421.188 273.742 421.376 273.806 421.536C273.878 421.696 273.994 421.824 274.154 421.92C274.314 422.008 274.526 422.052 274.79 422.052C274.846 422.052 274.914 422.048 274.994 422.04C275.082 422.032 275.162 422.024 275.234 422.016V423C275.13 423.024 275.014 423.04 274.886 423.048C274.758 423.064 274.65 423.072 274.562 423.072ZM279.008 423.144C278.36 423.144 277.796 422.984 277.316 422.664C276.836 422.344 276.496 421.912 276.296 421.368L277.184 420.936C277.368 421.32 277.62 421.624 277.94 421.848C278.26 422.072 278.616 422.184 279.008 422.184C279.36 422.184 279.652 422.1 279.884 421.932C280.116 421.764 280.232 421.544 280.232 421.272C280.232 421.08 280.176 420.928 280.064 420.816C279.96 420.696 279.832 420.604 279.68 420.54C279.528 420.468 279.388 420.416 279.26 420.384L278.288 420.108C277.704 419.94 277.276 419.7 277.004 419.388C276.74 419.076 276.608 418.712 276.608 418.296C276.608 417.912 276.704 417.58 276.896 417.3C277.096 417.012 277.364 416.788 277.7 416.628C278.044 416.468 278.428 416.388 278.852 416.388C279.42 416.388 279.928 416.532 280.376 416.82C280.832 417.108 281.156 417.512 281.348 418.032L280.436 418.452C280.292 418.116 280.076 417.852 279.788 417.66C279.5 417.46 279.176 417.36 278.816 417.36C278.488 417.36 278.228 417.444 278.036 417.612C277.844 417.772 277.748 417.976 277.748 418.224C277.748 418.408 277.796 418.56 277.892 418.68C277.988 418.792 278.104 418.88 278.24 418.944C278.376 419 278.508 419.048 278.636 419.088L279.692 419.4C280.22 419.552 280.628 419.788 280.916 420.108C281.212 420.428 281.36 420.812 281.36 421.26C281.36 421.62 281.26 421.944 281.06 422.232C280.86 422.52 280.584 422.744 280.232 422.904C279.88 423.064 279.472 423.144 279.008 423.144ZM284.895 423V416.532H285.987V417.72L285.867 417.552C286.019 417.184 286.251 416.912 286.563 416.736C286.875 416.552 287.255 416.46 287.703 416.46H288.099V417.516H287.535C287.079 417.516 286.711 417.66 286.431 417.948C286.151 418.228 286.011 418.628 286.011 419.148V423H284.895ZM292.067 423.144C291.443 423.144 290.887 422.996 290.399 422.7C289.911 422.404 289.527 422 289.247 421.488C288.967 420.968 288.827 420.388 288.827 419.748C288.827 419.1 288.963 418.524 289.235 418.02C289.515 417.516 289.891 417.12 290.363 416.832C290.843 416.536 291.379 416.388 291.971 416.388C292.451 416.388 292.875 416.476 293.243 416.652C293.619 416.82 293.935 417.052 294.191 417.348C294.455 417.636 294.655 417.968 294.791 418.344C294.935 418.712 295.007 419.096 295.007 419.496C295.007 419.584 294.999 419.684 294.983 419.796C294.975 419.9 294.963 420 294.947 420.096H289.643V419.136H294.299L293.771 419.568C293.843 419.152 293.803 418.78 293.651 418.452C293.499 418.124 293.275 417.864 292.979 417.672C292.683 417.48 292.347 417.384 291.971 417.384C291.595 417.384 291.251 417.48 290.939 417.672C290.627 417.864 290.383 418.14 290.207 418.5C290.039 418.852 289.971 419.272 290.003 419.76C289.971 420.232 290.043 420.648 290.219 421.008C290.403 421.36 290.659 421.636 290.987 421.836C291.323 422.028 291.687 422.124 292.079 422.124C292.511 422.124 292.875 422.024 293.171 421.824C293.467 421.624 293.707 421.368 293.891 421.056L294.827 421.536C294.699 421.832 294.499 422.104 294.227 422.352C293.963 422.592 293.647 422.784 293.279 422.928C292.919 423.072 292.515 423.144 292.067 423.144ZM298.778 423.144C298.13 423.144 297.566 422.984 297.086 422.664C296.606 422.344 296.266 421.912 296.066 421.368L296.954 420.936C297.138 421.32 297.39 421.624 297.71 421.848C298.03 422.072 298.386 422.184 298.778 422.184C299.13 422.184 299.422 422.1 299.654 421.932C299.886 421.764 300.002 421.544 300.002 421.272C300.002 421.08 299.946 420.928 299.834 420.816C299.73 420.696 299.602 420.604 299.45 420.54C299.298 420.468 299.158 420.416 299.03 420.384L298.058 420.108C297.474 419.94 297.046 419.7 296.774 419.388C296.51 419.076 296.378 418.712 296.378 418.296C296.378 417.912 296.474 417.58 296.666 417.3C296.866 417.012 297.134 416.788 297.47 416.628C297.814 416.468 298.198 416.388 298.622 416.388C299.19 416.388 299.698 416.532 300.146 416.82C300.602 417.108 300.926 417.512 301.118 418.032L300.206 418.452C300.062 418.116 299.846 417.852 299.558 417.66C299.27 417.46 298.946 417.36 298.586 417.36C298.258 417.36 297.998 417.444 297.806 417.612C297.614 417.772 297.518 417.976 297.518 418.224C297.518 418.408 297.566 418.56 297.662 418.68C297.758 418.792 297.874 418.88 298.01 418.944C298.146 419 298.278 419.048 298.406 419.088L299.462 419.4C299.99 419.552 300.398 419.788 300.686 420.108C300.982 420.428 301.13 420.812 301.13 421.26C301.13 421.62 301.03 421.944 300.83 422.232C300.63 422.52 300.354 422.744 300.002 422.904C299.65 423.064 299.242 423.144 298.778 423.144ZM305.567 423.144C304.943 423.144 304.387 422.996 303.899 422.7C303.411 422.404 303.027 422 302.747 421.488C302.467 420.968 302.327 420.388 302.327 419.748C302.327 419.1 302.463 418.524 302.735 418.02C303.015 417.516 303.391 417.12 303.863 416.832C304.343 416.536 304.879 416.388 305.471 416.388C305.951 416.388 306.375 416.476 306.743 416.652C307.119 416.82 307.435 417.052 307.691 417.348C307.955 417.636 308.155 417.968 308.291 418.344C308.435 418.712 308.507 419.096 308.507 419.496C308.507 419.584 308.499 419.684 308.483 419.796C308.475 419.9 308.463 420 308.447 420.096H303.143V419.136H307.799L307.271 419.568C307.343 419.152 307.303 418.78 307.151 418.452C306.999 418.124 306.775 417.864 306.479 417.672C306.183 417.48 305.847 417.384 305.471 417.384C305.095 417.384 304.751 417.48 304.439 417.672C304.127 417.864 303.883 418.14 303.707 418.5C303.539 418.852 303.471 419.272 303.503 419.76C303.471 420.232 303.543 420.648 303.719 421.008C303.903 421.36 304.159 421.636 304.487 421.836C304.823 422.028 305.187 422.124 305.579 422.124C306.011 422.124 306.375 422.024 306.671 421.824C306.967 421.624 307.207 421.368 307.391 421.056L308.327 421.536C308.199 421.832 307.999 422.104 307.727 422.352C307.463 422.592 307.147 422.784 306.779 422.928C306.419 423.072 306.015 423.144 305.567 423.144ZM309.962 423V416.532H311.054V417.72L310.934 417.552C311.086 417.184 311.318 416.912 311.63 416.736C311.942 416.552 312.322 416.46 312.77 416.46H313.166V417.516H312.602C312.146 417.516 311.778 417.66 311.498 417.948C311.218 418.228 311.078 418.628 311.078 419.148V423H309.962ZM315.957 423L313.425 416.532H314.673L316.701 422.004H316.269L318.309 416.532H319.557L317.013 423H315.957ZM323.414 423.144C322.79 423.144 322.234 422.996 321.746 422.7C321.258 422.404 320.874 422 320.594 421.488C320.314 420.968 320.174 420.388 320.174 419.748C320.174 419.1 320.31 418.524 320.582 418.02C320.862 417.516 321.238 417.12 321.71 416.832C322.19 416.536 322.726 416.388 323.318 416.388C323.798 416.388 324.222 416.476 324.59 416.652C324.966 416.82 325.282 417.052 325.538 417.348C325.802 417.636 326.002 417.968 326.138 418.344C326.282 418.712 326.354 419.096 326.354 419.496C326.354 419.584 326.346 419.684 326.33 419.796C326.322 419.9 326.31 420 326.294 420.096H320.99V419.136H325.646L325.118 419.568C325.19 419.152 325.15 418.78 324.998 418.452C324.846 418.124 324.622 417.864 324.326 417.672C324.03 417.48 323.694 417.384 323.318 417.384C322.942 417.384 322.598 417.48 322.286 417.672C321.974 417.864 321.73 418.14 321.554 418.5C321.386 418.852 321.318 419.272 321.35 419.76C321.318 420.232 321.39 420.648 321.566 421.008C321.75 421.36 322.006 421.636 322.334 421.836C322.67 422.028 323.034 422.124 323.426 422.124C323.858 422.124 324.222 422.024 324.518 421.824C324.814 421.624 325.054 421.368 325.238 421.056L326.174 421.536C326.046 421.832 325.846 422.104 325.574 422.352C325.31 422.592 324.994 422.784 324.626 422.928C324.266 423.072 323.862 423.144 323.414 423.144ZM330.749 423.144C330.141 423.144 329.593 422.996 329.105 422.7C328.625 422.404 328.245 422 327.965 421.488C327.685 420.976 327.545 420.404 327.545 419.772C327.545 419.124 327.685 418.548 327.965 418.044C328.245 417.532 328.625 417.128 329.105 416.832C329.593 416.536 330.141 416.388 330.749 416.388C331.285 416.388 331.761 416.504 332.177 416.736C332.593 416.96 332.921 417.264 333.161 417.648L332.981 417.924V413.916H334.109V423H333.017V421.62L333.161 421.812C332.937 422.236 332.609 422.564 332.177 422.796C331.753 423.028 331.277 423.144 330.749 423.144ZM330.845 422.064C331.253 422.064 331.617 421.964 331.937 421.764C332.257 421.564 332.509 421.292 332.693 420.948C332.885 420.596 332.981 420.204 332.981 419.772C332.981 419.332 332.885 418.94 332.693 418.596C332.509 418.244 332.257 417.968 331.937 417.768C331.617 417.568 331.253 417.468 330.845 417.468C330.445 417.468 330.081 417.572 329.753 417.78C329.433 417.98 329.181 418.252 328.997 418.596C328.813 418.932 328.721 419.324 328.721 419.772C328.721 420.204 328.813 420.596 328.997 420.948C329.181 421.292 329.433 421.564 329.753 421.764C330.073 421.964 330.437 422.064 330.845 422.064Z" fill="#263959"/>
</g>
<defs>
<linearGradient id="paint0_linear_353_14" x1="913.563" y1="975.794" x2="1453.89" y2="468.303" gradientUnits="userSpaceOnUse">
<stop stop-color="#EA8B00"/>
<stop offset="1" stop-color="#EE6C00"/>
</linearGradient>
<linearGradient id="paint1_linear_353_14" x1="615.23" y1="667.002" x2="574.145" y2="6.293" gradientUnits="userSpaceOnUse">
<stop offset="0.0467524" stop-color="#F4F8FD"/>
<stop offset="0.473931" stop-color="#3EE8B5"/>
<stop offset="1" stop-color="#EFF1FD"/>
</linearGradient>
<linearGradient id="paint2_linear_353_14" x1="632.868" y1="652.55" x2="502.891" y2="18.4126" gradientUnits="userSpaceOnUse">
<stop stop-color="#263959"/>
<stop offset="1" stop-color="#F4F8FD"/>
</linearGradient>
<clipPath id="clip0_353_14">
<rect width="1440" height="470" fill="white"/>
</clipPath>
</defs>
</svg>
