<svg width="375" height="513" viewBox="0 0 375 513" fill="none" xmlns="http://www.w3.org/2000/svg">
<g clip-path="url(#clip0_330_449)">
<rect width="375" height="513" fill="#263959"/>
<mask id="mask0_330_449" style="mask-type:alpha" maskUnits="userSpaceOnUse" x="93" y="150" width="300" height="334">
<path d="M93.5874 175.868C93.5874 160.914 106.646 149.317 121.495 151.083L370.989 180.764C383.545 182.258 393 192.904 393 205.549V432.484C393 445.268 383.34 455.985 370.625 457.309L121.131 483.28C106.404 484.813 93.5874 473.261 93.5874 458.454V175.868Z" fill="#DDE3EB"/>
</mask>
<g mask="url(#mask0_330_449)">
<rect width="158.311" height="247.121" rx="62.3637" transform="matrix(0.828641 0.55978 -0.57812 0.815952 228.849 209.8)" fill="#906CF9"/>
<path d="M210.816 372.146L201.217 369.236L191.619 372.146L182.02 369.236L172.422 372.146L162.823 369.236L153.225 372.146L143.626 369.236L134.028 372.146L124.425 369.236L114.826 372.146L105.228 369.236L95.6249 372.146L85.9834 369.224L86.065 369.08L95.6249 371.977L105.228 369.067L114.826 371.977L124.425 369.067L134.028 371.977L143.626 369.067L153.225 371.977L162.823 369.067L172.422 371.977L182.02 369.067L191.619 371.977L201.217 369.067L210.816 371.977L220.414 369.067L230.056 371.989L229.974 372.133L220.414 369.236L210.816 372.146Z" fill="#287E74" fill-opacity="0.36"/>
<path d="M210.816 369.37L201.217 366.461L191.619 369.37L182.02 366.461L172.422 369.37L162.823 366.461L153.225 369.37L143.626 366.461L134.028 369.37L124.425 366.461L114.826 369.37L105.228 366.461L95.6249 369.37L85.9834 366.448L86.065 366.304L95.6249 369.202L105.228 366.292L114.826 369.202L124.425 366.292L134.028 369.202L143.626 366.292L153.225 369.202L162.823 366.292L172.422 369.202L182.02 366.292L191.619 369.202L201.217 366.292L210.816 369.202L220.414 366.292L230.056 369.214L229.974 369.358L220.414 366.461L210.816 369.37Z" fill="#287E74" fill-opacity="0.36"/>
<path d="M210.816 366.595L201.217 363.686L191.619 366.595L182.02 363.686L172.422 366.595L162.823 363.686L153.225 366.595L143.626 363.686L134.028 366.595L124.425 363.686L114.826 366.595L105.228 363.686L95.6249 366.595L85.9834 363.673L86.065 363.53L95.6249 366.427L105.228 363.517L114.826 366.427L124.425 363.517L134.028 366.427L143.626 363.517L153.225 366.427L162.823 363.517L172.422 366.427L182.02 363.517L191.619 366.427L201.217 363.517L210.816 366.427L220.414 363.517L230.056 366.439L229.974 366.583L220.414 363.686L210.816 366.595Z" fill="#287E74" fill-opacity="0.36"/>
<path d="M210.816 363.82L201.217 360.91L191.619 363.82L182.02 360.91L172.422 363.82L162.823 360.91L153.225 363.82L143.626 360.91L134.028 363.82L124.425 360.91L114.826 363.82L105.228 360.91L95.6249 363.82L85.9834 360.898L86.065 360.754L95.6249 363.651L105.228 360.742L114.826 363.651L124.425 360.742L134.028 363.651L143.626 360.742L153.225 363.651L162.823 360.742L172.422 363.651L182.02 360.742L191.619 363.651L201.217 360.742L210.816 363.651L220.414 360.742L230.056 363.664L229.974 363.808L220.414 360.91L210.816 363.82Z" fill="#287E74" fill-opacity="0.36"/>
<path d="M210.816 361.045L201.217 358.135L191.619 361.045L182.02 358.135L172.422 361.045L162.823 358.135L153.225 361.045L143.626 358.135L134.028 361.045L124.425 358.135L114.826 361.045L105.228 358.135L95.6249 361.045L85.9834 358.123L86.065 357.976L95.6249 360.876L105.228 357.963L114.826 360.876L124.425 357.963L134.028 360.876L143.626 357.963L153.225 360.876L162.823 357.963L172.422 360.876L182.02 357.963L191.619 360.876L201.217 357.963L210.816 360.876L220.414 357.963L230.056 360.889L229.974 361.032L220.414 358.135L210.816 361.045Z" fill="#287E74" fill-opacity="0.36"/>
<path d="M210.816 358.27L201.217 355.357L191.619 358.27L182.02 355.357L172.422 358.27L162.823 355.357L153.225 358.27L143.626 355.357L134.028 358.27L124.425 355.357L114.826 358.27L105.228 355.357L95.6249 358.27L85.9834 355.345L86.065 355.201L95.6249 358.101L105.228 355.188L114.826 358.101L124.425 355.188L134.028 358.101L143.626 355.188L153.225 358.101L162.823 355.188L172.422 358.101L182.02 355.188L191.619 358.101L201.217 355.188L210.816 358.101L220.414 355.188L230.056 358.114L229.974 358.257L220.414 355.357L210.816 358.27Z" fill="#287E74" fill-opacity="0.36"/>
<path d="M210.816 355.495L201.217 352.582L191.619 355.495L182.02 352.582L172.422 355.495L162.823 352.582L153.225 355.495L143.626 352.582L134.028 355.495L124.425 352.582L114.826 355.495L105.228 352.582L95.6249 355.495L85.9834 352.569L86.065 352.426L95.6249 355.326L105.228 352.413L114.826 355.326L124.425 352.413L134.028 355.326L143.626 352.413L153.225 355.326L162.823 352.413L172.422 355.326L182.02 352.413L191.619 355.326L201.217 352.413L210.816 355.326L220.414 352.413L230.056 355.338L229.974 355.482L220.414 352.582L210.816 355.495Z" fill="#287E74" fill-opacity="0.36"/>
<path d="M210.816 352.719L201.217 349.806L191.619 352.719L182.02 349.806L172.422 352.719L162.823 349.806L153.225 352.719L143.626 349.806L134.028 352.719L124.425 349.806L114.826 352.719L105.228 349.806L95.6249 352.719L85.9834 349.794L86.065 349.65L95.6249 352.547L105.228 349.638L114.826 352.547L124.425 349.638L134.028 352.547L143.626 349.638L153.225 352.547L162.823 349.638L172.422 352.547L182.02 349.638L191.619 352.547L201.217 349.638L210.816 352.547L220.414 349.638L230.056 352.56L229.974 352.707L220.414 349.806L210.816 352.719Z" fill="#287E74" fill-opacity="0.36"/>
<path d="M210.816 349.941L201.217 347.032L191.619 349.941L182.02 347.032L172.422 349.941L162.823 347.032L153.225 349.941L143.626 347.032L134.028 349.941L124.425 347.032L114.826 349.941L105.228 347.032L95.6249 349.941L85.9834 347.019L86.065 346.875L95.6249 349.772L105.228 346.863L114.826 349.772L124.425 346.863L134.028 349.772L143.626 346.863L153.225 349.772L162.823 346.863L172.422 349.772L182.02 346.863L191.619 349.772L201.217 346.863L210.816 349.772L220.414 346.863L230.056 349.785L229.974 349.929L220.414 347.032L210.816 349.941Z" fill="#287E74" fill-opacity="0.36"/>
<path d="M210.816 347.166L201.217 344.256L191.619 347.166L182.02 344.256L172.422 347.166L162.823 344.256L153.225 347.166L143.626 344.256L134.028 347.166L124.425 344.256L114.826 347.166L105.228 344.256L95.6249 347.166L85.9834 344.244L86.065 344.1L95.6249 346.997L105.228 344.087L114.826 346.997L124.425 344.087L134.028 346.997L143.626 344.087L153.225 346.997L162.823 344.087L172.422 346.997L182.02 344.087L191.619 346.997L201.217 344.087L210.816 346.997L220.414 344.087L230.056 347.01L229.974 347.153L220.414 344.256L210.816 347.166Z" fill="#287E74" fill-opacity="0.36"/>
<path d="M210.816 344.39L201.217 341.481L191.619 344.39L182.02 341.481L172.422 344.39L162.823 341.481L153.225 344.39L143.626 341.481L134.028 344.39L124.425 341.481L114.826 344.39L105.228 341.481L95.6249 344.39L85.9834 341.468L86.065 341.325L95.6249 344.222L105.228 341.312L114.826 344.222L124.425 341.312L134.028 344.222L143.626 341.312L153.225 344.222L162.823 341.312L172.422 344.222L182.02 341.312L191.619 344.222L201.217 341.312L210.816 344.222L220.414 341.312L230.056 344.234L229.974 344.378L220.414 341.481L210.816 344.39Z" fill="#287E74" fill-opacity="0.36"/>
<path d="M210.816 341.615L201.217 338.706L191.619 341.615L182.02 338.706L172.422 341.615L162.823 338.706L153.225 341.615L143.626 338.706L134.028 341.615L124.425 338.706L114.826 341.615L105.228 338.706L95.6249 341.615L85.9834 338.693L86.065 338.546L95.6249 341.446L105.228 338.534L114.826 341.446L124.425 338.534L134.028 341.446L143.626 338.534L153.225 341.446L162.823 338.534L172.422 341.446L182.02 338.534L191.619 341.446L201.217 338.534L210.816 341.446L220.414 338.534L230.056 341.459L229.974 341.603L220.414 338.706L210.816 341.615Z" fill="#287E74" fill-opacity="0.36"/>
<path d="M210.816 338.84L201.217 335.931L191.619 338.84L182.02 335.931L172.422 338.84L162.823 335.931L153.225 338.84L143.626 335.931L134.028 338.84L124.425 335.931L114.826 338.84L105.228 335.931L95.6249 338.84L85.9834 335.918L86.065 335.771L95.6249 338.672L105.228 335.759L114.826 338.672L124.425 335.759L134.028 338.672L143.626 335.759L153.225 338.672L162.823 335.759L172.422 338.672L182.02 335.759L191.619 338.672L201.217 335.759L210.816 338.672L220.414 335.759L230.056 338.684L229.974 338.828L220.414 335.931L210.816 338.84Z" fill="#287E74" fill-opacity="0.36"/>
<path d="M114.826 336.065L105.228 333.152L95.6249 336.065L85.9834 333.14L86.065 332.996L95.6249 335.896L105.228 332.983L114.826 335.896L124.425 332.983L134.028 335.896L143.626 332.983L153.225 335.896L162.823 332.983L172.422 335.896L182.02 332.983L191.619 335.896L201.217 332.983L210.816 335.896L220.414 332.983L230.056 335.909L229.974 336.052L220.414 333.152L210.816 336.065L201.217 333.152L191.619 336.065L182.02 333.152L172.422 336.065L162.823 333.152L153.225 336.065L143.626 333.152L134.028 336.065L124.425 333.152L114.826 336.065Z" fill="#287E74" fill-opacity="0.36"/>
<path d="M210.816 333.289L201.217 330.377L191.619 333.289L182.02 330.377L172.422 333.289L162.823 330.377L153.225 333.289L143.626 330.377L134.028 333.289L124.425 330.377L114.826 333.289L105.228 330.377L95.6249 333.289L85.9834 330.364L86.065 330.221L95.6249 333.118L105.228 330.208L114.826 333.118L124.425 330.208L134.028 333.118L143.626 330.208L153.225 333.118L162.823 330.208L172.422 333.118L182.02 330.208L191.619 333.118L201.217 330.208L210.816 333.118L220.414 330.208L230.056 333.13L229.974 333.277L220.414 330.377L210.816 333.289Z" fill="#287E74" fill-opacity="0.36"/>
<path d="M210.816 330.515L201.217 327.602L191.619 330.515L182.02 327.602L172.422 330.515L162.823 327.602L153.225 330.515L143.626 327.602L134.028 330.515L124.425 327.602L114.826 330.515L105.228 327.602L95.6249 330.515L85.9834 327.589L86.065 327.446L95.6249 330.343L105.228 327.433L114.826 330.343L124.425 327.433L134.028 330.343L143.626 327.433L153.225 330.343L162.823 327.433L172.422 330.343L182.02 327.433L191.619 330.343L201.217 327.433L210.816 330.343L220.414 327.433L230.056 330.355L229.974 330.502L220.414 327.602L210.816 330.515Z" fill="#287E74" fill-opacity="0.36"/>
<path d="M210.816 327.736L201.217 324.826L191.619 327.736L182.02 324.826L172.422 327.736L162.823 324.826L153.225 327.736L143.626 324.826L134.028 327.736L124.425 324.826L114.826 327.736L105.228 324.826L95.6249 327.736L85.9834 324.814L86.065 324.67L95.6249 327.567L105.228 324.658L114.826 327.567L124.425 324.658L134.028 327.567L143.626 324.658L153.225 327.567L162.823 324.658L172.422 327.567L182.02 324.658L191.619 327.567L201.217 324.658L210.816 327.567L220.414 324.658L230.056 327.58L229.974 327.724L220.414 324.826L210.816 327.736Z" fill="#287E74" fill-opacity="0.36"/>
<path d="M210.816 324.961L201.217 322.052L191.619 324.961L182.02 322.052L172.422 324.961L162.823 322.052L153.225 324.961L143.626 322.052L134.028 324.961L124.425 322.052L114.826 324.961L105.228 322.052L95.6249 324.961L85.9834 322.039L86.065 321.895L95.6249 324.792L105.228 321.883L114.826 324.792L124.425 321.883L134.028 324.792L143.626 321.883L153.225 324.792L162.823 321.883L172.422 324.792L182.02 321.883L191.619 324.792L201.217 321.883L210.816 324.792L220.414 321.883L230.056 324.805L229.974 324.949L220.414 322.052L210.816 324.961Z" fill="#287E74" fill-opacity="0.36"/>
<path d="M210.816 322.186L201.217 319.276L191.619 322.186L182.02 319.276L172.422 322.186L162.823 319.276L153.225 322.186L143.626 319.276L134.028 322.186L124.425 319.276L114.826 322.186L105.228 319.276L95.6249 322.186L85.9834 319.264L86.065 319.12L95.6249 322.017L105.228 319.107L114.826 322.017L124.425 319.107L134.028 322.017L143.626 319.107L153.225 322.017L162.823 319.107L172.422 322.017L182.02 319.107L191.619 322.017L201.217 319.107L210.816 322.017L220.414 319.107L230.056 322.03L229.974 322.173L220.414 319.276L210.816 322.186Z" fill="#287E74" fill-opacity="0.36"/>
<path d="M210.816 319.411L201.217 316.501L191.619 319.411L182.02 316.501L172.422 319.411L162.823 316.501L153.225 319.411L143.626 316.501L134.028 319.411L124.425 316.501L114.826 319.411L105.228 316.501L95.6249 319.411L85.9834 316.488L86.065 316.342L95.6249 319.242L105.228 316.329L114.826 319.242L124.425 316.329L134.028 319.242L143.626 316.329L153.225 319.242L162.823 316.329L172.422 319.242L182.02 316.329L191.619 319.242L201.217 316.329L210.816 319.242L220.414 316.329L230.056 319.254L229.974 319.398L220.414 316.501L210.816 319.411Z" fill="#287E74" fill-opacity="0.36"/>
<path d="M210.816 316.635L201.217 313.726L191.619 316.635L182.02 313.726L172.422 316.635L162.823 313.726L153.225 316.635L143.626 313.726L134.028 316.635L124.425 313.726L114.826 316.635L105.228 313.726L95.6249 316.635L85.9834 313.713L86.065 313.566L95.6249 316.466L105.228 313.554L114.826 316.466L124.425 313.554L134.028 316.466L143.626 313.554L153.225 316.466L162.823 313.554L172.422 316.466L182.02 313.554L191.619 316.466L201.217 313.554L210.816 316.466L220.414 313.554L230.056 316.479L229.974 316.623L220.414 313.726L210.816 316.635Z" fill="#287E74" fill-opacity="0.36"/>
<path d="M210.816 313.86L201.217 310.948L191.619 313.86L182.02 310.948L172.422 313.86L162.823 310.948L153.225 313.86L143.626 310.948L134.028 313.86L124.425 310.948L114.826 313.86L105.228 310.948L95.6249 313.86L85.9834 310.935L86.065 310.791L95.6249 313.692L105.228 310.779L114.826 313.692L124.425 310.779L134.028 313.692L143.626 310.779L153.225 313.692L162.823 310.779L172.422 313.692L182.02 310.779L191.619 313.692L201.217 310.779L210.816 313.692L220.414 310.779L230.056 313.704L229.974 313.848L220.414 310.948L210.816 313.86Z" fill="#287E74" fill-opacity="0.36"/>
<path d="M210.816 311.084L201.217 308.172L191.619 311.084L182.02 308.172L172.422 311.084L162.823 308.172L153.225 311.084L143.626 308.172L134.028 311.084L124.425 308.172L114.826 311.084L105.228 308.172L95.6249 311.084L85.9834 308.159L86.065 308.015L95.6249 310.913L105.228 308.003L114.826 310.913L124.425 308.003L134.028 310.913L143.626 308.003L153.225 310.913L162.823 308.003L172.422 310.913L182.02 308.003L191.619 310.913L201.217 308.003L210.816 310.913L220.414 308.003L230.056 310.925L229.974 311.072L220.414 308.172L210.816 311.084Z" fill="#287E74" fill-opacity="0.36"/>
<path d="M210.816 308.306L201.217 305.397L191.619 308.306L182.02 305.397L172.422 308.306L162.823 305.397L153.225 308.306L143.626 305.397L134.028 308.306L124.425 305.397L114.826 308.306L105.228 305.397L95.6249 308.306L85.9834 305.384L86.065 305.241L95.6249 308.138L105.228 305.228L114.826 308.138L124.425 305.228L134.028 308.138L143.626 305.228L153.225 308.138L162.823 305.228L172.422 308.138L182.02 305.228L191.619 308.138L201.217 305.228L210.816 308.138L220.414 305.228L230.056 308.15L229.974 308.297L220.414 305.397L210.816 308.306Z" fill="#287E74" fill-opacity="0.36"/>
<path d="M210.816 305.531L201.217 302.622L191.619 305.531L182.02 302.622L172.422 305.531L162.823 302.622L153.225 305.531L143.626 302.622L134.028 305.531L124.425 302.622L114.826 305.531L105.228 302.622L95.6249 305.531L85.9834 302.609L86.065 302.466L95.6249 305.363L105.228 302.453L114.826 305.363L124.425 302.453L134.028 305.363L143.626 302.453L153.225 305.363L162.823 302.453L172.422 305.363L182.02 302.453L191.619 305.363L201.217 302.453L210.816 305.363L220.414 302.453L230.056 305.375L229.974 305.519L220.414 302.622L210.816 305.531Z" fill="#287E74" fill-opacity="0.36"/>
<path d="M210.816 302.756L201.217 299.846L191.619 302.756L182.02 299.846L172.422 302.756L162.823 299.846L153.225 302.756L143.626 299.846L134.028 302.756L124.425 299.846L114.826 302.756L105.228 299.846L95.6249 302.756L85.9834 299.834L86.065 299.69L95.6249 302.587L105.228 299.678L114.826 302.587L124.425 299.678L134.028 302.587L143.626 299.678L153.225 302.587L162.823 299.678L172.422 302.587L182.02 299.678L191.619 302.587L201.217 299.678L210.816 302.587L220.414 299.678L230.056 302.6L229.974 302.744L220.414 299.846L210.816 302.756Z" fill="#287E74" fill-opacity="0.36"/>
<path d="M210.816 299.981L201.217 297.071L191.619 299.981L182.02 297.071L172.422 299.981L162.823 297.071L153.225 299.981L143.626 297.071L134.028 299.981L124.425 297.071L114.826 299.981L105.228 297.071L95.6249 299.981L85.9834 297.059L86.065 296.915L95.6249 299.812L105.228 296.902L114.826 299.812L124.425 296.902L134.028 299.812L143.626 296.902L153.225 299.812L162.823 296.902L172.422 299.812L182.02 296.902L191.619 299.812L201.217 296.902L210.816 299.812L220.414 296.902L230.056 299.824L229.974 299.968L220.414 297.071L210.816 299.981Z" fill="#287E74" fill-opacity="0.36"/>
<path d="M210.816 297.206L201.217 294.296L191.619 297.206L182.02 294.296L172.422 297.206L162.823 294.296L153.225 297.206L143.626 294.296L134.028 297.206L124.425 294.296L114.826 297.206L105.228 294.296L95.6249 297.206L85.9834 294.284L86.065 294.137L95.6249 297.037L105.228 294.125L114.826 297.037L124.425 294.125L134.028 297.037L143.626 294.125L153.225 297.037L162.823 294.125L172.422 297.037L182.02 294.125L191.619 297.037L201.217 294.125L210.816 297.037L220.414 294.125L230.056 297.05L229.974 297.193L220.414 294.296L210.816 297.206Z" fill="#287E74" fill-opacity="0.36"/>
<path d="M210.816 294.431L201.217 291.521L191.619 294.431L182.02 291.521L172.422 294.431L162.823 291.521L153.225 294.431L143.626 291.521L134.028 294.431L124.425 291.521L114.826 294.431L105.228 291.521L95.6249 294.431L85.9834 291.509L86.065 291.362L95.6249 294.262L105.228 291.349L114.826 294.262L124.425 291.349L134.028 294.262L143.626 291.349L153.225 294.262L162.823 291.349L172.422 294.262L182.02 291.349L191.619 294.262L201.217 291.349L210.816 294.262L220.414 291.349L230.056 294.274L229.974 294.418L220.414 291.521L210.816 294.431Z" fill="#287E74" fill-opacity="0.36"/>
<path d="M210.816 291.655L201.217 288.742L191.619 291.655L182.02 288.742L172.422 291.655L162.823 288.742L153.225 291.655L143.626 288.742L134.028 291.655L124.425 288.742L114.826 291.655L105.228 288.742L95.6249 291.655L85.9834 288.73L86.065 288.586L95.6249 291.486L105.228 288.574L114.826 291.486L124.425 288.574L134.028 291.486L143.626 288.574L153.225 291.486L162.823 288.574L172.422 291.486L182.02 288.574L191.619 291.486L201.217 288.574L210.816 291.486L220.414 288.574L230.056 291.499L229.974 291.643L220.414 288.742L210.816 291.655Z" fill="#287E74" fill-opacity="0.36"/>
<path d="M210.816 288.88L201.217 285.968L191.619 288.88L182.02 285.968L172.422 288.88L162.823 285.968L153.225 288.88L143.626 285.968L134.028 288.88L124.425 285.968L114.826 288.88L105.228 285.968L95.6249 288.88L85.9834 285.955L86.065 285.811L95.6249 288.708L105.228 285.799L114.826 288.708L124.425 285.799L134.028 288.708L143.626 285.799L153.225 288.708L162.823 285.799L172.422 288.708L182.02 285.799L191.619 288.708L201.217 285.799L210.816 288.708L220.414 285.799L230.056 288.721L229.974 288.868L220.414 285.968L210.816 288.88Z" fill="#287E74" fill-opacity="0.36"/>
<path d="M210.816 286.102L201.217 283.192L191.619 286.102L182.02 283.192L172.422 286.102L162.823 283.192L153.225 286.102L143.626 283.192L134.028 286.102L124.425 283.192L114.826 286.102L105.228 283.192L95.6249 286.102L85.9834 283.18L86.065 283.036L95.6249 285.933L105.228 283.023L114.826 285.933L124.425 283.023L134.028 285.933L143.626 283.023L153.225 285.933L162.823 283.023L172.422 285.933L182.02 283.023L191.619 285.933L201.217 283.023L210.816 285.933L220.414 283.023L230.056 285.946L229.974 286.089L220.414 283.192L210.816 286.102Z" fill="#287E74" fill-opacity="0.36"/>
<path d="M210.816 283.326L201.217 280.417L191.619 283.326L182.02 280.417L172.422 283.326L162.823 280.417L153.225 283.326L143.626 280.417L134.028 283.326L124.425 280.417L114.826 283.326L105.228 280.417L95.6249 283.326L85.9834 280.404L86.065 280.261L95.6249 283.158L105.228 280.248L114.826 283.158L124.425 280.248L134.028 283.158L143.626 280.248L153.225 283.158L162.823 280.248L172.422 283.158L182.02 280.248L191.619 283.158L201.217 280.248L210.816 283.158L220.414 280.248L230.056 283.17L229.974 283.314L220.414 280.417L210.816 283.326Z" fill="#287E74" fill-opacity="0.36"/>
<path d="M210.816 280.552L201.217 277.642L191.619 280.552L182.02 277.642L172.422 280.552L162.823 277.642L153.225 280.552L143.626 277.642L134.028 280.552L124.425 277.642L114.826 280.552L105.228 277.642L95.6249 280.552L85.9834 277.629L86.065 277.486L95.6249 280.383L105.228 277.473L114.826 280.383L124.425 277.473L134.028 280.383L143.626 277.473L153.225 280.383L162.823 277.473L172.422 280.383L182.02 277.473L191.619 280.383L201.217 277.473L210.816 280.383L220.414 277.473L230.056 280.395L229.974 280.539L220.414 277.642L210.816 280.552Z" fill="#287E74" fill-opacity="0.36"/>
<path d="M210.816 277.776L201.217 274.867L191.619 277.776L182.02 274.867L172.422 277.776L162.823 274.867L153.225 277.776L143.626 274.867L134.028 277.776L124.425 274.867L114.826 277.776L105.228 274.867L95.6249 277.776L85.9834 274.854L86.065 274.71L95.6249 277.607L105.228 274.698L114.826 277.607L124.425 274.698L134.028 277.607L143.626 274.698L153.225 277.607L162.823 274.698L172.422 277.607L182.02 274.698L191.619 277.607L201.217 274.698L210.816 277.607L220.414 274.698L230.056 277.62L229.974 277.764L220.414 274.867L210.816 277.776Z" fill="#287E74" fill-opacity="0.36"/>
<path d="M210.816 275.001L201.217 272.091L191.619 275.001L182.02 272.091L172.422 275.001L162.823 272.091L153.225 275.001L143.626 272.091L134.028 275.001L124.425 272.091L114.826 275.001L105.228 272.091L95.6249 275.001L85.9834 272.079L86.065 271.932L95.6249 274.832L105.228 271.919L114.826 274.832L124.425 271.919L134.028 274.832L143.626 271.919L153.225 274.832L162.823 271.919L172.422 274.832L182.02 271.919L191.619 274.832L201.217 271.919L210.816 274.832L220.414 271.919L230.056 274.845L229.974 274.988L220.414 272.091L210.816 275.001Z" fill="#287E74" fill-opacity="0.36"/>
<path d="M210.816 272.226L201.217 269.316L191.619 272.226L182.02 269.316L172.422 272.226L162.823 269.316L153.225 272.226L143.626 269.316L134.028 272.226L124.425 269.316L114.826 272.226L105.228 269.316L95.6249 272.226L85.9834 269.304L86.065 269.157L95.6249 272.057L105.228 269.145L114.826 272.057L124.425 269.145L134.028 272.057L143.626 269.145L153.225 272.057L162.823 269.145L172.422 272.057L182.02 269.145L191.619 272.057L201.217 269.145L210.816 272.057L220.414 269.145L230.056 272.07L229.974 272.214L220.414 269.316L210.816 272.226Z" fill="#287E74" fill-opacity="0.36"/>
<path d="M210.816 269.451L201.217 266.538L191.619 269.451L182.02 266.538L172.422 269.451L162.823 266.538L153.225 269.451L143.626 266.538L134.028 269.451L124.425 266.538L114.826 269.451L105.228 266.538L95.6249 269.451L85.9834 266.525L86.065 266.382L95.6249 269.282L105.228 266.369L114.826 269.282L124.425 266.369L134.028 269.282L143.626 266.369L153.225 269.282L162.823 266.369L172.422 269.282L182.02 266.369L191.619 269.282L201.217 266.369L210.816 269.282L220.414 266.369L230.056 269.294L229.974 269.438L220.414 266.538L210.816 269.451Z" fill="#287E74" fill-opacity="0.36"/>
<path d="M210.816 266.675L201.217 263.763L191.619 266.675L182.02 263.763L172.422 266.675L162.823 263.763L153.225 266.675L143.626 263.763L134.028 266.675L124.425 263.763L114.826 266.675L105.228 263.763L95.6249 266.675L85.9834 263.75L86.065 263.606L95.6249 266.503L105.228 263.594L114.826 266.503L124.425 263.594L134.028 266.503L143.626 263.594L153.225 266.503L162.823 263.594L172.422 266.503L182.02 263.594L191.619 266.503L201.217 263.594L210.816 266.503L220.414 263.594L230.056 266.516L229.974 266.663L220.414 263.763L210.816 266.675Z" fill="#287E74" fill-opacity="0.36"/>
<path d="M210.816 263.897L201.217 260.988L191.619 263.897L182.02 260.988L172.422 263.897L162.823 260.988L153.225 263.897L143.626 260.988L134.028 263.897L124.425 260.988L114.826 263.897L105.228 260.988L95.6249 263.897L85.9834 260.975L86.065 260.831L95.6249 263.728L105.228 260.819L114.826 263.728L124.425 260.819L134.028 263.728L143.626 260.819L153.225 263.728L162.823 260.819L172.422 263.728L182.02 260.819L191.619 263.728L201.217 260.819L210.816 263.728L220.414 260.819L230.056 263.741L229.974 263.885L220.414 260.988L210.816 263.897Z" fill="#287E74" fill-opacity="0.36"/>
<path d="M210.816 261.121L201.217 258.212L191.619 261.121L182.02 258.212L172.422 261.121L162.823 258.212L153.225 261.121L143.626 258.212L134.028 261.121L124.425 258.212L114.826 261.121L105.228 258.212L95.6249 261.121L85.9834 258.199L86.065 258.055L95.6249 260.953L105.228 258.043L114.826 260.953L124.425 258.043L134.028 260.953L143.626 258.043L153.225 260.953L162.823 258.043L172.422 260.953L182.02 258.043L191.619 260.953L201.217 258.043L210.816 260.953L220.414 258.043L230.056 260.965L229.974 261.109L220.414 258.212L210.816 261.121Z" fill="#287E74" fill-opacity="0.36"/>
<path d="M210.816 258.346L201.217 255.437L191.619 258.346L182.02 255.437L172.422 258.346L162.823 255.437L153.225 258.346L143.626 255.437L134.028 258.346L124.425 255.437L114.826 258.346L105.228 255.437L95.6249 258.346L85.9834 255.424L86.065 255.281L95.6249 258.178L105.228 255.268L114.826 258.178L124.425 255.268L134.028 258.178L143.626 255.268L153.225 258.178L162.823 255.268L172.422 258.178L182.02 255.268L191.619 258.178L201.217 255.268L210.816 258.178L220.414 255.268L230.056 258.19L229.974 258.334L220.414 255.437L210.816 258.346Z" fill="#287E74" fill-opacity="0.36"/>
<path d="M210.816 255.571L201.217 252.662L191.619 255.571L182.02 252.662L172.422 255.571L162.823 252.662L153.225 255.571L143.626 252.662L134.028 255.571L124.425 252.662L114.826 255.571L105.228 252.662L95.6249 255.571L85.9834 252.649L86.065 252.502L95.6249 255.402L105.228 252.49L114.826 255.402L124.425 252.49L134.028 255.402L143.626 252.49L153.225 255.402L162.823 252.49L172.422 255.402L182.02 252.49L191.619 255.402L201.217 252.49L210.816 255.402L220.414 252.49L230.056 255.415L229.974 255.559L220.414 252.662L210.816 255.571Z" fill="#287E74" fill-opacity="0.36"/>
<path d="M210.816 252.796L201.217 249.886L191.619 252.796L182.02 249.886L172.422 252.796L162.823 249.886L153.225 252.796L143.626 249.886L134.028 252.796L124.425 249.886L114.826 252.796L105.228 249.886L95.6249 252.796L85.9834 249.874L86.065 249.727L95.6249 252.627L105.228 249.714L114.826 252.627L124.425 249.714L134.028 252.627L143.626 249.714L153.225 252.627L162.823 249.714L172.422 252.627L182.02 249.714L191.619 252.627L201.217 249.714L210.816 252.627L220.414 249.714L230.056 252.64L229.974 252.783L220.414 249.886L210.816 252.796Z" fill="#287E74" fill-opacity="0.36"/>
<path d="M210.816 250.021L201.217 247.108L191.619 250.021L182.02 247.108L172.422 250.021L162.823 247.108L153.225 250.021L143.626 247.108L134.028 250.021L124.425 247.108L114.826 250.021L105.228 247.108L95.6249 250.021L85.9834 247.096L86.065 246.952L95.6249 249.852L105.228 246.939L114.826 249.852L124.425 246.939L134.028 249.852L143.626 246.939L153.225 249.852L162.823 246.939L172.422 249.852L182.02 246.939L191.619 249.852L201.217 246.939L210.816 249.852L220.414 246.939L230.056 249.865L229.974 250.008L220.414 247.108L210.816 250.021Z" fill="#287E74" fill-opacity="0.36"/>
<path d="M210.816 247.246L201.217 244.333L191.619 247.246L182.02 244.333L172.422 247.246L162.823 244.333L153.225 247.246L143.626 244.333L134.028 247.246L124.425 244.333L114.826 247.246L105.228 244.333L95.6249 247.246L85.9834 244.32L86.065 244.177L95.6249 247.074L105.228 244.164L114.826 247.074L124.425 244.164L134.028 247.074L143.626 244.164L153.225 247.074L162.823 244.164L172.422 247.074L182.02 244.164L191.619 247.074L201.217 244.164L210.816 247.074L220.414 244.164L230.056 247.086L229.974 247.233L220.414 244.333L210.816 247.246Z" fill="#287E74" fill-opacity="0.36"/>
<path d="M210.816 244.471L201.217 241.558L191.619 244.471L182.02 241.558L172.422 244.471L162.823 241.558L153.225 244.471L143.626 241.558L134.028 244.471L124.425 241.558L114.826 244.471L105.228 241.558L95.6249 244.471L85.9834 241.545L86.065 241.402L95.6249 244.299L105.228 241.389L114.826 244.299L124.425 241.389L134.028 244.299L143.626 241.389L153.225 244.299L162.823 241.389L172.422 244.299L182.02 241.389L191.619 244.299L201.217 241.389L210.816 244.299L220.414 241.389L230.056 244.311L229.974 244.458L220.414 241.558L210.816 244.471Z" fill="#287E74" fill-opacity="0.36"/>
</g>
<g clip-path="url(#clip1_330_449)">
<path d="M219.118 391.235C221.613 387.269 220.366 375.94 220.366 375.94L270.727 355.659C270.727 355.659 270.727 394.857 277.874 401.661C277.874 401.661 264.262 411.633 248.268 411.633C232.275 411.633 219.118 391.235 219.118 391.235Z" fill="#FFCEBA"/>
<path d="M219.496 381.832C219.496 381.832 229.479 388.064 235.981 389.309C242.483 390.554 249.294 389.349 257.117 384.811C262.448 381.718 272.814 361.005 272.814 361.005L270.158 352.551L217.546 373.897L219.496 381.832Z" fill="#E88E80"/>
<path d="M200.97 348.408C202.557 355.092 214.695 372.993 217.871 375.486C221.047 377.978 230.914 383.417 235.905 384.55C240.895 385.683 250.311 382.964 254.848 379.339C259.385 375.713 273.449 357.812 274.357 351.354C275.264 344.896 274.357 336.738 274.357 336.738C284.607 338.324 290.464 307.847 282.297 304.788C274.13 301.729 269.819 312.832 269.819 312.832C225.697 312.946 199.381 341.723 200.97 348.408Z" fill="#FFCEBA"/>
<path d="M273.903 329.374L274.697 341.624L276.758 340.352C276.758 340.352 275.942 333.99 273.903 329.374Z" fill="#E88E80"/>
<path d="M283.612 320.173C284.945 317.879 282.626 308.094 280.047 307.323C277.469 306.553 273.616 312.721 273.641 315.728C275.438 311.873 277.206 309.971 279.12 309.947C281.035 309.924 283.231 316.025 283.612 320.173Z" fill="#E88E80"/>
<path d="M274.611 316.604C273.659 317.009 273.61 317.824 273.91 318.99C274.209 320.155 277.475 323.003 276.637 324.294C275.799 325.585 273.151 326.051 273.231 327.178C273.311 328.305 282.248 327.002 281.643 321.584C281.037 316.166 275.564 316.198 274.611 316.604Z" fill="#E88E80"/>
<path d="M224.24 365.219C225.891 366.106 244.401 361.12 252.297 356.085C251.047 355.952 240.922 357.11 239.585 357.644C238.248 358.178 236.952 359.827 235.837 360.184C234.722 360.54 232.939 360.253 231.332 360.698C229.725 361.144 224.24 365.219 224.24 365.219Z" fill="#E88E80"/>
<path d="M234.901 369.05C238.724 368.192 242.492 367.105 246.185 365.795C241.055 370.431 234.901 369.05 234.901 369.05Z" fill="#E88E80"/>
<path d="M229.688 347.3C227.562 346.99 225.789 346.37 224.991 346.725C224.193 347.08 223.751 347.521 224.017 348.407C224.282 349.293 226.756 347.433 229.688 347.3Z" fill="#E88E80"/>
<path d="M232.206 346.139C234.04 344.488 235.335 342.759 236.327 342.599C237.319 342.439 238.031 342.589 238.351 343.621C238.671 344.653 235.093 344.414 232.206 346.139Z" fill="#E88E80"/>
<path d="M238.968 339.665C238.968 339.665 242.75 343.763 238.671 346.414C242.631 345.047 241.633 342.332 241.27 341.308C240.907 340.284 238.968 339.665 238.968 339.665Z" fill="#E88E80"/>
<path d="M221.727 344.179C221.727 344.179 219.912 349.465 225.649 350.264C221.798 351.061 220.753 348.57 220.627 347.289C220.578 346.723 220.651 346.152 220.841 345.615C221.03 345.079 221.333 344.589 221.727 344.179V344.179Z" fill="#E88E80"/>
<path d="M270.841 321.556C270.085 312.222 272.189 308.665 272.189 308.665C272.189 308.665 273.448 305.811 277.872 304.258C275.149 287.004 269.135 283.266 269.135 283.266C269.135 283.266 270.27 282.245 272.424 283.266C269.018 277.487 262.782 276.808 262.782 276.808C262.782 276.808 261.648 269.669 252.234 266.496C254.844 268.762 254.05 270.802 254.05 270.802C254.05 270.802 241.232 265.024 226.713 265.024C231.591 266.496 232.612 269.669 232.612 269.669C232.612 269.669 213.897 266.496 207.881 269.329C212.759 269.329 214.693 271.595 214.693 271.595C214.693 271.595 200.514 271.935 195.75 276.92C200.901 275.334 205.051 277.374 205.051 277.374C205.051 277.374 189.966 282.133 183.727 293.292C187.244 292.108 189.852 293.292 189.852 293.292C186.677 298.787 188.667 308.242 188.667 308.242C188.667 308.242 232.314 294.255 243.524 295.728C254.734 297.201 261.993 307.964 265.396 311.363C268.799 314.762 270.841 321.556 270.841 321.556Z" fill="url(#paint0_linear_330_449)"/>
<path d="M258.969 292.098C258.969 292.098 275.982 295.648 277.873 298.216C278.421 298.955 278.777 299.818 278.908 300.727C279.04 301.637 278.944 302.565 278.629 303.429C278.629 303.429 269.892 306.6 266.318 307.884L258.969 292.098Z" fill="#0C0A14"/>
<path d="M191.001 350.7L184.268 346.263L262.738 316.827L253.341 288.992C264.743 290.814 270.048 316.83 270.048 316.83L270.39 319.669C270.675 322.04 270.087 324.435 268.737 326.407C267.387 328.379 265.365 329.794 263.049 330.388L239.435 336.453C239.435 336.453 222.346 336.179 219.239 343.298L203.255 351.387C199.226 353.53 194.049 352.356 191.001 350.7Z" fill="url(#paint1_linear_330_449)"/>
<path d="M175.658 320.576L244.49 288.182L246.761 287.994C250.26 287.689 253.745 288.71 256.525 290.855C258.83 292.653 259.818 293.699 261.549 296.715C263.28 299.731 265.753 310.134 265.753 310.134C267.946 318.52 263.473 324.115 257.255 326.246C257.255 326.246 234.134 332.999 224.54 336.468C214.945 339.937 194.41 348.597 194.41 348.597C188.33 350.68 182.119 345.809 180.342 340.793C178.565 335.777 174.663 326.324 175.658 320.576Z" fill="url(#paint2_linear_330_449)"/>
<path d="M182.61 310.479L238.704 289.732C249.761 285.532 253.068 290.002 254.707 294.597L258.492 305.179C261.01 312.202 258.546 321.725 251.532 324.274L194.58 344.963C193.203 345.463 191.741 345.684 190.278 345.615C188.815 345.546 187.38 345.187 186.056 344.56C184.733 343.933 183.547 343.05 182.568 341.962C181.589 340.873 180.836 339.602 180.352 338.221L176.378 325.232C174.313 319.33 176.723 312.604 182.61 310.479Z" fill="url(#paint3_linear_330_449)"/>
<path d="M192.689 309.433C192.689 309.433 189.059 317.047 190.534 320.775C192.009 324.503 196.342 320.423 198.247 324.621C200.151 328.819 196.432 341.865 196.432 341.865L210.123 336.576C210.123 336.576 212.426 322.469 208.346 319.296C204.266 316.123 200.52 317.334 196.778 316.842C193.035 316.349 192.689 309.433 192.689 309.433Z" fill="url(#paint4_linear_330_449)"/>
<path d="M178.132 395.345C178.132 395.345 201.308 384.564 217.304 388.321C217.304 388.321 238.776 420.567 275.832 402.068C276.128 399.953 274.044 392.922 274.044 392.922C274.044 392.922 290.956 391.352 309.062 395.197C340.483 402.562 372.56 449.129 372.56 449.129V481.183V513.236H208.682C208.682 513.236 201.741 494.526 200.902 485.614C200.902 485.614 193.823 506.099 176.32 503.137C148.644 498.453 130.949 435.538 130.949 424.508C130.949 413.477 178.132 395.345 178.132 395.345Z" fill="url(#paint5_linear_330_449)"/>
<path d="M210.8 431.597C208.531 461.744 200.902 485.614 200.902 485.614L203.037 495.82C208.531 487.278 210.8 463.71 210.8 463.71C210.8 463.71 213.963 454.316 222.596 455.101C217.455 451.173 211.749 455.554 211.749 455.554C211.749 455.554 213.976 440.595 210.8 431.597Z" fill="#0B0838"/>
<path d="M169.955 411.63C169.955 411.63 191.442 412.8 192.046 450.385C187.964 418.541 171.858 417.965 171.858 417.965L169.955 411.63Z" fill="#0B0838"/>
<path d="M323.773 423.375C322.337 433.729 343.661 513.236 343.661 513.236H347.745C347.745 513.236 334.36 462.841 333.907 454.343C333.453 445.845 335.759 439.16 335.759 439.16C335.759 439.16 331.752 442.447 331.297 447.432C327.842 441.759 325.74 428.964 323.773 423.375Z" fill="#0B0838"/>
<path opacity="0.2" d="M100.482 483.594H217.03C224.636 483.594 230.802 477.435 230.802 469.837L230.802 353.421C230.802 345.824 224.636 339.665 217.03 339.665H100.482C92.876 339.665 86.7101 345.824 86.7101 353.421L86.7101 469.837C86.7101 477.435 92.876 483.594 100.482 483.594Z" fill="#7B61FF"/>
<path d="M217.028 484.333H100.485C96.6374 484.329 92.9487 482.8 90.228 480.083C87.5073 477.365 85.977 473.68 85.9727 469.837V353.425C85.977 349.582 87.5073 345.897 90.228 343.18C92.9487 340.462 96.6374 338.934 100.485 338.929H217.028C220.876 338.934 224.565 340.462 227.285 343.18C230.006 345.897 231.536 349.582 231.541 353.425V469.837C231.536 473.68 230.006 477.365 227.285 480.083C224.565 482.8 220.876 484.329 217.028 484.333V484.333ZM100.485 340.408C97.0301 340.412 93.7177 341.785 91.2747 344.225C88.8316 346.666 87.4574 349.974 87.4535 353.425V469.837C87.4574 473.288 88.8316 476.597 91.2747 479.037C93.7177 481.477 97.0301 482.85 100.485 482.854H217.028C220.483 482.85 223.796 481.477 226.239 479.037C228.682 476.597 230.056 473.288 230.06 469.837V353.425C230.056 349.974 228.682 346.665 226.239 344.225C223.796 341.784 220.483 340.412 217.028 340.408H100.485Z" fill="#7B61FF"/>
<path d="M155.335 445.986C153.646 445.986 151.962 445.837 150.3 445.543C145.2 444.639 140.538 442.444 136.815 439.193L137.789 438.079C145.009 444.383 155.708 446.284 164.424 442.812C172.375 439.644 177.25 432.557 178.154 422.859L179.635 422.997C178.677 433.276 173.472 440.8 164.975 444.186C161.905 445.393 158.633 446.004 155.335 445.986V445.986Z" fill="#7B61FF"/>
<path d="M184.482 430.001L183.068 429.557C183.089 429.491 185.162 422.687 184.639 415.161C183.951 405.232 179.287 398.795 170.778 396.027L171.237 394.621C176.272 396.257 180.097 399.157 182.621 403.241C184.627 406.496 185.805 410.479 186.12 415.098C186.652 422.9 184.571 429.716 184.482 430.001Z" fill="#7B61FF"/>
<path d="M142.318 452.663C134.154 449.923 128.14 445.818 124.444 440.462C121.471 436.154 120.047 430.967 120.404 425.747C120.876 418.308 124.608 412.434 127.66 411.831L127.956 413.282C125.778 413.717 122.329 418.826 121.885 425.841C121.541 431.258 122.89 444.58 142.792 451.263L142.318 452.663Z" fill="#7B61FF"/>
<path d="M172.689 420.731L169.512 410.157C175.713 404.793 177.704 398.776 179.998 394.269C182.292 389.762 196.206 378.737 199.685 374.202C203.163 369.667 200.515 360.298 191.442 362.494C182.369 364.691 175.184 376.091 165.883 376.771C165.883 376.771 155.369 362.948 150.948 346.482C146.528 330.016 133.821 296.93 130.872 292.325C127.924 287.72 117.034 287.642 119.076 297.65C121.118 307.658 135.217 344.268 132.664 352.551C132.664 352.551 121.684 332.73 117.411 328.657C113.139 324.583 95.4829 313.399 87.7691 308.754C80.0553 304.109 71.5878 312.492 79.6022 319.517C87.6165 326.541 97.2999 332.81 103.309 337.872C109.318 342.934 115.106 359.172 115.106 359.172C115.106 359.172 99.5656 348.166 94.4611 345.624C89.3565 343.083 70.2254 337.796 62.5886 336.663C54.9518 335.53 54.0441 342.48 59.2611 346.708C64.4782 350.937 83.6108 355.848 87.2404 357.211C90.87 358.573 102.818 370.73 102.818 370.73C102.818 370.73 87.8609 365.374 82.401 365.142C76.9411 364.91 63.4297 364.085 55.556 365.438C47.6823 366.791 49.9599 375.03 55.556 375.94C61.1522 376.85 75.746 377.048 81.4177 378.055C87.0894 379.063 97.6553 384.246 99.4145 387.043C101.174 389.84 114.992 413.405 130.532 417.634L133.594 426.472C133.594 426.472 142.82 441.502 159.115 437.235C175.411 432.967 172.689 420.731 172.689 420.731Z" fill="#FFCEBA"/>
<path d="M152.876 412.875C165.505 413.252 169.512 410.156 169.512 410.156L170.754 414.298C170.754 414.298 160.59 417.181 152.876 412.875Z" fill="#E88E80"/>
<path d="M130.531 417.634C130.531 417.634 136.997 417.93 144.18 413.857C139.492 420.505 131.703 421.253 131.703 421.253L130.531 417.634Z" fill="#E88E80"/>
<path d="M165.883 376.771C162.443 377.238 158.956 377.238 155.517 376.771C163.91 376.157 164.742 375.193 164.742 375.193L165.883 376.771Z" fill="#E88E80"/>
<path d="M110.984 392.104C113.475 389.884 115.885 387.608 118.214 385.277C120.546 382.941 122.796 380.534 124.922 378.029C125.187 377.713 125.457 377.404 125.717 377.086L126.495 376.131C126.758 375.816 127.006 375.489 127.262 375.168L127.643 374.684L128.016 374.193C129.021 372.896 129.963 371.551 130.884 370.19L131.565 369.164L132.22 368.118C132.329 367.943 132.443 367.772 132.547 367.594L132.86 367.063C133.067 366.708 133.289 366.358 133.486 365.997C134.315 364.568 135.044 363.086 135.787 361.589C135.572 362.392 135.367 363.207 135.084 363.994C135.019 364.192 134.952 364.392 134.882 364.586C134.813 364.779 134.745 364.982 134.665 365.177L134.204 366.347C134.13 366.544 134.041 366.733 133.955 366.924L133.696 367.498C133.526 367.881 133.35 368.263 133.157 368.636L132.586 369.76L131.974 370.86C131.143 372.321 130.237 373.739 129.26 375.107C129.138 375.279 129.02 375.452 128.895 375.62L128.518 376.125C128.263 376.459 128.017 376.799 127.757 377.128L126.97 378.111C126.705 378.438 126.433 378.758 126.163 379.079C123.989 381.631 121.622 384.014 119.085 386.207C117.817 387.302 116.514 388.352 115.166 389.341C114.488 389.831 113.811 390.321 113.114 390.781C112.416 391.241 111.713 391.695 110.984 392.104Z" fill="#E88E80"/>
<path d="M151.968 367.102C151.747 367.177 151.524 367.25 151.305 367.319L150.973 367.426C150.863 367.463 150.755 367.507 150.647 367.547L149.996 367.784C149.781 367.87 149.571 367.963 149.359 368.052L149.042 368.186L148.731 368.334C148.525 368.435 148.316 368.525 148.115 368.63L147.523 368.958C147.323 369.066 147.136 369.197 146.944 369.313C146.185 369.792 145.475 370.343 144.824 370.96C144.19 371.576 143.625 372.259 143.139 372.998C142.182 374.483 141.528 376.142 141.214 377.879C141.048 378.754 140.941 379.638 140.896 380.527C140.845 381.423 140.845 382.322 140.896 383.218C140.94 384.117 141.026 385.018 141.146 385.917C141.266 386.817 141.415 387.713 141.59 388.608C141.765 389.503 141.968 390.393 142.183 391.282C142.397 392.171 142.646 393.057 142.902 393.936C143.416 395.701 143.998 397.45 144.624 399.189C145.251 400.927 145.925 402.653 146.638 404.366C145.621 402.8 144.702 401.173 143.887 399.493C143.063 397.811 142.328 396.087 141.685 394.328C141.036 392.561 140.499 390.755 140.077 388.92C139.867 388 139.689 387.07 139.551 386.13C139.413 385.191 139.32 384.244 139.268 383.292C139.158 381.368 139.307 379.438 139.713 377.554C140.12 375.637 140.933 373.83 142.098 372.254C142.686 371.476 143.365 370.771 144.121 370.154C144.874 369.552 145.691 369.035 146.557 368.612C147.412 368.196 148.304 367.863 149.223 367.617C150.123 367.375 151.041 367.202 151.968 367.102Z" fill="#E88E80"/>
<path d="M134.841 376.157C134.352 377.491 133.726 378.77 132.972 379.974C132.231 381.186 131.4 382.341 130.487 383.429C130.043 383.981 129.55 384.497 129.067 385.018C128.814 385.268 128.562 385.519 128.306 385.757C128.177 385.88 128.052 386.007 127.919 386.125L127.518 386.476C126.456 387.421 125.299 388.254 124.066 388.961C125.028 387.912 126.021 386.938 126.948 385.895C127.427 385.392 127.873 384.859 128.343 384.346L129.019 383.555C129.252 383.296 129.464 383.027 129.692 382.759C130.58 381.695 131.45 380.61 132.302 379.505C133.157 378.412 133.994 377.299 134.841 376.157Z" fill="#E88E80"/>
<path d="M105.086 373.976C105.17 374.236 105.234 374.503 105.275 374.774C105.321 375.046 105.352 375.319 105.367 375.594C105.398 376.147 105.378 376.701 105.306 377.251C105.162 378.364 104.815 379.441 104.282 380.429C103.743 381.419 103.017 382.295 102.143 383.007C101.284 383.706 100.292 384.223 99.2275 384.528C100.066 383.883 100.855 383.176 101.588 382.413C102.279 381.662 102.876 380.83 103.365 379.935C103.851 379.033 104.233 378.079 104.504 377.091C104.652 376.592 104.759 376.083 104.855 375.564C104.951 375.045 105.032 374.518 105.086 373.976Z" fill="#E88E80"/>
<path d="M114.44 359.993C114.446 360.313 114.427 360.633 114.383 360.95C114.341 361.268 114.282 361.583 114.205 361.895C114.053 362.523 113.841 363.134 113.573 363.722C113.032 364.915 112.269 365.995 111.325 366.903C111.203 367.014 111.088 367.13 110.962 367.236L110.586 367.551C110.457 367.653 110.322 367.747 110.19 367.847C110.06 367.946 109.924 368.039 109.784 368.124C109.237 368.479 108.656 368.78 108.05 369.023C106.855 369.504 105.581 369.758 104.292 369.772C105.465 369.369 106.604 368.874 107.698 368.292C108.227 368.001 108.737 367.677 109.225 367.321C109.711 366.97 110.171 366.584 110.602 366.167C111.035 365.75 111.44 365.305 111.815 364.836C112.188 364.363 112.535 363.869 112.851 363.356C113.496 362.298 114.027 361.175 114.437 360.006L114.44 359.993Z" fill="#E88E80"/>
<path d="M131.937 353.578C131.777 353.917 131.591 354.244 131.38 354.554C131.172 354.867 130.946 355.168 130.705 355.456C130.22 356.039 129.68 356.573 129.092 357.052C127.906 358.025 126.544 358.762 125.08 359.224C124.716 359.346 124.34 359.431 123.97 359.52C123.592 359.586 123.216 359.667 122.835 359.701C122.455 359.735 122.073 359.767 121.692 359.784C121.501 359.784 121.31 359.784 121.121 359.784C120.931 359.784 120.74 359.784 120.551 359.759C119.046 359.655 117.571 359.288 116.192 358.675C117.64 358.886 119.103 358.977 120.565 358.946C120.745 358.946 120.924 358.931 121.103 358.916C121.282 358.901 121.46 358.895 121.637 358.878C121.993 358.829 122.348 358.802 122.698 358.73C123.401 358.62 124.094 358.454 124.771 358.236C126.132 357.806 127.425 357.187 128.612 356.397C129.217 356.001 129.796 355.568 130.346 355.1C130.909 354.628 131.441 354.119 131.937 353.578V353.578Z" fill="#E88E80"/>
<path d="M149.334 350.689C149.139 350.949 148.922 351.191 148.685 351.414C148.451 351.639 148.204 351.849 147.945 352.045C147.427 352.441 146.87 352.784 146.283 353.069C145.096 353.651 143.806 353.993 142.486 354.076C142.156 354.101 141.824 354.096 141.496 354.094C141.167 354.093 140.835 354.059 140.509 354.008C140.184 353.958 139.859 353.9 139.538 353.835C139.378 353.797 139.221 353.754 139.063 353.711C138.904 353.668 138.747 353.624 138.593 353.563C137.362 353.155 136.216 352.527 135.209 351.71C136.38 352.152 137.582 352.507 138.805 352.77C138.953 352.806 139.101 352.831 139.249 352.853C139.397 352.875 139.545 352.906 139.694 352.928C139.99 352.957 140.296 353.008 140.6 353.02C141.201 353.07 141.806 353.074 142.408 353.032C143.62 352.956 144.816 352.713 145.962 352.31C146.546 352.11 147.116 351.875 147.671 351.605C148.244 351.334 148.799 351.028 149.334 350.689Z" fill="#E88E80"/>
<path d="M140.462 322.157C140.355 322.379 140.227 322.591 140.08 322.79C139.935 322.991 139.779 323.183 139.611 323.365C139.271 323.733 138.894 324.063 138.484 324.35C137.653 324.937 136.709 325.345 135.713 325.55C135.464 325.606 135.212 325.636 134.961 325.67C134.709 325.704 134.454 325.711 134.2 325.705C133.945 325.699 133.695 325.691 133.443 325.671C133.191 325.652 132.942 325.614 132.702 325.559C131.727 325.367 130.799 324.985 129.973 324.433C130.908 324.595 131.851 324.701 132.799 324.75C132.914 324.759 133.03 324.759 133.144 324.75H133.487C133.715 324.735 133.942 324.741 134.168 324.714C134.616 324.683 135.062 324.62 135.501 324.526C136.39 324.341 137.252 324.043 138.066 323.639C138.484 323.435 138.89 323.21 139.283 322.963C139.69 322.715 140.083 322.446 140.462 322.157V322.157Z" fill="#E88E80"/>
<path d="M116.761 331.934C116.762 332.211 116.737 332.488 116.687 332.761C116.642 333.036 116.578 333.308 116.498 333.575C116.336 334.113 116.116 334.632 115.843 335.123C115.289 336.121 114.533 336.993 113.622 337.682C113.169 338.027 112.682 338.324 112.168 338.57C112.04 338.635 111.911 338.691 111.78 338.744C111.648 338.797 111.519 338.855 111.386 338.903C111.118 338.993 110.854 339.09 110.58 339.154C109.504 339.443 108.383 339.528 107.275 339.405C108.309 339.128 109.325 338.787 110.317 338.383C110.561 338.29 110.792 338.167 111.029 338.062C111.144 338.006 111.257 337.941 111.372 337.885C111.488 337.829 111.602 337.767 111.712 337.7L112.046 337.508L112.369 337.299C112.48 337.234 112.581 337.151 112.686 337.083C112.791 337.015 112.896 336.935 112.995 336.857C113.814 336.235 114.543 335.503 115.16 334.681C115.477 334.263 115.768 333.826 116.031 333.373C116.304 332.909 116.548 332.428 116.761 331.934V331.934Z" fill="#E88E80"/>
<path d="M95.7685 348.034C95.8445 348.282 95.8985 348.536 95.9299 348.794C95.9647 349.052 95.984 349.312 95.9877 349.572C95.9977 350.097 95.9535 350.621 95.8559 351.137C95.7578 351.659 95.609 352.169 95.4116 352.662C95.2107 353.157 94.9627 353.631 94.6712 354.079C94.5231 354.304 94.3646 354.523 94.2032 354.728C94.0418 354.934 93.8612 355.138 93.6701 355.32C92.5587 356.447 91.138 357.219 89.5874 357.539C90.416 356.98 91.2066 356.367 91.9538 355.703C92.0471 355.625 92.13 355.535 92.2159 355.45C92.3018 355.366 92.3936 355.286 92.4736 355.196C92.6365 355.017 92.8053 354.847 92.9564 354.66C93.2686 354.3 93.5546 353.917 93.8123 353.516C94.0741 353.116 94.31 352.7 94.5186 352.27C94.7276 351.837 94.912 351.393 95.071 350.939C95.2332 350.475 95.3711 350.004 95.4842 349.526C95.6012 349.037 95.6974 348.544 95.7685 348.034Z" fill="#E88E80"/>
<path d="M84.0176 367.254C84.1608 367.415 84.2878 367.589 84.3967 367.775C84.5082 367.959 84.6072 368.15 84.6929 368.347C84.8694 368.744 85.0011 369.16 85.0853 369.587C85.2574 370.454 85.2433 371.349 85.0438 372.211C84.9965 372.427 84.9283 372.637 84.8632 372.848C84.798 373.06 84.7151 373.262 84.6129 373.461C84.5107 373.659 84.4145 373.853 84.3064 374.043C84.1983 374.234 84.0754 374.416 83.9406 374.586C83.4292 375.282 82.7774 375.862 82.0273 376.29C82.4716 375.563 82.8996 374.873 83.2461 374.162C83.292 374.074 83.3335 373.984 83.372 373.894L83.4934 373.626C83.5615 373.443 83.6415 373.268 83.7052 373.083C83.8394 372.722 83.9492 372.353 84.0339 371.977C84.2082 371.222 84.2897 370.449 84.2768 369.674C84.2664 368.861 84.1797 368.051 84.0176 367.254Z" fill="#E88E80"/>
<path d="M66.418 367.475C66.6756 367.708 66.8954 367.979 67.0696 368.279C67.2482 368.578 67.3932 368.896 67.502 369.227C67.7245 369.901 67.8022 370.615 67.7301 371.32C67.6595 372.029 67.4351 372.714 67.0726 373.328C66.7211 373.927 66.2318 374.434 65.645 374.807C65.8997 374.165 66.147 373.578 66.3307 372.985C66.512 372.407 66.6355 371.812 66.6994 371.21C66.7602 370.605 66.7631 369.996 66.7083 369.39C66.6482 368.747 66.5513 368.107 66.418 367.475V367.475Z" fill="#E88E80"/>
<path d="M73.8056 342.187C74.0007 342.473 74.1506 342.787 74.2499 343.118C74.3557 343.451 74.4247 343.793 74.4557 344.141C74.5178 344.847 74.4305 345.56 74.1995 346.231C73.9693 346.905 73.5949 347.52 73.1022 348.035C72.6227 348.541 72.0299 348.925 71.3726 349.156C71.7679 348.59 72.1411 348.074 72.4551 347.54C72.7646 347.018 73.0211 346.466 73.2207 345.893C73.418 345.317 73.5593 344.722 73.6427 344.118C73.7342 343.478 73.7886 342.833 73.8056 342.187Z" fill="#E88E80"/>
<path d="M96.6718 316.92C96.9576 317.808 96.9176 318.781 96.691 319.7C96.4495 320.63 96.0022 321.494 95.3819 322.229C94.1375 323.667 92.3885 324.573 90.4951 324.762C91.277 324.27 92.0293 323.806 92.7164 323.282C93.0597 323.028 93.3899 322.756 93.7056 322.467C93.8537 322.319 94.0166 322.18 94.1499 322.024C94.2831 321.867 94.4357 321.716 94.5734 321.559C95.115 320.916 95.5637 320.201 95.9061 319.434C96.2697 318.633 96.5271 317.788 96.6718 316.92V316.92Z" fill="#E88E80"/>
<path d="M133.474 304.318C133.232 305.217 132.671 306.014 131.982 306.664C131.275 307.315 130.431 307.8 129.511 308.082C129.052 308.219 128.582 308.311 128.106 308.358C126.702 308.479 125.293 308.206 124.036 307.571C124.959 307.581 125.843 307.597 126.702 307.534C127.128 307.506 127.552 307.456 127.974 307.386C128.181 307.343 128.391 307.312 128.594 307.257C128.797 307.202 129 307.152 129.201 307.094C130.005 306.847 130.77 306.488 131.474 306.029C132.212 305.547 132.884 304.972 133.474 304.318V304.318Z" fill="#E88E80"/>
</g>
<g filter="url(#filter0_d_330_449)">
<circle cx="114.499" cy="483.771" r="19.0103" fill="url(#paint6_linear_330_449)"/>
</g>
<g clip-path="url(#clip2_330_449)">
<path d="M109.878 486.014L110.627 486.272C112.078 486.772 112.125 488.833 110.666 489.379C110.666 489.771 110.373 490.019 110.053 490.019C109.736 490.019 109.44 489.775 109.44 489.379C108.813 489.145 108.366 488.54 108.366 487.833C108.366 487.494 108.64 487.219 108.979 487.219C109.318 487.219 109.592 487.494 109.592 487.833C109.592 488.067 109.783 488.257 110.017 488.257H110.089C110.568 488.257 110.677 487.586 110.227 487.432L109.478 487.173C108.027 486.673 107.981 484.612 109.44 484.066C109.44 483.674 109.732 483.427 110.053 483.427C110.37 483.427 110.666 483.671 110.666 484.066C111.293 484.301 111.74 484.905 111.74 485.613C111.74 485.951 111.465 486.226 111.127 486.226C110.788 486.226 110.513 485.951 110.513 485.613C110.513 485.379 110.323 485.188 110.089 485.188H110.017C109.538 485.188 109.429 485.859 109.878 486.014V486.014ZM115.112 486.723C115.112 489.512 112.842 491.782 110.053 491.782C107.263 491.782 104.994 489.512 104.994 486.723C104.994 483.933 107.263 481.664 110.053 481.664C112.842 481.664 115.112 483.933 115.112 486.723ZM113.886 486.723C113.886 484.609 112.166 482.89 110.053 482.89C107.939 482.89 106.22 484.609 106.22 486.723C106.22 488.836 107.939 490.555 110.053 490.555C112.166 490.555 113.886 488.836 113.886 486.723ZM123.391 490.555H122.969V480.437C122.969 480.098 122.695 479.824 122.356 479.824C122.017 479.824 121.743 480.098 121.743 480.437V490.555H118.638V482.89C118.638 482.551 118.364 482.277 118.025 482.277C117.686 482.277 117.412 482.551 117.412 482.89V490.555H114.805C114.467 490.555 114.192 490.83 114.192 491.169C114.192 491.507 114.467 491.782 114.805 491.782H123.391C123.729 491.782 124.004 491.507 124.004 491.169C124.004 490.83 123.729 490.555 123.391 490.555ZM114.434 482.365L116.626 480.174L117.591 481.139C117.831 481.378 118.219 481.378 118.459 481.139L121.743 477.855V478.137C121.743 478.476 122.017 478.751 122.356 478.751C122.695 478.751 122.969 478.476 122.969 478.137C122.969 476.191 122.972 476.357 122.962 476.288C122.933 476.079 122.795 475.893 122.59 475.808C122.439 475.745 122.486 475.761 120.593 475.761C120.254 475.761 119.98 476.036 119.98 476.374C119.98 476.713 120.254 476.988 120.593 476.988H120.875L118.025 479.838L117.06 478.873C116.82 478.633 116.432 478.633 116.192 478.873L113.567 481.498C113.327 481.738 113.327 482.126 113.567 482.365C113.806 482.605 114.195 482.605 114.434 482.365V482.365Z" fill="white" fill-opacity="0.86"/>
</g>
<ellipse rx="27.2469" ry="26.6397" transform="matrix(0.97863 0.20563 -0.533322 0.845912 39.4088 425.85)" fill="url(#paint7_linear_330_449)"/>
<circle r="26.7856" transform="matrix(0.97863 0.20563 -0.533322 0.845912 39.2159 424.014)" fill="white"/>
<g clip-path="url(#clip3_330_449)">
<path d="M60.2987 423.141C59.4122 424.547 58.0404 425.797 56.4381 426.658C54.8358 427.519 53.1121 427.934 51.5873 427.824C52.551 427.864 53.6253 427.584 54.619 427.036C55.6126 426.488 56.4613 425.706 57.0138 424.83C57.6325 423.848 57.8322 422.824 57.5689 421.983C57.3057 421.141 56.6011 420.551 55.61 420.343L49.06 418.966L51.7079 414.766L58.0962 416.109C59.6502 416.435 60.7553 417.36 61.1684 418.678C61.5814 419.997 61.2686 421.603 60.2987 423.141ZM47.7463 416.282L47.7575 421.031L53.0423 412.649L47.7463 416.282Z" fill="#FF9900"/>
<path d="M31.6327 430.634L31.598 425.99L39.8396 412.856C40.0785 412.48 40.4585 412.15 40.8961 411.941C41.3337 411.731 41.7933 411.659 42.1741 411.739L46.4388 412.635C46.7374 412.698 46.9823 412.836 47.1495 413.037C47.3167 413.238 47.4004 413.494 47.3924 413.78L47.1732 421.531C47.1646 421.821 47.0612 422.132 46.8737 422.432L38.742 435.33L37.0001 434.964C36.7588 434.913 36.5872 434.769 36.5231 434.565C36.4589 434.36 36.5075 434.11 36.6582 433.872L43.9897 422.243C44.0761 422.106 44.1218 421.964 44.1216 421.833L44.1002 415.012L42.378 414.65C42.0517 414.582 41.643 414.755 41.4653 415.037L31.6327 430.634Z" fill="url(#paint8_linear_330_449)"/>
<path opacity="0.2" d="M31.598 425.99L31.6107 428.318L40.8008 413.739C40.8008 413.739 40.9742 413.464 41.4021 413.27C41.7509 413.112 41.9405 413.146 42.2485 413.211C43.3184 413.436 45.2034 413.87 45.683 413.863C46.7993 413.847 46.111 412.566 46.111 412.566L42.1741 411.739C41.7933 411.659 41.3337 411.731 40.8961 411.941C40.4585 412.15 40.0785 412.48 39.8396 412.856L31.598 425.99Z" fill="white"/>
<path d="M43.2007 411.948L46.4332 412.627C46.7317 412.69 46.9767 412.828 47.1439 413.029C47.3111 413.23 47.3948 413.486 47.3868 413.772L47.1675 421.523C47.1589 421.813 47.0556 422.124 46.8681 422.424L38.7363 435.321L36.9944 434.955C36.7531 434.905 36.5815 434.761 36.5174 434.556C36.4533 434.352 36.5019 434.102 36.6525 433.864L43.9841 422.235C44.0704 422.098 44.1162 421.956 44.116 421.825C44.116 421.825 44.1432 416.671 44.0943 415.007C44.0705 414.2 44.0502 413.599 43.9709 412.848C43.9571 412.717 43.9316 412.596 43.8426 412.437C43.7791 412.323 43.6584 412.209 43.5565 412.14C43.3428 411.995 43.2007 411.948 43.2007 411.948Z" fill="#FF8C01"/>
<path d="M43.2007 411.948L45.2068 412.369C45.5053 412.432 45.7503 412.571 45.9175 412.771C46.0847 412.972 46.1684 413.228 46.1604 413.515L45.9411 421.265C45.9325 421.555 45.8292 421.866 45.6417 422.166L37.5099 435.064L36.9944 434.955C36.7531 434.905 36.5815 434.761 36.5174 434.556C36.4533 434.352 36.5019 434.102 36.6525 433.864L43.9841 422.235C44.0705 422.098 44.1162 421.956 44.116 421.825C44.116 421.825 44.1432 416.671 44.0943 415.007C44.0706 414.2 44.0502 413.599 43.9709 412.848C43.9571 412.717 43.9316 412.596 43.8426 412.437C43.7791 412.323 43.6584 412.209 43.5565 412.14C43.3428 411.995 43.2007 411.948 43.2007 411.948Z" fill="#FFA31A"/>
<path fill-rule="evenodd" clip-rule="evenodd" d="M57.0988 421.718C57.0331 421.222 56.7565 420.82 56.3128 420.575C57.0491 420.924 57.5209 421.539 57.6484 422.314C57.7759 423.09 57.5514 423.98 57.0127 424.833C56.3936 425.815 55.406 426.674 54.2672 427.22C53.1284 427.767 51.9316 427.957 50.9401 427.749L44.3876 426.372L45.9959 423.821L52.693 425.228C53.3434 425.365 54.1283 425.24 54.8752 424.882C55.6221 424.523 56.2698 423.96 56.6757 423.316C57.0156 422.776 57.1645 422.214 57.0988 421.718ZM34.2256 421.349L43.3464 423.266L41.7397 425.814L32.6189 423.898L34.2256 421.349Z" fill="url(#paint9_linear_330_449)"/>
<path d="M22.5221 427.193C22.0784 426.949 21.8018 426.547 21.7361 426.05C21.6704 425.554 21.8193 424.992 22.1592 424.452C22.5652 423.809 23.2128 423.245 23.9597 422.887C24.7066 422.528 25.4916 422.403 26.1419 422.54L32.8391 423.947L34.4474 421.396L27.8949 420.019C26.9033 419.811 25.7065 420.001 24.5677 420.548C23.4289 421.095 22.4413 421.953 21.8222 422.935C21.2835 423.788 21.059 424.678 21.1865 425.454C21.314 426.23 21.7858 426.844 22.5221 427.193V427.193Z" fill="url(#paint10_linear_330_449)"/>
<path opacity="0.2" d="M42.5383 424.549L33.6763 422.687L32.8735 423.96L41.7355 425.822L42.5383 424.549Z" fill="white"/>
<path opacity="0.2" d="M57.2294 421.628C57.0278 421.152 56.7488 420.818 56.305 420.574C57.0413 420.922 57.5131 421.537 57.6406 422.313C57.7682 423.088 57.5436 423.978 57.0049 424.832C56.3858 425.813 55.3982 426.672 54.2594 427.219C53.1206 427.765 51.9238 427.956 50.9323 427.747L44.3798 426.37L45.1829 425.096L51.8801 426.504C53.7037 426.822 55.6067 425.926 56.7004 424.191C57.6651 422.661 57.3572 422.088 57.2294 421.628Z" fill="white"/>
<path d="M21.605 426.14C21.8066 426.616 22.0857 426.95 22.5294 427.194C21.7932 426.846 21.3214 426.231 21.1938 425.455C21.0663 424.68 21.2909 423.79 21.8296 422.937C22.4487 421.955 23.4362 421.096 24.575 420.549C25.7138 420.003 26.9106 419.813 27.9022 420.021L34.4547 421.398L33.6515 422.672L26.9543 421.264C25.1308 420.946 23.2278 421.842 22.1341 423.577C21.1693 425.107 21.4773 425.68 21.605 426.14Z" fill="url(#paint11_linear_330_449)"/>
<path d="M60.2977 423.141C59.4113 424.547 58.0394 425.797 56.4371 426.658C54.8348 427.519 53.1111 427.934 51.5863 427.824C52.55 427.864 53.6243 427.584 54.618 427.036C55.6117 426.488 56.4603 425.706 57.0129 424.83C57.6315 423.848 57.8312 422.824 57.568 421.983C57.3047 421.141 56.6001 420.551 55.609 420.343L49.0591 418.966L51.7069 414.766L58.0952 416.109C59.6492 416.435 60.7543 417.36 61.1674 418.678C61.5804 419.997 61.2676 421.603 60.2977 423.141ZM47.7453 416.282L47.7566 421.031L53.0413 412.649L47.7453 416.282Z" fill="#FFA31A"/>
<path d="M18.5685 424.628C19.455 423.222 20.8268 421.973 22.4291 421.111C24.0314 420.25 25.7551 419.836 27.2799 419.946C26.3162 419.906 25.2419 420.185 24.2482 420.733C23.2546 421.282 22.4059 422.063 21.8533 422.94C21.2347 423.921 21.035 424.945 21.2983 425.787C21.5615 426.628 22.2661 427.218 23.2572 427.427L29.8072 428.803L27.1593 433.003L20.771 431.661C19.217 431.334 18.1119 430.41 17.6988 429.091C17.2858 427.772 17.5986 426.167 18.5685 424.628ZM31.1209 431.487L31.1096 426.738L25.8249 435.121L31.1209 431.487Z" fill="#FFA31A"/>
<path d="M56.9335 418.213L50.3836 416.837L47.7306 416.28L53.0265 412.646L51.6909 414.764L58.0792 416.106C59.633 416.433 60.7379 417.357 61.151 418.675C61.5641 419.994 61.2516 421.599 60.2821 423.138C59.3961 424.545 58.0241 425.795 56.4213 426.657C62.0821 421.196 58.4308 418.528 56.9335 418.213Z" fill="#FF8C01"/>
<path d="M21.9322 429.557L28.4822 430.933L31.1351 431.491L25.8392 435.124L27.1748 433.007L20.7866 431.665C19.2327 431.338 18.1278 430.414 17.7147 429.095C17.3016 427.776 17.6142 426.171 18.5836 424.633C19.4696 423.226 20.8416 421.975 22.4445 421.113C16.7836 426.575 20.435 429.242 21.9322 429.557Z" fill="#FF8C01"/>
<path opacity="0.2" d="M22.5534 427.21C22.1096 426.965 21.8331 426.563 21.7674 426.067C21.7017 425.571 21.8505 425.009 22.1905 424.469C22.5964 423.825 23.2441 423.262 23.991 422.903C24.7379 422.545 25.5228 422.42 26.1731 422.557L32.8703 423.964L34.4786 421.413L27.9261 420.036C26.9346 419.828 25.7378 420.018 24.599 420.565C23.4602 421.111 22.4726 421.97 21.8535 422.952C21.3148 423.805 21.0902 424.695 21.2177 425.471C21.3453 426.246 21.8171 426.861 22.5534 427.21Z" fill="white"/>
<path d="M21.6368 426.157C21.8384 426.633 22.1175 426.967 22.5612 427.211C21.8249 426.862 21.3531 426.248 21.2256 425.472C21.0981 424.696 21.3226 423.806 21.8613 422.953C22.4804 421.972 23.468 421.113 24.6068 420.566C25.7456 420.019 26.9424 419.829 27.9339 420.038L35.4879 421.625L34.6847 422.899L26.9861 421.281C25.1625 420.963 23.2595 421.859 22.1658 423.593C21.2011 425.124 21.509 425.696 21.6368 426.157Z" fill="url(#paint12_linear_330_449)"/>
</g>
<g filter="url(#filter1_d_330_449)">
<circle cx="318.385" cy="222.854" r="25.6639" fill="url(#paint13_linear_330_449)"/>
</g>
<path d="M308.879 222.52C308.879 224.056 310.129 225.305 311.664 225.305C313.2 225.305 314.449 224.056 314.449 222.52C314.449 222.44 314.431 222.36 314.398 222.287L312.53 218.24C313.405 218.189 314.271 217.959 315.055 217.568L315.117 217.536C315.796 217.197 316.52 216.967 317.271 216.851V226.233H319.498V216.851C320.249 216.967 320.973 217.197 321.652 217.536L321.715 217.567C322.498 217.959 323.364 218.189 324.24 218.24L322.372 222.287C322.338 222.36 322.32 222.44 322.32 222.52C322.32 224.056 323.569 225.305 325.105 225.305C326.64 225.305 327.89 224.056 327.89 222.52C327.89 222.44 327.872 222.36 327.838 222.287L325.888 218.06C326.561 217.854 327.178 217.485 327.689 216.973C327.907 216.756 327.907 216.403 327.689 216.186C327.472 215.968 327.119 215.968 326.902 216.186C326.289 216.799 325.474 217.136 324.606 217.136C323.78 217.136 322.952 216.941 322.213 216.571L322.151 216.54C321.341 216.135 320.475 215.865 319.577 215.736C319.551 215.733 319.525 215.731 319.498 215.731V214.463C319.498 213.848 319 213.349 318.385 213.349C317.769 213.349 317.271 213.848 317.271 214.463V215.731C317.244 215.731 317.218 215.733 317.192 215.736C316.294 215.865 315.428 216.135 314.619 216.54L314.556 216.571C313.817 216.941 312.989 217.136 312.163 217.136C311.296 217.136 310.48 216.799 309.867 216.186C309.65 215.968 309.297 215.968 309.08 216.186C308.862 216.403 308.862 216.756 309.08 216.973C309.592 217.485 310.208 217.854 310.882 218.06L308.931 222.287C308.897 222.36 308.879 222.44 308.879 222.52V222.52ZM323.748 221.963L325.105 219.022L326.462 221.963H323.748ZM311.664 219.022L313.021 221.963H310.307L311.664 219.022Z" fill="white"/>
<path d="M327.333 231.245H324.047C324.047 230.63 323.548 230.131 322.933 230.131H313.836C313.221 230.131 312.722 230.63 312.722 231.245H309.436C309.129 231.245 308.879 231.495 308.879 231.802C308.879 232.11 309.129 232.359 309.436 232.359H327.333C327.64 232.359 327.89 232.11 327.89 231.802C327.89 231.495 327.64 231.245 327.333 231.245Z" fill="white"/>
<path d="M320.705 227.347H316.064C315.449 227.347 314.95 227.845 314.95 228.461V229.018H321.819V228.461C321.819 227.845 321.32 227.347 320.705 227.347Z" fill="white"/>
<g filter="url(#filter2_d_330_449)">
<circle cx="349.039" cy="327.648" r="10.6933" fill="#38C976"/>
</g>
<g filter="url(#filter3_d_330_449)">
<circle cx="347.5" cy="48.5" r="11.5" fill="#38C976"/>
</g>
<path d="M-140.547 459.243C-127.767 463.751 -117.984 473.333 -108.74 483.947C-99.8442 494.168 -91.0303 504.934 -79.4175 511.177C-55.4754 524.05 -27.2634 517.681 -3.72291 506.829C22.5849 494.696 47.3279 476.381 75.7441 471.124C89.682 468.546 104.574 469.871 116.667 478.771C126.685 486.146 132.083 497.778 134.301 510.843C135.561 518.267 135.972 525.8 136.292 533.346L139.33 533.358C139.24 531.22 139.151 529.082 139.024 526.958C138.319 514.604 136.892 501.765 131.233 490.936C124.801 478.636 113.348 470.793 101.206 467.915C86.3902 464.398 70.995 467.633 56.813 472.934C43.1473 478.041 30.1974 485.268 17.2422 492.3C-7.48725 505.724 -34.8936 519.334 -62.9399 513.521C-69.5022 512.16 -75.8698 509.682 -81.6675 505.928C-87.3978 502.224 -92.43 497.369 -97.1723 492.195C-106.455 482.07 -114.843 470.579 -125.94 462.913C-137.417 454.98 -151.263 451.452 -164.62 453.019C-164.638 453.019 -164.657 453.026 -164.681 453.026L-164.696 456.568C-156.614 455.58 -148.374 456.487 -140.547 459.243Z" fill="url(#paint14_linear_330_449)" fill-opacity="0.2"/>
<path d="M-110.599 497.673C-81.2853 510.275 -48.9026 498.613 -26.8981 486.61C-15.5729 480.431 -4.53763 473.098 6.1345 466.002C19.9516 456.815 34.2365 447.317 49.2542 440.273C63.9091 433.395 101.088 419.748 129.641 441.449C146.065 453.936 157.426 476.895 163.408 509.689C163.972 512.772 164.475 515.897 164.966 519.021L165.592 519.024C165.096 515.85 164.58 512.677 164.01 509.545C157.999 476.562 146.552 453.456 129.987 440.87C101.183 418.98 63.7707 432.71 49.0236 439.629C33.9689 446.694 19.6595 456.2 5.82387 465.4C-4.84209 472.489 -15.865 479.815 -27.1656 485.98C-49.0655 497.928 -81.2762 509.541 -110.388 497.017C-120.756 492.56 -130.203 485.222 -139.345 478.13C-143.157 475.173 -147.012 472.189 -150.96 469.386L-150.964 470.203C-147.132 472.936 -143.393 475.836 -139.691 478.708C-130.525 485.829 -121.047 493.181 -110.599 497.673Z" fill="url(#paint15_linear_330_449)" fill-opacity="0.2"/>
<g clip-path="url(#clip4_330_449)">
<path d="M469.844 59.4846C457.925 54.6496 448.802 44.3734 440.181 32.9908C431.885 22.0292 423.665 10.4836 412.835 3.78814C390.506 -10.018 364.195 -3.18743 342.241 8.45058C317.706 21.4626 294.631 41.1043 268.13 46.7427C255.131 49.5069 241.243 48.0865 229.965 38.542C220.622 30.6323 215.588 18.1575 213.519 4.14559C212.345 -3.81621 211.961 -11.8942 211.663 -19.9868L208.829 -20C208.913 -17.7071 208.996 -15.4142 209.114 -13.1361C209.772 0.112581 211.103 13.8813 216.381 25.4957C222.379 38.6867 233.061 47.0971 244.384 50.1838C258.201 53.9563 272.559 50.4867 285.785 44.8017C298.53 39.3243 310.607 31.5737 322.689 24.033C345.752 9.63558 371.311 -4.96 397.467 1.27458C403.588 2.73389 409.526 5.39105 414.933 9.41676C420.277 13.3897 424.97 18.5959 429.393 24.1454C438.05 35.0037 445.872 47.3266 456.222 55.5482C466.926 64.0561 479.838 67.8394 492.295 66.1591C492.312 66.1591 492.329 66.1517 492.352 66.1518L492.365 62.3535C484.828 63.4124 477.144 62.4403 469.844 59.4846Z" fill="url(#paint16_linear_330_449)" fill-opacity="0.2"/>
<path d="M441.915 18.27C414.577 4.75538 384.376 17.2617 363.855 30.135C353.293 36.7613 343.001 44.625 333.048 52.2356C320.162 62.0876 306.84 72.2748 292.835 79.8291C279.167 87.2052 244.495 101.841 217.866 78.5677C202.548 65.1761 191.953 40.5537 186.374 5.38353C185.848 2.07718 185.379 -1.27386 184.921 -4.62485L184.337 -4.62755C184.8 -1.2241 185.281 2.17943 185.813 5.53826C191.419 40.9109 202.094 65.691 217.543 79.188C244.406 102.665 279.297 87.94 293.05 80.5193C307.09 72.9427 320.435 62.7482 333.338 52.8812C343.285 45.2781 353.565 37.4219 364.104 30.8104C384.528 17.9966 414.568 5.54199 441.718 18.9734C451.387 23.753 460.198 31.6229 468.724 39.2292C472.279 42.3997 475.874 45.6004 479.556 48.6067L479.559 47.7302C475.986 44.7993 472.499 41.689 469.047 38.6088C460.498 30.9725 451.658 23.0875 441.915 18.27Z" fill="url(#paint17_linear_330_449)" fill-opacity="0.2"/>
</g>
</g>
<defs>
<filter id="filter0_d_330_449" x="72.2011" y="441.473" width="84.5958" height="84.5958" filterUnits="userSpaceOnUse" color-interpolation-filters="sRGB">
<feFlood flood-opacity="0" result="BackgroundImageFix"/>
<feColorMatrix in="SourceAlpha" type="matrix" values="0 0 0 0 0 0 0 0 0 0 0 0 0 0 0 0 0 0 127 0" result="hardAlpha"/>
<feOffset/>
<feGaussianBlur stdDeviation="11.6438"/>
<feComposite in2="hardAlpha" operator="out"/>
<feColorMatrix type="matrix" values="0 0 0 0 1 0 0 0 0 0.509804 0 0 0 0 0.180392 0 0 0 1 0"/>
<feBlend mode="normal" in2="BackgroundImageFix" result="effect1_dropShadow_330_449"/>
<feBlend mode="normal" in="SourceGraphic" in2="effect1_dropShadow_330_449" result="shape"/>
</filter>
<filter id="filter1_d_330_449" x="269.433" y="173.903" width="97.9029" height="97.9029" filterUnits="userSpaceOnUse" color-interpolation-filters="sRGB">
<feFlood flood-opacity="0" result="BackgroundImageFix"/>
<feColorMatrix in="SourceAlpha" type="matrix" values="0 0 0 0 0 0 0 0 0 0 0 0 0 0 0 0 0 0 127 0" result="hardAlpha"/>
<feOffset/>
<feGaussianBlur stdDeviation="11.6438"/>
<feComposite in2="hardAlpha" operator="out"/>
<feColorMatrix type="matrix" values="0 0 0 0 1 0 0 0 0 0.509804 0 0 0 0 0.180392 0 0 0 0.63 0"/>
<feBlend mode="normal" in2="BackgroundImageFix" result="effect1_dropShadow_330_449"/>
<feBlend mode="normal" in="SourceGraphic" in2="effect1_dropShadow_330_449" result="shape"/>
</filter>
<filter id="filter2_d_330_449" x="329.316" y="307.925" width="39.4465" height="39.4465" filterUnits="userSpaceOnUse" color-interpolation-filters="sRGB">
<feFlood flood-opacity="0" result="BackgroundImageFix"/>
<feColorMatrix in="SourceAlpha" type="matrix" values="0 0 0 0 0 0 0 0 0 0 0 0 0 0 0 0 0 0 127 0" result="hardAlpha"/>
<feOffset/>
<feGaussianBlur stdDeviation="4.51495"/>
<feComposite in2="hardAlpha" operator="out"/>
<feColorMatrix type="matrix" values="0 0 0 0 0.207843 0 0 0 0 0.835294 0 0 0 0 0.647059 0 0 0 0.94 0"/>
<feBlend mode="normal" in2="BackgroundImageFix" result="effect1_dropShadow_330_449"/>
<feBlend mode="normal" in="SourceGraphic" in2="effect1_dropShadow_330_449" result="shape"/>
</filter>
<filter id="filter3_d_330_449" x="317" y="18" width="61" height="61" filterUnits="userSpaceOnUse" color-interpolation-filters="sRGB">
<feFlood flood-opacity="0" result="BackgroundImageFix"/>
<feColorMatrix in="SourceAlpha" type="matrix" values="0 0 0 0 0 0 0 0 0 0 0 0 0 0 0 0 0 0 127 0" result="hardAlpha"/>
<feOffset/>
<feGaussianBlur stdDeviation="9.5"/>
<feComposite in2="hardAlpha" operator="out"/>
<feColorMatrix type="matrix" values="0 0 0 0 0.207843 0 0 0 0 0.835294 0 0 0 0 0.647059 0 0 0 0.94 0"/>
<feBlend mode="normal" in2="BackgroundImageFix" result="effect1_dropShadow_330_449"/>
<feBlend mode="normal" in="SourceGraphic" in2="effect1_dropShadow_330_449" result="shape"/>
</filter>
<linearGradient id="paint0_linear_330_449" x1="191.312" y1="313.456" x2="270.818" y2="282.466" gradientUnits="userSpaceOnUse">
<stop stop-color="#142130"/>
<stop offset="1" stop-color="#20364F"/>
</linearGradient>
<linearGradient id="paint1_linear_330_449" x1="184.268" y1="320.775" x2="270.459" y2="320.775" gradientUnits="userSpaceOnUse">
<stop stop-color="#19181C"/>
<stop offset="0.11" stop-color="#151417"/>
<stop offset="0.46" stop-color="#0D0C0F"/>
<stop offset="1" stop-color="#0A0A0C"/>
</linearGradient>
<linearGradient id="paint2_linear_330_449" x1="269.384" y1="298.04" x2="187.574" y2="337.437" gradientUnits="userSpaceOnUse">
<stop stop-color="#906CF9"/>
<stop offset="0.03" stop-color="#A435D4"/>
<stop offset="0.09" stop-color="#A754D0"/>
<stop offset="0.15" stop-color="#A970CC"/>
<stop offset="0.23" stop-color="#AA86C9"/>
<stop offset="0.32" stop-color="#AB97C7"/>
<stop offset="0.42" stop-color="#ACA2C5"/>
<stop offset="0.58" stop-color="#ADA9C4"/>
<stop offset="1" stop-color="#ADABC4"/>
</linearGradient>
<linearGradient id="paint3_linear_330_449" x1="263.259" y1="289.337" x2="171.767" y2="344.987" gradientUnits="userSpaceOnUse">
<stop stop-color="#A323D7"/>
<stop offset="0.02" stop-color="#9622C6"/>
<stop offset="0.08" stop-color="#751F99"/>
<stop offset="0.15" stop-color="#591D72"/>
<stop offset="0.21" stop-color="#421B53"/>
<stop offset="0.28" stop-color="#301A3B"/>
<stop offset="0.36" stop-color="#23192A"/>
<stop offset="0.43" stop-color="#1B181F"/>
<stop offset="0.53" stop-color="#19181C"/>
<stop offset="1" stop-color="#0A0A0C"/>
</linearGradient>
<linearGradient id="paint4_linear_330_449" x1="191.632" y1="316.398" x2="210.834" y2="341.595" gradientUnits="userSpaceOnUse">
<stop stop-color="#534066"/>
<stop offset="1" stop-color="#0B0B0E"/>
</linearGradient>
<linearGradient id="paint5_linear_330_449" x1="179.78" y1="500.93" x2="232.277" y2="364.705" gradientUnits="userSpaceOnUse">
<stop stop-color="#FF9E0F"/>
<stop offset="1" stop-color="#FF7C0F"/>
</linearGradient>
<linearGradient id="paint6_linear_330_449" x1="103.173" y1="499.059" x2="125.805" y2="468.502" gradientUnits="userSpaceOnUse">
<stop stop-color="#FF9E0F"/>
<stop offset="1" stop-color="#FF7C0F"/>
</linearGradient>
<linearGradient id="paint7_linear_330_449" x1="42.2246" y1="3.64433" x2="10.8202" y2="55.9473" gradientUnits="userSpaceOnUse">
<stop stop-color="#F7F4FD"/>
<stop offset="1" stop-color="#906CF9"/>
</linearGradient>
<linearGradient id="paint8_linear_330_449" x1="45.205" y1="412.419" x2="31.2984" y2="412.261" gradientUnits="userSpaceOnUse">
<stop offset="0.0220136" stop-color="#3C3B3B"/>
<stop offset="0.370212" stop-color="#5E5D5D"/>
<stop offset="0.976214" stop-color="#5E5D5D"/>
</linearGradient>
<linearGradient id="paint9_linear_330_449" x1="59.311" y1="422.651" x2="36.937" y2="414.836" gradientUnits="userSpaceOnUse">
<stop offset="0.0748513" stop-color="#3C3B3B"/>
<stop offset="0.370212" stop-color="#5E5D5D"/>
<stop offset="1" stop-color="#5E5D5D"/>
</linearGradient>
<linearGradient id="paint10_linear_330_449" x1="19.9586" y1="425.208" x2="29.63" y2="430.001" gradientUnits="userSpaceOnUse">
<stop offset="0.0748513" stop-color="#3C3B3B"/>
<stop offset="0.370212" stop-color="#5E5D5D"/>
<stop offset="1" stop-color="#5E5D5D"/>
</linearGradient>
<linearGradient id="paint11_linear_330_449" x1="19.9659" y1="425.21" x2="29.6373" y2="430.002" gradientUnits="userSpaceOnUse">
<stop offset="0.0748513" stop-color="#3C3B3B"/>
<stop offset="0.370212" stop-color="#5E5D5D"/>
<stop offset="1" stop-color="#5E5D5D"/>
</linearGradient>
<linearGradient id="paint12_linear_330_449" x1="19.9607" y1="425.219" x2="30.6546" y2="430.381" gradientUnits="userSpaceOnUse">
<stop offset="0.0748513" stop-color="#3C3B3B"/>
<stop offset="0.370212" stop-color="#5E5D5D"/>
<stop offset="1" stop-color="#5E5D5D"/>
</linearGradient>
<linearGradient id="paint13_linear_330_449" x1="303.094" y1="243.494" x2="333.648" y2="202.242" gradientUnits="userSpaceOnUse">
<stop stop-color="#FF9E0F"/>
<stop offset="1" stop-color="#FF7C0F"/>
</linearGradient>
<linearGradient id="paint14_linear_330_449" x1="-141.185" y1="462.212" x2="126.001" y2="500.583" gradientUnits="userSpaceOnUse">
<stop offset="0.0467524" stop-color="#F4F8FD"/>
<stop offset="0.473931" stop-color="#3EE8B5"/>
<stop offset="1" stop-color="#EFF1FD"/>
</linearGradient>
<linearGradient id="paint15_linear_330_449" x1="-136.878" y1="470.452" x2="127.069" y2="471.131" gradientUnits="userSpaceOnUse">
<stop stop-color="#263959"/>
<stop offset="1" stop-color="#F4F8FD"/>
</linearGradient>
<linearGradient id="paint16_linear_330_449" x1="470.44" y1="56.3007" x2="220.027" y2="25.0276" gradientUnits="userSpaceOnUse">
<stop offset="0.0467524" stop-color="#F4F8FD"/>
<stop offset="0.473931" stop-color="#3EE8B5"/>
<stop offset="1" stop-color="#EFF1FD"/>
</linearGradient>
<linearGradient id="paint17_linear_330_449" x1="466.422" y1="47.4634" x2="220.263" y2="46.9127" gradientUnits="userSpaceOnUse">
<stop stop-color="#263959"/>
<stop offset="1" stop-color="#F4F8FD"/>
</linearGradient>
<clipPath id="clip0_330_449">
<rect width="375" height="513" fill="white"/>
</clipPath>
<clipPath id="clip1_330_449">
<rect width="322.225" height="248.085" fill="white" transform="translate(50.3394 265.152)"/>
</clipPath>
<clipPath id="clip2_330_449">
<rect width="19.0103" height="19.0103" fill="white" transform="translate(104.994 474.266)"/>
</clipPath>
<clipPath id="clip3_330_449">
<rect width="37.4095" height="30.6077" fill="white" transform="matrix(0.97863 0.20563 -0.533322 0.845912 29.103 407.212)"/>
</clipPath>
<clipPath id="clip4_330_449">
<rect width="308.649" height="112.991" fill="white" transform="translate(184 -20)"/>
</clipPath>
</defs>
</svg>
