<svg width="1440" height="785" viewBox="0 0 1440 785" fill="none" xmlns="http://www.w3.org/2000/svg">
<g clip-path="url(#clip0_32920_285883)">
<rect width="1440" height="785" fill="#263959"/>
<path d="M1169.06 303.111C1170.19 303.111 1171.11 302.19 1171.11 301.055C1171.11 299.92 1170.19 299 1169.06 299C1167.92 299 1167 299.92 1167 301.055C1167 302.19 1167.92 303.111 1169.06 303.111Z" fill="#FFBE16" fill-opacity="0.21"/>
<path d="M1198.81 303.111C1199.94 303.111 1200.86 302.19 1200.86 301.055C1200.86 299.92 1199.94 299 1198.81 299C1197.67 299 1196.75 299.92 1196.75 301.055C1196.75 302.19 1197.67 303.111 1198.81 303.111Z" fill="#FFBE16" fill-opacity="0.21"/>
<path d="M1228.56 303.111C1229.69 303.111 1230.61 302.19 1230.61 301.055C1230.61 299.92 1229.69 299 1228.56 299C1227.42 299 1226.5 299.92 1226.5 301.055C1226.5 302.19 1227.42 303.111 1228.56 303.111Z" fill="#FFBE16" fill-opacity="0.21"/>
<path d="M1258.31 303.111C1259.45 303.111 1260.37 302.19 1260.37 301.055C1260.37 299.92 1259.45 299 1258.31 299C1257.18 299 1256.25 299.92 1256.25 301.055C1256.25 302.19 1257.18 303.111 1258.31 303.111Z" fill="#FFBE16" fill-opacity="0.21"/>
<path d="M1288.06 303.111C1289.2 303.111 1290.12 302.19 1290.12 301.055C1290.12 299.92 1289.2 299 1288.06 299C1286.93 299 1286.01 299.92 1286.01 301.055C1286.01 302.19 1286.93 303.111 1288.06 303.111Z" fill="#FFBE16" fill-opacity="0.21"/>
<path d="M1317.81 303.111C1318.95 303.111 1319.87 302.19 1319.87 301.055C1319.87 299.92 1318.95 299 1317.81 299C1316.68 299 1315.76 299.92 1315.76 301.055C1315.76 302.19 1316.68 303.111 1317.81 303.111Z" fill="#FFBE16" fill-opacity="0.21"/>
<path d="M1349.62 301.055C1349.62 302.184 1348.69 303.111 1347.57 303.111C1346.44 303.111 1345.51 302.184 1345.51 301.055C1345.51 299.927 1346.44 299 1347.57 299C1348.71 299 1349.62 299.927 1349.62 301.055Z" fill="#FFBE16" fill-opacity="0.21"/>
<path d="M1377.32 303.111C1378.45 303.111 1379.37 302.19 1379.37 301.055C1379.37 299.92 1378.45 299 1377.32 299C1376.18 299 1375.26 299.92 1375.26 301.055C1375.26 302.19 1376.18 303.111 1377.32 303.111Z" fill="#FFBE16" fill-opacity="0.21"/>
<path d="M1407.07 303.111C1408.2 303.111 1409.12 302.19 1409.12 301.055C1409.12 299.92 1408.2 299 1407.07 299C1405.93 299 1405.01 299.92 1405.01 301.055C1405.01 302.19 1405.93 303.111 1407.07 303.111Z" fill="#FFBE16" fill-opacity="0.21"/>
<path d="M1169.06 323.108C1170.19 323.108 1171.11 322.188 1171.11 321.053C1171.11 319.918 1170.19 318.997 1169.06 318.997C1167.92 318.997 1167 319.918 1167 321.053C1167 322.188 1167.92 323.108 1169.06 323.108Z" fill="#FFBE16" fill-opacity="0.21"/>
<path d="M1198.81 323.108C1199.94 323.108 1200.86 322.188 1200.86 321.053C1200.86 319.918 1199.94 318.997 1198.81 318.997C1197.67 318.997 1196.75 319.918 1196.75 321.053C1196.75 322.188 1197.67 323.108 1198.81 323.108Z" fill="#FFBE16" fill-opacity="0.21"/>
<path d="M1228.56 323.108C1229.69 323.108 1230.61 322.188 1230.61 321.053C1230.61 319.918 1229.69 318.997 1228.56 318.997C1227.42 318.997 1226.5 319.918 1226.5 321.053C1226.5 322.188 1227.42 323.108 1228.56 323.108Z" fill="#FFBE16" fill-opacity="0.21"/>
<path d="M1258.31 323.108C1259.45 323.108 1260.37 322.188 1260.37 321.053C1260.37 319.918 1259.45 318.997 1258.31 318.997C1257.18 318.997 1256.25 319.918 1256.25 321.053C1256.25 322.188 1257.18 323.108 1258.31 323.108Z" fill="#FFBE16" fill-opacity="0.21"/>
<path d="M1288.06 323.108C1289.2 323.108 1290.12 322.188 1290.12 321.053C1290.12 319.918 1289.2 318.997 1288.06 318.997C1286.93 318.997 1286.01 319.918 1286.01 321.053C1286.01 322.188 1286.93 323.108 1288.06 323.108Z" fill="#FFBE16" fill-opacity="0.21"/>
<path d="M1317.81 323.108C1318.95 323.108 1319.87 322.188 1319.87 321.053C1319.87 319.918 1318.95 318.997 1317.81 318.997C1316.68 318.997 1315.76 319.918 1315.76 321.053C1315.76 322.188 1316.68 323.108 1317.81 323.108Z" fill="#FFBE16" fill-opacity="0.21"/>
<path d="M1349.62 321.053C1349.62 322.181 1348.69 323.108 1347.57 323.108C1346.44 323.108 1345.51 322.181 1345.51 321.053C1345.51 319.924 1346.44 318.997 1347.57 318.997C1348.71 318.997 1349.62 319.924 1349.62 321.053Z" fill="#FFBE16" fill-opacity="0.21"/>
<path d="M1377.32 323.108C1378.45 323.108 1379.37 322.188 1379.37 321.053C1379.37 319.918 1378.45 318.997 1377.32 318.997C1376.18 318.997 1375.26 319.918 1375.26 321.053C1375.26 322.188 1376.18 323.108 1377.32 323.108Z" fill="#FFBE16" fill-opacity="0.21"/>
<path d="M1407.07 323.108C1408.2 323.108 1409.12 322.188 1409.12 321.053C1409.12 319.918 1408.2 318.997 1407.07 318.997C1405.93 318.997 1405.01 319.918 1405.01 321.053C1405.01 322.188 1405.93 323.108 1407.07 323.108Z" fill="#FFBE16" fill-opacity="0.21"/>
<path d="M1169.06 343.105C1170.19 343.105 1171.11 342.185 1171.11 341.05C1171.11 339.915 1170.19 338.995 1169.06 338.995C1167.92 338.995 1167 339.915 1167 341.05C1167 342.185 1167.92 343.105 1169.06 343.105Z" fill="#FFBE16" fill-opacity="0.21"/>
<path d="M1198.81 343.105C1199.94 343.105 1200.86 342.185 1200.86 341.05C1200.86 339.915 1199.94 338.995 1198.81 338.995C1197.67 338.995 1196.75 339.915 1196.75 341.05C1196.75 342.185 1197.67 343.105 1198.81 343.105Z" fill="#FFBE16" fill-opacity="0.21"/>
<path d="M1228.56 343.105C1229.69 343.105 1230.61 342.185 1230.61 341.05C1230.61 339.915 1229.69 338.995 1228.56 338.995C1227.42 338.995 1226.5 339.915 1226.5 341.05C1226.5 342.185 1227.42 343.105 1228.56 343.105Z" fill="#FFBE16" fill-opacity="0.21"/>
<path d="M1258.31 343.105C1259.45 343.105 1260.37 342.185 1260.37 341.05C1260.37 339.915 1259.45 338.995 1258.31 338.995C1257.18 338.995 1256.25 339.915 1256.25 341.05C1256.25 342.185 1257.18 343.105 1258.31 343.105Z" fill="#FFBE16" fill-opacity="0.21"/>
<path d="M1288.06 343.105C1289.2 343.105 1290.12 342.185 1290.12 341.05C1290.12 339.915 1289.2 338.995 1288.06 338.995C1286.93 338.995 1286.01 339.915 1286.01 341.05C1286.01 342.185 1286.93 343.105 1288.06 343.105Z" fill="#FFBE16" fill-opacity="0.21"/>
<path d="M1317.81 343.105C1318.95 343.105 1319.87 342.185 1319.87 341.05C1319.87 339.915 1318.95 338.995 1317.81 338.995C1316.68 338.995 1315.76 339.915 1315.76 341.05C1315.76 342.185 1316.68 343.105 1317.81 343.105Z" fill="#FFBE16" fill-opacity="0.21"/>
<path d="M1349.62 341.05C1349.62 342.179 1348.69 343.105 1347.57 343.105C1346.44 343.105 1345.51 342.179 1345.51 341.05C1345.51 339.921 1346.44 338.995 1347.57 338.995C1348.71 338.995 1349.62 339.921 1349.62 341.05Z" fill="#FFBE16" fill-opacity="0.21"/>
<path d="M1377.32 343.105C1378.45 343.105 1379.37 342.185 1379.37 341.05C1379.37 339.915 1378.45 338.995 1377.32 338.995C1376.18 338.995 1375.26 339.915 1375.26 341.05C1375.26 342.185 1376.18 343.105 1377.32 343.105Z" fill="#FFBE16" fill-opacity="0.21"/>
<path d="M1407.07 343.105C1408.2 343.105 1409.12 342.185 1409.12 341.05C1409.12 339.915 1408.2 338.995 1407.07 338.995C1405.93 338.995 1405.01 339.915 1405.01 341.05C1405.01 342.185 1405.93 343.105 1407.07 343.105Z" fill="#FFBE16" fill-opacity="0.21"/>
<path d="M1169.06 363.103C1170.19 363.103 1171.11 362.182 1171.11 361.047C1171.11 359.912 1170.19 358.992 1169.06 358.992C1167.92 358.992 1167 359.912 1167 361.047C1167 362.182 1167.92 363.103 1169.06 363.103Z" fill="#FFBE16" fill-opacity="0.21"/>
<path d="M1198.81 363.103C1199.94 363.103 1200.86 362.182 1200.86 361.047C1200.86 359.912 1199.94 358.992 1198.81 358.992C1197.67 358.992 1196.75 359.912 1196.75 361.047C1196.75 362.182 1197.67 363.103 1198.81 363.103Z" fill="#FFBE16" fill-opacity="0.21"/>
<path d="M1228.56 363.103C1229.69 363.103 1230.61 362.182 1230.61 361.047C1230.61 359.912 1229.69 358.992 1228.56 358.992C1227.42 358.992 1226.5 359.912 1226.5 361.047C1226.5 362.182 1227.42 363.103 1228.56 363.103Z" fill="#FFBE16" fill-opacity="0.21"/>
<path d="M1258.31 363.103C1259.45 363.103 1260.37 362.182 1260.37 361.047C1260.37 359.912 1259.45 358.992 1258.31 358.992C1257.18 358.992 1256.25 359.912 1256.25 361.047C1256.25 362.182 1257.18 363.103 1258.31 363.103Z" fill="#FFBE16" fill-opacity="0.21"/>
<path d="M1288.06 363.103C1289.2 363.103 1290.12 362.182 1290.12 361.047C1290.12 359.912 1289.2 358.992 1288.06 358.992C1286.93 358.992 1286.01 359.912 1286.01 361.047C1286.01 362.182 1286.93 363.103 1288.06 363.103Z" fill="#FFBE16" fill-opacity="0.21"/>
<path d="M1317.81 363.103C1318.95 363.103 1319.87 362.182 1319.87 361.047C1319.87 359.912 1318.95 358.992 1317.81 358.992C1316.68 358.992 1315.76 359.912 1315.76 361.047C1315.76 362.182 1316.68 363.103 1317.81 363.103Z" fill="#FFBE16" fill-opacity="0.21"/>
<path d="M1349.62 361.047C1349.62 362.176 1348.69 363.103 1347.57 363.103C1346.44 363.103 1345.51 362.176 1345.51 361.047C1345.51 359.919 1346.44 358.992 1347.57 358.992C1348.71 358.992 1349.62 359.919 1349.62 361.047Z" fill="#FFBE16" fill-opacity="0.21"/>
<path d="M1377.32 363.103C1378.45 363.103 1379.37 362.182 1379.37 361.047C1379.37 359.912 1378.45 358.992 1377.32 358.992C1376.18 358.992 1375.26 359.912 1375.26 361.047C1375.26 362.182 1376.18 363.103 1377.32 363.103Z" fill="#FFBE16" fill-opacity="0.21"/>
<path d="M1407.07 363.103C1408.2 363.103 1409.12 362.182 1409.12 361.047C1409.12 359.912 1408.2 358.992 1407.07 358.992C1405.93 358.992 1405.01 359.912 1405.01 361.047C1405.01 362.182 1405.93 363.103 1407.07 363.103Z" fill="#FFBE16" fill-opacity="0.21"/>
<path d="M1169.06 383.1C1170.19 383.1 1171.11 382.18 1171.11 381.045C1171.11 379.909 1170.19 378.989 1169.06 378.989C1167.92 378.989 1167 379.909 1167 381.045C1167 382.18 1167.92 383.1 1169.06 383.1Z" fill="#FFBE16" fill-opacity="0.21"/>
<path d="M1198.81 383.1C1199.94 383.1 1200.86 382.18 1200.86 381.045C1200.86 379.909 1199.94 378.989 1198.81 378.989C1197.67 378.989 1196.75 379.909 1196.75 381.045C1196.75 382.18 1197.67 383.1 1198.81 383.1Z" fill="#FFBE16" fill-opacity="0.21"/>
<path d="M1228.56 383.1C1229.69 383.1 1230.61 382.18 1230.61 381.045C1230.61 379.909 1229.69 378.989 1228.56 378.989C1227.42 378.989 1226.5 379.909 1226.5 381.045C1226.5 382.18 1227.42 383.1 1228.56 383.1Z" fill="#FFBE16" fill-opacity="0.21"/>
<path d="M1258.31 383.1C1259.45 383.1 1260.37 382.18 1260.37 381.045C1260.37 379.909 1259.45 378.989 1258.31 378.989C1257.18 378.989 1256.25 379.909 1256.25 381.045C1256.25 382.18 1257.18 383.1 1258.31 383.1Z" fill="#FFBE16" fill-opacity="0.21"/>
<path d="M1288.06 383.1C1289.2 383.1 1290.12 382.18 1290.12 381.045C1290.12 379.909 1289.2 378.989 1288.06 378.989C1286.93 378.989 1286.01 379.909 1286.01 381.045C1286.01 382.18 1286.93 383.1 1288.06 383.1Z" fill="#FFBE16" fill-opacity="0.21"/>
<path d="M1317.81 383.1C1318.95 383.1 1319.87 382.18 1319.87 381.045C1319.87 379.909 1318.95 378.989 1317.81 378.989C1316.68 378.989 1315.76 379.909 1315.76 381.045C1315.76 382.18 1316.68 383.1 1317.81 383.1Z" fill="#FFBE16" fill-opacity="0.21"/>
<path d="M1349.62 381.045C1349.62 382.173 1348.69 383.1 1347.57 383.1C1346.44 383.1 1345.51 382.173 1345.51 381.045C1345.51 379.916 1346.44 378.989 1347.57 378.989C1348.71 378.989 1349.62 379.916 1349.62 381.045Z" fill="#FFBE16" fill-opacity="0.21"/>
<path d="M1377.32 383.1C1378.45 383.1 1379.37 382.18 1379.37 381.045C1379.37 379.909 1378.45 378.989 1377.32 378.989C1376.18 378.989 1375.26 379.909 1375.26 381.045C1375.26 382.18 1376.18 383.1 1377.32 383.1Z" fill="#FFBE16" fill-opacity="0.21"/>
<path d="M1407.07 383.1C1408.2 383.1 1409.12 382.18 1409.12 381.045C1409.12 379.909 1408.2 378.989 1407.07 378.989C1405.93 378.989 1405.01 379.909 1405.01 381.045C1405.01 382.18 1405.93 383.1 1407.07 383.1Z" fill="#FFBE16" fill-opacity="0.21"/>
<path d="M1071.61 790.669L1041.03 781.402L1010.46 790.669L979.889 781.402L949.317 790.669L918.744 781.402L888.172 790.669L857.599 781.402L827.027 790.669L796.441 781.402L765.868 790.669L735.295 781.402L704.709 790.669L674 781.362L674.26 780.894L704.709 790.132L735.295 780.854L765.868 790.132L796.441 780.854L827.027 790.132L857.599 780.854L888.172 790.132L918.744 780.854L949.317 790.132L979.889 780.854L1010.46 790.132L1041.03 780.854L1071.61 790.132L1102.18 780.854L1132.89 790.172L1132.63 790.629L1102.18 781.402L1071.61 790.669Z" fill="#287E74" fill-opacity="0.25"/>
<path d="M1071.61 781.83L1041.03 772.553L1010.46 781.83L979.889 772.553L949.317 781.83L918.744 772.553L888.172 781.83L857.599 772.553L827.027 781.83L796.441 772.553L765.868 781.83L735.295 772.553L704.709 781.83L674 772.513L674.26 772.055L704.709 781.292L735.295 772.015L765.868 781.292L796.441 772.015L827.027 781.292L857.599 772.015L888.172 781.292L918.744 772.015L949.317 781.292L979.889 772.015L1010.46 781.292L1041.03 772.015L1071.61 781.292L1102.18 772.015L1132.89 781.332L1132.63 781.79L1102.18 772.553L1071.61 781.83Z" fill="#287E74" fill-opacity="0.25"/>
<path d="M1071.61 772.991L1041.03 763.713L1010.46 772.991L979.889 763.713L949.317 772.991L918.744 763.713L888.172 772.991L857.599 763.713L827.027 772.991L796.441 763.713L765.868 772.991L735.295 763.713L704.709 772.991L674 763.673L674.26 763.215L704.709 772.443L735.295 763.176L765.868 772.443L796.441 763.176L827.027 772.443L857.599 763.176L888.172 772.443L918.744 763.176L949.317 772.443L979.889 763.176L1010.46 772.443L1041.03 763.176L1071.61 772.443L1102.18 763.176L1132.89 772.483L1132.63 772.951L1102.18 763.713L1071.61 772.991Z" fill="#287E74" fill-opacity="0.25"/>
<path d="M1071.61 764.141L1041.03 754.874L1010.46 764.141L979.889 754.874L949.317 764.141L918.744 754.874L888.172 764.141L857.599 754.874L827.027 764.141L796.441 754.874L765.868 764.141L735.295 754.874L704.709 764.141L674 754.834L674.26 754.376L704.709 763.604L735.295 754.336L765.868 763.604L796.441 754.336L827.027 763.604L857.599 754.336L888.172 763.604L918.744 754.336L949.317 763.604L979.889 754.336L1010.46 763.604L1041.03 754.336L1071.61 763.604L1102.18 754.336L1132.89 763.643L1132.63 764.111L1102.18 754.874L1071.61 764.141Z" fill="#287E74" fill-opacity="0.25"/>
<path d="M1071.61 755.302L1041.03 746.034L1010.46 755.302L979.889 746.034L949.317 755.302L918.744 746.034L888.172 755.302L857.599 746.034L827.027 755.302L796.441 746.034L765.868 755.302L735.295 746.034L704.709 755.302L674 745.995L674.26 745.537L704.709 754.764L735.295 745.497L765.868 754.764L796.441 745.497L827.027 754.764L857.599 745.497L888.172 754.764L918.744 745.497L949.317 754.764L979.889 745.497L1010.46 754.764L1041.03 745.497L1071.61 754.764L1102.18 745.497L1132.89 754.804L1132.63 755.262L1102.18 746.034L1071.61 755.302Z" fill="#287E74" fill-opacity="0.25"/>
<path d="M1071.61 746.462L1041.03 737.195L1010.46 746.462L979.889 737.195L949.317 746.462L918.744 737.195L888.172 746.462L857.599 737.195L827.027 746.462L796.441 737.195L765.868 746.462L735.295 737.195L704.709 746.462L674 737.155L674.26 736.697L704.709 745.925L735.295 736.657L765.868 745.925L796.441 736.657L827.027 745.925L857.599 736.657L888.172 745.925L918.744 736.657L949.317 745.925L979.889 736.657L1010.46 745.925L1041.03 736.657L1071.61 745.925L1102.18 736.657L1132.89 745.965L1132.63 746.423L1102.18 737.195L1071.61 746.462Z" fill="#287E74" fill-opacity="0.25"/>
<path d="M1071.61 737.623L1041.03 728.356L1010.46 737.623L979.889 728.356L949.317 737.623L918.744 728.356L888.172 737.623L857.599 728.356L827.027 737.623L796.441 728.356L765.868 737.623L735.295 728.356L704.709 737.623L674 728.316L674.26 727.858L704.709 737.086L735.295 727.818L765.868 737.086L796.441 727.818L827.027 737.086L857.599 727.818L888.172 737.086L918.744 727.818L949.317 737.086L979.889 727.818L1010.46 737.086L1041.03 727.818L1071.61 737.086L1102.18 727.818L1132.89 737.125L1132.63 737.583L1102.18 728.356L1071.61 737.623Z" fill="#287E74" fill-opacity="0.25"/>
<path d="M1071.61 728.784L1041.03 719.516L1010.46 728.784L979.889 719.516L949.317 728.784L918.744 719.516L888.172 728.784L857.599 719.516L827.027 728.784L796.441 719.516L765.868 728.784L735.295 719.516L704.709 728.784L674 719.476L674.26 719.008L704.709 728.246L735.295 718.969L765.868 728.246L796.441 718.969L827.027 728.246L857.599 718.969L888.172 728.246L918.744 718.969L949.317 728.246L979.889 718.969L1010.46 728.246L1041.03 718.969L1071.61 728.246L1102.18 718.969L1132.89 728.286L1132.63 728.744L1102.18 719.516L1071.61 728.784Z" fill="#287E74" fill-opacity="0.25"/>
<path d="M1071.61 719.944L1041.03 710.677L1010.46 719.944L979.889 710.677L949.317 719.944L918.744 710.677L888.172 719.944L857.599 710.677L827.027 719.944L796.441 710.677L765.868 719.944L735.295 710.677L704.709 719.944L674 710.637L674.26 710.169L704.709 719.407L735.295 710.129L765.868 719.407L796.441 710.129L827.027 719.407L857.599 710.129L888.172 719.407L918.744 710.129L949.317 719.407L979.889 710.129L1010.46 719.407L1041.03 710.129L1071.61 719.407L1102.18 710.129L1132.89 719.446L1132.63 719.904L1102.18 710.677L1071.61 719.944Z" fill="#287E74" fill-opacity="0.25"/>
<path d="M1071.61 711.105L1041.03 701.827L1010.46 711.105L979.889 701.827L949.317 711.105L918.744 701.827L888.172 711.105L857.599 701.827L827.027 711.105L796.441 701.827L765.868 711.105L735.295 701.827L704.709 711.105L674 701.788L674.26 701.33L704.709 710.567L735.295 701.29L765.868 710.567L796.441 701.29L827.027 710.567L857.599 701.29L888.172 710.567L918.744 701.29L949.317 710.567L979.889 701.29L1010.46 710.567L1041.03 701.29L1071.61 710.567L1102.18 701.29L1132.89 710.607L1132.63 711.065L1102.18 701.827L1071.61 711.105Z" fill="#287E74" fill-opacity="0.25"/>
<path d="M1071.61 702.265L1041.03 692.988L1010.46 702.265L979.889 692.988L949.317 702.265L918.744 692.988L888.172 702.265L857.599 692.988L827.027 702.265L796.441 692.988L765.868 702.265L735.295 692.988L704.709 702.265L674 692.948L674.26 692.49L704.709 701.718L735.295 692.451L765.868 701.718L796.441 692.451L827.027 701.718L857.599 692.451L888.172 701.718L918.744 692.451L949.317 701.718L979.889 692.451L1010.46 701.718L1041.03 692.451L1071.61 701.718L1102.18 692.451L1132.89 701.758L1132.63 702.226L1102.18 692.988L1071.61 702.265Z" fill="#287E74" fill-opacity="0.25"/>
<path d="M1071.61 693.416L1041.03 684.149L1010.46 693.416L979.889 684.149L949.317 693.416L918.744 684.149L888.172 693.416L857.599 684.149L827.027 693.416L796.441 684.149L765.868 693.416L735.295 684.149L704.709 693.416L674 684.109L674.26 683.651L704.709 692.879L735.295 683.611L765.868 692.879L796.441 683.611L827.027 692.879L857.599 683.611L888.172 692.879L918.744 683.611L949.317 692.879L979.889 683.611L1010.46 692.879L1041.03 683.611L1071.61 692.879L1102.18 683.611L1132.89 692.918L1132.63 693.376L1102.18 684.149L1071.61 693.416Z" fill="#287E74" fill-opacity="0.25"/>
<path d="M1071.61 684.577L1041.03 675.309L1010.46 684.577L979.889 675.309L949.317 684.577L918.744 675.309L888.172 684.577L857.599 675.309L827.027 684.577L796.441 675.309L765.868 684.577L735.295 675.309L704.709 684.577L674 675.269L674.26 674.811L704.709 684.039L735.295 674.772L765.868 684.039L796.441 674.772L827.027 684.039L857.599 674.772L888.172 684.039L918.744 674.772L949.317 684.039L979.889 674.772L1010.46 684.039L1041.03 674.772L1071.61 684.039L1102.18 674.772L1132.89 684.079L1132.63 684.537L1102.18 675.309L1071.61 684.577Z" fill="#287E74" fill-opacity="0.25"/>
<path d="M1071.61 675.737L1041.03 666.47L1010.46 675.737L979.889 666.47L949.317 675.737L918.744 666.47L888.172 675.737L857.599 666.47L827.027 675.737L796.441 666.47L765.868 675.737L735.295 666.47L704.709 675.737L674 666.43L674.26 665.972L704.709 675.2L735.295 665.932L765.868 675.2L796.441 665.932L827.027 675.2L857.599 665.932L888.172 675.2L918.744 665.932L949.317 675.2L979.889 665.932L1010.46 675.2L1041.03 665.932L1071.61 675.2L1102.18 665.932L1132.89 675.24L1132.63 675.697L1102.18 666.47L1071.61 675.737Z" fill="#287E74" fill-opacity="0.25"/>
<path d="M1071.61 666.898L1041.03 657.63L1010.46 666.898L979.889 657.63L949.317 666.898L918.744 657.63L888.172 666.898L857.599 657.63L827.027 666.898L796.441 657.63L765.868 666.898L735.295 657.63L704.709 666.898L674 657.59L674.26 657.133L704.709 666.36L735.295 657.093L765.868 666.36L796.441 657.093L827.027 666.36L857.599 657.093L888.172 666.36L918.744 657.093L949.317 666.36L979.889 657.093L1010.46 666.36L1041.03 657.093L1071.61 666.36L1102.18 657.093L1132.89 666.4L1132.63 666.858L1102.18 657.63L1071.61 666.898Z" fill="#287E74" fill-opacity="0.25"/>
<path d="M1071.61 658.058L1041.03 648.791L1010.46 658.058L979.889 648.791L949.317 658.058L918.744 648.791L888.172 658.058L857.599 648.791L827.027 658.058L796.441 648.791L765.868 658.058L735.295 648.791L704.709 658.058L674 648.751L674.26 648.283L704.709 657.521L735.295 648.243L765.868 657.521L796.441 648.243L827.027 657.521L857.599 648.243L888.172 657.521L918.744 648.243L949.317 657.521L979.889 648.243L1010.46 657.521L1041.03 648.243L1071.61 657.521L1102.18 648.243L1132.89 657.561L1132.63 658.019L1102.18 648.791L1071.61 658.058Z" fill="#287E74" fill-opacity="0.25"/>
<path d="M1071.61 649.219L1041.03 639.952L1010.46 649.219L979.889 639.952L949.317 649.219L918.744 639.952L888.172 649.219L857.599 639.952L827.027 649.219L796.441 639.952L765.868 649.219L735.295 639.952L704.709 649.219L674 639.912L674.26 639.444L704.709 648.682L735.295 639.404L765.868 648.682L796.441 639.404L827.027 648.682L857.599 639.404L888.172 648.682L918.744 639.404L949.317 648.682L979.889 639.404L1010.46 648.682L1041.03 639.404L1071.61 648.682L1102.18 639.404L1132.89 648.721L1132.63 649.179L1102.18 639.952L1071.61 649.219Z" fill="#287E74" fill-opacity="0.25"/>
<path d="M1071.61 640.38L1041.03 631.102L1010.46 640.38L979.889 631.102L949.317 640.38L918.744 631.102L888.172 640.38L857.599 631.102L827.027 640.38L796.441 631.102L765.868 640.38L735.295 631.102L704.709 640.38L674 631.062L674.26 630.605L704.709 639.842L735.295 630.565L765.868 639.842L796.441 630.565L827.027 639.842L857.599 630.565L888.172 639.842L918.744 630.565L949.317 639.842L979.889 630.565L1010.46 639.842L1041.03 630.565L1071.61 639.842L1102.18 630.565L1132.89 639.882L1132.63 640.34L1102.18 631.102L1071.61 640.38Z" fill="#287E74" fill-opacity="0.25"/>
<path d="M1071.61 631.54L1041.03 622.263L1010.46 631.54L979.889 622.263L949.317 631.54L918.744 622.263L888.172 631.54L857.599 622.263L827.027 631.54L796.441 622.263L765.868 631.54L735.295 622.263L704.709 631.54L674 622.223L674.26 621.765L704.709 630.993L735.295 621.725L765.868 630.993L796.441 621.725L827.027 630.993L857.599 621.725L888.172 630.993L918.744 621.725L949.317 630.993L979.889 621.725L1010.46 630.993L1041.03 621.725L1071.61 630.993L1102.18 621.725L1132.89 631.033L1132.63 631.5L1102.18 622.263L1071.61 631.54Z" fill="#287E74" fill-opacity="0.25"/>
<path d="M1071.61 622.691L1041.03 613.423L1010.46 622.691L979.889 613.423L949.317 622.691L918.744 613.423L888.172 622.691L857.599 613.423L827.027 622.691L796.441 613.423L765.868 622.691L735.295 613.423L704.709 622.691L674 613.384L674.26 612.926L704.709 622.153L735.295 612.886L765.868 622.153L796.441 612.886L827.027 622.153L857.599 612.886L888.172 622.153L918.744 612.886L949.317 622.153L979.889 612.886L1010.46 622.153L1041.03 612.886L1071.61 622.153L1102.18 612.886L1132.89 622.193L1132.63 622.651L1102.18 613.423L1071.61 622.691Z" fill="#287E74" fill-opacity="0.25"/>
<path d="M1071.61 613.851L1041.03 604.584L1010.46 613.851L979.889 604.584L949.317 613.851L918.744 604.584L888.172 613.851L857.599 604.584L827.027 613.851L796.441 604.584L765.868 613.851L735.295 604.584L704.709 613.851L674 604.544L674.26 604.086L704.709 613.314L735.295 604.046L765.868 613.314L796.441 604.046L827.027 613.314L857.599 604.046L888.172 613.314L918.744 604.046L949.317 613.314L979.889 604.046L1010.46 613.314L1041.03 604.046L1071.61 613.314L1102.18 604.046L1132.89 613.354L1132.63 613.812L1102.18 604.584L1071.61 613.851Z" fill="#287E74" fill-opacity="0.25"/>
<path d="M1071.61 605.012L1041.03 595.745L1010.46 605.012L979.889 595.745L949.317 605.012L918.744 595.745L888.172 605.012L857.599 595.745L827.027 605.012L796.441 595.745L765.868 605.012L735.295 595.745L704.709 605.012L674 595.705L674.26 595.247L704.709 604.474L735.295 595.207L765.868 604.474L796.441 595.207L827.027 604.474L857.599 595.207L888.172 604.474L918.744 595.207L949.317 604.474L979.889 595.207L1010.46 604.474L1041.03 595.207L1071.61 604.474L1102.18 595.207L1132.89 604.514L1132.63 604.972L1102.18 595.745L1071.61 605.012Z" fill="#287E74" fill-opacity="0.25"/>
<path d="M1071.61 596.173L1041.03 586.905L1010.46 596.173L979.889 586.905L949.317 596.173L918.744 586.905L888.172 596.173L857.599 586.905L827.027 596.173L796.441 586.905L765.868 596.173L735.295 586.905L704.709 596.173L674 586.865L674.26 586.397L704.709 595.635L735.295 586.358L765.868 595.635L796.441 586.358L827.027 595.635L857.599 586.358L888.172 595.635L918.744 586.358L949.317 595.635L979.889 586.358L1010.46 595.635L1041.03 586.358L1071.61 595.635L1102.18 586.358L1132.89 595.675L1132.63 596.133L1102.18 586.905L1071.61 596.173Z" fill="#287E74" fill-opacity="0.25"/>
<path d="M1071.61 587.333L1041.03 578.066L1010.46 587.333L979.889 578.066L949.317 587.333L918.744 578.066L888.172 587.333L857.599 578.066L827.027 587.333L796.441 578.066L765.868 587.333L735.295 578.066L704.709 587.333L674 578.026L674.26 577.558L704.709 586.796L735.295 577.518L765.868 586.796L796.441 577.518L827.027 586.796L857.599 577.518L888.172 586.796L918.744 577.518L949.317 586.796L979.889 577.518L1010.46 586.796L1041.03 577.518L1071.61 586.796L1102.18 577.518L1132.89 586.836L1132.63 587.293L1102.18 578.066L1071.61 587.333Z" fill="#287E74" fill-opacity="0.25"/>
<path d="M1071.61 578.494L1041.03 569.216L1010.46 578.494L979.889 569.216L949.317 578.494L918.744 569.216L888.172 578.494L857.599 569.216L827.027 578.494L796.441 569.216L765.868 578.494L735.295 569.216L704.709 578.494L674 569.177L674.26 568.719L704.709 577.956L735.295 568.679L765.868 577.956L796.441 568.679L827.027 577.956L857.599 568.679L888.172 577.956L918.744 568.679L949.317 577.956L979.889 568.679L1010.46 577.956L1041.03 568.679L1071.61 577.956L1102.18 568.679L1132.89 577.996L1132.63 578.454L1102.18 569.216L1071.61 578.494Z" fill="#287E74" fill-opacity="0.25"/>
<path d="M1071.61 569.654L1041.03 560.377L1010.46 569.654L979.889 560.377L949.317 569.654L918.744 560.377L888.172 569.654L857.599 560.377L827.027 569.654L796.441 560.377L765.868 569.654L735.295 560.377L704.709 569.654L674 560.337L674.26 559.879L704.709 569.107L735.295 559.839L765.868 569.107L796.441 559.839L827.027 569.107L857.599 559.839L888.172 569.107L918.744 559.839L949.317 569.107L979.889 559.839L1010.46 569.107L1041.03 559.839L1071.61 569.107L1102.18 559.839L1132.89 569.147L1132.63 569.615L1102.18 560.377L1071.61 569.654Z" fill="#287E74" fill-opacity="0.25"/>
<path d="M1071.61 560.815L1041.03 551.538L1010.46 560.815L979.889 551.538L949.317 560.815L918.744 551.538L888.172 560.815L857.599 551.538L827.027 560.815L796.441 551.538L765.868 560.815L735.295 551.538L704.709 560.815L674 551.498L674.26 551.04L704.709 560.267L735.295 551L765.868 560.267L796.441 551L827.027 560.267L857.599 551L888.172 560.267L918.744 551L949.317 560.267L979.889 551L1010.46 560.267L1041.03 551L1071.61 560.267L1102.18 551L1132.89 560.307L1132.63 560.775L1102.18 551.538L1071.61 560.815Z" fill="#287E74" fill-opacity="0.25"/>
<rect x="270.193" y="507" width="617.928" height="888.265" rx="245.322" transform="rotate(55.1769 270.193 507)" fill="url(#paint0_linear_32920_285883)"/>
<path d="M-183.029 661.621C-151.687 672.678 -127.696 696.177 -105.025 722.207C-83.2081 747.274 -61.5923 773.676 -33.1126 788.987C25.6044 820.559 94.7931 804.939 152.525 778.325C217.044 748.569 277.725 703.653 347.415 690.759C381.597 684.438 418.118 687.686 447.776 709.513C472.346 727.6 485.583 756.128 491.024 788.17C494.112 806.377 495.121 824.849 495.905 843.355L503.356 843.385C503.136 838.142 502.917 832.899 502.607 827.689C500.877 797.392 497.376 765.906 483.498 739.347C467.723 709.182 439.636 689.949 409.858 682.89C373.524 674.263 335.768 682.198 300.987 695.198C267.472 707.724 235.713 725.448 203.941 742.692C143.293 775.615 76.0803 808.992 7.29804 794.735C-8.79578 791.398 -24.4119 785.322 -38.6305 776.116C-52.684 767.03 -65.025 755.125 -76.6554 742.435C-99.4216 717.604 -119.992 689.424 -147.208 670.623C-175.355 651.167 -209.311 642.516 -242.068 646.358C-242.113 646.358 -242.158 646.375 -242.218 646.375L-242.253 655.061C-222.433 652.639 -202.225 654.862 -183.029 661.621Z" fill="url(#paint1_linear_32920_285883)" fill-opacity="0.2"/>
<path d="M-109.585 755.87C-37.6934 786.775 41.7238 758.176 95.6889 728.737C123.463 713.585 150.527 695.602 176.7 678.198C210.586 655.669 245.619 632.373 282.449 615.098C318.39 598.23 409.568 564.761 479.593 617.982C519.874 648.606 547.737 704.912 562.406 785.339C563.79 792.9 565.024 800.563 566.227 808.226L567.763 808.232C566.545 800.449 565.282 792.666 563.882 784.985C549.14 704.095 521.068 647.429 480.442 616.564C409.802 562.878 318.05 596.55 281.883 613.519C244.963 630.845 209.869 654.158 175.938 676.722C149.78 694.108 122.747 712.074 95.0327 727.193C41.3241 756.495 -37.6711 784.976 -109.067 754.262C-134.493 743.332 -157.663 725.335 -180.083 707.941C-189.432 700.691 -198.886 693.371 -208.568 686.497L-208.576 688.501C-199.18 695.203 -190.011 702.316 -180.932 709.36C-158.452 726.822 -135.207 744.854 -109.585 755.87Z" fill="url(#paint2_linear_32920_285883)" fill-opacity="0.2"/>
<mask id="mask0_32920_285883" style="mask-type:alpha" maskUnits="userSpaceOnUse" x="853" y="22" width="630" height="701">
<path d="M853 75.1355C853 43.6716 880.478 19.2689 911.721 22.9857L1436.69 85.4377C1463.1 88.5806 1483 110.983 1483 137.588V615.087C1483 641.986 1462.67 664.537 1435.92 667.322L910.955 721.967C879.967 725.193 853 700.887 853 669.732V75.1355Z" fill="#DDE3EB"/>
</mask>
<g mask="url(#mask0_32920_285883)">
<rect width="333.106" height="519.973" rx="131.221" transform="matrix(0.828641 0.55978 -0.57812 0.815952 1137.61 146.532)" fill="#906CF9"/>
<path d="M1099.66 488.128L1079.47 482.006L1059.27 488.128L1039.07 482.006L1018.88 488.128L998.68 482.006L978.484 488.128L958.287 482.006L938.091 488.128L917.885 482.006L897.689 488.128L877.492 482.006L857.287 488.128L837 481.98L837.172 481.677L857.287 487.773L877.492 481.651L897.689 487.773L917.885 481.651L938.091 487.773L958.287 481.651L978.484 487.773L998.68 481.651L1018.88 487.773L1039.07 481.651L1059.27 487.773L1079.47 481.651L1099.66 487.773L1119.86 481.651L1140.15 487.8L1139.97 488.102L1119.86 482.006L1099.66 488.128Z" fill="#287E74" fill-opacity="0.36"/>
<path d="M1099.66 482.289L1079.47 476.167L1059.27 482.289L1039.07 476.167L1018.88 482.289L998.68 476.167L978.484 482.289L958.287 476.167L938.091 482.289L917.885 476.167L897.689 482.289L877.492 476.167L857.287 482.289L837 476.14L837.172 475.838L857.287 481.934L877.492 475.812L897.689 481.934L917.885 475.812L938.091 481.934L958.287 475.812L978.484 481.934L998.68 475.812L1018.88 481.934L1039.07 475.812L1059.27 481.934L1079.47 475.812L1099.66 481.934L1119.86 475.812L1140.15 481.96L1139.97 482.263L1119.86 476.167L1099.66 482.289Z" fill="#287E74" fill-opacity="0.36"/>
<path d="M1099.66 476.45L1079.47 470.328L1059.27 476.45L1039.07 470.328L1018.88 476.45L998.68 470.328L978.484 476.45L958.287 470.328L938.091 476.45L917.885 470.328L897.689 476.45L877.492 470.328L857.287 476.45L837 470.301L837.172 469.999L857.287 476.095L877.492 469.972L897.689 476.095L917.885 469.972L938.091 476.095L958.287 469.972L978.484 476.095L998.68 469.972L1018.88 476.095L1039.07 469.972L1059.27 476.095L1079.47 469.972L1099.66 476.095L1119.86 469.972L1140.15 476.121L1139.97 476.423L1119.86 470.328L1099.66 476.45Z" fill="#287E74" fill-opacity="0.36"/>
<path d="M1099.66 470.61L1079.47 464.488L1059.27 470.61L1039.07 464.488L1018.88 470.61L998.68 464.488L978.484 470.61L958.287 464.488L938.091 470.61L917.885 464.488L897.689 470.61L877.492 464.488L857.287 470.61L837 464.462L837.172 464.159L857.287 470.255L877.492 464.133L897.689 470.255L917.885 464.133L938.091 470.255L958.287 464.133L978.484 470.255L998.68 464.133L1018.88 470.255L1039.07 464.133L1059.27 470.255L1079.47 464.133L1099.66 470.255L1119.86 464.133L1140.15 470.282L1139.97 470.584L1119.86 464.488L1099.66 470.61Z" fill="#287E74" fill-opacity="0.36"/>
<path d="M1099.66 464.771L1079.47 458.649L1059.27 464.771L1039.07 458.649L1018.88 464.771L998.68 458.649L978.484 464.771L958.287 458.649L938.091 464.771L917.885 458.649L897.689 464.771L877.492 458.649L857.287 464.771L837 458.622L837.172 458.313L857.287 464.416L877.492 458.287L897.689 464.416L917.885 458.287L938.091 464.416L958.287 458.287L978.484 464.416L998.68 458.287L1018.88 464.416L1039.07 458.287L1059.27 464.416L1079.47 458.287L1099.66 464.416L1119.86 458.287L1140.15 464.442L1139.97 464.744L1119.86 458.649L1099.66 464.771Z" fill="#287E74" fill-opacity="0.36"/>
<path d="M1099.66 458.932L1079.47 452.803L1059.27 458.932L1039.07 452.803L1018.88 458.932L998.68 452.803L978.484 458.932L958.287 452.803L938.091 458.932L917.885 452.803L897.689 458.932L877.492 452.803L857.287 458.932L837 452.777L837.172 452.474L857.287 458.576L877.492 452.448L897.689 458.576L917.885 452.448L938.091 458.576L958.287 452.448L978.484 458.576L998.68 452.448L1018.88 458.576L1039.07 452.448L1059.27 458.576L1079.47 452.448L1099.66 458.576L1119.86 452.448L1140.15 458.603L1139.97 458.905L1119.86 452.803L1099.66 458.932Z" fill="#287E74" fill-opacity="0.36"/>
<path d="M1099.66 453.092L1079.47 446.963L1059.27 453.092L1039.07 446.963L1018.88 453.092L998.68 446.963L978.484 453.092L958.287 446.963L938.091 453.092L917.885 446.963L897.689 453.092L877.492 446.963L857.287 453.092L837 446.937L837.172 446.635L857.287 452.737L877.492 446.608L897.689 452.737L917.885 446.608L938.091 452.737L958.287 446.608L978.484 452.737L998.68 446.608L1018.88 452.737L1039.07 446.608L1059.27 452.737L1079.47 446.608L1099.66 452.737L1119.86 446.608L1140.15 452.763L1139.97 453.066L1119.86 446.963L1099.66 453.092Z" fill="#287E74" fill-opacity="0.36"/>
<path d="M1099.66 447.253L1079.47 441.124L1059.27 447.253L1039.07 441.124L1018.88 447.253L998.68 441.124L978.484 447.253L958.287 441.124L938.091 447.253L917.885 441.124L897.689 447.253L877.492 441.124L857.287 447.253L837 441.098L837.172 440.795L857.287 446.891L877.492 440.769L897.689 446.891L917.885 440.769L938.091 446.891L958.287 440.769L978.484 446.891L998.68 440.769L1018.88 446.891L1039.07 440.769L1059.27 446.891L1079.47 440.769L1099.66 446.891L1119.86 440.769L1140.15 446.917L1139.97 447.226L1119.86 441.124L1099.66 447.253Z" fill="#287E74" fill-opacity="0.36"/>
<path d="M1099.66 441.407L1079.47 435.285L1059.27 441.407L1039.07 435.285L1018.88 441.407L998.68 435.285L978.484 441.407L958.287 435.285L938.091 441.407L917.885 435.285L897.689 441.407L877.492 435.285L857.287 441.407L837 435.258L837.172 434.956L857.287 441.052L877.492 434.93L897.689 441.052L917.885 434.93L938.091 441.052L958.287 434.93L978.484 441.052L998.68 434.93L1018.88 441.052L1039.07 434.93L1059.27 441.052L1079.47 434.93L1099.66 441.052L1119.86 434.93L1140.15 441.078L1139.97 441.381L1119.86 435.285L1099.66 441.407Z" fill="#287E74" fill-opacity="0.36"/>
<path d="M1099.66 435.567L1079.47 429.445L1059.27 435.567L1039.07 429.445L1018.88 435.567L998.68 429.445L978.484 435.567L958.287 429.445L938.091 435.567L917.885 429.445L897.689 435.567L877.492 429.445L857.287 435.567L837 429.419L837.172 429.116L857.287 435.212L877.492 429.09L897.689 435.212L917.885 429.09L938.091 435.212L958.287 429.09L978.484 435.212L998.68 429.09L1018.88 435.212L1039.07 429.09L1059.27 435.212L1079.47 429.09L1099.66 435.212L1119.86 429.09L1140.15 435.239L1139.97 435.541L1119.86 429.445L1099.66 435.567Z" fill="#287E74" fill-opacity="0.36"/>
<path d="M1099.66 429.728L1079.47 423.606L1059.27 429.728L1039.07 423.606L1018.88 429.728L998.68 423.606L978.484 429.728L958.287 423.606L938.091 429.728L917.885 423.606L897.689 429.728L877.492 423.606L857.287 429.728L837 423.58L837.172 423.277L857.287 429.373L877.492 423.251L897.689 429.373L917.885 423.251L938.091 429.373L958.287 423.251L978.484 429.373L998.68 423.251L1018.88 429.373L1039.07 423.251L1059.27 429.373L1079.47 423.251L1099.66 429.373L1119.86 423.251L1140.15 429.399L1139.97 429.702L1119.86 423.606L1099.66 429.728Z" fill="#287E74" fill-opacity="0.36"/>
<path d="M1099.66 423.889L1079.47 417.766L1059.27 423.889L1039.07 417.766L1018.88 423.889L998.68 417.766L978.484 423.889L958.287 417.766L938.091 423.889L917.885 417.766L897.689 423.889L877.492 417.766L857.287 423.889L837 417.74L837.172 417.431L857.287 423.534L877.492 417.405L897.689 423.534L917.885 417.405L938.091 423.534L958.287 417.405L978.484 423.534L998.68 417.405L1018.88 423.534L1039.07 417.405L1059.27 423.534L1079.47 417.405L1099.66 423.534L1119.86 417.405L1140.15 423.56L1139.97 423.862L1119.86 417.766L1099.66 423.889Z" fill="#287E74" fill-opacity="0.36"/>
<path d="M1099.66 418.049L1079.47 411.927L1059.27 418.049L1039.07 411.927L1018.88 418.049L998.68 411.927L978.484 418.049L958.287 411.927L938.091 418.049L917.885 411.927L897.689 418.049L877.492 411.927L857.287 418.049L837 411.901L837.172 411.592L857.287 417.694L877.492 411.565L897.689 417.694L917.885 411.565L938.091 417.694L958.287 411.565L978.484 417.694L998.68 411.565L1018.88 417.694L1039.07 411.565L1059.27 417.694L1079.47 411.565L1099.66 417.694L1119.86 411.565L1140.15 417.72L1139.97 418.023L1119.86 411.927L1099.66 418.049Z" fill="#287E74" fill-opacity="0.36"/>
<path d="M897.689 412.21L877.492 406.081L857.287 412.21L837 406.055L837.172 405.752L857.287 411.855L877.492 405.726L897.689 411.855L917.885 405.726L938.091 411.855L958.287 405.726L978.484 411.855L998.68 405.726L1018.88 411.855L1039.07 405.726L1059.27 411.855L1079.47 405.726L1099.66 411.855L1119.86 405.726L1140.15 411.881L1139.97 412.184L1119.86 406.081L1099.66 412.21L1079.47 406.081L1059.27 412.21L1039.07 406.081L1018.88 412.21L998.68 406.081L978.484 412.21L958.287 406.081L938.091 412.21L917.885 406.081L897.689 412.21Z" fill="#287E74" fill-opacity="0.36"/>
<path d="M1099.66 406.371L1079.47 400.242L1059.27 406.371L1039.07 400.242L1018.88 406.371L998.68 400.242L978.484 406.371L958.287 400.242L938.091 406.371L917.885 400.242L897.689 406.371L877.492 400.242L857.287 406.371L837 400.216L837.172 399.913L857.287 406.009L877.492 399.887L897.689 406.009L917.885 399.887L938.091 406.009L958.287 399.887L978.484 406.009L998.68 399.887L1018.88 406.009L1039.07 399.887L1059.27 406.009L1079.47 399.887L1099.66 406.009L1119.86 399.887L1140.15 406.035L1139.97 406.344L1119.86 400.242L1099.66 406.371Z" fill="#287E74" fill-opacity="0.36"/>
<path d="M1099.66 400.531L1079.47 394.402L1059.27 400.531L1039.07 394.402L1018.88 400.531L998.68 394.402L978.484 400.531L958.287 394.402L938.091 400.531L917.885 394.402L897.689 400.531L877.492 394.402L857.287 400.531L837 394.376L837.172 394.074L857.287 400.17L877.492 394.047L897.689 400.17L917.885 394.047L938.091 400.17L958.287 394.047L978.484 400.17L998.68 394.047L1018.88 400.17L1039.07 394.047L1059.27 400.17L1079.47 394.047L1099.66 400.17L1119.86 394.047L1140.15 400.196L1139.97 400.505L1119.86 394.402L1099.66 400.531Z" fill="#287E74" fill-opacity="0.36"/>
<path d="M1099.66 394.685L1079.47 388.563L1059.27 394.685L1039.07 388.563L1018.88 394.685L998.68 388.563L978.484 394.685L958.287 388.563L938.091 394.685L917.885 388.563L897.689 394.685L877.492 388.563L857.287 394.685L837 388.537L837.172 388.234L857.287 394.33L877.492 388.208L897.689 394.33L917.885 388.208L938.091 394.33L958.287 388.208L978.484 394.33L998.68 388.208L1018.88 394.33L1039.07 388.208L1059.27 394.33L1079.47 388.208L1099.66 394.33L1119.86 388.208L1140.15 394.356L1139.97 394.659L1119.86 388.563L1099.66 394.685Z" fill="#287E74" fill-opacity="0.36"/>
<path d="M1099.66 388.846L1079.47 382.724L1059.27 388.846L1039.07 382.724L1018.88 388.846L998.68 382.724L978.484 388.846L958.287 382.724L938.091 388.846L917.885 382.724L897.689 388.846L877.492 382.724L857.287 388.846L837 382.697L837.172 382.395L857.287 388.491L877.492 382.368L897.689 388.491L917.885 382.368L938.091 388.491L958.287 382.368L978.484 388.491L998.68 382.368L1018.88 388.491L1039.07 382.368L1059.27 388.491L1079.47 382.368L1099.66 388.491L1119.86 382.368L1140.15 388.517L1139.97 388.819L1119.86 382.724L1099.66 388.846Z" fill="#287E74" fill-opacity="0.36"/>
<path d="M1099.66 383.006L1079.47 376.884L1059.27 383.006L1039.07 376.884L1018.88 383.006L998.68 376.884L978.484 383.006L958.287 376.884L938.091 383.006L917.885 376.884L897.689 383.006L877.492 376.884L857.287 383.006L837 376.858L837.172 376.555L857.287 382.651L877.492 376.529L897.689 382.651L917.885 376.529L938.091 382.651L958.287 376.529L978.484 382.651L998.68 376.529L1018.88 382.651L1039.07 376.529L1059.27 382.651L1079.47 376.529L1099.66 382.651L1119.86 376.529L1140.15 382.678L1139.97 382.98L1119.86 376.884L1099.66 383.006Z" fill="#287E74" fill-opacity="0.36"/>
<path d="M1099.66 377.167L1079.47 371.045L1059.27 377.167L1039.07 371.045L1018.88 377.167L998.68 371.045L978.484 377.167L958.287 371.045L938.091 377.167L917.885 371.045L897.689 377.167L877.492 371.045L857.287 377.167L837 371.018L837.172 370.709L857.287 376.812L877.492 370.683L897.689 376.812L917.885 370.683L938.091 376.812L958.287 370.683L978.484 376.812L998.68 370.683L1018.88 376.812L1039.07 370.683L1059.27 376.812L1079.47 370.683L1099.66 376.812L1119.86 370.683L1140.15 376.838L1139.97 377.141L1119.86 371.045L1099.66 377.167Z" fill="#287E74" fill-opacity="0.36"/>
<path d="M1099.66 371.328L1079.47 365.205L1059.27 371.328L1039.07 365.205L1018.88 371.328L998.68 365.205L978.484 371.328L958.287 365.205L938.091 371.328L917.885 365.205L897.689 371.328L877.492 365.205L857.287 371.328L837 365.179L837.172 364.87L857.287 370.972L877.492 364.844L897.689 370.972L917.885 364.844L938.091 370.972L958.287 364.844L978.484 370.972L998.68 364.844L1018.88 370.972L1039.07 364.844L1059.27 370.972L1079.47 364.844L1099.66 370.972L1119.86 364.844L1140.15 370.999L1139.97 371.301L1119.86 365.205L1099.66 371.328Z" fill="#287E74" fill-opacity="0.36"/>
<path d="M1099.66 365.488L1079.47 359.359L1059.27 365.488L1039.07 359.359L1018.88 365.488L998.68 359.359L978.484 365.488L958.287 359.359L938.091 365.488L917.885 359.359L897.689 365.488L877.492 359.359L857.287 365.488L837 359.333L837.172 359.031L857.287 365.133L877.492 359.004L897.689 365.133L917.885 359.004L938.091 365.133L958.287 359.004L978.484 365.133L998.68 359.004L1018.88 365.133L1039.07 359.004L1059.27 365.133L1079.47 359.004L1099.66 365.133L1119.86 359.004L1140.15 365.159L1139.97 365.462L1119.86 359.359L1099.66 365.488Z" fill="#287E74" fill-opacity="0.36"/>
<path d="M1099.66 359.649L1079.47 353.52L1059.27 359.649L1039.07 353.52L1018.88 359.649L998.68 353.52L978.484 359.649L958.287 353.52L938.091 359.649L917.885 353.52L897.689 359.649L877.492 353.52L857.287 359.649L837 353.494L837.172 353.191L857.287 359.287L877.492 353.165L897.689 359.287L917.885 353.165L938.091 359.287L958.287 353.165L978.484 359.287L998.68 353.165L1018.88 359.287L1039.07 353.165L1059.27 359.287L1079.47 353.165L1099.66 359.287L1119.86 353.165L1140.15 359.313L1139.97 359.623L1119.86 353.52L1099.66 359.649Z" fill="#287E74" fill-opacity="0.36"/>
<path d="M1099.66 353.803L1079.47 347.681L1059.27 353.803L1039.07 347.681L1018.88 353.803L998.68 347.681L978.484 353.803L958.287 347.681L938.091 353.803L917.885 347.681L897.689 353.803L877.492 347.681L857.287 353.803L837 347.654L837.172 347.352L857.287 353.448L877.492 347.326L897.689 353.448L917.885 347.326L938.091 353.448L958.287 347.326L978.484 353.448L998.68 347.326L1018.88 353.448L1039.07 347.326L1059.27 353.448L1079.47 347.326L1099.66 353.448L1119.86 347.326L1140.15 353.474L1139.97 353.783L1119.86 347.681L1099.66 353.803Z" fill="#287E74" fill-opacity="0.36"/>
<path d="M1099.66 347.964L1079.47 341.841L1059.27 347.964L1039.07 341.841L1018.88 347.964L998.68 341.841L978.484 347.964L958.287 341.841L938.091 347.964L917.885 341.841L897.689 347.964L877.492 341.841L857.287 347.964L837 341.815L837.172 341.513L857.287 347.608L877.492 341.486L897.689 347.608L917.885 341.486L938.091 347.608L958.287 341.486L978.484 347.608L998.68 341.486L1018.88 347.608L1039.07 341.486L1059.27 347.608L1079.47 341.486L1099.66 347.608L1119.86 341.486L1140.15 347.635L1139.97 347.937L1119.86 341.841L1099.66 347.964Z" fill="#287E74" fill-opacity="0.36"/>
<path d="M1099.66 342.124L1079.47 336.002L1059.27 342.124L1039.07 336.002L1018.88 342.124L998.68 336.002L978.484 342.124L958.287 336.002L938.091 342.124L917.885 336.002L897.689 342.124L877.492 336.002L857.287 342.124L837 335.976L837.172 335.673L857.287 341.769L877.492 335.647L897.689 341.769L917.885 335.647L938.091 341.769L958.287 335.647L978.484 341.769L998.68 335.647L1018.88 341.769L1039.07 335.647L1059.27 341.769L1079.47 335.647L1099.66 341.769L1119.86 335.647L1140.15 341.795L1139.97 342.098L1119.86 336.002L1099.66 342.124Z" fill="#287E74" fill-opacity="0.36"/>
<path d="M1099.66 336.285L1079.47 330.162L1059.27 336.285L1039.07 330.162L1018.88 336.285L998.68 330.162L978.484 336.285L958.287 330.162L938.091 336.285L917.885 330.162L897.689 336.285L877.492 330.162L857.287 336.285L837 330.136L837.172 329.834L857.287 335.93L877.492 329.807L897.689 335.93L917.885 329.807L938.091 335.93L958.287 329.807L978.484 335.93L998.68 329.807L1018.88 335.93L1039.07 329.807L1059.27 335.93L1079.47 329.807L1099.66 335.93L1119.86 329.807L1140.15 335.956L1139.97 336.258L1119.86 330.162L1099.66 336.285Z" fill="#287E74" fill-opacity="0.36"/>
<path d="M1099.66 330.445L1079.47 324.323L1059.27 330.445L1039.07 324.323L1018.88 330.445L998.68 324.323L978.484 330.445L958.287 324.323L938.091 330.445L917.885 324.323L897.689 330.445L877.492 324.323L857.287 330.445L837 324.297L837.172 323.988L857.287 330.09L877.492 323.961L897.689 330.09L917.885 323.961L938.091 330.09L958.287 323.961L978.484 330.09L998.68 323.961L1018.88 330.09L1039.07 323.961L1059.27 330.09L1079.47 323.961L1099.66 330.09L1119.86 323.961L1140.15 330.116L1139.97 330.419L1119.86 324.323L1099.66 330.445Z" fill="#287E74" fill-opacity="0.36"/>
<path d="M1099.66 324.606L1079.47 318.484L1059.27 324.606L1039.07 318.484L1018.88 324.606L998.68 318.484L978.484 324.606L958.287 318.484L938.091 324.606L917.885 318.484L897.689 324.606L877.492 318.484L857.287 324.606L837 318.457L837.172 318.148L857.287 324.251L877.492 318.122L897.689 324.251L917.885 318.122L938.091 324.251L958.287 318.122L978.484 324.251L998.68 318.122L1018.88 324.251L1039.07 318.122L1059.27 324.251L1079.47 318.122L1099.66 324.251L1119.86 318.122L1140.15 324.277L1139.97 324.58L1119.86 318.484L1099.66 324.606Z" fill="#287E74" fill-opacity="0.36"/>
<path d="M1099.66 318.767L1079.47 312.638L1059.27 318.767L1039.07 312.638L1018.88 318.767L998.68 312.638L978.484 318.767L958.287 312.638L938.091 318.767L917.885 312.638L897.689 318.767L877.492 312.638L857.287 318.767L837 312.612L837.172 312.309L857.287 318.411L877.492 312.283L897.689 318.411L917.885 312.283L938.091 318.411L958.287 312.283L978.484 318.411L998.68 312.283L1018.88 318.411L1039.07 312.283L1059.27 318.411L1079.47 312.283L1099.66 318.411L1119.86 312.283L1140.15 318.438L1139.97 318.74L1119.86 312.638L1099.66 318.767Z" fill="#287E74" fill-opacity="0.36"/>
<path d="M1099.66 312.927L1079.47 306.798L1059.27 312.927L1039.07 306.798L1018.88 312.927L998.68 306.798L978.484 312.927L958.287 306.798L938.091 312.927L917.885 306.798L897.689 312.927L877.492 306.798L857.287 312.927L837 306.772L837.172 306.47L857.287 312.566L877.492 306.443L897.689 312.566L917.885 306.443L938.091 312.566L958.287 306.443L978.484 312.566L998.68 306.443L1018.88 312.566L1039.07 306.443L1059.27 312.566L1079.47 306.443L1099.66 312.566L1119.86 306.443L1140.15 312.592L1139.97 312.901L1119.86 306.798L1099.66 312.927Z" fill="#287E74" fill-opacity="0.36"/>
<path d="M1099.66 307.081L1079.47 300.959L1059.27 307.081L1039.07 300.959L1018.88 307.081L998.68 300.959L978.484 307.081L958.287 300.959L938.091 307.081L917.885 300.959L897.689 307.081L877.492 300.959L857.287 307.081L837 300.933L837.172 300.63L857.287 306.726L877.492 300.604L897.689 306.726L917.885 300.604L938.091 306.726L958.287 300.604L978.484 306.726L998.68 300.604L1018.88 306.726L1039.07 300.604L1059.27 306.726L1079.47 300.604L1099.66 306.726L1119.86 300.604L1140.15 306.752L1139.97 307.055L1119.86 300.959L1099.66 307.081Z" fill="#287E74" fill-opacity="0.36"/>
<path d="M1099.66 301.242L1079.47 295.12L1059.27 301.242L1039.07 295.12L1018.88 301.242L998.68 295.12L978.484 301.242L958.287 295.12L938.091 301.242L917.885 295.12L897.689 301.242L877.492 295.12L857.287 301.242L837 295.093L837.172 294.791L857.287 300.887L877.492 294.764L897.689 300.887L917.885 294.764L938.091 300.887L958.287 294.764L978.484 300.887L998.68 294.764L1018.88 300.887L1039.07 294.764L1059.27 300.887L1079.47 294.764L1099.66 300.887L1119.86 294.764L1140.15 300.913L1139.97 301.215L1119.86 295.12L1099.66 301.242Z" fill="#287E74" fill-opacity="0.36"/>
<path d="M1099.66 295.402L1079.47 289.28L1059.27 295.402L1039.07 289.28L1018.88 295.402L998.68 289.28L978.484 295.402L958.287 289.28L938.091 295.402L917.885 289.28L897.689 295.402L877.492 289.28L857.287 295.402L837 289.254L837.172 288.951L857.287 295.047L877.492 288.925L897.689 295.047L917.885 288.925L938.091 295.047L958.287 288.925L978.484 295.047L998.68 288.925L1018.88 295.047L1039.07 288.925L1059.27 295.047L1079.47 288.925L1099.66 295.047L1119.86 288.925L1140.15 295.073L1139.97 295.376L1119.86 289.28L1099.66 295.402Z" fill="#287E74" fill-opacity="0.36"/>
<path d="M1099.66 289.563L1079.47 283.441L1059.27 289.563L1039.07 283.441L1018.88 289.563L998.68 283.441L978.484 289.563L958.287 283.441L938.091 289.563L917.885 283.441L897.689 289.563L877.492 283.441L857.287 289.563L837 283.414L837.172 283.112L857.287 289.208L877.492 283.086L897.689 289.208L917.885 283.086L938.091 289.208L958.287 283.086L978.484 289.208L998.68 283.086L1018.88 289.208L1039.07 283.086L1059.27 289.208L1079.47 283.086L1099.66 289.208L1119.86 283.086L1140.15 289.234L1139.97 289.537L1119.86 283.441L1099.66 289.563Z" fill="#287E74" fill-opacity="0.36"/>
<path d="M1099.66 283.724L1079.47 277.601L1059.27 283.724L1039.07 277.601L1018.88 283.724L998.68 277.601L978.484 283.724L958.287 277.601L938.091 283.724L917.885 277.601L897.689 283.724L877.492 277.601L857.287 283.724L837 277.575L837.172 277.266L857.287 283.368L877.492 277.24L897.689 283.368L917.885 277.24L938.091 283.368L958.287 277.24L978.484 283.368L998.68 277.24L1018.88 283.368L1039.07 277.24L1059.27 283.368L1079.47 277.24L1099.66 283.368L1119.86 277.24L1140.15 283.395L1139.97 283.697L1119.86 277.601L1099.66 283.724Z" fill="#287E74" fill-opacity="0.36"/>
<path d="M1099.66 277.884L1079.47 271.762L1059.27 277.884L1039.07 271.762L1018.88 277.884L998.68 271.762L978.484 277.884L958.287 271.762L938.091 277.884L917.885 271.762L897.689 277.884L877.492 271.762L857.287 277.884L837 271.736L837.172 271.427L857.287 277.529L877.492 271.401L897.689 277.529L917.885 271.401L938.091 277.529L958.287 271.401L978.484 277.529L998.68 271.401L1018.88 277.529L1039.07 271.401L1059.27 277.529L1079.47 271.401L1099.66 277.529L1119.86 271.401L1140.15 277.556L1139.97 277.858L1119.86 271.762L1099.66 277.884Z" fill="#287E74" fill-opacity="0.36"/>
<path d="M1099.66 272.045L1079.47 265.916L1059.27 272.045L1039.07 265.916L1018.88 272.045L998.68 265.916L978.484 272.045L958.287 265.916L938.091 272.045L917.885 265.916L897.689 272.045L877.492 265.916L857.287 272.045L837 265.89L837.172 265.587L857.287 271.69L877.492 265.561L897.689 271.69L917.885 265.561L938.091 271.69L958.287 265.561L978.484 271.69L998.68 265.561L1018.88 271.69L1039.07 265.561L1059.27 271.69L1079.47 265.561L1099.66 271.69L1119.86 265.561L1140.15 271.716L1139.97 272.019L1119.86 265.916L1099.66 272.045Z" fill="#287E74" fill-opacity="0.36"/>
<path d="M1099.66 266.205L1079.47 260.077L1059.27 266.205L1039.07 260.077L1018.88 266.205L998.68 260.077L978.484 266.205L958.287 260.077L938.091 266.205L917.885 260.077L897.689 266.205L877.492 260.077L857.287 266.205L837 260.05L837.172 259.748L857.287 265.844L877.492 259.722L897.689 265.844L917.885 259.722L938.091 265.844L958.287 259.722L978.484 265.844L998.68 259.722L1018.88 265.844L1039.07 259.722L1059.27 265.844L1079.47 259.722L1099.66 265.844L1119.86 259.722L1140.15 265.87L1139.97 266.179L1119.86 260.077L1099.66 266.205Z" fill="#287E74" fill-opacity="0.36"/>
<path d="M1099.66 260.36L1079.47 254.237L1059.27 260.36L1039.07 254.237L1018.88 260.36L998.68 254.237L978.484 260.36L958.287 254.237L938.091 260.36L917.885 254.237L897.689 260.36L877.492 254.237L857.287 260.36L837 254.211L837.172 253.909L857.287 260.004L877.492 253.882L897.689 260.004L917.885 253.882L938.091 260.004L958.287 253.882L978.484 260.004L998.68 253.882L1018.88 260.004L1039.07 253.882L1059.27 260.004L1079.47 253.882L1099.66 260.004L1119.86 253.882L1140.15 260.031L1139.97 260.333L1119.86 254.237L1099.66 260.36Z" fill="#287E74" fill-opacity="0.36"/>
<path d="M1099.66 254.52L1079.47 248.398L1059.27 254.52L1039.07 248.398L1018.88 254.52L998.68 248.398L978.484 254.52L958.287 248.398L938.091 254.52L917.885 248.398L897.689 254.52L877.492 248.398L857.287 254.52L837 248.372L837.172 248.069L857.287 254.165L877.492 248.043L897.689 254.165L917.885 248.043L938.091 254.165L958.287 248.043L978.484 254.165L998.68 248.043L1018.88 254.165L1039.07 248.043L1059.27 254.165L1079.47 248.043L1099.66 254.165L1119.86 248.043L1140.15 254.191L1139.97 254.494L1119.86 248.398L1099.66 254.52Z" fill="#287E74" fill-opacity="0.36"/>
<path d="M1099.66 248.681L1079.47 242.558L1059.27 248.681L1039.07 242.558L1018.88 248.681L998.68 242.558L978.484 248.681L958.287 242.558L938.091 248.681L917.885 242.558L897.689 248.681L877.492 242.558L857.287 248.681L837 242.532L837.172 242.23L857.287 248.326L877.492 242.203L897.689 248.326L917.885 242.203L938.091 248.326L958.287 242.203L978.484 248.326L998.68 242.203L1018.88 248.326L1039.07 242.203L1059.27 248.326L1079.47 242.203L1099.66 248.326L1119.86 242.203L1140.15 248.352L1139.97 248.654L1119.86 242.558L1099.66 248.681Z" fill="#287E74" fill-opacity="0.36"/>
<path d="M1099.66 242.841L1079.47 236.719L1059.27 242.841L1039.07 236.719L1018.88 242.841L998.68 236.719L978.484 242.841L958.287 236.719L938.091 242.841L917.885 236.719L897.689 242.841L877.492 236.719L857.287 242.841L837 236.693L837.172 236.384L857.287 242.486L877.492 236.358L897.689 242.486L917.885 236.358L938.091 242.486L958.287 236.358L978.484 242.486L998.68 236.358L1018.88 242.486L1039.07 236.358L1059.27 242.486L1079.47 236.358L1099.66 242.486L1119.86 236.358L1140.15 242.513L1139.97 242.815L1119.86 236.719L1099.66 242.841Z" fill="#287E74" fill-opacity="0.36"/>
<path d="M1099.66 237.002L1079.47 230.88L1059.27 237.002L1039.07 230.88L1018.88 237.002L998.68 230.88L978.484 237.002L958.287 230.88L938.091 237.002L917.885 230.88L897.689 237.002L877.492 230.88L857.287 237.002L837 230.854L837.172 230.545L857.287 236.647L877.492 230.518L897.689 236.647L917.885 230.518L938.091 236.647L958.287 230.518L978.484 236.647L998.68 230.518L1018.88 236.647L1039.07 230.518L1059.27 236.647L1079.47 230.518L1099.66 236.647L1119.86 230.518L1140.15 236.673L1139.97 236.976L1119.86 230.88L1099.66 237.002Z" fill="#287E74" fill-opacity="0.36"/>
<path d="M1099.66 231.163L1079.47 225.034L1059.27 231.163L1039.07 225.034L1018.88 231.163L998.68 225.034L978.484 231.163L958.287 225.034L938.091 231.163L917.885 225.034L897.689 231.163L877.492 225.034L857.287 231.163L837 225.008L837.172 224.705L857.287 230.808L877.492 224.679L897.689 230.808L917.885 224.679L938.091 230.808L958.287 224.679L978.484 230.808L998.68 224.679L1018.88 230.808L1039.07 224.679L1059.27 230.808L1079.47 224.679L1099.66 230.808L1119.86 224.679L1140.15 230.834L1139.97 231.136L1119.86 225.034L1099.66 231.163Z" fill="#287E74" fill-opacity="0.36"/>
<path d="M1099.66 225.323L1079.47 219.194L1059.27 225.323L1039.07 219.194L1018.88 225.323L998.68 219.194L978.484 225.323L958.287 219.194L938.091 225.323L917.885 219.194L897.689 225.323L877.492 219.194L857.287 225.323L837 219.168L837.172 218.866L857.287 224.962L877.492 218.839L897.689 224.962L917.885 218.839L938.091 224.962L958.287 218.839L978.484 224.962L998.68 218.839L1018.88 224.962L1039.07 218.839L1059.27 224.962L1079.47 218.839L1099.66 224.962L1119.86 218.839L1140.15 224.988L1139.97 225.297L1119.86 219.194L1099.66 225.323Z" fill="#287E74" fill-opacity="0.36"/>
<path d="M1099.66 219.484L1079.47 213.355L1059.27 219.484L1039.07 213.355L1018.88 219.484L998.68 213.355L978.484 219.484L958.287 213.355L938.091 219.484L917.885 213.355L897.689 219.484L877.492 213.355L857.287 219.484L837 213.329L837.172 213.026L857.287 219.122L877.492 213L897.689 219.122L917.885 213L938.091 219.122L958.287 213L978.484 219.122L998.68 213L1018.88 219.122L1039.07 213L1059.27 219.122L1079.47 213L1099.66 219.122L1119.86 213L1140.15 219.148L1139.97 219.458L1119.86 213.355L1099.66 219.484Z" fill="#287E74" fill-opacity="0.36"/>
</g>
<g clip-path="url(#clip1_32920_285883)">
<path d="M1117.13 528.293C1122.38 519.949 1119.76 496.111 1119.76 496.111L1225.72 453.438C1225.72 453.438 1225.72 535.916 1240.76 550.233C1240.76 550.233 1212.12 571.213 1178.47 571.213C1144.82 571.213 1117.13 528.293 1117.13 528.293Z" fill="#FFCEBA"/>
<path d="M1117.93 508.508C1117.93 508.508 1138.93 521.621 1152.61 524.241C1166.29 526.862 1180.62 524.325 1197.08 514.777C1208.3 508.269 1230.11 464.686 1230.11 464.686L1224.52 446.899L1113.82 491.813L1117.93 508.508Z" fill="#E88E80"/>
<path d="M1078.95 438.181C1082.29 452.246 1107.82 489.912 1114.51 495.156C1121.19 500.4 1141.95 511.845 1152.45 514.229C1162.95 516.613 1182.76 510.892 1192.31 503.264C1201.86 495.635 1231.45 457.969 1233.36 444.381C1235.27 430.792 1233.36 413.627 1233.36 413.627C1254.93 416.964 1267.25 352.836 1250.07 346.4C1232.88 339.963 1223.81 363.325 1223.81 363.325C1130.97 363.564 1075.6 424.116 1078.95 438.181Z" fill="#FFCEBA"/>
<path d="M1232.41 398.131L1234.08 423.907L1238.41 421.231C1238.41 421.231 1236.7 407.844 1232.41 398.131Z" fill="#E88E80"/>
<path d="M1252.83 378.771C1255.64 373.944 1250.76 353.356 1245.33 351.734C1239.91 350.113 1231.8 363.091 1231.85 369.419C1235.63 361.308 1239.35 357.305 1243.38 357.256C1247.41 357.206 1252.03 370.044 1252.83 378.771Z" fill="#E88E80"/>
<path d="M1233.9 371.261C1231.89 372.114 1231.79 373.829 1232.42 376.282C1233.05 378.734 1239.92 384.725 1238.16 387.443C1236.39 390.16 1230.82 391.14 1230.99 393.512C1231.16 395.883 1249.96 393.141 1248.69 381.741C1247.42 370.34 1235.9 370.408 1233.9 371.261Z" fill="#E88E80"/>
<path d="M1127.91 473.553C1131.38 475.42 1170.33 464.929 1186.94 454.334C1184.31 454.054 1163.01 456.491 1160.2 457.614C1157.38 458.738 1154.66 462.208 1152.31 462.958C1149.96 463.709 1146.21 463.105 1142.83 464.042C1139.45 464.978 1127.91 473.553 1127.91 473.553Z" fill="#E88E80"/>
<path d="M1150.34 481.614C1158.38 479.809 1166.31 477.522 1174.08 474.767C1163.29 484.521 1150.34 481.614 1150.34 481.614Z" fill="#E88E80"/>
<path d="M1139.37 435.85C1134.9 435.196 1131.17 433.892 1129.49 434.639C1127.81 435.386 1126.88 436.313 1127.44 438.178C1128 440.042 1133.2 436.13 1139.37 435.85Z" fill="#E88E80"/>
<path d="M1144.67 433.406C1148.53 429.933 1151.25 426.294 1153.34 425.958C1155.43 425.622 1156.93 425.937 1157.6 428.109C1158.27 430.281 1150.74 429.777 1144.67 433.406Z" fill="#E88E80"/>
<path d="M1158.9 419.783C1158.9 419.783 1166.85 428.408 1158.27 433.985C1166.6 431.109 1164.5 425.395 1163.74 423.241C1162.98 421.088 1158.9 419.783 1158.9 419.783Z" fill="#E88E80"/>
<path d="M1122.62 429.282C1122.62 429.282 1118.8 440.406 1130.87 442.087C1122.77 443.764 1120.57 438.523 1120.31 435.828C1120.2 434.635 1120.36 433.434 1120.75 432.305C1121.15 431.176 1121.79 430.146 1122.62 429.282Z" fill="#E88E80"/>
<path d="M1225.96 381.682C1224.37 362.042 1228.8 354.557 1228.8 354.557C1228.8 354.557 1231.45 348.553 1240.76 345.285C1235.03 308.979 1222.37 301.114 1222.37 301.114C1222.37 301.114 1224.76 298.967 1229.29 301.114C1222.13 288.954 1209.01 287.526 1209.01 287.526C1209.01 287.526 1206.62 272.505 1186.81 265.829C1192.3 270.597 1190.63 274.889 1190.63 274.889C1190.63 274.889 1163.66 262.732 1133.11 262.732C1143.38 265.829 1145.52 272.505 1145.52 272.505C1145.52 272.505 1106.14 265.829 1093.49 271.789C1103.75 271.789 1107.82 276.558 1107.82 276.558C1107.82 276.558 1077.99 277.273 1067.96 287.762C1078.8 284.426 1087.53 288.718 1087.53 288.718C1087.53 288.718 1055.79 298.73 1042.66 322.21C1050.06 319.72 1055.55 322.21 1055.55 322.21C1048.87 333.773 1053.06 353.667 1053.06 353.667C1053.06 353.667 1144.9 324.236 1168.48 327.336C1192.07 330.436 1207.35 353.082 1214.51 360.234C1221.67 367.386 1225.96 381.682 1225.96 381.682Z" fill="url(#paint3_linear_32920_285883)"/>
<path d="M1200.98 319.698C1200.98 319.698 1236.78 327.168 1240.76 332.571C1241.91 334.126 1242.66 335.941 1242.94 337.855C1243.22 339.77 1243.01 341.722 1242.35 343.539C1242.35 343.539 1223.97 350.212 1216.45 352.914L1200.98 319.698Z" fill="#0C0A14"/>
<path d="M1057.97 443.005L1043.8 433.668L1208.91 371.731L1189.14 313.162C1213.13 316.997 1224.29 371.737 1224.29 371.737L1225.01 377.71C1225.61 382.701 1224.38 387.739 1221.53 391.888C1218.69 396.037 1214.44 399.014 1209.57 400.266L1159.88 413.026C1159.88 413.026 1123.92 412.451 1117.39 427.43L1083.75 444.449C1075.27 448.959 1064.38 446.488 1057.97 443.005Z" fill="url(#paint4_linear_32920_285883)"/>
<path d="M1025.69 379.618L1170.52 311.457L1175.3 311.062C1182.66 310.42 1189.99 312.569 1195.84 317.081C1200.69 320.866 1202.77 323.066 1206.41 329.412C1210.05 335.758 1215.26 357.648 1215.26 357.648C1219.87 375.292 1210.46 387.066 1197.37 391.548C1197.37 391.548 1148.73 405.759 1128.54 413.058C1108.35 420.356 1065.14 438.579 1065.14 438.579C1052.35 442.961 1039.28 432.712 1035.54 422.158C1031.8 411.604 1023.59 391.713 1025.69 379.618Z" fill="url(#paint5_linear_32920_285883)"/>
<path d="M1040.31 358.373L1158.34 314.719C1181.61 305.883 1188.57 315.288 1192.02 324.955L1199.98 347.221C1205.28 361.999 1200.09 382.037 1185.33 387.399L1065.5 430.932C1062.6 431.983 1059.53 432.45 1056.45 432.304C1053.37 432.159 1050.35 431.404 1047.57 430.085C1044.78 428.765 1042.29 426.907 1040.23 424.617C1038.17 422.327 1036.58 419.652 1035.56 416.746L1027.2 389.416C1022.86 376.998 1027.93 362.846 1040.31 358.373Z" fill="url(#paint6_linear_32920_285883)"/>
<path d="M1061.52 356.173C1061.52 356.173 1053.88 372.195 1056.99 380.038C1060.09 387.882 1069.21 379.298 1073.22 388.131C1077.22 396.964 1069.4 424.415 1069.4 424.415L1098.2 413.285C1098.2 413.285 1103.05 383.602 1094.47 376.926C1085.88 370.25 1078 372.799 1070.12 371.763C1062.25 370.726 1061.52 356.173 1061.52 356.173Z" fill="url(#paint7_linear_32920_285883)"/>
<path d="M1030.89 536.943C1030.89 536.943 1079.66 514.257 1113.31 522.162C1113.31 522.162 1158.49 590.012 1236.46 551.089C1237.09 546.638 1232.7 531.845 1232.7 531.845C1232.7 531.845 1268.29 528.54 1306.38 536.632C1372.5 552.128 1439.99 650.109 1439.99 650.109V717.555V785H1095.17C1095.17 785 1080.57 745.631 1078.8 726.879C1078.8 726.879 1063.91 769.983 1027.08 763.749C968.845 753.895 931.613 621.513 931.613 598.304C931.613 575.095 1030.89 536.943 1030.89 536.943Z" fill="url(#paint8_linear_32920_285883)"/>
<path d="M1099.63 613.221C1094.86 676.655 1078.8 726.879 1078.8 726.879L1083.3 748.355C1094.86 730.381 1099.63 680.791 1099.63 680.791C1099.63 680.791 1106.28 661.024 1124.45 662.677C1113.63 654.411 1101.63 663.629 1101.63 663.629C1101.63 663.629 1106.31 632.154 1099.63 613.221Z" fill="#0B0838"/>
<path d="M1013.69 571.207C1013.69 571.207 1058.9 573.669 1060.17 652.752C1051.58 585.748 1017.69 584.538 1017.69 584.538L1013.69 571.207Z" fill="#0B0838"/>
<path d="M1337.34 595.92C1334.32 617.706 1379.18 785 1379.18 785H1387.78C1387.78 785 1359.61 678.961 1358.66 661.08C1357.71 643.2 1362.56 629.135 1362.56 629.135C1362.56 629.135 1354.13 636.051 1353.17 646.539C1345.9 634.603 1341.48 607.681 1337.34 595.92Z" fill="#0B0838"/>
<path opacity="0.2" d="M867.506 722.628H1112.74C1128.74 722.628 1141.71 709.669 1141.71 693.683V448.729C1141.71 432.743 1128.74 419.783 1112.74 419.783L867.506 419.783C851.502 419.783 838.529 432.743 838.529 448.729V693.683C838.529 709.669 851.502 722.628 867.506 722.628Z" fill="#7B61FF"/>
<path d="M1112.73 724.184H867.513C859.418 724.175 851.656 720.958 845.931 715.24C840.207 709.522 836.987 701.769 836.978 693.683V448.738C836.987 440.651 840.207 432.898 845.931 427.18C851.656 421.462 859.418 418.246 867.513 418.237H1112.73C1120.83 418.246 1128.59 421.462 1134.32 427.18C1140.04 432.898 1143.26 440.651 1143.27 448.738V693.683C1143.26 701.769 1140.04 709.522 1134.32 715.24C1128.59 720.958 1120.83 724.175 1112.73 724.184ZM867.513 421.349C860.244 421.357 853.274 424.245 848.134 429.38C842.993 434.515 840.102 441.476 840.093 448.738V693.683C840.102 700.944 842.993 707.906 848.134 713.04C853.274 718.175 860.244 721.063 867.513 721.072H1112.73C1120 721.063 1126.97 718.175 1132.11 713.04C1137.25 707.906 1140.15 700.944 1140.15 693.683V448.738C1140.15 441.476 1137.26 434.514 1132.12 429.379C1126.97 424.244 1120 421.356 1112.73 421.349H867.513Z" fill="#7B61FF"/>
<path d="M982.923 643.499C979.371 643.497 975.826 643.185 972.328 642.565C961.597 640.663 951.788 636.044 943.955 629.203L946.005 626.86C961.195 640.125 983.708 644.124 1002.05 636.819C1018.78 630.153 1029.03 615.241 1030.94 594.836L1034.05 595.126C1032.04 616.754 1021.09 632.587 1003.21 639.711C996.748 642.249 989.864 643.535 982.923 643.499Z" fill="#7B61FF"/>
<path d="M1044.25 609.863L1041.28 608.929C1041.32 608.789 1045.68 594.472 1044.58 578.636C1043.13 557.746 1033.32 544.201 1015.42 538.378L1016.38 535.418C1026.98 538.86 1035.03 544.963 1040.34 553.557C1044.56 560.404 1047.04 568.786 1047.7 578.506C1048.82 594.92 1044.44 609.262 1044.25 609.863Z" fill="#7B61FF"/>
<path d="M955.534 657.548C938.356 651.781 925.702 643.144 917.925 631.874C911.669 622.809 908.673 611.896 909.425 600.912C910.419 585.26 918.271 572.9 924.692 571.63L925.316 574.684C920.732 575.599 913.475 586.349 912.54 601.111C911.818 612.509 914.656 640.539 956.531 654.6L955.534 657.548Z" fill="#7B61FF"/>
<path d="M1019.44 590.358L1012.75 568.107C1025.8 556.822 1029.99 544.161 1034.82 534.677C1039.64 525.194 1068.92 501.997 1076.24 492.454C1083.56 482.912 1077.99 463.198 1058.9 467.82C1039.81 472.442 1024.69 496.429 1005.12 497.861C1005.12 497.861 982.994 468.775 973.694 434.128C964.393 399.481 937.655 329.864 931.451 320.175C925.248 310.486 902.333 310.321 906.63 331.379C910.927 352.438 940.593 429.469 935.222 446.898C935.222 446.898 912.117 405.193 903.128 396.621C894.138 388.05 856.988 364.517 840.757 354.744C824.526 344.971 806.709 362.609 823.573 377.39C840.436 392.17 860.811 405.361 873.455 416.011C886.099 426.662 898.276 460.83 898.276 460.83C898.276 460.83 865.578 437.67 854.838 432.323C844.097 426.976 803.843 415.852 787.774 413.468C771.705 411.084 769.795 425.706 780.773 434.605C791.75 443.503 832.007 453.836 839.644 456.702C847.282 459.569 872.421 485.15 872.421 485.15C872.421 485.15 840.95 473.88 829.462 473.391C817.973 472.902 789.544 471.166 772.977 474.014C756.409 476.861 761.202 494.197 772.977 496.112C784.752 498.026 815.459 498.443 827.393 500.562C839.327 502.682 861.559 513.588 865.26 519.473C868.962 525.359 898.036 574.942 930.735 583.84L937.178 602.437C937.178 602.437 956.59 634.062 990.878 625.083C1025.17 616.103 1019.44 590.358 1019.44 590.358Z" fill="#FFCEBA"/>
<path d="M977.75 573.828C1004.32 574.622 1012.75 568.107 1012.75 568.107L1015.37 576.822C1015.37 576.822 993.981 582.888 977.75 573.828Z" fill="#E88E80"/>
<path d="M930.734 583.84C930.734 583.84 944.338 584.463 959.454 575.895C949.589 589.882 933.199 591.456 933.199 591.456L930.734 583.84Z" fill="#E88E80"/>
<path d="M1005.12 497.861C997.88 498.843 990.543 498.843 983.306 497.861C1000.97 496.569 1002.72 494.54 1002.72 494.54L1005.12 497.861Z" fill="#E88E80"/>
<path d="M889.604 530.124C894.845 525.451 899.916 520.662 904.816 515.757C909.724 510.843 914.457 505.779 918.931 500.506C919.489 499.843 920.056 499.193 920.605 498.524L922.24 496.513C922.795 495.85 923.315 495.162 923.854 494.487L924.655 493.469L925.44 492.436C927.556 489.706 929.538 486.877 931.476 484.014L932.909 481.854L934.286 479.653C934.517 479.286 934.757 478.925 934.975 478.552L935.633 477.434C936.069 476.687 936.536 475.95 936.951 475.19C938.695 472.184 940.228 469.065 941.793 465.915C941.341 467.605 940.908 469.32 940.313 470.976C940.176 471.393 940.035 471.813 939.889 472.221C939.742 472.629 939.599 473.055 939.431 473.466L938.462 475.928C938.306 476.342 938.119 476.74 937.938 477.142L937.393 478.349C937.035 479.155 936.664 479.958 936.259 480.743L935.056 483.108L933.769 485.424C932.02 488.498 930.113 491.48 928.058 494.359C927.802 494.72 927.553 495.085 927.291 495.439L926.497 496.501C925.961 497.204 925.444 497.92 924.895 498.611L923.241 500.681C922.683 501.368 922.11 502.041 921.542 502.716C916.967 508.087 911.988 513.101 906.648 517.715C903.981 520.018 901.239 522.228 898.404 524.31C896.977 525.34 895.553 526.37 894.085 527.338C892.618 528.306 891.138 529.262 889.604 530.124Z" fill="#E88E80"/>
<path d="M975.84 477.515C975.376 477.674 974.905 477.826 974.444 477.973L973.746 478.197C973.516 478.275 973.288 478.368 973.061 478.452L971.69 478.95C971.238 479.13 970.796 479.327 970.35 479.513L969.683 479.797L969.029 480.108C968.596 480.319 968.156 480.509 967.733 480.73L966.486 481.421C966.066 481.648 965.673 481.922 965.268 482.168C963.672 483.175 962.179 484.335 960.809 485.632C959.474 486.928 958.285 488.366 957.263 489.921C955.25 493.045 953.873 496.536 953.213 500.192C952.862 502.032 952.639 503.893 952.543 505.763C952.435 507.649 952.435 509.539 952.543 511.425C952.636 513.317 952.817 515.212 953.069 517.105C953.322 518.997 953.636 520.883 954.004 522.766C954.372 524.649 954.799 526.523 955.25 528.393C955.702 530.264 956.226 532.128 956.765 533.977C957.846 537.69 959.07 541.372 960.388 545.029C961.707 548.686 963.124 552.318 964.626 555.922C962.485 552.629 960.551 549.205 958.837 545.67C957.104 542.13 955.557 538.503 954.203 534.802C952.837 531.083 951.707 527.283 950.82 523.423C950.377 521.487 950.003 519.529 949.713 517.553C949.424 515.576 949.227 513.585 949.118 511.58C948.886 507.532 949.2 503.471 950.053 499.507C950.91 495.474 952.621 491.672 955.073 488.356C956.31 486.718 957.739 485.235 959.329 483.936C960.913 482.67 962.632 481.582 964.455 480.693C966.253 479.817 968.131 479.115 970.063 478.598C971.958 478.089 973.889 477.726 975.84 477.515Z" fill="#E88E80"/>
<path d="M939.802 496.569C938.774 499.375 937.456 502.066 935.869 504.599C934.311 507.149 932.563 509.58 930.641 511.87C929.706 513.03 928.669 514.117 927.653 515.212C927.12 515.738 926.59 516.267 926.051 516.768C925.78 517.027 925.518 517.294 925.238 517.543L924.394 518.281C922.16 520.27 919.726 522.022 917.13 523.51C919.156 521.303 921.243 519.252 923.194 517.058C924.203 516 925.141 514.879 926.129 513.799L927.553 512.134C928.042 511.589 928.488 511.023 928.968 510.46C930.837 508.221 932.668 505.938 934.461 503.612C936.259 501.312 938.019 498.972 939.802 496.569Z" fill="#E88E80"/>
<path d="M877.194 491.978C877.371 492.527 877.505 493.089 877.593 493.659C877.689 494.23 877.754 494.805 877.786 495.383C877.851 496.547 877.808 497.714 877.658 498.869C877.355 501.212 876.624 503.479 875.502 505.558C874.369 507.641 872.841 509.483 871.002 510.983C869.194 512.452 867.107 513.54 864.867 514.182C866.632 512.825 868.293 511.337 869.834 509.731C871.288 508.152 872.544 506.401 873.573 504.518C874.596 502.62 875.4 500.612 875.969 498.533C876.281 497.484 876.505 496.414 876.708 495.321C876.91 494.229 877.081 493.121 877.194 491.978Z" fill="#E88E80"/>
<path d="M896.877 462.557C896.89 463.23 896.849 463.904 896.756 464.571C896.668 465.24 896.543 465.904 896.382 466.56C896.062 467.88 895.617 469.167 895.051 470.403C893.913 472.914 892.308 475.186 890.321 477.098C890.066 477.331 889.823 477.574 889.558 477.798L888.766 478.461C888.495 478.676 888.212 478.872 887.935 479.084C887.66 479.292 887.375 479.487 887.081 479.666C885.928 480.412 884.706 481.046 883.432 481.558C880.917 482.571 878.235 483.105 875.524 483.133C877.991 482.286 880.388 481.245 882.69 480.021C883.804 479.408 884.877 478.725 885.903 477.976C886.926 477.238 887.895 476.426 888.801 475.548C889.712 474.671 890.564 473.735 891.353 472.747C892.139 471.752 892.867 470.713 893.534 469.635C894.89 467.408 896.008 465.045 896.871 462.585L896.877 462.557Z" fill="#E88E80"/>
<path d="M933.691 449.059C933.355 449.773 932.963 450.46 932.52 451.113C932.081 451.771 931.607 452.405 931.099 453.011C930.079 454.238 928.943 455.362 927.706 456.37C925.21 458.417 922.344 459.968 919.265 460.939C918.498 461.197 917.707 461.374 916.928 461.561C916.133 461.701 915.342 461.872 914.541 461.944C913.74 462.015 912.936 462.081 912.135 462.118C911.733 462.118 911.332 462.118 910.933 462.118C910.534 462.118 910.132 462.118 909.733 462.065C906.567 461.845 903.463 461.073 900.563 459.784C903.609 460.228 906.687 460.419 909.764 460.353C910.141 460.353 910.518 460.322 910.895 460.291C911.272 460.26 911.646 460.248 912.02 460.21C912.768 460.108 913.516 460.052 914.251 459.899C915.73 459.668 917.189 459.32 918.613 458.859C921.476 457.956 924.197 456.653 926.696 454.991C927.969 454.159 929.187 453.247 930.345 452.261C931.529 451.268 932.647 450.198 933.691 449.059Z" fill="#E88E80"/>
<path d="M970.297 442.98C969.886 443.526 969.43 444.037 968.932 444.505C968.439 444.978 967.919 445.422 967.374 445.834C966.284 446.667 965.113 447.389 963.878 447.988C961.381 449.212 958.666 449.933 955.889 450.107C955.194 450.16 954.496 450.148 953.805 450.145C953.113 450.142 952.415 450.07 951.729 449.964C951.044 449.858 950.362 449.737 949.685 449.6C949.349 449.519 949.019 449.429 948.685 449.339C948.352 449.248 948.022 449.155 947.697 449.027C945.108 448.168 942.695 446.847 940.578 445.128C943.04 446.059 945.569 446.805 948.143 447.359C948.455 447.434 948.766 447.487 949.078 447.534C949.389 447.58 949.701 447.646 950.013 447.692C950.636 447.751 951.281 447.86 951.92 447.885C953.185 447.99 954.457 447.998 955.724 447.91C958.275 447.75 960.791 447.239 963.202 446.391C964.43 445.97 965.631 445.475 966.798 444.907C968.003 444.338 969.172 443.694 970.297 442.98Z" fill="#E88E80"/>
<path d="M951.629 382.945C951.403 383.413 951.134 383.859 950.826 384.277C950.522 384.701 950.192 385.105 949.838 385.488C949.124 386.262 948.329 386.957 947.467 387.561C945.718 388.795 943.734 389.654 941.637 390.085C941.113 390.203 940.584 390.266 940.054 390.337C939.524 390.409 938.988 390.424 938.452 390.412C937.916 390.399 937.39 390.381 936.86 390.34C936.33 390.3 935.807 390.219 935.302 390.104C933.25 389.701 931.298 388.896 929.56 387.735C931.526 388.076 933.511 388.298 935.505 388.401C935.748 388.42 935.991 388.42 936.231 388.401H936.954C937.433 388.37 937.91 388.383 938.387 388.327C939.33 388.26 940.267 388.128 941.191 387.931C943.062 387.541 944.876 386.914 946.588 386.064C947.467 385.636 948.322 385.161 949.149 384.642C950.005 384.12 950.833 383.553 951.629 382.945Z" fill="#E88E80"/>
<path d="M901.76 403.518C901.761 404.102 901.709 404.684 901.604 405.258C901.508 405.837 901.375 406.408 901.205 406.97C900.864 408.102 900.403 409.195 899.828 410.228C898.662 412.329 897.071 414.163 895.154 415.613C894.201 416.338 893.176 416.964 892.094 417.48C891.826 417.617 891.555 417.735 891.278 417.847C891.001 417.96 890.729 418.081 890.449 418.181C889.885 418.37 889.33 418.576 888.754 418.71C886.489 419.317 884.13 419.496 881.799 419.239C883.975 418.656 886.113 417.937 888.199 417.088C888.714 416.892 889.2 416.634 889.698 416.413C889.941 416.294 890.178 416.157 890.421 416.039C890.664 415.921 890.904 415.79 891.135 415.65L891.839 415.246L892.518 414.807C892.752 414.67 892.964 414.495 893.185 414.352C893.406 414.209 893.627 414.041 893.836 413.876C895.559 412.568 897.092 411.027 898.391 409.298C899.057 408.419 899.669 407.5 900.224 406.546C900.797 405.569 901.31 404.558 901.76 403.518Z" fill="#E88E80"/>
<path d="M857.589 437.393C857.749 437.916 857.862 438.451 857.928 438.993C858.002 439.536 858.042 440.083 858.05 440.63C858.071 441.734 857.978 442.838 857.773 443.923C857.566 445.021 857.253 446.095 856.838 447.132C856.415 448.173 855.893 449.172 855.28 450.114C854.968 450.587 854.635 451.047 854.295 451.48C853.956 451.913 853.575 452.342 853.174 452.725C850.835 455.095 847.846 456.72 844.583 457.393C846.327 456.218 847.99 454.927 849.562 453.531C849.759 453.366 849.933 453.176 850.114 452.999C850.294 452.821 850.488 452.653 850.656 452.463C850.999 452.087 851.354 451.729 851.672 451.337C852.329 450.578 852.931 449.773 853.473 448.928C854.024 448.087 854.52 447.212 854.959 446.307C855.399 445.396 855.787 444.461 856.121 443.506C856.462 442.531 856.753 441.539 856.991 440.534C857.237 439.503 857.439 438.467 857.589 437.393Z" fill="#E88E80"/>
<path d="M832.864 477.836C833.165 478.174 833.433 478.541 833.662 478.931C833.896 479.318 834.105 479.721 834.285 480.136C834.656 480.972 834.933 481.847 835.111 482.744C835.473 484.57 835.443 486.452 835.023 488.265C834.924 488.72 834.78 489.162 834.643 489.607C834.506 490.052 834.332 490.478 834.117 490.895C833.902 491.312 833.699 491.72 833.472 492.122C833.244 492.523 832.986 492.906 832.702 493.264C831.626 494.727 830.255 495.949 828.676 496.849C829.611 495.318 830.512 493.868 831.241 492.371C831.337 492.187 831.424 491.997 831.506 491.807L831.761 491.244C831.904 490.858 832.073 490.491 832.207 490.102C832.489 489.342 832.72 488.564 832.898 487.774C833.265 486.185 833.437 484.558 833.409 482.928C833.388 481.217 833.205 479.512 832.864 477.836Z" fill="#E88E80"/>
<path d="M795.832 478.299C796.374 478.789 796.836 479.361 797.203 479.993C797.578 480.622 797.884 481.291 798.112 481.988C798.58 483.406 798.744 484.906 798.592 486.392C798.444 487.883 797.972 489.324 797.209 490.615C796.469 491.876 795.44 492.943 794.205 493.728C794.741 492.377 795.261 491.141 795.648 489.893C796.029 488.677 796.289 487.426 796.424 486.158C796.551 484.886 796.558 483.604 796.442 482.33C796.316 480.976 796.112 479.63 795.832 478.299Z" fill="#E88E80"/>
<path d="M811.377 425.09C811.787 425.692 812.103 426.353 812.312 427.051C812.534 427.75 812.679 428.471 812.745 429.202C812.875 430.689 812.692 432.187 812.206 433.599C811.721 435.018 810.933 436.313 809.897 437.396C808.888 438.46 807.64 439.268 806.257 439.756C807.089 438.564 807.874 437.477 808.535 436.354C809.186 435.256 809.726 434.095 810.146 432.89C810.561 431.676 810.858 430.425 811.034 429.155C811.227 427.808 811.341 426.45 811.377 425.09Z" fill="#E88E80"/>
<path d="M859.49 371.927C860.091 373.795 860.007 375.843 859.53 377.776C859.022 379.733 858.081 381.552 856.776 383.098C854.157 386.123 850.477 388.03 846.493 388.426C848.138 387.393 849.721 386.416 851.167 385.314C851.889 384.778 852.584 384.205 853.248 383.599C853.56 383.288 853.903 382.995 854.183 382.665C854.464 382.335 854.785 382.018 855.074 381.688C856.214 380.336 857.158 378.83 857.879 377.215C858.644 375.53 859.185 373.753 859.49 371.927Z" fill="#E88E80"/>
<path d="M936.925 345.41C936.418 347.302 935.237 348.98 933.788 350.346C932.3 351.717 930.522 352.737 928.587 353.331C927.623 353.619 926.632 353.813 925.63 353.91C922.678 354.165 919.712 353.592 917.068 352.254C919.009 352.276 920.869 352.31 922.676 352.176C923.573 352.117 924.467 352.013 925.353 351.865C925.789 351.775 926.232 351.709 926.659 351.594C927.085 351.479 927.512 351.373 927.936 351.252C929.627 350.731 931.237 349.977 932.719 349.011C934.27 347.996 935.684 346.786 936.925 345.41Z" fill="#E88E80"/>
</g>
<g filter="url(#filter0_d_32920_285883)">
<circle cx="897" cy="723" r="40" fill="url(#paint9_linear_32920_285883)"/>
</g>
<g clip-path="url(#clip2_32920_285883)">
<path d="M887.278 727.72L888.854 728.263C891.907 729.316 892.005 733.652 888.935 734.801C888.935 735.626 888.32 736.147 887.645 736.147C886.978 736.147 886.355 735.633 886.355 734.801C885.037 734.308 884.095 733.036 884.095 731.547C884.095 730.835 884.673 730.257 885.386 730.257C886.098 730.257 886.676 730.835 886.676 731.547C886.676 732.039 887.077 732.44 887.569 732.44H887.721C888.729 732.44 888.958 731.029 888.012 730.703L886.437 730.16C883.384 729.107 883.285 724.771 886.355 723.622C886.355 722.798 886.971 722.276 887.645 722.276C888.313 722.276 888.935 722.79 888.935 723.622C890.254 724.115 891.195 725.388 891.195 726.876C891.195 727.589 890.617 728.166 889.905 728.166C889.192 728.166 888.614 727.589 888.614 726.876C888.614 726.384 888.214 725.983 887.721 725.983H887.569C886.562 725.983 886.333 727.394 887.278 727.72ZM898.29 729.212C898.29 735.081 893.515 739.857 887.645 739.857C881.775 739.857 877 735.081 877 729.212C877 723.342 881.775 718.566 887.645 718.566C893.515 718.566 898.29 723.342 898.29 729.212ZM895.71 729.212C895.71 724.765 892.092 721.147 887.645 721.147C883.198 721.147 879.581 724.765 879.581 729.212C879.581 733.658 883.198 737.276 887.645 737.276C892.092 737.276 895.71 733.658 895.71 729.212ZM915.71 737.276H914.823V715.986C914.823 715.273 914.245 714.695 913.532 714.695C912.82 714.695 912.242 715.273 912.242 715.986V737.276H905.71V721.147C905.71 720.434 905.132 719.857 904.419 719.857C903.707 719.857 903.129 720.434 903.129 721.147V737.276H897.645C896.932 737.276 896.355 737.854 896.355 738.566C896.355 739.279 896.932 739.857 897.645 739.857H915.71C916.422 739.857 917 739.279 917 738.566C917 737.854 916.422 737.276 915.71 737.276ZM896.864 720.043L901.476 715.432L903.507 717.463C904.011 717.967 904.828 717.967 905.332 717.463L912.242 710.553V711.147C912.242 711.86 912.82 712.437 913.532 712.437C914.245 712.437 914.823 711.86 914.823 711.147C914.823 707.052 914.829 707.4 914.808 707.255C914.746 706.815 914.457 706.424 914.026 706.245C913.706 706.113 913.805 706.147 909.823 706.147C909.11 706.147 908.532 706.725 908.532 707.437C908.532 708.15 909.11 708.728 909.823 708.728H910.417L904.419 714.725L902.388 712.694C901.884 712.19 901.067 712.19 900.563 712.694L895.039 718.219C894.535 718.722 894.535 719.539 895.039 720.043C895.543 720.547 896.36 720.547 896.864 720.043Z" fill="white" fill-opacity="0.86"/>
</g>
<ellipse rx="57.3308" ry="56.0532" transform="matrix(0.97863 0.20563 -0.533322 0.845912 739 601.128)" fill="url(#paint10_linear_32920_285883)"/>
<circle r="56.3602" transform="matrix(0.97863 0.20563 -0.533322 0.845912 738.596 597.265)" fill="white"/>
<g clip-path="url(#clip3_32920_285883)">
<path d="M782.954 595.429C781.089 598.387 778.203 601.017 774.831 602.829C771.46 604.641 767.833 605.513 764.625 605.282C766.652 605.365 768.913 604.778 771.004 603.624C773.094 602.471 774.88 600.826 776.043 598.982C777.344 596.917 777.765 594.762 777.211 592.992C776.657 591.221 775.174 589.98 773.089 589.54L759.307 586.644L764.878 577.807L778.32 580.632C781.59 581.319 783.915 583.264 784.784 586.039C785.653 588.814 784.995 592.192 782.954 595.429ZM756.543 580.997L756.566 590.989L767.686 573.352L756.543 580.997Z" fill="#FF9900"/>
<path d="M722.639 611.196L722.566 601.423L739.907 573.789C740.41 572.996 741.209 572.303 742.13 571.862C743.051 571.421 744.018 571.269 744.819 571.437L753.793 573.323C754.421 573.455 754.936 573.747 755.288 574.169C755.64 574.592 755.816 575.131 755.799 575.733L755.338 592.041C755.32 592.651 755.102 593.305 754.708 593.936L737.598 621.075L733.933 620.305C733.425 620.198 733.064 619.896 732.929 619.465C732.794 619.034 732.896 618.51 733.213 618.007L748.64 593.539C748.821 593.251 748.918 592.952 748.917 592.676L748.872 578.324L745.248 577.563C744.562 577.419 743.702 577.783 743.328 578.376L722.639 611.196Z" fill="url(#paint11_linear_32920_285883)"/>
<path opacity="0.2" d="M722.566 601.423L722.593 606.322L741.93 575.646C741.93 575.646 742.295 575.068 743.195 574.659C743.929 574.326 744.328 574.399 744.976 574.535C747.227 575.008 751.193 575.921 752.203 575.907C754.551 575.874 753.103 573.178 753.103 573.178L744.819 571.437C744.018 571.269 743.051 571.421 742.13 571.862C741.209 572.303 740.41 572.996 739.907 573.789L722.566 601.423Z" fill="white"/>
<path d="M746.979 571.876L753.781 573.305C754.409 573.437 754.925 573.729 755.276 574.151C755.628 574.574 755.804 575.113 755.788 575.715L755.326 592.023C755.308 592.634 755.091 593.288 754.696 593.918L737.586 621.057L733.921 620.287C733.413 620.18 733.052 619.878 732.917 619.447C732.782 619.017 732.884 618.492 733.201 617.989L748.628 593.521C748.81 593.234 748.906 592.934 748.905 592.658C748.905 592.658 748.963 581.815 748.86 578.312C748.81 576.614 748.767 575.35 748.6 573.771C748.571 573.495 748.517 573.239 748.33 572.905C748.197 572.666 747.943 572.427 747.728 572.281C747.278 571.974 746.979 571.876 746.979 571.876Z" fill="#FF8C01"/>
<path d="M746.979 571.876L751.201 572.763C751.829 572.895 752.344 573.187 752.696 573.609C753.048 574.032 753.224 574.571 753.207 575.173L752.746 591.481C752.728 592.092 752.51 592.746 752.116 593.376L735.005 620.515L733.921 620.287C733.413 620.18 733.052 619.878 732.917 619.447C732.782 619.017 732.884 618.492 733.201 617.989L748.628 593.521C748.81 593.234 748.906 592.934 748.905 592.658C748.905 592.658 748.963 581.815 748.86 578.312C748.81 576.614 748.767 575.35 748.6 573.771C748.571 573.495 748.517 573.239 748.33 572.905C748.197 572.666 747.943 572.427 747.728 572.281C747.278 571.974 746.979 571.876 746.979 571.876Z" fill="#FFA31A"/>
<path fill-rule="evenodd" clip-rule="evenodd" d="M776.222 592.434C776.084 591.39 775.502 590.544 774.569 590.03C776.118 590.764 777.11 592.057 777.379 593.689C777.647 595.322 777.175 597.194 776.041 598.989C774.738 601.055 772.661 602.862 770.264 604.012C767.868 605.163 765.35 605.563 763.264 605.124L749.476 602.227L752.86 596.86L766.952 599.821C768.32 600.108 769.972 599.846 771.544 599.091C773.115 598.336 774.478 597.151 775.332 595.797C776.047 594.661 776.361 593.479 776.222 592.434ZM728.094 591.659L747.286 595.691L743.905 601.054L724.714 597.021L728.094 591.659Z" fill="url(#paint12_linear_32920_285883)"/>
<path d="M703.468 603.955C702.534 603.44 701.952 602.594 701.814 601.55C701.676 600.506 701.989 599.323 702.704 598.188C703.558 596.833 704.921 595.648 706.493 594.894C708.064 594.139 709.716 593.877 711.084 594.164L725.176 597.125L728.56 591.758L714.773 588.861C712.686 588.422 710.168 588.822 707.772 589.973C705.376 591.123 703.298 592.93 701.995 594.995C700.862 596.791 700.389 598.663 700.658 600.296C700.926 601.928 701.919 603.221 703.468 603.955Z" fill="url(#paint13_linear_32920_285883)"/>
<path opacity="0.2" d="M745.584 598.39L726.937 594.472L725.248 597.151L743.895 601.069L745.584 598.39Z" fill="white"/>
<path opacity="0.2" d="M776.497 592.245C776.073 591.243 775.486 590.541 774.552 590.027C776.101 590.761 777.094 592.053 777.362 593.686C777.631 595.319 777.158 597.191 776.025 598.986C774.722 601.052 772.644 602.858 770.248 604.009C767.852 605.159 765.334 605.559 763.247 605.121L749.46 602.224L751.15 599.544L765.242 602.505C769.079 603.175 773.083 601.289 775.384 597.639C777.414 594.419 776.766 593.214 776.497 592.245Z" fill="white"/>
<path d="M701.539 601.74C701.964 602.742 702.551 603.444 703.484 603.958C701.935 603.224 700.943 601.931 700.674 600.299C700.406 598.666 700.878 596.794 702.012 594.999C703.315 592.933 705.392 591.126 707.789 589.976C710.185 588.826 712.703 588.425 714.789 588.864L728.577 591.761L726.887 594.441L712.795 591.48C708.958 590.81 704.954 592.696 702.653 596.346C700.623 599.566 701.271 600.771 701.539 601.74Z" fill="url(#paint14_linear_32920_285883)"/>
<path d="M782.954 595.429C781.089 598.387 778.202 601.017 774.831 602.829C771.459 604.641 767.832 605.513 764.624 605.282C766.652 605.365 768.912 604.778 771.003 603.624C773.094 602.471 774.88 600.826 776.042 598.982C777.344 596.917 777.764 594.762 777.21 592.992C776.656 591.221 775.174 589.98 773.088 589.54L759.306 586.644L764.878 577.807L778.32 580.632C781.589 581.319 783.915 583.264 784.784 586.039C785.653 588.814 784.995 592.192 782.954 595.429ZM756.542 580.997L756.566 590.989L767.686 573.352L756.542 580.997Z" fill="#FFA31A"/>
<path d="M695.151 598.558C697.016 595.6 699.903 592.97 703.274 591.158C706.646 589.346 710.273 588.474 713.481 588.705C711.453 588.622 709.193 589.209 707.102 590.363C705.011 591.516 703.225 593.161 702.063 595.005C700.761 597.07 700.341 599.225 700.895 600.996C701.449 602.766 702.931 604.008 705.017 604.447L718.799 607.343L713.227 616.18L699.785 613.355C696.516 612.668 694.19 610.723 693.321 607.948C692.452 605.173 693.11 601.796 695.151 598.558ZM721.563 612.99L721.539 602.998L710.419 620.635L721.563 612.99Z" fill="#FFA31A"/>
<path d="M775.876 585.06L762.094 582.164L756.512 580.991L767.655 573.345L764.845 577.8L778.286 580.625C781.556 581.312 783.881 583.257 784.75 586.032C785.619 588.806 784.962 592.183 782.922 595.421C781.058 598.381 778.171 601.012 774.798 602.826C786.709 591.334 779.026 585.721 775.876 585.06Z" fill="#FF8C01"/>
<path d="M702.229 608.928L716.011 611.824L721.593 612.997L710.449 620.642L713.26 616.187L699.818 613.362C696.549 612.675 694.224 610.73 693.355 607.956C692.485 605.181 693.143 601.804 695.183 598.566C697.047 595.607 699.934 592.975 703.306 591.161C691.395 602.653 699.078 608.266 702.229 608.928Z" fill="#FF8C01"/>
<path opacity="0.2" d="M703.535 603.989C702.601 603.474 702.019 602.628 701.881 601.584C701.743 600.54 702.056 599.357 702.771 598.222C703.625 596.867 704.988 595.682 706.56 594.928C708.131 594.173 709.783 593.91 711.151 594.198L725.243 597.159L728.627 591.791L714.84 588.894C712.753 588.456 710.235 588.856 707.839 590.007C705.443 591.157 703.365 592.964 702.062 595.029C700.929 596.825 700.456 598.697 700.724 600.329C700.993 601.962 701.986 603.255 703.535 603.989Z" fill="white"/>
<path d="M701.607 601.774C702.031 602.776 702.618 603.478 703.552 603.992C702.002 603.258 701.01 601.966 700.741 600.333C700.473 598.7 700.946 596.828 702.079 595.033C703.382 592.967 705.46 591.161 707.856 590.01C710.252 588.86 712.77 588.46 714.857 588.898L730.751 592.238L729.061 594.918L712.862 591.514C709.025 590.845 705.021 592.73 702.72 596.38C700.69 599.6 701.338 600.805 701.607 601.774Z" fill="url(#paint15_linear_32920_285883)"/>
</g>
<g filter="url(#filter1_d_32920_285883)">
<circle cx="1326" cy="174" r="54" fill="url(#paint16_linear_32920_285883)"/>
</g>
<path d="M1306 173.297C1306 176.528 1308.63 179.156 1311.86 179.156C1315.09 179.156 1317.72 176.528 1317.72 173.297C1317.72 173.127 1317.68 172.96 1317.61 172.806L1313.68 164.29C1315.52 164.184 1317.34 163.701 1318.99 162.876L1319.12 162.811C1320.55 162.096 1322.08 161.612 1323.66 161.368V181.109H1328.34V161.368C1329.92 161.612 1331.45 162.096 1332.88 162.811L1333.01 162.876C1334.66 163.701 1336.48 164.184 1338.32 164.29L1334.39 172.806C1334.32 172.96 1334.28 173.127 1334.28 173.297C1334.28 176.528 1336.91 179.156 1340.14 179.156C1343.37 179.156 1346 176.528 1346 173.297C1346 173.127 1345.96 172.96 1345.89 172.806L1341.79 163.912C1343.2 163.479 1344.5 162.703 1345.58 161.625C1346.04 161.168 1346.04 160.426 1345.58 159.968C1345.12 159.511 1344.38 159.511 1343.92 159.968C1342.63 161.258 1340.92 161.969 1339.09 161.969C1337.35 161.969 1335.61 161.558 1334.05 160.78L1333.92 160.714C1332.22 159.862 1330.4 159.293 1328.51 159.023C1328.45 159.015 1328.4 159.011 1328.34 159.011V156.344C1328.34 155.049 1327.29 154 1326 154C1324.71 154 1323.66 155.049 1323.66 156.344V159.011C1323.6 159.011 1323.55 159.015 1323.49 159.023C1321.6 159.293 1319.78 159.862 1318.08 160.714L1317.95 160.78C1316.39 161.558 1314.65 161.969 1312.91 161.969C1311.08 161.969 1309.37 161.258 1308.08 159.968C1307.62 159.511 1306.88 159.511 1306.42 159.968C1305.96 160.426 1305.96 161.168 1306.42 161.626C1307.5 162.703 1308.8 163.479 1310.21 163.912L1306.11 172.806C1306.04 172.96 1306 173.127 1306 173.297V173.297ZM1337.28 172.125L1340.14 165.937L1343 172.125H1337.28ZM1311.86 165.937L1314.72 172.125H1309L1311.86 165.937Z" fill="white"/>
<path d="M1344.83 191.656H1337.91C1337.91 190.362 1336.86 189.312 1335.57 189.312H1316.43C1315.14 189.312 1314.09 190.362 1314.09 191.656H1307.17C1306.52 191.656 1306 192.181 1306 192.828C1306 193.475 1306.52 194 1307.17 194H1344.83C1345.48 194 1346 193.475 1346 192.828C1346 192.181 1345.48 191.656 1344.83 191.656Z" fill="white"/>
<path d="M1330.88 183.453H1321.12C1319.82 183.453 1318.77 184.502 1318.77 185.797V186.969H1333.23V185.797C1333.23 184.502 1332.18 183.453 1330.88 183.453Z" fill="white"/>
<g filter="url(#filter2_d_32920_285883)">
<circle cx="1390.5" cy="394.5" r="22.5" fill="#38C976"/>
</g>
<g filter="url(#filter3_d_32920_285883)">
<circle cx="933.5" cy="184.5" r="11.5" fill="#38C976"/>
</g>
</g>
<defs>
<filter id="filter0_d_32920_285883" x="808" y="634" width="178" height="178" filterUnits="userSpaceOnUse" color-interpolation-filters="sRGB">
<feFlood flood-opacity="0" result="BackgroundImageFix"/>
<feColorMatrix in="SourceAlpha" type="matrix" values="0 0 0 0 0 0 0 0 0 0 0 0 0 0 0 0 0 0 127 0" result="hardAlpha"/>
<feOffset/>
<feGaussianBlur stdDeviation="24.5"/>
<feComposite in2="hardAlpha" operator="out"/>
<feColorMatrix type="matrix" values="0 0 0 0 1 0 0 0 0 0.509804 0 0 0 0 0.180392 0 0 0 1 0"/>
<feBlend mode="normal" in2="BackgroundImageFix" result="effect1_dropShadow_32920_285883"/>
<feBlend mode="normal" in="SourceGraphic" in2="effect1_dropShadow_32920_285883" result="shape"/>
</filter>
<filter id="filter1_d_32920_285883" x="1223" y="71" width="206" height="206" filterUnits="userSpaceOnUse" color-interpolation-filters="sRGB">
<feFlood flood-opacity="0" result="BackgroundImageFix"/>
<feColorMatrix in="SourceAlpha" type="matrix" values="0 0 0 0 0 0 0 0 0 0 0 0 0 0 0 0 0 0 127 0" result="hardAlpha"/>
<feOffset/>
<feGaussianBlur stdDeviation="24.5"/>
<feComposite in2="hardAlpha" operator="out"/>
<feColorMatrix type="matrix" values="0 0 0 0 1 0 0 0 0 0.509804 0 0 0 0 0.180392 0 0 0 0.63 0"/>
<feBlend mode="normal" in2="BackgroundImageFix" result="effect1_dropShadow_32920_285883"/>
<feBlend mode="normal" in="SourceGraphic" in2="effect1_dropShadow_32920_285883" result="shape"/>
</filter>
<filter id="filter2_d_32920_285883" x="1349" y="353" width="83" height="83" filterUnits="userSpaceOnUse" color-interpolation-filters="sRGB">
<feFlood flood-opacity="0" result="BackgroundImageFix"/>
<feColorMatrix in="SourceAlpha" type="matrix" values="0 0 0 0 0 0 0 0 0 0 0 0 0 0 0 0 0 0 127 0" result="hardAlpha"/>
<feOffset/>
<feGaussianBlur stdDeviation="9.5"/>
<feComposite in2="hardAlpha" operator="out"/>
<feColorMatrix type="matrix" values="0 0 0 0 0.207843 0 0 0 0 0.835294 0 0 0 0 0.647059 0 0 0 0.94 0"/>
<feBlend mode="normal" in2="BackgroundImageFix" result="effect1_dropShadow_32920_285883"/>
<feBlend mode="normal" in="SourceGraphic" in2="effect1_dropShadow_32920_285883" result="shape"/>
</filter>
<filter id="filter3_d_32920_285883" x="903" y="154" width="61" height="61" filterUnits="userSpaceOnUse" color-interpolation-filters="sRGB">
<feFlood flood-opacity="0" result="BackgroundImageFix"/>
<feColorMatrix in="SourceAlpha" type="matrix" values="0 0 0 0 0 0 0 0 0 0 0 0 0 0 0 0 0 0 127 0" result="hardAlpha"/>
<feOffset/>
<feGaussianBlur stdDeviation="9.5"/>
<feComposite in2="hardAlpha" operator="out"/>
<feColorMatrix type="matrix" values="0 0 0 0 0.207843 0 0 0 0 0.835294 0 0 0 0 0.647059 0 0 0 0.94 0"/>
<feBlend mode="normal" in2="BackgroundImageFix" result="effect1_dropShadow_32920_285883"/>
<feBlend mode="normal" in="SourceGraphic" in2="effect1_dropShadow_32920_285883" result="shape"/>
</filter>
<linearGradient id="paint0_linear_32920_285883" x1="395.08" y1="1308.31" x2="946.752" y2="790.162" gradientUnits="userSpaceOnUse">
<stop stop-color="#FF9E0F"/>
<stop offset="1" stop-color="#FF7C0F"/>
</linearGradient>
<linearGradient id="paint1_linear_32920_285883" x1="-184.595" y1="668.902" x2="470.667" y2="763.006" gradientUnits="userSpaceOnUse">
<stop offset="0.0467524" stop-color="#F4F8FD"/>
<stop offset="0.473931" stop-color="#3EE8B5"/>
<stop offset="1" stop-color="#EFF1FD"/>
</linearGradient>
<linearGradient id="paint2_linear_32920_285883" x1="-174.031" y1="689.111" x2="473.287" y2="690.776" gradientUnits="userSpaceOnUse">
<stop stop-color="#263959"/>
<stop offset="1" stop-color="#F4F8FD"/>
</linearGradient>
<linearGradient id="paint3_linear_32920_285883" x1="1058.62" y1="364.638" x2="1225.91" y2="299.431" gradientUnits="userSpaceOnUse">
<stop stop-color="#142130"/>
<stop offset="1" stop-color="#20364F"/>
</linearGradient>
<linearGradient id="paint4_linear_32920_285883" x1="1043.8" y1="380.038" x2="1225.16" y2="380.038" gradientUnits="userSpaceOnUse">
<stop stop-color="#19181C"/>
<stop offset="0.11" stop-color="#151417"/>
<stop offset="0.46" stop-color="#0D0C0F"/>
<stop offset="1" stop-color="#0A0A0C"/>
</linearGradient>
<linearGradient id="paint5_linear_32920_285883" x1="1222.9" y1="332.201" x2="1050.76" y2="415.096" gradientUnits="userSpaceOnUse">
<stop stop-color="#906CF9"/>
<stop offset="0.03" stop-color="#A435D4"/>
<stop offset="0.09" stop-color="#A754D0"/>
<stop offset="0.15" stop-color="#A970CC"/>
<stop offset="0.23" stop-color="#AA86C9"/>
<stop offset="0.32" stop-color="#AB97C7"/>
<stop offset="0.42" stop-color="#ACA2C5"/>
<stop offset="0.58" stop-color="#ADA9C4"/>
<stop offset="1" stop-color="#ADABC4"/>
</linearGradient>
<linearGradient id="paint6_linear_32920_285883" x1="1210.01" y1="313.888" x2="1017.5" y2="430.982" gradientUnits="userSpaceOnUse">
<stop stop-color="#A323D7"/>
<stop offset="0.02" stop-color="#9622C6"/>
<stop offset="0.08" stop-color="#751F99"/>
<stop offset="0.15" stop-color="#591D72"/>
<stop offset="0.21" stop-color="#421B53"/>
<stop offset="0.28" stop-color="#301A3B"/>
<stop offset="0.36" stop-color="#23192A"/>
<stop offset="0.43" stop-color="#1B181F"/>
<stop offset="0.53" stop-color="#19181C"/>
<stop offset="1" stop-color="#0A0A0C"/>
</linearGradient>
<linearGradient id="paint7_linear_32920_285883" x1="1059.3" y1="370.829" x2="1099.7" y2="423.846" gradientUnits="userSpaceOnUse">
<stop stop-color="#534066"/>
<stop offset="1" stop-color="#0B0B0E"/>
</linearGradient>
<linearGradient id="paint8_linear_32920_285883" x1="1034.36" y1="759.106" x2="1144.82" y2="472.471" gradientUnits="userSpaceOnUse">
<stop stop-color="#FF9E0F"/>
<stop offset="1" stop-color="#FF7C0F"/>
</linearGradient>
<linearGradient id="paint9_linear_32920_285883" x1="873.168" y1="755.168" x2="920.789" y2="690.874" gradientUnits="userSpaceOnUse">
<stop stop-color="#FF9E0F"/>
<stop offset="1" stop-color="#FF7C0F"/>
</linearGradient>
<linearGradient id="paint10_linear_32920_285883" x1="88.8457" y1="7.66811" x2="22.7671" y2="117.72" gradientUnits="userSpaceOnUse">
<stop stop-color="#F7F4FD"/>
<stop offset="1" stop-color="#906CF9"/>
</linearGradient>
<linearGradient id="paint11_linear_32920_285883" x1="751.197" y1="572.869" x2="721.936" y2="572.535" gradientUnits="userSpaceOnUse">
<stop offset="0.0220136" stop-color="#3C3B3B"/>
<stop offset="0.370212" stop-color="#5E5D5D"/>
<stop offset="0.976214" stop-color="#5E5D5D"/>
</linearGradient>
<linearGradient id="paint12_linear_32920_285883" x1="780.877" y1="594.398" x2="733.799" y2="577.954" gradientUnits="userSpaceOnUse">
<stop offset="0.0748513" stop-color="#3C3B3B"/>
<stop offset="0.370212" stop-color="#5E5D5D"/>
<stop offset="1" stop-color="#5E5D5D"/>
</linearGradient>
<linearGradient id="paint13_linear_32920_285883" x1="698.074" y1="599.779" x2="718.424" y2="609.863" gradientUnits="userSpaceOnUse">
<stop offset="0.0748513" stop-color="#3C3B3B"/>
<stop offset="0.370212" stop-color="#5E5D5D"/>
<stop offset="1" stop-color="#5E5D5D"/>
</linearGradient>
<linearGradient id="paint14_linear_32920_285883" x1="698.091" y1="599.782" x2="718.44" y2="609.866" gradientUnits="userSpaceOnUse">
<stop offset="0.0748513" stop-color="#3C3B3B"/>
<stop offset="0.370212" stop-color="#5E5D5D"/>
<stop offset="1" stop-color="#5E5D5D"/>
</linearGradient>
<linearGradient id="paint15_linear_32920_285883" x1="698.08" y1="599.8" x2="720.581" y2="610.663" gradientUnits="userSpaceOnUse">
<stop offset="0.0748513" stop-color="#3C3B3B"/>
<stop offset="0.370212" stop-color="#5E5D5D"/>
<stop offset="1" stop-color="#5E5D5D"/>
</linearGradient>
<linearGradient id="paint16_linear_32920_285883" x1="1293.83" y1="217.427" x2="1358.12" y2="130.629" gradientUnits="userSpaceOnUse">
<stop stop-color="#FF9E0F"/>
<stop offset="1" stop-color="#FF7C0F"/>
</linearGradient>
<clipPath id="clip0_32920_285883">
<rect width="1440" height="785" fill="white"/>
</clipPath>
<clipPath id="clip1_32920_285883">
<rect width="678" height="522" fill="white" transform="translate(762 263)"/>
</clipPath>
<clipPath id="clip2_32920_285883">
<rect width="40" height="40" fill="white" transform="translate(877 703)"/>
</clipPath>
<clipPath id="clip3_32920_285883">
<rect width="78.714" height="64.4024" fill="white" transform="matrix(0.97863 0.20563 -0.533322 0.845912 717.317 561.911)"/>
</clipPath>
</defs>
</svg>
