<svg width="534" height="443" viewBox="0 0 534 443" fill="none" xmlns="http://www.w3.org/2000/svg">
<path d="M-12.3093 74.9623C5.79696 92.8489 14.689 117.643 21.8288 143.896C28.6937 169.174 34.9778 195.375 49.6913 215.515C80.0249 257.041 133.219 266.969 182.092 265.225C236.714 263.267 293.681 248.922 346.322 261.019C372.141 266.954 396.423 280.681 409.802 305.998C420.884 326.976 420.649 352.147 413.841 377.495C409.969 391.897 404.567 405.851 398.997 419.759L404.161 422.093C405.74 418.153 407.32 414.213 408.826 410.27C417.634 387.361 425.606 363.026 424.746 339.109C423.76 311.941 410.614 289.027 392.273 274.578C369.898 256.937 341.065 251.084 312.624 249.895C285.218 248.748 257.314 251.984 229.56 254.862C176.578 260.361 118.889 264.158 75.8472 232.294C65.7767 224.838 56.9427 215.507 50.1129 204.299C43.3579 193.231 38.7234 180.611 34.8416 167.633C27.2397 142.235 22.2689 115.046 9.5855 92.7209C-3.52772 69.6234 -24.2432 52.702 -48.2541 45.3785C-48.2854 45.3644 -48.3224 45.3629 -48.3641 45.344L-51.258 51.747C-36.6979 56.107 -23.4031 64.0169 -12.3093 74.9623Z" fill="url(#paint0_linear_32157_250509)"/>
<path d="M7.54201 167.339C47.2421 212.461 111.826 215.977 159.016 210.979C183.305 208.405 208.034 203.521 231.954 198.789C262.923 192.664 294.941 186.329 326.217 184.997C356.741 183.69 431.099 187.259 462.131 248.28C479.978 283.388 480.72 333.608 464.333 397.547C462.796 403.559 461.121 409.601 459.425 415.632L460.489 416.113C462.214 409.988 463.909 403.849 465.475 397.744C481.963 333.44 481.196 282.889 463.188 247.496C431.883 185.941 357.061 182.344 326.346 183.656C294.99 184.997 262.924 191.326 231.913 197.462C208.009 202.187 183.306 207.067 159.071 209.635C112.103 214.612 47.8519 211.139 8.43319 166.313C-5.60805 150.355 -15.7482 129.878 -25.5666 110.08C-29.6618 101.826 -33.8073 93.4885 -38.2576 85.4088L-38.9254 86.8864C-34.6162 94.7503 -30.6005 102.847 -26.6244 110.864C-16.7872 130.732 -6.60628 151.257 7.54201 167.339Z" fill="url(#paint1_linear_32157_250509)"/>
<defs>
<linearGradient id="paint0_linear_32157_250509" x1="-15.802" y1="79.853" x2="412.522" y2="345.337" gradientUnits="userSpaceOnUse">
<stop stop-color="#916DF9"/>
<stop offset="0.966632" stop-color="#F4F8FD"/>
</linearGradient>
<linearGradient id="paint1_linear_32157_250509" x1="-15.1443" y1="98.0526" x2="433.667" y2="300.157" gradientUnits="userSpaceOnUse">
<stop stop-color="#263959"/>
<stop offset="1" stop-color="#F4F8FD"/>
</linearGradient>
</defs>
</svg>
