<svg width="243" height="25" viewBox="0 0 243 25" fill="none" xmlns="http://www.w3.org/2000/svg">
<path d="M2.05533 4.11065C3.19045 4.11065 4.11065 3.19045 4.11065 2.05533C4.11065 0.920201 3.19045 0 2.05533 0C0.920201 0 0 0.920201 0 2.05533C0 3.19045 0.920201 4.11065 2.05533 4.11065Z" fill="black" fill-opacity="0.21"/>
<path d="M31.8073 4.11065C32.9424 4.11065 33.8626 3.19045 33.8626 2.05533C33.8626 0.920201 32.9424 0 31.8073 0C30.6722 0 29.752 0.920201 29.752 2.05533C29.752 3.19045 30.6722 4.11065 31.8073 4.11065Z" fill="black" fill-opacity="0.21"/>
<path d="M61.5583 4.11065C62.6934 4.11065 63.6136 3.19045 63.6136 2.05533C63.6136 0.920201 62.6934 0 61.5583 0C60.4231 0 59.5029 0.920201 59.5029 2.05533C59.5029 3.19045 60.4231 4.11065 61.5583 4.11065Z" fill="black" fill-opacity="0.21"/>
<path d="M91.3102 4.11065C92.4453 4.11065 93.3655 3.19045 93.3655 2.05533C93.3655 0.920201 92.4453 0 91.3102 0C90.1751 0 89.2549 0.920201 89.2549 2.05533C89.2549 3.19045 90.1751 4.11065 91.3102 4.11065Z" fill="black" fill-opacity="0.21"/>
<path d="M121.062 4.11065C122.197 4.11065 123.117 3.19045 123.117 2.05533C123.117 0.920201 122.197 0 121.062 0C119.927 0 119.007 0.920201 119.007 2.05533C119.007 3.19045 119.927 4.11065 121.062 4.11065Z" fill="black" fill-opacity="0.21"/>
<path d="M150.814 4.11065C151.949 4.11065 152.869 3.19045 152.869 2.05533C152.869 0.920201 151.949 0 150.814 0C149.679 0 148.759 0.920201 148.759 2.05533C148.759 3.19045 149.679 4.11065 150.814 4.11065Z" fill="black" fill-opacity="0.21"/>
<path d="M182.62 2.05533C182.62 3.18407 181.694 4.11065 180.565 4.11065C179.436 4.11065 178.51 3.18407 178.51 2.05533C178.51 0.926582 179.436 0 180.565 0C181.711 0 182.62 0.926582 182.62 2.05533Z" fill="black" fill-opacity="0.21"/>
<path d="M210.317 4.11065C211.452 4.11065 212.372 3.19045 212.372 2.05533C212.372 0.920201 211.452 0 210.317 0C209.182 0 208.262 0.920201 208.262 2.05533C208.262 3.19045 209.182 4.11065 210.317 4.11065Z" fill="black" fill-opacity="0.21"/>
<path d="M240.069 4.11065C241.204 4.11065 242.124 3.19045 242.124 2.05533C242.124 0.920201 241.204 0 240.069 0C238.934 0 238.014 0.920201 238.014 2.05533C238.014 3.19045 238.934 4.11065 240.069 4.11065Z" fill="black" fill-opacity="0.21"/>
<path d="M2.05533 24.108C3.19045 24.108 4.11065 23.1878 4.11065 22.0526C4.11065 20.9175 3.19045 19.9973 2.05533 19.9973C0.920201 19.9973 0 20.9175 0 22.0526C0 23.1878 0.920201 24.108 2.05533 24.108Z" fill="black" fill-opacity="0.21"/>
<path d="M31.8073 24.108C32.9424 24.108 33.8626 23.1878 33.8626 22.0526C33.8626 20.9175 32.9424 19.9973 31.8073 19.9973C30.6722 19.9973 29.752 20.9175 29.752 22.0526C29.752 23.1878 30.6722 24.108 31.8073 24.108Z" fill="black" fill-opacity="0.21"/>
<path d="M61.5583 24.108C62.6934 24.108 63.6136 23.1878 63.6136 22.0526C63.6136 20.9175 62.6934 19.9973 61.5583 19.9973C60.4231 19.9973 59.5029 20.9175 59.5029 22.0526C59.5029 23.1878 60.4231 24.108 61.5583 24.108Z" fill="black" fill-opacity="0.21"/>
<path d="M91.3102 24.108C92.4453 24.108 93.3655 23.1878 93.3655 22.0526C93.3655 20.9175 92.4453 19.9973 91.3102 19.9973C90.1751 19.9973 89.2549 20.9175 89.2549 22.0526C89.2549 23.1878 90.1751 24.108 91.3102 24.108Z" fill="black" fill-opacity="0.21"/>
<path d="M121.062 24.108C122.197 24.108 123.117 23.1878 123.117 22.0526C123.117 20.9175 122.197 19.9973 121.062 19.9973C119.927 19.9973 119.007 20.9175 119.007 22.0526C119.007 23.1878 119.927 24.108 121.062 24.108Z" fill="black" fill-opacity="0.21"/>
<path d="M150.814 24.108C151.949 24.108 152.869 23.1878 152.869 22.0526C152.869 20.9175 151.949 19.9973 150.814 19.9973C149.679 19.9973 148.759 20.9175 148.759 22.0526C148.759 23.1878 149.679 24.108 150.814 24.108Z" fill="black" fill-opacity="0.21"/>
<path d="M182.62 22.0526C182.62 23.1814 181.694 24.108 180.565 24.108C179.436 24.108 178.51 23.1814 178.51 22.0526C178.51 20.9239 179.436 19.9973 180.565 19.9973C181.711 19.9973 182.62 20.9239 182.62 22.0526Z" fill="black" fill-opacity="0.21"/>
<path d="M210.317 24.108C211.452 24.108 212.372 23.1878 212.372 22.0526C212.372 20.9175 211.452 19.9973 210.317 19.9973C209.182 19.9973 208.262 20.9175 208.262 22.0526C208.262 23.1878 209.182 24.108 210.317 24.108Z" fill="black" fill-opacity="0.21"/>
<path d="M240.069 24.108C241.204 24.108 242.124 23.1878 242.124 22.0526C242.124 20.9175 241.204 19.9973 240.069 19.9973C238.934 19.9973 238.014 20.9175 238.014 22.0526C238.014 23.1878 238.934 24.108 240.069 24.108Z" fill="black" fill-opacity="0.21"/>
</svg>
