<svg width="209" height="222" viewBox="0 0 209 222" fill="none" xmlns="http://www.w3.org/2000/svg">
<path d="M195.043 18.1244C190.01 28.452 190.458 42.0821 191.976 56.4179C193.441 70.2204 195.341 84.4921 192.273 95.8808C185.95 119.363 163.388 126.921 140.678 128.057C115.295 129.322 86.5781 124.065 64.6657 132.759C53.9189 137.024 45.2975 145.39 43.7853 159.489C42.5344 171.172 47.233 184.617 54.976 197.879C59.3767 205.414 64.3969 212.644 69.4857 219.843L67.5457 221.309C66.1033 219.27 64.6609 217.23 63.2518 215.186C55.0376 203.313 46.9464 190.642 42.978 177.821C38.4744 163.257 40.3178 150.451 46.0856 141.951C53.1194 131.575 65.2624 127.226 78.0764 125.386C90.4236 123.613 103.799 124.162 117.04 124.526C142.317 125.223 169.441 124.811 183.35 105.957C186.604 101.545 188.949 96.1835 190.034 89.903C191.11 83.7007 190.932 76.7589 190.343 69.657C189.194 55.759 186.512 41.0147 188.251 28.5439C190.046 15.6421 196.451 5.72008 206.116 0.789136C206.128 0.780252 206.144 0.777878 206.16 0.766033L208.654 4.06628C202.778 7.01316 198.13 11.804 195.043 18.1244Z" fill="url(#paint0_linear_331_703)"/>
<path d="M195.343 67.2983C185.383 93.0981 156.435 97.7111 133.902 97.0364C122.304 96.6886 110.083 95.1245 98.2601 93.6071C82.9542 91.6436 67.1292 89.6123 52.5563 90.2241C38.3328 90.8174 4.91549 95.8721 1.8277 129.804C0.0542562 149.326 8.87453 176.203 28.0448 209.688C29.8455 212.837 31.715 215.995 33.5923 219.148L33.1925 219.45C31.2847 216.249 29.3887 213.039 27.5574 209.841C8.27397 176.166 -0.594745 149.111 1.19998 129.43C4.31564 95.2005 37.9409 90.1114 52.2527 89.5127C66.8638 88.9027 82.7095 90.9286 98.037 92.8963C109.851 94.4101 122.059 95.9736 133.631 96.3203C156.058 96.9932 184.863 92.4175 194.747 66.7871C198.27 57.6625 199.181 46.2878 200.068 35.2889C200.439 30.7035 200.817 26.0713 201.383 21.564L201.958 22.3256C201.418 26.7116 201.055 31.2094 200.696 35.6634C199.812 46.7001 198.891 58.1026 195.343 67.2983Z" fill="url(#paint1_linear_331_703)"/>
<defs>
<linearGradient id="paint0_linear_331_703" x1="197.536" y1="20.5909" x2="37.5513" y2="167.376" gradientUnits="userSpaceOnUse">
<stop offset="0.0467524" stop-color="#F4F8FD"/>
<stop offset="0.473931" stop-color="#3EE8B5"/>
<stop offset="1" stop-color="#EFF1FD"/>
</linearGradient>
<linearGradient id="paint1_linear_331_703" x1="193.099" y1="29.3009" x2="24.4432" y2="156.479" gradientUnits="userSpaceOnUse">
<stop stop-color="#263959"/>
<stop offset="1" stop-color="#F4F8FD"/>
</linearGradient>
</defs>
</svg>
