<svg width="1189" height="642" viewBox="0 0 1189 642" fill="none" xmlns="http://www.w3.org/2000/svg">
<path d="M123.647 185.383C170.224 211.563 203.28 260.77 233.858 314.686C263.281 366.606 292.161 421.085 333.576 455.086C418.961 525.195 528.695 505.343 622.604 462.435C727.555 414.456 829.187 336.489 939.225 322.001C993.197 314.9 1049.14 326.715 1091.25 373.532C1126.13 412.33 1141.69 469.666 1144.57 532.643C1146.2 568.428 1144.57 604.414 1142.59 640.431L1154.11 641.614C1154.68 631.41 1155.24 621.205 1155.66 611.053C1158.22 552.021 1158.24 490.415 1141.36 436.799C1122.16 375.903 1082.03 334.353 1037.19 316.165C982.465 293.944 922.686 303.634 866.634 323.6C812.623 342.837 760.43 372.423 708.299 401.076C608.79 455.784 499.046 510.38 395.1 472.338C370.779 463.435 347.669 449.29 327.263 429.285C307.091 409.539 290.055 384.581 274.254 358.208C243.322 306.603 216.366 248.833 177.508 208.253C137.324 166.262 86.2874 144.353 34.948 146.861C34.8782 146.853 34.8053 146.88 34.7122 146.87L33.1581 163.714C64.2386 162.009 95.1169 169.373 123.647 185.383Z" fill="url(#paint0_linear_323_215)"/>
<path d="M168.005 271.306C267.484 338.537 387.687 297.027 471.012 250.357C513.897 226.334 556.213 196.989 597.139 168.585C650.125 131.817 704.906 93.7972 761.31 67.1428C816.354 41.1144 954.463 -7.7134 1047.56 100.434C1101.11 162.661 1132.38 270.52 1140.49 421.02C1141.27 435.169 1141.8 449.486 1142.29 463.797L1144.52 464.027C1144.03 449.491 1143.47 434.949 1142.7 420.576C1134.55 269.212 1103.04 160.658 1049.03 97.9367C955.112 -11.1563 816.136 37.9654 760.747 64.1497C704.202 90.8854 649.331 128.928 596.274 165.753C555.373 194.127 513.103 223.445 470.311 247.414C387.382 293.869 267.812 335.221 169.024 268.412C133.84 244.634 103.1 208.136 73.3514 172.857C60.9459 158.151 48.3988 143.303 35.4476 129.243L35.1064 132.941C47.671 146.642 59.8373 161.068 71.8839 175.355C101.708 210.769 132.552 247.341 168.005 271.306Z" fill="#3EE8B5"/>
<defs>
<linearGradient id="paint0_linear_323_215" x1="611.943" y1="204.25" x2="1150.69" y2="550.685" gradientUnits="userSpaceOnUse">
<stop stop-color="#916DF9"/>
<stop offset="0.808894" stop-color="#F4F8FD"/>
</linearGradient>
</defs>
</svg>
