<svg width="613" height="501" viewBox="0 0 613 501" fill="none" xmlns="http://www.w3.org/2000/svg">
<path d="M472.556 73.7557C461.987 95.442 462.928 124.063 466.114 154.166C469.191 183.149 473.18 213.118 466.739 237.032C453.46 286.34 406.085 302.211 358.398 304.597C305.096 307.253 244.796 296.214 198.783 314.47C176.216 323.427 158.113 340.993 154.937 370.599C152.311 395.131 162.177 423.364 178.436 451.212C187.677 467.034 198.219 482.217 208.904 497.333L204.831 500.411C201.802 496.129 198.773 491.847 195.814 487.555C178.565 462.624 161.575 436.016 153.242 409.094C143.785 378.511 147.656 351.622 159.768 333.773C174.538 311.983 200.036 302.851 226.944 298.989C252.871 295.266 280.956 296.419 308.761 297.183C361.839 298.647 418.796 297.782 448.001 258.191C454.834 248.926 459.759 237.668 462.037 224.48C464.297 211.456 463.922 196.879 462.686 181.966C460.272 152.783 454.641 121.822 458.293 95.635C462.062 68.5433 475.511 47.7085 495.807 37.3543C495.831 37.3356 495.866 37.3307 495.899 37.3058L501.136 44.2358C488.798 50.4238 479.037 60.4839 472.556 73.7557Z" fill="url(#paint0_linear_332_9)"/>
<path d="M473.185 177.013C452.272 231.189 391.484 240.875 344.168 239.459C319.815 238.728 294.152 235.444 269.326 232.258C237.186 228.135 203.956 223.869 173.356 225.154C143.488 226.4 73.3171 237.014 66.8333 308.266C63.1093 349.259 81.6305 405.696 121.885 476.01C125.666 482.622 129.592 489.254 133.534 495.874L132.695 496.508C128.688 489.787 124.707 483.046 120.862 476.332C80.3694 405.618 61.7465 348.807 65.5151 307.48C72.0576 235.604 142.665 224.917 172.718 223.66C203.399 222.379 236.672 226.633 268.858 230.765C293.665 233.944 319.301 237.227 343.6 237.955C390.694 239.368 451.179 229.76 471.934 175.94C479.331 156.78 481.244 132.894 483.107 109.799C483.886 100.17 484.681 90.4431 485.867 80.9784L487.076 82.5776C485.942 91.7875 485.179 101.232 484.425 110.585C482.57 133.76 480.637 157.704 473.185 177.013Z" fill="url(#paint1_linear_332_9)"/>
<defs>
<linearGradient id="paint0_linear_332_9" x1="477.789" y1="78.935" x2="141.847" y2="387.161" gradientUnits="userSpaceOnUse">
<stop offset="0.0467524" stop-color="#F4F8FD"/>
<stop offset="0.473931" stop-color="#3EE8B5"/>
<stop offset="1" stop-color="#EFF1FD"/>
</linearGradient>
<linearGradient id="paint1_linear_332_9" x1="468.473" y1="97.2248" x2="114.322" y2="364.279" gradientUnits="userSpaceOnUse">
<stop stop-color="#263959"/>
<stop offset="1" stop-color="#F4F8FD"/>
</linearGradient>
</defs>
</svg>
