<svg width="243" height="85" viewBox="0 0 243 85" fill="none" xmlns="http://www.w3.org/2000/svg">
<path d="M2.05533 4.11065C3.19045 4.11065 4.11065 3.19045 4.11065 2.05533C4.11065 0.920201 3.19045 0 2.05533 0C0.920201 0 0 0.920201 0 2.05533C0 3.19045 0.920201 4.11065 2.05533 4.11065Z" fill="black" fill-opacity="0.21"/>
<path d="M31.8073 4.11065C32.9424 4.11065 33.8626 3.19045 33.8626 2.05533C33.8626 0.920201 32.9424 0 31.8073 0C30.6722 0 29.752 0.920201 29.752 2.05533C29.752 3.19045 30.6722 4.11065 31.8073 4.11065Z" fill="black" fill-opacity="0.21"/>
<path d="M61.5587 4.11065C62.6939 4.11065 63.6141 3.19045 63.6141 2.05533C63.6141 0.920201 62.6939 0 61.5587 0C60.4236 0 59.5034 0.920201 59.5034 2.05533C59.5034 3.19045 60.4236 4.11065 61.5587 4.11065Z" fill="black" fill-opacity="0.21"/>
<path d="M91.3102 4.11065C92.4453 4.11065 93.3655 3.19045 93.3655 2.05533C93.3655 0.920201 92.4453 0 91.3102 0C90.1751 0 89.2549 0.920201 89.2549 2.05533C89.2549 3.19045 90.1751 4.11065 91.3102 4.11065Z" fill="black" fill-opacity="0.21"/>
<path d="M121.062 4.11065C122.197 4.11065 123.117 3.19045 123.117 2.05533C123.117 0.920201 122.197 0 121.062 0C119.927 0 119.007 0.920201 119.007 2.05533C119.007 3.19045 119.927 4.11065 121.062 4.11065Z" fill="black" fill-opacity="0.21"/>
<path d="M150.814 4.11065C151.949 4.11065 152.869 3.19045 152.869 2.05533C152.869 0.920201 151.949 0 150.814 0C149.679 0 148.759 0.920201 148.759 2.05533C148.759 3.19045 149.679 4.11065 150.814 4.11065Z" fill="black" fill-opacity="0.21"/>
<path d="M182.621 2.05533C182.621 3.18407 181.694 4.11065 180.566 4.11065C179.437 4.11065 178.51 3.18407 178.51 2.05533C178.51 0.926582 179.437 0 180.566 0C181.711 0 182.621 0.926582 182.621 2.05533Z" fill="black" fill-opacity="0.21"/>
<path d="M210.318 4.11065C211.453 4.11065 212.373 3.19045 212.373 2.05533C212.373 0.920201 211.453 0 210.318 0C209.182 0 208.262 0.920201 208.262 2.05533C208.262 3.19045 209.182 4.11065 210.318 4.11065Z" fill="black" fill-opacity="0.21"/>
<path d="M240.069 4.11065C241.204 4.11065 242.124 3.19045 242.124 2.05533C242.124 0.920201 241.204 0 240.069 0C238.934 0 238.014 0.920201 238.014 2.05533C238.014 3.19045 238.934 4.11065 240.069 4.11065Z" fill="black" fill-opacity="0.21"/>
<path d="M2.05533 24.108C3.19045 24.108 4.11065 23.1878 4.11065 22.0526C4.11065 20.9175 3.19045 19.9973 2.05533 19.9973C0.920201 19.9973 0 20.9175 0 22.0526C0 23.1878 0.920201 24.108 2.05533 24.108Z" fill="black" fill-opacity="0.21"/>
<path d="M31.8073 24.108C32.9424 24.108 33.8626 23.1878 33.8626 22.0526C33.8626 20.9175 32.9424 19.9973 31.8073 19.9973C30.6722 19.9973 29.752 20.9175 29.752 22.0526C29.752 23.1878 30.6722 24.108 31.8073 24.108Z" fill="black" fill-opacity="0.21"/>
<path d="M61.5587 24.108C62.6939 24.108 63.6141 23.1878 63.6141 22.0526C63.6141 20.9175 62.6939 19.9973 61.5587 19.9973C60.4236 19.9973 59.5034 20.9175 59.5034 22.0526C59.5034 23.1878 60.4236 24.108 61.5587 24.108Z" fill="black" fill-opacity="0.21"/>
<path d="M91.3102 24.108C92.4453 24.108 93.3655 23.1878 93.3655 22.0526C93.3655 20.9175 92.4453 19.9973 91.3102 19.9973C90.1751 19.9973 89.2549 20.9175 89.2549 22.0526C89.2549 23.1878 90.1751 24.108 91.3102 24.108Z" fill="black" fill-opacity="0.21"/>
<path d="M121.062 24.108C122.197 24.108 123.117 23.1878 123.117 22.0526C123.117 20.9175 122.197 19.9973 121.062 19.9973C119.927 19.9973 119.007 20.9175 119.007 22.0526C119.007 23.1878 119.927 24.108 121.062 24.108Z" fill="black" fill-opacity="0.21"/>
<path d="M150.814 24.108C151.949 24.108 152.869 23.1878 152.869 22.0526C152.869 20.9175 151.949 19.9973 150.814 19.9973C149.679 19.9973 148.759 20.9175 148.759 22.0526C148.759 23.1878 149.679 24.108 150.814 24.108Z" fill="black" fill-opacity="0.21"/>
<path d="M182.621 22.0526C182.621 23.1814 181.694 24.108 180.566 24.108C179.437 24.108 178.51 23.1814 178.51 22.0526C178.51 20.9239 179.437 19.9973 180.566 19.9973C181.711 19.9973 182.621 20.9239 182.621 22.0526Z" fill="black" fill-opacity="0.21"/>
<path d="M210.318 24.108C211.453 24.108 212.373 23.1878 212.373 22.0526C212.373 20.9175 211.453 19.9973 210.318 19.9973C209.182 19.9973 208.262 20.9175 208.262 22.0526C208.262 23.1878 209.182 24.108 210.318 24.108Z" fill="black" fill-opacity="0.21"/>
<path d="M240.069 24.108C241.204 24.108 242.124 23.1878 242.124 22.0526C242.124 20.9175 241.204 19.9973 240.069 19.9973C238.934 19.9973 238.014 20.9175 238.014 22.0526C238.014 23.1878 238.934 24.108 240.069 24.108Z" fill="black" fill-opacity="0.21"/>
<path d="M2.05533 44.1053C3.19045 44.1053 4.11065 43.1851 4.11065 42.05C4.11065 40.9148 3.19045 39.9946 2.05533 39.9946C0.920201 39.9946 0 40.9148 0 42.05C0 43.1851 0.920201 44.1053 2.05533 44.1053Z" fill="black" fill-opacity="0.21"/>
<path d="M31.8073 44.1053C32.9424 44.1053 33.8626 43.1851 33.8626 42.05C33.8626 40.9148 32.9424 39.9946 31.8073 39.9946C30.6722 39.9946 29.752 40.9148 29.752 42.05C29.752 43.1851 30.6722 44.1053 31.8073 44.1053Z" fill="black" fill-opacity="0.21"/>
<path d="M61.5587 44.1053C62.6939 44.1053 63.6141 43.1851 63.6141 42.05C63.6141 40.9148 62.6939 39.9946 61.5587 39.9946C60.4236 39.9946 59.5034 40.9148 59.5034 42.05C59.5034 43.1851 60.4236 44.1053 61.5587 44.1053Z" fill="black" fill-opacity="0.21"/>
<path d="M91.3102 44.1053C92.4453 44.1053 93.3655 43.1851 93.3655 42.05C93.3655 40.9148 92.4453 39.9946 91.3102 39.9946C90.1751 39.9946 89.2549 40.9148 89.2549 42.05C89.2549 43.1851 90.1751 44.1053 91.3102 44.1053Z" fill="black" fill-opacity="0.21"/>
<path d="M121.062 44.1053C122.197 44.1053 123.117 43.1851 123.117 42.05C123.117 40.9148 122.197 39.9946 121.062 39.9946C119.927 39.9946 119.007 40.9148 119.007 42.05C119.007 43.1851 119.927 44.1053 121.062 44.1053Z" fill="black" fill-opacity="0.21"/>
<path d="M150.814 44.1053C151.949 44.1053 152.869 43.1851 152.869 42.05C152.869 40.9148 151.949 39.9946 150.814 39.9946C149.679 39.9946 148.759 40.9148 148.759 42.05C148.759 43.1851 149.679 44.1053 150.814 44.1053Z" fill="black" fill-opacity="0.21"/>
<path d="M182.621 42.05C182.621 43.1787 181.694 44.1053 180.566 44.1053C179.437 44.1053 178.51 43.1787 178.51 42.05C178.51 40.9212 179.437 39.9946 180.566 39.9946C181.711 39.9946 182.621 40.9212 182.621 42.05Z" fill="black" fill-opacity="0.21"/>
<path d="M210.318 44.1053C211.453 44.1053 212.373 43.1851 212.373 42.05C212.373 40.9148 211.453 39.9946 210.318 39.9946C209.182 39.9946 208.262 40.9148 208.262 42.05C208.262 43.1851 209.182 44.1053 210.318 44.1053Z" fill="black" fill-opacity="0.21"/>
<path d="M240.069 44.1053C241.204 44.1053 242.124 43.1851 242.124 42.05C242.124 40.9148 241.204 39.9946 240.069 39.9946C238.934 39.9946 238.014 40.9148 238.014 42.05C238.014 43.1851 238.934 44.1053 240.069 44.1053Z" fill="black" fill-opacity="0.21"/>
<path d="M2.05533 64.1026C3.19045 64.1026 4.11065 63.1824 4.11065 62.0473C4.11065 60.9121 3.19045 59.9919 2.05533 59.9919C0.920201 59.9919 0 60.9121 0 62.0473C0 63.1824 0.920201 64.1026 2.05533 64.1026Z" fill="black" fill-opacity="0.21"/>
<path d="M31.8073 64.1026C32.9424 64.1026 33.8626 63.1824 33.8626 62.0473C33.8626 60.9121 32.9424 59.9919 31.8073 59.9919C30.6722 59.9919 29.752 60.9121 29.752 62.0473C29.752 63.1824 30.6722 64.1026 31.8073 64.1026Z" fill="black" fill-opacity="0.21"/>
<path d="M61.5587 64.1026C62.6939 64.1026 63.6141 63.1824 63.6141 62.0473C63.6141 60.9121 62.6939 59.9919 61.5587 59.9919C60.4236 59.9919 59.5034 60.9121 59.5034 62.0473C59.5034 63.1824 60.4236 64.1026 61.5587 64.1026Z" fill="black" fill-opacity="0.21"/>
<path d="M91.3102 64.1026C92.4453 64.1026 93.3655 63.1824 93.3655 62.0473C93.3655 60.9121 92.4453 59.9919 91.3102 59.9919C90.1751 59.9919 89.2549 60.9121 89.2549 62.0473C89.2549 63.1824 90.1751 64.1026 91.3102 64.1026Z" fill="black" fill-opacity="0.21"/>
<path d="M121.062 64.1026C122.197 64.1026 123.117 63.1824 123.117 62.0473C123.117 60.9121 122.197 59.9919 121.062 59.9919C119.927 59.9919 119.007 60.9121 119.007 62.0473C119.007 63.1824 119.927 64.1026 121.062 64.1026Z" fill="black" fill-opacity="0.21"/>
<path d="M150.814 64.1026C151.949 64.1026 152.869 63.1824 152.869 62.0473C152.869 60.9121 151.949 59.9919 150.814 59.9919C149.679 59.9919 148.759 60.9121 148.759 62.0473C148.759 63.1824 149.679 64.1026 150.814 64.1026Z" fill="black" fill-opacity="0.21"/>
<path d="M182.621 62.0473C182.621 63.176 181.694 64.1026 180.566 64.1026C179.437 64.1026 178.51 63.176 178.51 62.0473C178.51 60.9185 179.437 59.9919 180.566 59.9919C181.711 59.9919 182.621 60.9185 182.621 62.0473Z" fill="black" fill-opacity="0.21"/>
<path d="M210.318 64.1026C211.453 64.1026 212.373 63.1824 212.373 62.0473C212.373 60.9121 211.453 59.9919 210.318 59.9919C209.182 59.9919 208.262 60.9121 208.262 62.0473C208.262 63.1824 209.182 64.1026 210.318 64.1026Z" fill="black" fill-opacity="0.21"/>
<path d="M240.069 64.1026C241.204 64.1026 242.124 63.1824 242.124 62.0473C242.124 60.9121 241.204 59.9919 240.069 59.9919C238.934 59.9919 238.014 60.9121 238.014 62.0473C238.014 63.1824 238.934 64.1026 240.069 64.1026Z" fill="black" fill-opacity="0.21"/>
<path d="M2.05533 84.0999C3.19045 84.0999 4.11065 83.1797 4.11065 82.0446C4.11065 80.9095 3.19045 79.9893 2.05533 79.9893C0.920201 79.9893 0 80.9095 0 82.0446C0 83.1797 0.920201 84.0999 2.05533 84.0999Z" fill="black" fill-opacity="0.21"/>
<path d="M31.8073 84.0999C32.9424 84.0999 33.8626 83.1797 33.8626 82.0446C33.8626 80.9095 32.9424 79.9893 31.8073 79.9893C30.6722 79.9893 29.752 80.9095 29.752 82.0446C29.752 83.1797 30.6722 84.0999 31.8073 84.0999Z" fill="black" fill-opacity="0.21"/>
<path d="M61.5587 84.0999C62.6939 84.0999 63.6141 83.1797 63.6141 82.0446C63.6141 80.9095 62.6939 79.9893 61.5587 79.9893C60.4236 79.9893 59.5034 80.9095 59.5034 82.0446C59.5034 83.1797 60.4236 84.0999 61.5587 84.0999Z" fill="black" fill-opacity="0.21"/>
<path d="M91.3102 84.0999C92.4453 84.0999 93.3655 83.1797 93.3655 82.0446C93.3655 80.9095 92.4453 79.9893 91.3102 79.9893C90.1751 79.9893 89.2549 80.9095 89.2549 82.0446C89.2549 83.1797 90.1751 84.0999 91.3102 84.0999Z" fill="black" fill-opacity="0.21"/>
<path d="M121.062 84.0999C122.197 84.0999 123.117 83.1797 123.117 82.0446C123.117 80.9095 122.197 79.9893 121.062 79.9893C119.927 79.9893 119.007 80.9095 119.007 82.0446C119.007 83.1797 119.927 84.0999 121.062 84.0999Z" fill="black" fill-opacity="0.21"/>
<path d="M150.814 84.0999C151.949 84.0999 152.869 83.1797 152.869 82.0446C152.869 80.9095 151.949 79.9893 150.814 79.9893C149.679 79.9893 148.759 80.9095 148.759 82.0446C148.759 83.1797 149.679 84.0999 150.814 84.0999Z" fill="black" fill-opacity="0.21"/>
<path d="M182.621 82.0446C182.621 83.1733 181.694 84.0999 180.566 84.0999C179.437 84.0999 178.51 83.1733 178.51 82.0446C178.51 80.9158 179.437 79.9893 180.566 79.9893C181.711 79.9893 182.621 80.9158 182.621 82.0446Z" fill="black" fill-opacity="0.21"/>
<path d="M210.318 84.0999C211.453 84.0999 212.373 83.1797 212.373 82.0446C212.373 80.9095 211.453 79.9893 210.318 79.9893C209.182 79.9893 208.262 80.9095 208.262 82.0446C208.262 83.1797 209.182 84.0999 210.318 84.0999Z" fill="black" fill-opacity="0.21"/>
<path d="M240.069 84.0999C241.204 84.0999 242.124 83.1797 242.124 82.0446C242.124 80.9095 241.204 79.9893 240.069 79.9893C238.934 79.9893 238.014 80.9095 238.014 82.0446C238.014 83.1797 238.934 84.0999 240.069 84.0999Z" fill="black" fill-opacity="0.21"/>
</svg>
