<svg width="20" height="20" viewBox="0 0 20 20" fill="none" xmlns="http://www.w3.org/2000/svg">
<path d="M13.75 2.5H6.25C4.17893 2.5 2.5 4.17893 2.5 6.25V13.75C2.5 15.8211 4.17893 17.5 6.25 17.5H13.75C15.8211 17.5 17.5 15.8211 17.5 13.75V6.25C17.5 4.17893 15.8211 2.5 13.75 2.5Z" stroke="#F9FAFB" stroke-width="2" stroke-linecap="round" stroke-linejoin="round"/>
<path d="M12.9988 9.5287C13.0914 10.1529 12.9847 10.7904 12.6941 11.3505C12.4035 11.9106 11.9437 12.3648 11.38 12.6485C10.8164 12.9322 10.1776 13.0309 9.55464 12.9307C8.93165 12.8304 8.35612 12.5363 7.90993 12.0901C7.46374 11.6439 7.1696 11.0684 7.06935 10.4454C6.96911 9.82237 7.06785 9.18362 7.35155 8.61998C7.63524 8.05634 8.08944 7.59651 8.64954 7.30588C9.20964 7.01526 9.84712 6.90864 10.4713 7.0012C11.108 7.09562 11.6974 7.3923 12.1526 7.84743C12.6077 8.30257 12.9044 8.89201 12.9988 9.5287Z" stroke="#F9FAFB" stroke-width="2" stroke-linecap="round" stroke-linejoin="round"/>
<ellipse cx="14.125" cy="5.875" rx="1.125" ry="1.125" fill="#F9FAFB"/>
</svg>
