<svg width="50" height="50" viewBox="0 0 50 50" fill="none" xmlns="http://www.w3.org/2000/svg">
<path d="M25 50C38.8071 50 50 38.8071 50 25C50 11.1929 38.8071 0 25 0C11.1929 0 0 11.1929 0 25C0 38.8071 11.1929 50 25 50Z" fill="white"/>
<g clip-path="url(#clip0_326_3)">
<path d="M28.75 17.5H21.25C19.1789 17.5 17.5 19.1789 17.5 21.25V28.75C17.5 30.8211 19.1789 32.5 21.25 32.5H28.75C30.8211 32.5 32.5 30.8211 32.5 28.75V21.25C32.5 19.1789 30.8211 17.5 28.75 17.5Z" stroke="#212936" stroke-width="2" stroke-linecap="round" stroke-linejoin="round"/>
<path d="M27.9988 24.5287C28.0914 25.1529 27.9847 25.7904 27.6941 26.3505C27.4035 26.9106 26.9437 27.3648 26.38 27.6485C25.8164 27.9322 25.1776 28.0309 24.5546 27.9307C23.9316 27.8304 23.3561 27.5363 22.9099 27.0901C22.4637 26.6439 22.1696 26.0684 22.0694 25.4454C21.9691 24.8224 22.0679 24.1836 22.3515 23.62C22.6352 23.0563 23.0894 22.5965 23.6495 22.3059C24.2096 22.0153 24.8471 21.9086 25.4713 22.0012C26.108 22.0956 26.6974 22.3923 27.1526 22.8474C27.6077 23.3026 27.9044 23.892 27.9988 24.5287Z" stroke="#212936" stroke-width="2" stroke-linecap="round" stroke-linejoin="round"/>
<ellipse cx="29.125" cy="20.875" rx="1.125" ry="1.125" fill="#212936"/>
</g>
<defs>
<clipPath id="clip0_326_3">
<rect width="18" height="18" fill="white" transform="translate(16 16)"/>
</clipPath>
</defs>
</svg>
