<svg width="194" height="41" viewBox="0 0 194 41" fill="none" xmlns="http://www.w3.org/2000/svg">
<g clip-path="url(#clip0_32481_311558)">
<path d="M48.6551 12.7966C48.655 14.9698 47.966 17.0691 46.7162 18.7043C45.4664 20.3395 43.7408 21.3993 41.8601 21.6868C43.0267 21.4645 44.0865 20.7754 44.8511 19.742C45.6157 18.7087 46.0354 17.3981 46.0355 16.0436C46.0353 14.5263 45.5091 13.0713 44.5726 11.9982C43.6361 10.9251 42.3659 10.3219 41.0412 10.3212H32.2894V3.82905H40.8251C42.9016 3.82905 44.8931 4.77381 46.3614 6.45552C47.8298 8.13723 48.6549 10.4181 48.6551 12.7966ZM28.7429 7.0345L32.2886 13.5131V0.555908L28.7429 7.0345Z" fill="#FF9900"/>
<path d="M20.4076 31.2461L16.9118 24.9165L16.8662 4.62589C16.8678 4.04296 17.0711 3.48452 17.4316 3.07305C17.7921 2.66158 18.2804 2.43065 18.7893 2.43091H24.4877C24.8866 2.43092 25.2787 2.54986 25.6253 2.77602C25.972 3.00219 26.2613 3.3278 26.4648 3.72083L31.9715 14.3631C32.1771 14.7615 32.2864 15.2154 32.2881 15.6782V35.6158H29.9606C29.6382 35.6158 29.329 35.4691 29.101 35.208C28.873 34.9468 28.745 34.5927 28.745 34.2234V16.2477C28.7452 16.0364 28.6934 15.8293 28.5955 15.6501L23.4966 6.3461H21.1954C20.7594 6.3461 20.406 6.69955 20.406 7.13553L20.4076 31.2461Z" fill="url(#paint0_linear_32481_311558)"/>
<path opacity="0.1" d="M16.9118 24.9165L18.6587 28.0908L18.657 5.55533C18.657 5.55533 18.657 5.13014 19.0175 4.74247C19.3113 4.4265 19.5605 4.41892 19.9721 4.41892C21.4017 4.41892 23.9486 4.4708 24.5094 4.32403C25.8148 3.98241 24.0496 2.43091 24.0496 2.43091H18.7893C18.2804 2.43065 17.7921 2.66158 17.4316 3.07305C17.0711 3.48452 16.8678 4.04296 16.8662 4.62589L16.9118 24.9165Z" fill="white"/>
<path d="M20.156 2.4209L24.4751 2.4209C24.8741 2.42091 25.2662 2.53985 25.6128 2.76601C25.9595 2.99218 26.2488 3.31779 26.4523 3.71082L31.959 14.3531C32.1646 14.7515 32.2739 15.2054 32.2756 15.6682V35.6058H29.9481C29.6257 35.6058 29.3165 35.4591 29.0885 35.198C28.8605 34.9368 28.7325 34.5827 28.7325 34.2134V16.2377C28.7327 16.0264 28.6809 15.8193 28.583 15.6401C28.583 15.6401 24.7818 8.59824 23.4857 6.33996C22.8575 5.24529 22.3866 4.43112 21.7348 3.42944C21.6207 3.25413 21.5003 3.09548 21.2771 2.90416C21.1179 2.76773 20.8907 2.64688 20.7189 2.58138C20.3585 2.44402 20.156 2.4209 20.156 2.4209Z" fill="#FF8C01"/>
<path d="M20.156 2.4209L22.8365 2.4209C23.2354 2.42091 23.6275 2.53985 23.9741 2.76601C24.3208 2.99218 24.6101 3.31779 24.8136 3.71082L30.3203 14.3531C30.5259 14.7515 30.6352 15.2054 30.6369 15.6682V35.6058H29.9481C29.6257 35.6058 29.3165 35.4591 29.0885 35.198C28.8605 34.9368 28.7325 34.5827 28.7325 34.2134V16.2377C28.7327 16.0264 28.6809 15.8193 28.583 15.6401C28.583 15.6401 24.7818 8.59824 23.4858 6.33996C22.8575 5.24529 22.3866 4.43112 21.7348 3.42944C21.6207 3.25413 21.5003 3.09548 21.2771 2.90416C21.1179 2.76773 20.8907 2.64688 20.7189 2.58138C20.3585 2.44402 20.156 2.4209 20.156 2.4209Z" fill="#FF9900"/>
<path fill-rule="evenodd" clip-rule="evenodd" d="M43.8212 11.7713C43.3745 11.1128 42.7492 10.6434 42.0439 10.437C43.1721 10.702 44.1857 11.4052 44.9133 12.4277C45.6409 13.4502 46.0379 14.7291 46.0369 16.0482C46.0367 17.5658 45.5103 19.021 44.5734 20.094C43.6365 21.1669 42.3658 21.7697 41.041 21.7697H32.2858V17.8265H41.2343C42.1032 17.8265 42.9366 17.4311 43.551 16.7273C44.1654 16.0235 44.5106 15.069 44.5106 14.0737C44.5104 13.2399 44.2678 12.4298 43.8212 11.7713ZM16.5598 17.8284H28.7467V21.7678H16.5598V17.8284Z" fill="url(#paint1_linear_32481_311558)"/>
<path d="M7.09784 29.1619C6.39248 28.9555 5.76717 28.486 5.32052 27.8276C4.87387 27.1691 4.63131 26.359 4.63108 25.5252C4.63108 24.5299 4.97627 23.5753 5.5907 22.8716C6.20514 22.1678 7.03849 21.7724 7.90743 21.7724L16.856 21.7724L16.856 17.8292L8.10075 17.8292C6.77588 17.8292 5.50526 18.4319 4.56836 19.5049C3.63145 20.5778 3.105 22.0331 3.10477 23.5506C3.10387 24.8697 3.50079 26.1487 4.22841 27.1712C4.95603 28.1937 5.96966 28.8969 7.09784 29.1619Z" fill="url(#paint2_linear_32481_311558)"/>
<path opacity="0.1" d="M28.7466 19.8113H16.9055V21.7795H28.7466V19.8113Z" fill="white"/>
<path opacity="0.1" d="M43.9083 11.6111C43.3163 11.019 42.7389 10.6436 42.0335 10.4373C43.1617 10.7022 44.1753 11.4054 44.9029 12.4279C45.6306 13.4504 46.0275 14.7294 46.0266 16.0485C46.0264 17.566 45.4999 19.0213 44.563 20.0942C43.6261 21.1672 42.3555 21.7699 41.0306 21.7699H32.2754V19.8008H41.2239C43.6123 19.7124 45.1911 17.9435 45.1911 15.2619C45.1911 12.8966 44.4017 12.2031 43.9083 11.6111Z" fill="white"/>
<path d="M5.23327 27.9878C5.82529 28.5799 6.40273 28.9552 7.10809 29.1616C5.97992 28.8966 4.96629 28.1934 4.23867 27.171C3.51105 26.1485 3.11412 24.8695 3.11503 23.5504C3.11525 22.0329 3.64171 20.5776 4.57861 19.5046C5.51552 18.4317 6.78613 17.8289 8.111 17.8289L16.8662 17.8289L16.8662 19.7981L7.91768 19.7981C5.52928 19.8865 3.95054 21.6553 3.95054 24.337C3.95054 26.7023 4.73991 27.3958 5.23327 27.9878Z" fill="url(#paint3_linear_32481_311558)"/>
<path d="M48.6548 12.7966C48.6547 14.9698 47.9658 17.0691 46.716 18.7043C45.4662 20.3395 43.7406 21.3993 41.8599 21.6868C43.0264 21.4645 44.0863 20.7754 44.8508 19.742C45.6154 18.7087 46.0351 17.3981 46.0353 16.0436C46.0351 14.5263 45.5089 13.0713 44.5723 11.9982C43.6358 10.9251 42.3657 10.3219 41.041 10.3212H32.2892V3.82905H40.8249C42.9014 3.82905 44.8928 4.77381 46.3612 6.45552C47.8296 8.13723 48.6546 10.4181 48.6548 12.7966ZM28.7427 7.0345L32.2883 13.5131V0.555908L28.7427 7.0345Z" fill="#FF9900"/>
<path d="M0.526311 26.7947C0.52641 24.6215 1.21539 22.5222 2.46518 20.887C3.71498 19.2518 5.44059 18.192 7.32128 17.9046C6.15475 18.1268 5.09489 18.816 4.33031 19.8493C3.56573 20.8826 3.14602 22.1932 3.14587 23.5477C3.14609 25.065 3.67229 26.5201 4.6088 27.5931C5.54532 28.6662 6.8155 29.2694 8.14016 29.2701L16.892 29.2701L16.892 35.7623L8.35627 35.7623C6.27978 35.7623 4.28833 34.8175 2.81995 33.1358C1.35157 31.4541 0.526534 29.1732 0.526311 26.7947ZM20.4385 32.5568L16.8928 26.0782L16.8928 39.0354L20.4385 32.5568Z" fill="#FF9900"/>
<path d="M41.0197 7.03458L32.2679 7.03458L28.7231 7.03458L32.2687 0.55599L32.2679 3.82913L40.8036 3.82913C42.8799 3.82938 44.871 4.77409 46.3394 6.45554C47.8077 8.13699 48.6329 10.4175 48.6335 12.7957C48.6347 14.9699 47.9462 17.0706 46.6963 18.707C49.3126 9.62847 43.0202 7.03458 41.0197 7.03458Z" fill="#FF8C01"/>
<path d="M8.16121 32.557L16.913 32.557L20.4578 32.557L16.9122 39.0356L16.913 35.7624L8.37733 35.7624C6.30105 35.7622 4.30986 34.8175 2.84155 33.136C1.37325 31.4546 0.548036 29.174 0.547363 26.7959C0.546237 24.6216 1.23466 22.5209 2.48457 20.8845C-0.131688 29.9631 6.16068 32.557 8.16121 32.557Z" fill="#FF8C01"/>
<path opacity="0.1" d="M7.1474 29.1746C6.44204 28.9682 5.81673 28.4987 5.37008 27.8403C4.92343 27.1818 4.68087 26.3717 4.68064 25.5378C4.68064 24.5426 5.02583 23.588 5.64026 22.8843C6.2547 22.1805 7.08805 21.7851 7.95699 21.7851L16.9055 21.7851L16.9055 17.8419L8.15031 17.8419C6.82544 17.8419 5.55482 18.4446 4.61792 19.5176C3.68101 20.5905 3.15455 22.0458 3.15433 23.5633C3.15343 24.8824 3.55035 26.1614 4.27797 27.1839C5.00559 28.2064 6.01922 28.9096 7.1474 29.1746Z" fill="white"/>
<path d="M5.28287 28.0008C5.8749 28.5928 6.45233 28.9682 7.15769 29.1746C6.02952 28.9096 5.01589 28.2064 4.28827 27.1839C3.56065 26.1614 3.16372 24.8824 3.16463 23.5633C3.16485 22.0458 3.69131 20.5905 4.62821 19.5176C5.56512 18.4446 6.83574 17.8419 8.16061 17.8419L18.2539 17.8419L18.2539 19.811L7.96728 19.811C5.57888 19.8994 4.00014 21.6683 4.00014 24.3499C4.00014 26.7152 4.78951 27.4087 5.28287 28.0008Z" fill="url(#paint4_linear_32481_311558)"/>
</g>
<path d="M59.0662 29.1745C59.0662 29.3978 59.1068 29.5501 59.188 29.6313C59.2895 29.6922 59.4824 29.7531 59.7666 29.814L60.863 30.0577V30.6667H56.2339V30.0577L57.3607 29.814C57.6653 29.7531 57.8581 29.6821 57.9394 29.6008C58.0409 29.5196 58.0916 29.3674 58.0916 29.144V10.8714C58.0916 10.648 58.0409 10.4958 57.9394 10.4146C57.8581 10.3333 57.6653 10.2623 57.3607 10.2014L56.2339 9.95774V9.34865H64.0302L70.3039 22.9009L75.9075 9.34865H83.9474V9.95774L82.8206 10.2014C82.5161 10.2623 82.313 10.3333 82.2115 10.4146C82.1303 10.4958 82.0897 10.648 82.0897 10.8714V29.144C82.0897 29.3674 82.1303 29.5196 82.2115 29.6008C82.313 29.6821 82.5161 29.7531 82.8206 29.814L83.9474 30.0577V30.6667H74.0802V30.0577L75.1766 29.814C75.4608 29.7531 75.6435 29.6922 75.7247 29.6313C75.8263 29.5501 75.877 29.3978 75.877 29.1745V11.9373L68.1416 30.6667H67.228L59.0662 12.7291V29.1745ZM89.9951 22.8704C90.0154 25.124 90.3707 26.8396 91.061 28.0172C91.7716 29.1948 93.0913 29.7836 95.0201 29.7836C95.9743 29.7836 96.8169 29.6414 97.5478 29.3572C98.299 29.073 99.0705 28.6669 99.8623 28.139L100.258 28.7177C98.3701 30.2607 95.8728 31.0322 92.7664 31.0322C89.9646 31.0322 87.7516 30.3622 86.1274 29.0222C84.5234 27.6619 83.7215 25.6824 83.7215 23.0836C83.7215 20.6269 84.5438 18.7489 86.1883 17.4495C87.8328 16.1501 90.1372 15.5004 93.1014 15.5004C94.7866 15.5004 96.2078 15.7644 97.3651 16.2923C98.5223 16.8201 99.3751 17.5307 99.9232 18.4241C100.492 19.2971 100.776 20.2716 100.776 21.3477C100.776 21.8959 100.725 22.4034 100.624 22.8704H89.9951ZM92.9187 16.2314C91.8021 16.2314 91.0407 16.6983 90.6346 17.6323C90.2286 18.5662 90.0154 20.0483 89.9951 22.0786H95.1114V19.7945C95.1114 18.556 94.9592 17.6526 94.6546 17.0841C94.3704 16.5156 93.7917 16.2314 92.9187 16.2314ZM100.376 16.6577V15.8659C101.005 15.8659 101.472 15.8151 101.777 15.7136C102.082 15.6121 102.386 15.4294 102.691 15.1654L108.112 10.2927H108.386V15.8659H112.314V16.6577H108.386V26.8904C108.386 27.8649 108.497 28.5552 108.721 28.9613C108.964 29.3471 109.37 29.5399 109.939 29.5399C110.385 29.5399 110.781 29.4486 111.126 29.2658C111.472 29.0831 111.847 28.7684 112.253 28.3218L112.741 28.9004C111.461 30.3216 109.573 31.0322 107.076 31.0322C105.391 31.0322 104.183 30.6769 103.452 29.9663C102.721 29.2557 102.356 28.1492 102.356 26.6468V16.6577H100.376ZM123.49 30.6667C122.921 30.6667 122.515 30.5551 122.271 30.3317C122.048 30.0881 121.936 29.6922 121.936 29.144V28.9918C120.576 30.3114 118.637 30.9713 116.12 30.9713C114.8 30.9713 113.765 30.6769 113.013 30.0881C112.282 29.479 111.917 28.5451 111.917 27.2863C111.917 26.0275 112.282 25.0428 113.013 24.3322C113.765 23.6216 114.851 23.1141 116.272 22.8095C117.693 22.505 119.581 22.3222 121.936 22.2613V20.0382C121.936 18.9012 121.713 18.0891 121.266 17.6018C120.82 17.0942 120.038 16.8404 118.921 16.8404C117.988 16.8404 117.115 16.9724 116.302 17.2363C115.511 17.48 114.698 17.8556 113.866 18.3632L113.47 17.7845C114.445 17.0942 115.612 16.546 116.972 16.14C118.353 15.7136 119.896 15.5004 121.601 15.5004C123.896 15.5004 125.53 15.9573 126.505 16.8709C127.479 17.7642 127.966 19.0636 127.966 20.7691V29.2049C127.966 29.4283 128.007 29.5805 128.088 29.6618C128.19 29.743 128.393 29.814 128.697 29.8749L129.763 30.1186V30.6667H123.49ZM119.531 29.0527C120.404 29.0527 121.206 28.7075 121.936 28.0172V23.0836C120.8 23.1648 119.937 23.3475 119.348 23.6318C118.759 23.8957 118.353 24.2815 118.13 24.789C117.927 25.2966 117.825 25.9869 117.825 26.8599C117.825 27.6315 117.957 28.1898 118.221 28.5349C118.505 28.8801 118.942 29.0527 119.531 29.0527Z" fill="#4A4A4A"/>
<path d="M129.74 29.814C130.044 29.7531 130.237 29.6821 130.318 29.6008C130.42 29.5196 130.47 29.3674 130.47 29.144V10.8714C130.47 10.648 130.42 10.4958 130.318 10.4146C130.237 10.3333 130.044 10.2623 129.74 10.2014L128.613 9.95774V9.34865H137.932C142.195 9.34865 145.444 10.1506 147.677 11.7546C149.911 13.3585 151.027 16.1095 151.027 20.0077C151.027 23.9059 149.911 26.6569 147.677 28.2608C145.444 29.8648 142.195 30.6667 137.932 30.6667H128.613V30.0577L129.74 29.814ZM136.683 29.7531H137.932C139.617 29.7531 140.916 29.4587 141.83 28.8699C142.744 28.2608 143.383 27.266 143.749 25.8854C144.114 24.5048 144.297 22.5456 144.297 20.0077C144.297 17.4698 144.114 15.5106 143.749 14.13C143.383 12.7494 142.744 11.7647 141.83 11.1759C140.916 10.5668 139.617 10.2623 137.932 10.2623H136.683V29.7531ZM162.997 30.0577L164.306 29.9358C164.59 29.8952 164.732 29.7836 164.732 29.6008C164.732 29.4993 164.702 29.3775 164.641 29.2354L162.631 24.789H155.566L153.738 29.2354C153.678 29.3775 153.647 29.4993 153.647 29.6008C153.647 29.7836 153.789 29.8952 154.073 29.9358L155.383 30.0577V30.6667H150.754V30.0577L151.881 29.9358C152.124 29.9155 152.297 29.8546 152.398 29.7531C152.5 29.6516 152.612 29.4689 152.733 29.2049L161.169 9.01365H162.144L171.067 29.2049C171.189 29.4689 171.3 29.6516 171.402 29.7531C171.504 29.8546 171.676 29.9155 171.92 29.9358L173.047 30.0577V30.6667H162.997V30.0577ZM162.235 23.8754L158.946 16.5968L155.931 23.8754H162.235ZM192.118 15.7745C192.118 17.4191 191.723 18.7083 190.931 19.6422C190.159 20.5559 188.951 21.2157 187.307 21.6218C185.662 22.0075 183.459 22.2004 180.698 22.2004H179.906V29.1136C179.906 29.3369 179.947 29.4892 180.028 29.5704C180.13 29.6516 180.333 29.7227 180.637 29.7836L181.947 30.0577V30.6667H171.836V30.0577L172.963 29.814C173.267 29.7531 173.46 29.6821 173.541 29.6008C173.643 29.5196 173.694 29.3674 173.694 29.144V10.8714C173.694 10.648 173.643 10.4958 173.541 10.4146C173.46 10.3333 173.267 10.2623 172.963 10.2014L171.836 9.95774V9.34865H180.698C183.459 9.34865 185.662 9.55168 187.307 9.95774C188.951 10.3435 190.159 11.0033 190.931 11.9373C191.723 12.8509 192.118 14.13 192.118 15.7745ZM179.906 21.2868H180.972C182.17 21.2868 183.104 21.1041 183.774 20.7386C184.464 20.3732 184.962 19.7945 185.266 19.0027C185.571 18.2109 185.723 17.1348 185.723 15.7745C185.723 14.4142 185.571 13.3382 185.266 12.5464C184.962 11.7546 184.464 11.1759 183.774 10.8105C183.104 10.445 182.17 10.2623 180.972 10.2623H179.906V21.2868Z" fill="#FF8C01"/>
<defs>
<linearGradient id="paint0_linear_32481_311558" x1="22.8713" y1="2.49007" x2="8.44348" y2="10.1922" gradientUnits="userSpaceOnUse">
<stop offset="0.0220136" stop-color="#3C3B3B"/>
<stop offset="0.370212" stop-color="#5E5D5D"/>
<stop offset="0.976214" stop-color="#5E5D5D"/>
</linearGradient>
<linearGradient id="paint1_linear_32481_311558" x1="47.1256" y1="12.4109" x2="17.4001" y2="19.1412" gradientUnits="userSpaceOnUse">
<stop offset="0.0748513" stop-color="#3C3B3B"/>
<stop offset="0.370212" stop-color="#5E5D5D"/>
<stop offset="1" stop-color="#5E5D5D"/>
</linearGradient>
<linearGradient id="paint2_linear_32481_311558" x1="2.59691" y1="27.188" x2="17.014" y2="25.6652" gradientUnits="userSpaceOnUse">
<stop offset="0.0748513" stop-color="#3C3B3B"/>
<stop offset="0.370212" stop-color="#5E5D5D"/>
<stop offset="1" stop-color="#5E5D5D"/>
</linearGradient>
<linearGradient id="paint3_linear_32481_311558" x1="2.60716" y1="27.1877" x2="17.0243" y2="25.665" gradientUnits="userSpaceOnUse">
<stop offset="0.0748513" stop-color="#3C3B3B"/>
<stop offset="0.370212" stop-color="#5E5D5D"/>
<stop offset="1" stop-color="#5E5D5D"/>
</linearGradient>
<linearGradient id="paint4_linear_32481_311558" x1="2.60735" y1="27.2007" x2="18.3918" y2="25.3712" gradientUnits="userSpaceOnUse">
<stop offset="0.0748513" stop-color="#3C3B3B"/>
<stop offset="0.370212" stop-color="#5E5D5D"/>
<stop offset="1" stop-color="#5E5D5D"/>
</linearGradient>
<clipPath id="clip0_32481_311558">
<rect width="48.9169" height="40.0229" fill="white"/>
</clipPath>
</defs>
</svg>
