<svg width="120" height="25" viewBox="0 0 120 25" fill="none" xmlns="http://www.w3.org/2000/svg">
<g clip-path="url(#clip0_32928_295901)">
<path d="M30.0959 7.91554C30.0958 9.25982 29.6696 10.5584 28.8966 11.5698C28.1235 12.5813 27.0561 13.2368 25.8928 13.4146C26.6144 13.2771 27.2699 12.8509 27.7429 12.2117C28.2158 11.5725 28.4754 10.7619 28.4755 9.92402C28.4754 8.9855 28.1499 8.08544 27.5706 7.4217C26.9913 6.75796 26.2056 6.38484 25.3863 6.38437H19.9728V2.36862H25.2526C26.537 2.36862 27.7688 2.953 28.6771 3.99324C29.5854 5.03347 30.0957 6.44435 30.0959 7.91554ZM17.7791 4.35137L19.9722 8.35875V0.343994L17.7791 4.35137Z" fill="#FF9900"/>
<path d="M12.6232 19.3275L10.4608 15.4123L10.4326 2.86139C10.4336 2.50081 10.5594 2.15538 10.7823 1.90086C11.0053 1.64634 11.3074 1.5035 11.6222 1.50366H15.1469C15.3937 1.50367 15.6362 1.57724 15.8506 1.71714C16.065 1.85703 16.244 2.05844 16.3699 2.30155L19.7761 8.88441C19.9033 9.13082 19.9709 9.41159 19.9719 9.69785V22.0304H18.5322C18.3328 22.0304 18.1416 21.9397 18.0005 21.7781C17.8595 21.6166 17.7803 21.3975 17.7803 21.1691V10.0501C17.7804 9.91943 17.7484 9.79131 17.6879 9.6805L14.5339 3.92543H13.1104C12.8408 3.92543 12.6222 4.14406 12.6222 4.41374L12.6232 19.3275Z" fill="url(#paint0_linear_32928_295901)"/>
<path opacity="0.1" d="M10.4608 15.4122L11.5413 17.3757L11.5403 3.43629C11.5403 3.43629 11.5403 3.17329 11.7633 2.93349C11.9451 2.73805 12.0992 2.73336 12.3538 2.73336C13.2381 2.73336 14.8135 2.76545 15.1604 2.67466C15.9679 2.46336 14.8759 1.50366 14.8759 1.50366H11.6222C11.3074 1.5035 11.0053 1.64634 10.7823 1.90086C10.5594 2.15538 10.4336 2.50081 10.4326 2.86139L10.4608 15.4122Z" fill="white"/>
<path d="M12.4678 1.49756L15.1394 1.49756C15.3862 1.49757 15.6287 1.57114 15.8431 1.71103C16.0575 1.85093 16.2365 2.05233 16.3624 2.29545L19.7686 8.87831C19.8958 9.12472 19.9634 9.40549 19.9644 9.69175V22.0243H18.5247C18.3253 22.0243 18.134 21.9336 17.993 21.772C17.852 21.6105 17.7728 21.3914 17.7728 21.163V10.044C17.7729 9.91332 17.7409 9.78521 17.6804 9.6744C17.6804 9.6744 15.3291 5.3186 14.5274 3.92172C14.1388 3.2446 13.8475 2.741 13.4443 2.1214C13.3738 2.01296 13.2993 1.91483 13.1612 1.79648C13.0627 1.71209 12.9222 1.63734 12.8159 1.59683C12.593 1.51186 12.4678 1.49756 12.4678 1.49756Z" fill="#FF8C01"/>
<path d="M12.4678 1.49756L14.1258 1.49756C14.3726 1.49757 14.6151 1.57114 14.8295 1.71103C15.0439 1.85093 15.2229 2.05233 15.3488 2.29545L18.755 8.87831C18.8822 9.12472 18.9498 9.40549 18.9508 9.69175V22.0243H18.5248C18.3253 22.0243 18.1341 21.9336 17.993 21.772C17.852 21.6105 17.7728 21.3914 17.7728 21.163V10.044C17.773 9.91332 17.7409 9.78521 17.6804 9.6744C17.6804 9.6744 15.3291 5.3186 14.5274 3.92172C14.1388 3.2446 13.8476 2.741 13.4444 2.1214C13.3738 2.01296 13.2993 1.91483 13.1612 1.79648C13.0628 1.71209 12.9222 1.63734 12.8159 1.59683C12.593 1.51186 12.4678 1.49756 12.4678 1.49756Z" fill="#FF9900"/>
<path fill-rule="evenodd" clip-rule="evenodd" d="M27.1059 7.28115C26.8296 6.87384 26.4428 6.58346 26.0065 6.45581C26.7043 6.61972 27.3313 7.05469 27.7814 7.68715C28.2315 8.31961 28.477 9.11073 28.4764 9.92667C28.4763 10.8653 28.1507 11.7655 27.5711 12.4292C26.9916 13.0929 26.2057 13.4657 25.3861 13.4657H19.9706V11.0266H25.5057C26.0432 11.0266 26.5587 10.782 26.9387 10.3467C27.3188 9.91139 27.5323 9.32097 27.5323 8.70532C27.5322 8.18953 27.3822 7.68847 27.1059 7.28115ZM10.2432 11.0278H17.7814V13.4645H10.2432V11.0278Z" fill="url(#paint1_linear_32928_295901)"/>
<path d="M4.39056 18.0383C3.95426 17.9107 3.56747 17.6203 3.29119 17.213C3.01491 16.8057 2.86488 16.3046 2.86474 15.7888C2.86474 15.1732 3.07825 14.5827 3.45832 14.1474C3.83838 13.7121 4.35385 13.4675 4.89134 13.4675L10.4265 13.4675L10.4265 11.0284L5.01092 11.0284C4.19141 11.0284 3.40546 11.4013 2.82594 12.0649C2.24641 12.7286 1.92076 13.6288 1.92062 14.5675C1.92006 15.3834 2.16559 16.1745 2.61566 16.807C3.06573 17.4395 3.69272 17.8744 4.39056 18.0383Z" fill="url(#paint2_linear_32928_295901)"/>
<path opacity="0.1" d="M17.7814 12.2544H10.457V13.4718H17.7814V12.2544Z" fill="white"/>
<path opacity="0.1" d="M27.1597 7.18211C26.7935 6.81591 26.4364 6.58371 26.0001 6.45605C26.6979 6.61996 27.3249 7.05493 27.775 7.68739C28.225 8.31985 28.4706 9.11097 28.47 9.92691C28.4699 10.8656 28.1442 11.7658 27.5647 12.4294C26.9852 13.0931 26.1992 13.466 25.3797 13.466H19.9641V12.2479H25.4993C26.9766 12.1932 27.9532 11.0991 27.9532 9.44037C27.9532 7.97728 27.4649 7.54832 27.1597 7.18211Z" fill="white"/>
<path d="M3.23698 17.3123C3.60318 17.6785 3.96036 17.9107 4.39667 18.0383C3.69883 17.8744 3.07184 17.4395 2.62177 16.807C2.17169 16.1745 1.92617 15.3834 1.92673 14.5675C1.92687 13.6288 2.25251 12.7286 2.83204 12.0649C3.41157 11.4013 4.19752 11.0284 5.01703 11.0284L10.4326 11.0284L10.4326 12.2465L4.89745 12.2465C3.42008 12.3011 2.44354 13.3953 2.44354 15.054C2.44354 16.5171 2.93181 16.9461 3.23698 17.3123Z" fill="url(#paint3_linear_32928_295901)"/>
<path d="M30.0959 7.91554C30.0958 9.25982 29.6696 10.5584 28.8966 11.5698C28.1235 12.5813 27.0561 13.2368 25.8928 13.4146C26.6144 13.2771 27.2699 12.8509 27.7429 12.2117C28.2158 11.5725 28.4754 10.7619 28.4755 9.92402C28.4754 8.9855 28.1499 8.08544 27.5706 7.4217C26.9913 6.75796 26.2056 6.38484 25.3863 6.38437H19.9728V2.36862H25.2526C26.537 2.36862 27.7688 2.953 28.6771 3.99324C29.5854 5.03347 30.0957 6.44435 30.0959 7.91554ZM17.7791 4.35137L19.9722 8.35875V0.343994L17.7791 4.35137Z" fill="#FF9900"/>
<path d="M0.325775 16.574C0.325837 15.2297 0.752008 13.9311 1.52508 12.9197C2.29815 11.9082 3.36553 11.2527 4.52885 11.0749C3.80728 11.2124 3.1517 11.6386 2.67876 12.2778C2.20583 12.917 1.94622 13.7276 1.94612 14.5655C1.94626 15.504 2.27174 16.4041 2.85103 17.0678C3.43032 17.7315 4.216 18.1047 5.03537 18.1051L10.4489 18.1051L10.4489 22.1209L5.16905 22.1209C3.88462 22.1209 2.6528 21.5365 1.74452 20.4963C0.836246 19.456 0.325914 18.0452 0.325775 16.574ZM12.6426 20.1381L10.4494 16.1308L10.4494 24.1455L12.6426 20.1381Z" fill="#FF9900"/>
<path d="M25.3732 4.35122L19.9597 4.35122L17.767 4.35122L19.9602 0.343841L19.9597 2.36846L25.2395 2.36846C26.5238 2.36862 27.7554 2.95298 28.6637 3.99305C29.5719 5.03312 30.0823 6.44375 30.0828 7.91479C30.0835 9.25969 29.6576 10.5591 28.8845 11.5713C30.5028 5.95569 26.6106 4.35122 25.3732 4.35122Z" fill="#FF8C01"/>
<path d="M5.04822 20.1383L10.4617 20.1383L12.6544 20.1383L10.4612 24.1457L10.4617 22.121L5.1819 22.121C3.89761 22.1209 2.66594 21.5365 1.75771 20.4965C0.849478 19.4564 0.339039 18.0458 0.338623 16.5747C0.337926 15.2298 0.763754 13.9304 1.53689 12.9182C-0.0814084 18.5338 3.81078 20.1383 5.04822 20.1383Z" fill="#FF8C01"/>
<path opacity="0.1" d="M4.42108 18.0461C3.98478 17.9185 3.59798 17.6281 3.32171 17.2208C3.04543 16.8135 2.89539 16.3124 2.89525 15.7966C2.89525 15.181 3.10877 14.5906 3.48883 14.1552C3.86889 13.7199 4.38437 13.4753 4.92186 13.4753L10.457 13.4753L10.457 11.0362L5.04144 11.0362C4.22193 11.0362 3.43598 11.4091 2.85645 12.0728C2.27692 12.7364 1.95128 13.6366 1.95114 14.5753C1.95058 15.3912 2.19611 16.1823 2.64618 16.8148C3.09625 17.4473 3.72324 17.8822 4.42108 18.0461Z" fill="white"/>
<path d="M3.26769 17.3201C3.6339 17.6863 3.99107 17.9185 4.42738 18.0461C3.72954 17.8822 3.10255 17.4473 2.65248 16.8148C2.20241 16.1823 1.95688 15.3912 1.95744 14.5753C1.95758 13.6366 2.28322 12.7364 2.86275 12.0728C3.44228 11.4091 4.22823 11.0362 5.04774 11.0362L11.291 11.0362L11.291 12.2543L4.92816 12.2543C3.45079 12.309 2.47425 13.4031 2.47425 15.0618C2.47425 16.5249 2.96252 16.9539 3.26769 17.3201Z" fill="url(#paint4_linear_32928_295901)"/>
</g>
<path d="M36.536 18.0769C36.536 18.2151 36.5611 18.3093 36.6114 18.3595C36.6741 18.3972 36.7935 18.4349 36.9693 18.4725L37.6474 18.6232V19H34.7841V18.6232L35.4811 18.4725C35.6695 18.4349 35.7888 18.3909 35.839 18.3407C35.9018 18.2904 35.9332 18.1963 35.9332 18.0581V6.75544C35.9332 6.6173 35.9018 6.52311 35.839 6.47287C35.7888 6.42264 35.6695 6.37868 35.4811 6.34101L34.7841 6.19031V5.81355H39.6066L43.4871 14.1964L46.9533 5.81355H51.9265V6.19031L51.2295 6.34101C51.0411 6.37868 50.9155 6.42264 50.8527 6.47287C50.8025 6.52311 50.7774 6.6173 50.7774 6.75544V18.0581C50.7774 18.1963 50.8025 18.2904 50.8527 18.3407C50.9155 18.3909 51.0411 18.4349 51.2295 18.4725L51.9265 18.6232V19H45.823V18.6232L46.5012 18.4725C46.677 18.4349 46.79 18.3972 46.8403 18.3595C46.9031 18.3093 46.9345 18.2151 46.9345 18.0769V7.41476L42.1497 19H41.5845L36.536 7.90454V18.0769ZM55.6673 14.1775C55.6799 15.5715 55.8996 16.6327 56.3266 17.3611C56.7662 18.0895 57.5825 18.4537 58.7755 18.4537C59.3658 18.4537 59.887 18.3658 60.3391 18.19C60.8037 18.0142 61.281 17.763 61.7707 17.4365L62.0156 17.7944C60.8477 18.7488 59.303 19.2261 57.3815 19.2261C55.6485 19.2261 54.2796 18.8116 53.2749 17.9828C52.2828 17.1413 51.7867 15.9169 51.7867 14.3094C51.7867 12.7898 52.2953 11.6281 53.3126 10.8244C54.3298 10.0207 55.7552 9.61878 57.5887 9.61878C58.6311 9.61878 59.5102 9.78204 60.226 10.1086C60.9419 10.4351 61.4693 10.8746 61.8084 11.4272C62.1601 11.9672 62.3359 12.57 62.3359 13.2356C62.3359 13.5747 62.3045 13.8887 62.2417 14.1775H55.6673ZM57.4757 10.0709C56.785 10.0709 56.3141 10.3597 56.0629 10.9374C55.8117 11.5151 55.6799 12.4319 55.6673 13.6877H58.832V12.2749C58.832 11.5088 58.7379 10.95 58.5495 10.5983C58.3737 10.2467 58.0157 10.0709 57.4757 10.0709ZM62.0885 10.3346V9.84484C62.4778 9.84484 62.7667 9.81344 62.9551 9.75065C63.1434 9.68785 63.3318 9.57483 63.5202 9.41157L66.8733 6.39752H67.0429V9.84484H69.4729V10.3346H67.0429V16.6641C67.0429 17.2669 67.1119 17.6939 67.2501 17.9451C67.4008 18.1837 67.652 18.303 68.0036 18.303C68.2799 18.303 68.5248 18.2465 68.7383 18.1335C68.9518 18.0204 69.1841 17.8258 69.4353 17.5495L69.7367 17.9074C68.9455 18.7865 67.7775 19.2261 66.2328 19.2261C65.1905 19.2261 64.4432 19.0063 63.9911 18.5667C63.539 18.1272 63.313 17.4427 63.313 16.5134V10.3346H62.0885ZM76.3856 19C76.0339 19 75.7828 18.9309 75.6321 18.7928C75.4939 18.6421 75.4248 18.3972 75.4248 18.0581V17.9639C74.5834 18.7802 73.3841 19.1884 71.8268 19.1884C71.0105 19.1884 70.37 19.0063 69.9054 18.6421C69.4533 18.2653 69.2272 17.6876 69.2272 16.909C69.2272 16.1304 69.4533 15.5213 69.9054 15.0817C70.37 14.6422 71.0419 14.3282 71.921 14.1399C72.8001 13.9515 73.9681 13.8384 75.4248 13.8008V12.4256C75.4248 11.7223 75.2867 11.22 75.0104 10.9186C74.7341 10.6046 74.2506 10.4476 73.5599 10.4476C72.9822 10.4476 72.4422 10.5293 71.9399 10.6925C71.4501 10.8432 70.9477 11.0756 70.4328 11.3895L70.1879 11.0316C70.7907 10.6046 71.5129 10.2655 72.3543 10.0144C73.2083 9.75065 74.1627 9.61878 75.2176 9.61878C76.6367 9.61878 77.6477 9.90135 78.2505 10.4665C78.8533 11.0191 79.1547 11.8228 79.1547 12.8777V18.0958C79.1547 18.2339 79.1798 18.3281 79.2301 18.3784C79.2929 18.4286 79.4185 18.4725 79.6068 18.5102L80.2662 18.6609V19H76.3856ZM73.9367 18.0016C74.4767 18.0016 74.9727 17.7881 75.4248 17.3611V14.3094C74.7216 14.3596 74.1878 14.4727 73.8236 14.6485C73.4594 14.8117 73.2083 15.0503 73.0701 15.3643C72.9445 15.6783 72.8817 16.1053 72.8817 16.6453C72.8817 17.1225 72.9634 17.4679 73.1266 17.6814C73.3025 17.8948 73.5725 18.0016 73.9367 18.0016Z" fill="#4A4A4A"/>
<path d="M80.2515 18.4725C80.4399 18.4349 80.5592 18.3909 80.6094 18.3407C80.6722 18.2904 80.7036 18.1963 80.7036 18.0581V6.75544C80.7036 6.6173 80.6722 6.52311 80.6094 6.47287C80.5592 6.42264 80.4399 6.37868 80.2515 6.34101L79.5545 6.19031V5.81355H85.3189C87.9561 5.81355 89.9655 6.30961 91.3469 7.30173C92.7284 8.29386 93.4191 9.99554 93.4191 12.4068C93.4191 14.818 92.7284 16.5197 91.3469 17.5118C89.9655 18.5039 87.9561 19 85.3189 19H79.5545V18.6232L80.2515 18.4725ZM84.5465 18.4349H85.3189C86.3612 18.4349 87.165 18.2528 87.7301 17.8886C88.2952 17.5118 88.6908 16.8964 88.9169 16.0425C89.1429 15.1885 89.2559 13.9766 89.2559 12.4068C89.2559 10.837 89.1429 9.62506 88.9169 8.77108C88.6908 7.9171 88.2952 7.30801 87.7301 6.94382C87.165 6.56706 86.3612 6.37868 85.3189 6.37868H84.5465V18.4349ZM100.823 18.6232L101.633 18.5479C101.809 18.5228 101.897 18.4537 101.897 18.3407C101.897 18.2779 101.878 18.2025 101.84 18.1146L100.597 15.3643H96.2264L95.0962 18.1146C95.0585 18.2025 95.0396 18.2779 95.0396 18.3407C95.0396 18.4537 95.1275 18.5228 95.3034 18.5479L96.1134 18.6232V19H93.25V18.6232L93.947 18.5479C94.0977 18.5353 94.2045 18.4977 94.2673 18.4349C94.3301 18.3721 94.3992 18.259 94.4745 18.0958L99.6926 5.60633H100.295L105.815 18.0958C105.89 18.259 105.959 18.3721 106.022 18.4349C106.085 18.4977 106.192 18.5353 106.342 18.5479L107.039 18.6232V19H100.823V18.6232ZM100.352 14.7992L98.3174 10.2969L96.4525 14.7992H100.352ZM118.836 9.78832C118.836 10.8056 118.591 11.603 118.102 12.1807C117.624 12.7459 116.877 13.154 115.86 13.4052C114.843 13.6438 113.48 13.7631 111.772 13.7631H111.282V18.0393C111.282 18.1774 111.308 18.2716 111.358 18.3218C111.421 18.3721 111.546 18.416 111.735 18.4537L112.545 18.6232V19H106.29V18.6232L106.987 18.4725C107.176 18.4349 107.295 18.3909 107.345 18.3407C107.408 18.2904 107.44 18.1963 107.44 18.0581V6.75544C107.44 6.6173 107.408 6.52311 107.345 6.47287C107.295 6.42264 107.176 6.37868 106.987 6.34101L106.29 6.19031V5.81355H111.772C113.48 5.81355 114.843 5.93913 115.86 6.19031C116.877 6.42892 117.624 6.83707 118.102 7.41476C118.591 7.97989 118.836 8.77108 118.836 9.78832ZM111.282 13.198H111.942C112.683 13.198 113.26 13.0849 113.675 12.8589C114.102 12.6328 114.409 12.2749 114.598 11.7851C114.786 11.2953 114.88 10.6297 114.88 9.78832C114.88 8.9469 114.786 8.2813 114.598 7.79152C114.409 7.30173 114.102 6.94382 113.675 6.71776C113.26 6.49171 112.683 6.37868 111.942 6.37868H111.282V13.198Z" fill="#FF8C01"/>
<defs>
<linearGradient id="paint0_linear_32928_295901" x1="14.1471" y1="1.54026" x2="5.22268" y2="6.30445" gradientUnits="userSpaceOnUse">
<stop offset="0.0220136" stop-color="#3C3B3B"/>
<stop offset="0.370212" stop-color="#5E5D5D"/>
<stop offset="0.976214" stop-color="#5E5D5D"/>
</linearGradient>
<linearGradient id="paint1_linear_32928_295901" x1="29.1498" y1="7.67677" x2="10.7629" y2="11.8399" gradientUnits="userSpaceOnUse">
<stop offset="0.0748513" stop-color="#3C3B3B"/>
<stop offset="0.370212" stop-color="#5E5D5D"/>
<stop offset="1" stop-color="#5E5D5D"/>
</linearGradient>
<linearGradient id="paint2_linear_32928_295901" x1="1.60648" y1="16.8174" x2="10.5243" y2="15.8754" gradientUnits="userSpaceOnUse">
<stop offset="0.0748513" stop-color="#3C3B3B"/>
<stop offset="0.370212" stop-color="#5E5D5D"/>
<stop offset="1" stop-color="#5E5D5D"/>
</linearGradient>
<linearGradient id="paint3_linear_32928_295901" x1="1.61258" y1="16.8174" x2="10.5304" y2="15.8754" gradientUnits="userSpaceOnUse">
<stop offset="0.0748513" stop-color="#3C3B3B"/>
<stop offset="0.370212" stop-color="#5E5D5D"/>
<stop offset="1" stop-color="#5E5D5D"/>
</linearGradient>
<linearGradient id="paint4_linear_32928_295901" x1="1.61273" y1="16.8252" x2="11.3763" y2="15.6936" gradientUnits="userSpaceOnUse">
<stop offset="0.0748513" stop-color="#3C3B3B"/>
<stop offset="0.370212" stop-color="#5E5D5D"/>
<stop offset="1" stop-color="#5E5D5D"/>
</linearGradient>
<clipPath id="clip0_32928_295901">
<rect width="30.2579" height="24.7564" fill="white"/>
</clipPath>
</defs>
</svg>
