<svg width="161" height="41" viewBox="0 0 161 41" fill="none" xmlns="http://www.w3.org/2000/svg">
<path d="M50.7028 13.2639C50.7027 15.523 49.9865 17.7052 48.6873 19.405C47.3882 21.1048 45.5944 22.2065 43.6394 22.5053C44.852 22.2742 45.9537 21.5579 46.7485 20.4837C47.5433 19.4096 47.9796 18.0472 47.9798 16.6392C47.9795 15.062 47.4325 13.5494 46.459 12.4339C45.4855 11.3185 44.1651 10.6915 42.7881 10.6907H33.6905V3.94202H42.5635C44.722 3.94202 46.7922 4.92411 48.3186 6.67226C49.845 8.42042 50.7026 10.7915 50.7028 13.2639ZM30.0039 7.27412L33.6896 14.0087V0.539551L30.0039 7.27412Z" fill="#FF9900"/>
<path d="M21.3396 32.4425L17.7056 25.8628L17.6582 4.77048C17.6598 4.16452 17.8712 3.58401 18.2459 3.15628C18.6207 2.72855 19.1282 2.4885 19.6573 2.48877H25.5808C25.9955 2.48879 26.403 2.61242 26.7634 2.84752C27.1237 3.08262 27.4245 3.42109 27.636 3.82966L33.3603 14.8924C33.5741 15.3065 33.6877 15.7784 33.6894 16.2595V36.9848H31.27C30.9348 36.9848 30.6134 36.8323 30.3764 36.5609C30.1394 36.2895 30.0063 35.9213 30.0063 35.5374V16.8515C30.0065 16.6318 29.9527 16.4165 29.851 16.2303L24.5505 6.55866H22.1584C21.7052 6.55866 21.3378 6.92607 21.3379 7.37928L21.3396 32.4425Z" fill="url(#paint0_linear_32157_250184)"/>
<path d="M17.7056 25.8628L19.5215 29.1625L19.5197 5.73664C19.5197 5.73664 19.5197 5.29465 19.8945 4.89166C20.1999 4.56321 20.459 4.55533 20.8868 4.55533C22.3729 4.55533 25.0204 4.60926 25.6034 4.45669C26.9604 4.10158 25.1254 2.48877 25.1254 2.48877H19.6573C19.1282 2.4885 18.6207 2.72855 18.2459 3.15628C17.8712 3.58402 17.6598 4.16452 17.6582 4.77048L17.7056 25.8628Z" fill="#D4D4D4"/>
<path d="M21.0781 2.47852L25.5679 2.47852C25.9826 2.47853 26.3902 2.60217 26.7506 2.83727C27.1109 3.07237 27.4116 3.41084 27.6232 3.8194L33.3475 14.8822C33.5612 15.2963 33.6748 15.7681 33.6766 16.2492V36.9746H31.2571C30.922 36.9746 30.6006 36.8221 30.3636 36.5506C30.1266 36.2792 29.9935 35.9111 29.9935 35.5272V16.8412C29.9937 16.6216 29.9399 16.4063 29.8381 16.2201C29.8381 16.2201 25.8867 8.89994 24.5394 6.55243C23.8864 5.4145 23.3969 4.56817 22.7193 3.52691C22.6007 3.34467 22.4755 3.17975 22.2435 2.98087C22.078 2.83905 21.8419 2.71343 21.6632 2.64534C21.2886 2.50255 21.0781 2.47852 21.0781 2.47852Z" fill="#FF8C01"/>
<path d="M21.0781 2.47852L23.8645 2.47852C24.2792 2.47853 24.6868 2.60217 25.0471 2.83727C25.4075 3.07237 25.7082 3.41084 25.9197 3.8194L31.644 14.8822C31.8578 15.2963 31.9714 15.7681 31.9731 16.2492V36.9746H31.2571C30.922 36.9746 30.6006 36.8221 30.3636 36.5506C30.1266 36.2792 29.9935 35.9111 29.9935 35.5272V16.8412C29.9937 16.6216 29.9399 16.4063 29.8381 16.2201C29.8381 16.2201 25.8867 8.89994 24.5394 6.55243C23.8864 5.4145 23.3969 4.56817 22.7193 3.52691C22.6007 3.34467 22.4755 3.17975 22.2435 2.98087C22.078 2.83905 21.8419 2.71343 21.6632 2.64534C21.2886 2.50255 21.0781 2.47852 21.0781 2.47852Z" fill="#FF9900"/>
<path fill-rule="evenodd" clip-rule="evenodd" d="M45.6784 12.1986C45.2141 11.514 44.5641 11.026 43.8308 10.8115C45.0036 11.087 46.0573 11.818 46.8136 12.8808C47.57 13.9437 47.9826 15.2732 47.9817 16.6445C47.9814 18.2219 47.4342 19.7347 46.4603 20.8501C45.4863 21.9654 44.1655 22.592 42.7883 22.592H33.6763V18.4929H42.9893C43.8925 18.4929 44.7588 18.0819 45.3975 17.3504C46.0362 16.6188 46.3951 15.6265 46.3951 14.5919C46.3948 13.7251 46.1427 12.8831 45.6784 12.1986ZM17.3398 18.495H30.0082V22.59H17.3398V18.495Z" fill="url(#paint1_linear_32157_250184)"/>
<path d="M7.50403 30.2703C6.7708 30.0557 6.12078 29.5677 5.65648 28.8832C5.19219 28.1987 4.94004 27.3567 4.93981 26.4899C4.93981 25.4552 5.29863 24.463 5.93735 23.7314C6.57606 22.9998 7.44233 22.5888 8.34561 22.5888L17.6477 22.5888L17.6477 18.4898L8.54657 18.4898C7.16935 18.4898 5.84853 19.1164 4.8746 20.2317C3.90068 21.3471 3.35342 22.8599 3.35319 24.4373C3.35225 25.8086 3.76486 27.1381 4.52123 28.2009C5.27759 29.2638 6.33128 29.9948 7.50403 30.2703Z" fill="url(#paint2_linear_32157_250184)"/>
<path d="M30.0079 18.49H17.699V20.536H30.0079V18.49Z" fill="#D5D5D5"/>
<path d="M30.0082 20.5359H17.6465V22.5917H30.0082V20.5359Z" fill="#DEDEDE"/>
<path d="M45.7696 12.0317C45.1542 11.4163 44.5539 11.026 43.8207 10.8115C44.9934 11.087 46.0471 11.818 46.8035 12.8808C47.5598 13.9437 47.9725 15.2732 47.9715 16.6445C47.9713 18.2219 47.424 19.7347 46.4501 20.8501C45.4762 21.9654 44.1554 22.592 42.7781 22.592H33.677V20.545H42.9791C45.4619 20.4531 47.103 18.6144 47.103 15.8268C47.103 13.368 46.2824 12.6471 45.7696 12.0317Z" fill="url(#paint3_linear_32157_250184)"/>
<path d="M50.7026 13.2639C50.7025 15.523 49.9863 17.7052 48.6871 19.405C47.3879 21.1048 45.5941 22.2065 43.6391 22.5053C44.8518 22.2742 45.9535 21.5579 46.7483 20.4837C47.5431 19.4096 47.9794 18.0472 47.9795 16.6392C47.9793 15.062 47.4323 13.5494 46.4588 12.4339C45.4853 11.3185 44.1649 10.6915 42.7879 10.6907H33.6903V3.94202H42.5633C44.7218 3.94202 46.7919 4.92411 48.3183 6.67226C49.8447 8.42042 50.7024 10.7915 50.7026 13.2639ZM30.0037 7.27412L33.6894 14.0087V0.539551L30.0037 7.27412Z" fill="#FF9900"/>
<path d="M0.672902 27.8152C0.673007 25.5561 1.38921 23.3739 2.68838 21.6741C3.98756 19.9743 5.78135 18.8726 7.73635 18.5738C6.52372 18.8049 5.42199 19.5212 4.6272 20.5954C3.83242 21.6695 3.39612 23.0319 3.39596 24.4399C3.39619 26.0171 3.94319 27.5297 4.9167 28.6452C5.89022 29.7606 7.21059 30.3876 8.58758 30.3884L17.6852 30.3884L17.6852 37.1371L8.81224 37.1371C6.6537 37.1371 4.58356 36.155 3.05717 34.4068C1.53077 32.6587 0.673135 30.2876 0.672902 27.8152ZM21.3718 33.805L17.6861 27.0704L17.6861 40.5396L21.3718 33.805Z" fill="#FF9900"/>
<path d="M42.766 7.27407L33.6684 7.27407L29.9835 7.27407L33.6692 0.539503L33.6684 3.94197L42.5413 3.94196C44.6996 3.94223 46.7695 4.92427 48.2958 6.67215C49.8221 8.42003 50.68 10.7907 50.6807 13.2628C50.6818 15.523 49.9662 17.7067 48.6669 19.4077C51.3865 9.97045 44.8456 7.27407 42.766 7.27407Z" fill="#FF8C01"/>
<path d="M8.60902 33.805L17.7066 33.805L21.3915 33.805L17.7058 40.5396L17.7066 37.1371L8.83367 37.1371C6.67536 37.1369 4.60549 36.1548 3.07917 34.4069C1.55285 32.6591 0.695035 30.2884 0.694337 27.8163C0.693165 25.5561 1.40879 23.3724 2.70808 21.6714C-0.0115453 31.1087 6.52944 33.805 8.60902 33.805Z" fill="#FF8C01"/>
<path d="M5.61704 29.0501C6.23246 29.6655 6.83272 30.0557 7.56595 30.2703C6.3932 29.9948 5.33951 29.2638 4.58315 28.2009C3.82678 27.1381 3.41417 25.8086 3.41511 24.4373C3.41534 22.8599 3.9626 21.3471 4.93652 20.2317C5.91045 19.1164 7.23127 18.4898 8.60848 18.4898L19.1006 18.4898L19.1006 20.5368L8.40752 20.5368C5.92475 20.6287 4.28363 22.4674 4.28363 25.255C4.28363 27.7138 5.10419 28.4347 5.61704 29.0501Z" fill="url(#paint4_linear_32157_250184)"/>
<path d="M62.7803 27.2522C62.7803 27.4161 62.8101 27.5278 62.8697 27.5873C62.9441 27.632 63.0856 27.6767 63.2941 27.7213L64.0983 27.9001V28.3468H60.7029V27.9001L61.5294 27.7213C61.7528 27.6767 61.8943 27.6245 61.9538 27.565C62.0283 27.5054 62.0655 27.3937 62.0655 27.2299V13.827C62.0655 13.6632 62.0283 13.5515 61.9538 13.4919C61.8943 13.4323 61.7528 13.3802 61.5294 13.3355L60.7029 13.1568V12.7101H66.4215L71.0231 22.6506L75.1334 12.7101H81.0306V13.1568L80.2041 13.3355C79.9808 13.3802 79.8318 13.4323 79.7574 13.4919C79.6978 13.5515 79.668 13.6632 79.668 13.827V27.2299C79.668 27.3937 79.6978 27.5054 79.7574 27.565C79.8318 27.6245 79.9808 27.6767 80.2041 27.7213L81.0306 27.9001V28.3468H73.7931V27.9001L74.5972 27.7213C74.8057 27.6767 74.9398 27.632 74.9993 27.5873C75.0738 27.5278 75.111 27.4161 75.111 27.2522V14.6088L69.4371 28.3468H68.767L62.7803 15.1896V27.2522Z" fill="white"/>
<path d="M85.4666 22.6282C85.4815 24.2813 85.7421 25.5396 86.2484 26.4034C86.7696 27.2671 87.7376 27.699 89.1524 27.699C89.8523 27.699 90.4703 27.5948 91.0065 27.3863C91.5575 27.1778 92.1234 26.8799 92.7042 26.4927L92.9946 26.9172C91.6096 28.049 89.7779 28.6149 87.4994 28.6149C85.4442 28.6149 83.821 28.1234 82.6296 27.1406C81.4531 26.1428 80.8649 24.6908 80.8649 22.7846C80.8649 20.9827 81.468 19.6051 82.6743 18.652C83.8806 17.6989 85.5708 17.2224 87.7451 17.2224C88.9811 17.2224 90.0236 17.416 90.8724 17.8032C91.7213 18.1904 92.3467 18.7116 92.7488 19.3669C93.1658 20.0072 93.3743 20.722 93.3743 21.5113C93.3743 21.9134 93.3371 22.2857 93.2626 22.6282H85.4666ZM87.611 17.7585C86.792 17.7585 86.2335 18.101 85.9357 18.7861C85.6378 19.4711 85.4815 20.5582 85.4666 22.0474H89.2194V20.3721C89.2194 19.4637 89.1077 18.801 88.8843 18.384C88.6758 17.967 88.2514 17.7585 87.611 17.7585Z" fill="white"/>
<path d="M93.081 18.0712V17.4905C93.5427 17.4905 93.8852 17.4532 94.1086 17.3788C94.3319 17.3043 94.5553 17.1703 94.7787 16.9767L98.7549 13.4026H98.9559V17.4905H101.838V18.0712H98.9559V25.5769C98.9559 26.2917 99.0379 26.798 99.2017 27.0959C99.3804 27.3788 99.6782 27.5203 100.095 27.5203C100.423 27.5203 100.713 27.4533 100.966 27.3193C101.22 27.1852 101.495 26.9544 101.793 26.6268L102.15 27.0512C101.212 28.0937 99.8271 28.6149 97.9954 28.6149C96.7594 28.6149 95.8733 28.3543 95.3372 27.833C94.801 27.3118 94.533 26.5002 94.533 25.3982V18.0712H93.081Z" fill="white"/>
<path d="M110.035 28.3468C109.618 28.3468 109.32 28.2649 109.141 28.1011C108.977 27.9224 108.895 27.632 108.895 27.2299V27.1182C107.898 28.0862 106.475 28.5702 104.629 28.5702C103.661 28.5702 102.901 28.3543 102.35 27.9224C101.814 27.4756 101.546 26.7906 101.546 25.8673C101.546 24.944 101.814 24.2217 102.35 23.7005C102.901 23.1792 103.698 22.8069 104.741 22.5836C105.783 22.3602 107.168 22.2261 108.895 22.1815V20.5508C108.895 19.7168 108.732 19.1211 108.404 18.7637C108.076 18.3914 107.503 18.2053 106.684 18.2053C105.999 18.2053 105.359 18.3021 104.763 18.4957C104.182 18.6744 103.586 18.9499 102.976 19.3222L102.685 18.8978C103.4 18.3914 104.257 17.9893 105.254 17.6915C106.267 17.3788 107.399 17.2224 108.65 17.2224C110.333 17.2224 111.531 17.5575 112.246 18.2276C112.961 18.8829 113.318 19.836 113.318 21.0869V27.2746C113.318 27.4384 113.348 27.5501 113.408 27.6097C113.482 27.6692 113.631 27.7213 113.855 27.766L114.636 27.9447V28.3468H110.035ZM107.131 27.1629C107.771 27.1629 108.359 26.9097 108.895 26.4034V22.7846C108.062 22.8442 107.429 22.9782 106.997 23.1867C106.565 23.3803 106.267 23.6632 106.103 24.0355C105.954 24.4078 105.88 24.9142 105.88 25.5545C105.88 26.1204 105.977 26.53 106.17 26.7831C106.379 27.0363 106.699 27.1629 107.131 27.1629Z" fill="white"/>
<path d="M114.619 27.7213C114.842 27.6767 114.984 27.6245 115.043 27.565C115.118 27.5054 115.155 27.3937 115.155 27.2299V13.827C115.155 13.6632 115.118 13.5515 115.043 13.4919C114.984 13.4323 114.842 13.3802 114.619 13.3355L113.792 13.1568V12.7101H120.628C123.755 12.7101 126.138 13.2983 127.776 14.4748C129.414 15.6513 130.233 17.6692 130.233 20.5284C130.233 23.3877 129.414 25.4056 127.776 26.5821C126.138 27.7586 123.755 28.3468 120.628 28.3468H113.792V27.9001L114.619 27.7213ZM119.712 27.6767H120.628C121.864 27.6767 122.817 27.4607 123.487 27.0289C124.157 26.5821 124.626 25.8524 124.895 24.8397C125.163 23.8271 125.297 22.39 125.297 20.5284C125.297 18.6669 125.163 17.2298 124.895 16.2172C124.626 15.2045 124.157 14.4822 123.487 14.0504C122.817 13.6036 121.864 13.3802 120.628 13.3802H119.712V27.6767Z" fill="#FF8C01"/>
<path d="M139.013 27.9001L139.973 27.8107C140.182 27.7809 140.286 27.699 140.286 27.565C140.286 27.4905 140.264 27.4012 140.219 27.2969L138.745 24.0355H133.562L132.222 27.2969C132.177 27.4012 132.155 27.4905 132.155 27.565C132.155 27.699 132.259 27.7809 132.468 27.8107L133.428 27.9001V28.3468H130.033V27.9001L130.859 27.8107C131.038 27.7958 131.165 27.7511 131.239 27.6767C131.314 27.6022 131.396 27.4682 131.485 27.2746L137.673 12.4644H138.387L144.933 27.2746C145.022 27.4682 145.104 27.6022 145.178 27.6767C145.253 27.7511 145.379 27.7958 145.558 27.8107L146.384 27.9001V28.3468H139.013V27.9001ZM138.454 23.3654L136.042 18.0266L133.83 23.3654H138.454Z" fill="#FF8C01"/>
<path d="M160.374 17.4234C160.374 18.6297 160.083 19.5754 159.502 20.2604C158.937 20.9305 158.05 21.4145 156.844 21.7124C155.638 21.9953 154.022 22.1368 151.997 22.1368H151.416V27.2076C151.416 27.3714 151.446 27.4831 151.505 27.5426C151.58 27.6022 151.729 27.6543 151.952 27.699L152.913 27.9001V28.3468H145.496V27.9001L146.323 27.7213C146.546 27.6767 146.688 27.6245 146.747 27.565C146.822 27.5054 146.859 27.3937 146.859 27.2299V13.827C146.859 13.6632 146.822 13.5515 146.747 13.4919C146.688 13.4323 146.546 13.3802 146.323 13.3355L145.496 13.1568V12.7101H151.997C154.022 12.7101 155.638 12.859 156.844 13.1568C158.05 13.4398 158.937 13.9238 159.502 14.6088C160.083 15.279 160.374 16.2172 160.374 17.4234ZM151.416 21.4667H152.198C153.077 21.4667 153.762 21.3326 154.253 21.0646C154.759 20.7965 155.124 20.3721 155.348 19.7913C155.571 19.2105 155.683 18.4212 155.683 17.4234C155.683 16.4257 155.571 15.6364 155.348 15.0556C155.124 14.4748 154.759 14.0504 154.253 13.7823C153.762 13.5143 153.077 13.3802 152.198 13.3802H151.416V21.4667Z" fill="#FF8C01"/>
<defs>
<linearGradient id="paint0_linear_32157_250184" x1="28.7212" y1="1.18803" x2="9.28823" y2="7.70745" gradientUnits="userSpaceOnUse">
<stop offset="0.0748513" stop-color="#797979"/>
<stop offset="0.638062" stop-color="#C1C1C1"/>
<stop offset="1" stop-color="#D4D4D4"/>
</linearGradient>
<linearGradient id="paint1_linear_32157_250184" x1="49.1134" y1="12.8634" x2="27.3642" y2="21.2887" gradientUnits="userSpaceOnUse">
<stop offset="0.0748513" stop-color="#797979"/>
<stop offset="0.411458" stop-color="#C1C1C1"/>
<stop offset="1" stop-color="#D4D4D4"/>
</linearGradient>
<linearGradient id="paint2_linear_32157_250184" x1="2.82527" y1="28.2184" x2="17.812" y2="26.6354" gradientUnits="userSpaceOnUse">
<stop offset="0.0748513" stop-color="#868686"/>
<stop offset="0.370212" stop-color="#D7D7D7"/>
<stop offset="1" stop-color="#DEDEDE"/>
</linearGradient>
<linearGradient id="paint3_linear_32157_250184" x1="48.5561" y1="12.8634" x2="33.5694" y2="14.4464" gradientUnits="userSpaceOnUse">
<stop offset="0.0748513" stop-color="#868686"/>
<stop offset="0.370212" stop-color="#D7D7D7"/>
<stop offset="1" stop-color="#DEDEDE"/>
</linearGradient>
<linearGradient id="paint4_linear_32157_250184" x1="2.83581" y1="28.2184" x2="19.8057" y2="24.8978" gradientUnits="userSpaceOnUse">
<stop offset="0.0748513" stop-color="#797979"/>
<stop offset="0.370212" stop-color="#C1C1C1"/>
<stop offset="1" stop-color="#D4D4D4"/>
</linearGradient>
</defs>
</svg>
