<svg width="156" height="33" viewBox="0 0 156 33" fill="none" xmlns="http://www.w3.org/2000/svg">
<g clip-path="url(#clip0_32928_299096)">
<path d="M5.70762 23.9893C5.14043 23.8233 4.6376 23.4458 4.27844 22.9163C3.91928 22.3868 3.72423 21.7354 3.72405 21.0649C3.72405 20.2646 4.00162 19.497 4.4957 18.9311C4.98978 18.3652 5.6599 18.0472 6.35863 18.0472L13.6218 18.0472L13.6218 14.8764L6.51409 14.8764C5.44873 14.8764 4.427 15.3611 3.67361 16.2239C2.92022 17.0866 2.49688 18.2569 2.4967 19.4771C2.49598 20.5379 2.81516 21.5663 3.40025 22.3885C3.98534 23.2107 4.80043 23.7762 5.70762 23.9893Z" fill="url(#paint0_linear_32928_299096)"/>
<path d="M4.20827 23.0451C4.68434 23.5212 5.14867 23.8231 5.71586 23.989C4.80867 23.7759 3.99359 23.2105 3.40849 22.3883C2.8234 21.5661 2.50422 20.5376 2.50495 19.4769C2.50513 18.2566 2.92846 17.0864 3.68185 16.2236C4.43524 15.3608 5.45697 14.8761 6.52233 14.8761L13.6356 14.8761L13.6702 16.4596L6.36688 16.4596C4.4463 16.5307 3.1768 17.953 3.1768 20.1094C3.1768 22.0114 3.81155 22.5691 4.20827 23.0451Z" fill="url(#paint1_linear_32928_299096)"/>
<path d="M0.423215 22.0857C0.423295 20.3381 0.977316 18.65 1.98231 17.3352C2.9873 16.0203 4.3749 15.1681 5.88721 14.9369C4.94917 15.1156 4.09692 15.6698 3.4821 16.5007C2.86728 17.3316 2.52979 18.3855 2.52966 19.4747C2.52984 20.6948 2.95297 21.8648 3.70604 22.7277C4.45912 23.5906 5.4805 24.0756 6.54569 24.0762L13.5832 24.0762L13.5832 29.2967L6.71947 29.2967C5.04972 29.2967 3.44834 28.537 2.26758 27.1847C1.08683 25.8324 0.423394 23.9982 0.423215 22.0857ZM16.4351 26.7191L13.5839 21.5095L13.5839 31.9287L16.4351 26.7191Z" fill="#FF9900"/>
<path d="M39.1246 10.8296C39.1246 12.5771 38.5705 14.2653 37.5655 15.5801C36.5606 16.895 35.1729 17.7472 33.6606 17.9784C34.5987 17.7996 35.4509 17.2455 36.0658 16.4146C36.6806 15.5836 37.0181 14.5298 37.0182 13.4406C37.018 12.2205 36.5949 11.0505 35.8418 10.1876C35.0887 9.32472 34.0673 8.83967 33.0022 8.83905H25.9646V3.61858H32.8284C34.4981 3.61858 36.0995 4.37829 37.2803 5.73059C38.461 7.08289 39.1245 8.91703 39.1246 10.8296ZM23.1128 6.19616L25.9639 11.4058V0.986572L23.1128 6.19616Z" fill="#FF9900"/>
<path d="M16.4102 25.6651L13.5992 20.5753L13.5625 4.25918C13.5638 3.79043 13.7273 3.34138 14.0171 3.0105C14.307 2.67963 14.6997 2.49393 15.1089 2.49414H19.6911C20.0119 2.49415 20.3272 2.58979 20.6059 2.77166C20.8847 2.95352 21.1173 3.21535 21.2809 3.5314L25.709 12.0891C25.8744 12.4094 25.9622 12.7745 25.9636 13.1466V29.1789H24.092C23.8328 29.1789 23.5841 29.0609 23.4008 28.851C23.2175 28.641 23.1145 28.3562 23.1145 28.0592V13.6046C23.1147 13.4346 23.073 13.2681 22.9943 13.124L18.8941 5.64244H17.0437C16.6931 5.64244 16.4089 5.92666 16.4089 6.27724L16.4102 25.6651Z" fill="url(#paint2_linear_32928_299096)"/>
<path opacity="0.1" d="M13.5992 20.5753L15.0038 23.1278L15.0025 5.00656C15.0025 5.00656 15.0025 4.66466 15.2924 4.35292C15.5287 4.09884 15.7291 4.09275 16.06 4.09275C17.2096 4.09275 19.2576 4.13446 19.7086 4.01644C20.7583 3.74174 19.3388 2.49414 19.3388 2.49414H15.1089C14.6997 2.49393 14.307 2.67963 14.0171 3.0105C13.7273 3.34138 13.5638 3.79043 13.5625 4.25918L13.5992 20.5753Z" fill="white"/>
<path d="M16.208 2.48633L19.6811 2.48633C20.0019 2.48634 20.3172 2.58198 20.596 2.76384C20.8747 2.94571 21.1073 3.20754 21.271 3.52358L25.6991 12.0813C25.8644 12.4016 25.9523 12.7666 25.9536 13.1388V29.1711H24.0821C23.8228 29.1711 23.5742 29.0531 23.3908 28.8431C23.2075 28.6332 23.1045 28.3484 23.1045 28.0514V13.5968C23.1047 13.4268 23.0631 13.2603 22.9844 13.1162C22.9844 13.1162 19.9277 7.45368 18.8855 5.63774C18.3803 4.75749 18.0017 4.1028 17.4776 3.29732C17.3858 3.15635 17.289 3.02878 17.1095 2.87493C16.9815 2.76522 16.7988 2.66805 16.6606 2.61538C16.3708 2.50492 16.208 2.48633 16.208 2.48633Z" fill="#FF8C01"/>
<path d="M16.208 2.48633L18.3634 2.48633C18.6842 2.48634 18.9995 2.58198 19.2783 2.76384C19.557 2.94571 19.7896 3.20754 19.9533 3.52358L24.3814 12.0813C24.5467 12.4016 24.6346 12.7666 24.6359 13.1388V29.1711H24.0821C23.8228 29.1711 23.5742 29.0531 23.3909 28.8431C23.2075 28.6332 23.1045 28.3484 23.1045 28.0514V13.5968C23.1047 13.4268 23.0631 13.2603 22.9844 13.1162C22.9844 13.1162 19.9278 7.45368 18.8855 5.63774C18.3803 4.75749 18.0017 4.1028 17.4776 3.29732C17.3858 3.15635 17.289 3.02878 17.1095 2.87493C16.9815 2.76522 16.7988 2.66805 16.6606 2.61538C16.3708 2.50492 16.208 2.48633 16.208 2.48633Z" fill="#FF9900"/>
<path fill-rule="evenodd" clip-rule="evenodd" d="M35.2376 10.0052C34.8785 9.47569 34.3756 9.0982 33.8084 8.93225C34.7156 9.14533 35.5307 9.71079 36.1158 10.533C36.7009 11.3552 37.0201 12.3836 37.0193 13.4444C37.0192 14.6646 36.5958 15.8349 35.8424 16.6977C35.0891 17.5604 34.0673 18.0451 33.002 18.0451H25.9617V14.8743H33.1574C33.8561 14.8743 34.5263 14.5564 35.0203 13.9904C35.5144 13.4245 35.792 12.657 35.792 11.8566C35.7918 11.1861 35.5968 10.5347 35.2376 10.0052ZM13.5884 14.8759H23.1158V18.0436H13.5884V14.8759Z" fill="url(#paint3_linear_32928_299096)"/>
<path opacity="0.1" d="M23.1159 16.4702H13.5942V18.0529H23.1159V16.4702Z" fill="white"/>
<path opacity="0.1" d="M35.3079 9.87625C34.8319 9.40019 34.3675 9.09832 33.8003 8.93237C34.7075 9.14545 35.5226 9.71091 36.1077 10.5331C36.6928 11.3553 37.012 12.3838 37.0113 13.4445C37.0111 14.6648 36.5877 15.835 35.8344 16.6978C35.081 17.5606 34.0592 18.0453 32.9939 18.0453H25.9536V16.4618H33.1493C35.0699 16.3907 36.3394 14.9683 36.3394 12.812C36.3394 10.91 35.7047 10.3523 35.3079 9.87625Z" fill="white"/>
<path d="M39.1244 10.8295C39.1243 12.577 38.5703 14.2651 37.5653 15.58C36.5603 16.8949 35.1727 17.7471 33.6604 17.9783C34.5984 17.7995 35.4507 17.2454 36.0655 16.4144C36.6803 15.5835 37.0178 14.5297 37.0179 13.4405C37.0178 12.2204 36.5946 11.0503 35.8416 10.1875C35.0885 9.3246 34.0671 8.83955 33.0019 8.83893H25.9644V3.61846H32.8281C34.4979 3.61846 36.0993 4.37816 37.28 5.73047C38.4608 7.08277 39.1242 8.91691 39.1244 10.8295ZM23.1125 6.19604L25.9637 11.4056V0.98645L23.1125 6.19604Z" fill="#FF9900"/>
<path d="M32.9849 6.1963L25.9474 6.1963L23.0969 6.1963L25.9481 0.986715L25.9474 3.61872L32.8112 3.61872C34.4807 3.61893 36.0819 4.37859 37.2626 5.73068C38.4433 7.08277 39.1069 8.91659 39.1074 10.8289C39.1083 12.5773 38.5548 14.2665 37.5497 15.5824C39.6535 8.28211 34.5936 6.1963 32.9849 6.1963Z" fill="#FF8C01"/>
<path d="M6.56266 26.7192L13.6002 26.7192L16.4507 26.7192L13.5995 31.9288L13.6002 29.2968L6.73644 29.2968C5.06686 29.2966 3.4657 28.5369 2.285 27.1848C1.1043 25.8328 0.440727 23.9989 0.440186 22.0866C0.43928 20.3382 0.992856 18.649 1.99794 17.3331C-0.105855 24.6334 4.95399 26.7192 6.56266 26.7192Z" fill="#FF8C01"/>
</g>
<path d="M47.4965 23.6728C47.4965 23.8524 47.5292 23.9749 47.5945 24.0402C47.6761 24.0892 47.8312 24.1381 48.0598 24.1871L48.9414 24.383V24.8728H45.219V24.383L46.1251 24.1871C46.37 24.1381 46.5251 24.081 46.5904 24.0157C46.672 23.9504 46.7129 23.8279 46.7129 23.6483V8.95487C46.7129 8.77529 46.672 8.65284 46.5904 8.58754C46.5251 8.52223 46.37 8.46509 46.1251 8.41611L45.219 8.2202V7.73042H51.4882L56.533 18.6281L61.039 7.73042H67.5041V8.2202L66.598 8.41611C66.3531 8.46509 66.1899 8.52223 66.1082 8.58754C66.0429 8.65284 66.0103 8.77529 66.0103 8.95487V23.6483C66.0103 23.8279 66.0429 23.9504 66.1082 24.0157C66.1899 24.081 66.3531 24.1381 66.598 24.1871L67.5041 24.383V24.8728H59.5696V24.383L60.4512 24.1871C60.6798 24.1381 60.8268 24.0892 60.8921 24.0402C60.9737 23.9749 61.0145 23.8524 61.0145 23.6728V9.81199L54.7943 24.8728H54.0596L47.4965 10.4487V23.6728ZM72.3672 18.6036C72.3835 20.4158 72.6692 21.7953 73.2243 22.7422C73.7957 23.6892 74.8569 24.1626 76.4079 24.1626C77.1752 24.1626 77.8527 24.0483 78.4405 23.8198C79.0446 23.5912 79.6649 23.2647 80.3017 22.8402L80.62 23.3055C79.1017 24.5463 77.0936 25.1667 74.5957 25.1667C72.3427 25.1667 70.5632 24.6279 69.2571 23.5504C67.9673 22.4565 67.3224 20.8647 67.3224 18.775C67.3224 16.7996 67.9836 15.2894 69.306 14.2445C70.6285 13.1997 72.4815 12.6772 74.8651 12.6772C76.2201 12.6772 77.363 12.8895 78.2936 13.3139C79.2241 13.7384 79.9098 14.3098 80.3506 15.0282C80.8078 15.7302 81.0363 16.5138 81.0363 17.3791C81.0363 17.8199 80.9955 18.2281 80.9139 18.6036H72.3672ZM74.7181 13.265C73.8202 13.265 73.208 13.6405 72.8815 14.3915C72.5549 15.1425 72.3835 16.3343 72.3672 17.9669H76.4814V16.1302C76.4814 15.1343 76.3589 14.4078 76.114 13.9507C75.8855 13.4935 75.4202 13.265 74.7181 13.265ZM80.7148 13.6078V12.9711C81.2209 12.9711 81.5964 12.9303 81.8413 12.8486C82.0862 12.767 82.3311 12.6201 82.576 12.4078L86.935 8.48958H87.1554V12.9711H90.3145V13.6078H87.1554V21.8362C87.1554 22.6198 87.2452 23.1749 87.4248 23.5014C87.6207 23.8116 87.9472 23.9667 88.4044 23.9667C88.7635 23.9667 89.0819 23.8932 89.3594 23.7463C89.637 23.5994 89.939 23.3463 90.2655 22.9871L90.6574 23.4524C89.6288 24.5953 88.1105 25.1667 86.1024 25.1667C84.7473 25.1667 83.7759 24.881 83.1882 24.3096C82.6004 23.7381 82.3066 22.8484 82.3066 21.6402V13.6078H80.7148ZM99.3009 24.8728C98.8438 24.8728 98.5173 24.783 98.3214 24.6034C98.1418 24.4075 98.052 24.0892 98.052 23.6483V23.5259C96.9582 24.5871 95.399 25.1177 93.3746 25.1177C92.3134 25.1177 91.4808 24.881 90.8767 24.4075C90.2889 23.9177 89.9951 23.1667 89.9951 22.1545C89.9951 21.1423 90.2889 20.3505 90.8767 19.7791C91.4808 19.2077 92.3542 18.7995 93.497 18.5546C94.6398 18.3097 96.1582 18.1628 98.052 18.1138V16.3261C98.052 15.4118 97.8724 14.7588 97.5132 14.367C97.1541 13.9588 96.5255 13.7547 95.6276 13.7547C94.8766 13.7547 94.1746 13.8609 93.5215 14.0731C92.8848 14.269 92.2318 14.571 91.5624 14.9792L91.244 14.5139C92.0277 13.9588 92.9664 13.518 94.0603 13.1915C95.1704 12.8486 96.4112 12.6772 97.7826 12.6772C99.6275 12.6772 100.942 13.0446 101.725 13.7792C102.509 14.4976 102.901 15.5424 102.901 16.9138V23.6973C102.901 23.8769 102.933 23.9994 102.999 24.0647C103.08 24.13 103.244 24.1871 103.489 24.2361L104.346 24.432V24.8728H99.3009ZM96.1174 23.5749C96.8194 23.5749 97.4643 23.2973 98.052 22.7422V18.775C97.1377 18.8403 96.4439 18.9873 95.9704 19.2158C95.497 19.4281 95.1704 19.7382 94.9909 20.1464C94.8276 20.5546 94.746 21.1096 94.746 21.8117C94.746 22.4321 94.8521 22.881 95.0643 23.1586C95.2929 23.4361 95.6439 23.5749 96.1174 23.5749Z" fill="#B4B4B4"/>
<path d="M104.327 24.1871C104.572 24.1381 104.727 24.081 104.792 24.0157C104.874 23.9504 104.914 23.8279 104.914 23.6483V8.95487C104.914 8.77529 104.874 8.65284 104.792 8.58754C104.727 8.52223 104.572 8.46509 104.327 8.41611L103.421 8.2202V7.73042H110.914C114.343 7.73042 116.955 8.3753 118.751 9.66506C120.547 10.9548 121.445 13.167 121.445 16.3016C121.445 19.4362 120.547 21.6484 118.751 22.9382C116.955 24.2279 114.343 24.8728 110.914 24.8728H103.421V24.383L104.327 24.1871ZM109.91 24.1381H110.914C112.269 24.1381 113.314 23.9014 114.049 23.4279C114.783 22.9382 115.298 22.1382 115.592 21.028C115.886 19.9178 116.032 18.3424 116.032 16.3016C116.032 14.2608 115.886 12.6854 115.592 11.5752C115.298 10.465 114.783 9.67322 114.049 9.19976C113.314 8.70998 112.269 8.46509 110.914 8.46509H109.91V24.1381ZM131.069 24.383L132.122 24.2851C132.351 24.2524 132.465 24.1626 132.465 24.0157C132.465 23.9341 132.441 23.8361 132.392 23.7218L130.776 20.1464H125.094L123.625 23.7218C123.576 23.8361 123.551 23.9341 123.551 24.0157C123.551 24.1626 123.666 24.2524 123.894 24.2851L124.947 24.383V24.8728H121.225V24.383L122.131 24.2851C122.327 24.2687 122.466 24.2198 122.547 24.1381C122.629 24.0565 122.719 23.9096 122.817 23.6973L129.6 7.46104H130.384L137.559 23.6973C137.657 23.9096 137.747 24.0565 137.828 24.1381C137.91 24.2198 138.049 24.2687 138.245 24.2851L139.151 24.383V24.8728H131.069V24.383ZM130.457 19.4117L127.812 13.5588L125.388 19.4117H130.457ZM154.487 12.8976C154.487 14.22 154.169 15.2567 153.532 16.0077C152.912 16.7424 151.94 17.273 150.618 17.5995C149.295 17.9097 147.524 18.0648 145.304 18.0648H144.667V23.6239C144.667 23.8034 144.7 23.9259 144.765 23.9912C144.846 24.0565 145.01 24.1136 145.255 24.1626L146.308 24.383V24.8728H138.177V24.383L139.083 24.1871C139.328 24.1381 139.483 24.081 139.549 24.0157C139.63 23.9504 139.671 23.8279 139.671 23.6483V8.95487C139.671 8.77529 139.63 8.65284 139.549 8.58754C139.483 8.52223 139.328 8.46509 139.083 8.41611L138.177 8.2202V7.73042H145.304C147.524 7.73042 149.295 7.89368 150.618 8.2202C151.94 8.53039 152.912 9.06099 153.532 9.81199C154.169 10.5467 154.487 11.5752 154.487 12.8976ZM144.667 17.3302H145.524C146.487 17.3302 147.238 17.1832 147.777 16.8893C148.332 16.5955 148.732 16.1302 148.977 15.4935C149.222 14.8568 149.344 13.9915 149.344 12.8976C149.344 11.8038 149.222 10.9385 148.977 10.3018C148.732 9.66506 148.332 9.19976 147.777 8.90589C147.238 8.61203 146.487 8.46509 145.524 8.46509H144.667V17.3302Z" fill="#FF8C01"/>
<defs>
<linearGradient id="paint0_linear_32928_299096" x1="2.08585" y1="22.402" x2="13.7481" y2="21.1627" gradientUnits="userSpaceOnUse">
<stop offset="0.0748513" stop-color="#646464"/>
<stop offset="0.370212" stop-color="#787878"/>
<stop offset="1" stop-color="#868686"/>
</linearGradient>
<linearGradient id="paint1_linear_32928_299096" x1="2.09654" y1="22.4018" x2="13.6897" y2="21.1773" gradientUnits="userSpaceOnUse">
<stop offset="0.0748513" stop-color="#525252"/>
<stop offset="0.370212" stop-color="#5E5D5D"/>
<stop offset="1" stop-color="#797979"/>
</linearGradient>
<linearGradient id="paint2_linear_32928_299096" x1="18.3913" y1="2.54171" x2="6.78958" y2="8.73516" gradientUnits="userSpaceOnUse">
<stop offset="0.0220136" stop-color="#494949"/>
<stop offset="0.370212" stop-color="#898989"/>
<stop offset="0.976214" stop-color="#5E5D5D"/>
</linearGradient>
<linearGradient id="paint3_linear_32928_299096" x1="37.8948" y1="10.5195" x2="13.9918" y2="15.9315" gradientUnits="userSpaceOnUse">
<stop offset="0.0748513" stop-color="#494949"/>
<stop offset="0.370212" stop-color="#898989"/>
<stop offset="1" stop-color="#787878"/>
</linearGradient>
<clipPath id="clip0_32928_299096">
<rect width="39.3352" height="32.1834" fill="white" transform="translate(0 0.539551)"/>
</clipPath>
</defs>
</svg>
