<svg width="653" height="646" viewBox="0 0 653 646" fill="none" xmlns="http://www.w3.org/2000/svg">
<g filter="url(#filter0_d_32920_286967)">
<circle cx="134" cy="541" r="54" fill="url(#paint0_linear_32920_286967)"/>
</g>
<g opacity="0.87" clip-path="url(#clip0_32920_286967)">
<path d="M114 540.297C114 543.528 116.629 546.156 119.859 546.156C123.09 546.156 125.719 543.528 125.719 540.297C125.719 540.127 125.682 539.96 125.611 539.806L121.681 531.29C123.522 531.184 125.344 530.701 126.993 529.876L127.124 529.811C128.553 529.096 130.077 528.612 131.656 528.368V548.109H136.344V528.368C137.923 528.612 139.447 529.096 140.876 529.811L141.007 529.876C142.656 530.701 144.478 531.184 146.32 531.29L142.389 539.806C142.318 539.96 142.281 540.127 142.281 540.297C142.281 543.528 144.91 546.156 148.141 546.156C151.371 546.156 154 543.528 154 540.297C154 540.127 153.963 539.96 153.892 539.806L149.787 530.912C151.204 530.479 152.502 529.703 153.579 528.625C154.036 528.168 154.036 527.426 153.579 526.968C153.121 526.511 152.379 526.511 151.921 526.968C150.631 528.258 148.916 528.969 147.092 528.969C145.352 528.969 143.611 528.558 142.055 527.78L141.924 527.714C140.22 526.862 138.398 526.293 136.51 526.023C136.455 526.015 136.399 526.011 136.344 526.011V523.344C136.344 522.049 135.294 521 134 521C132.706 521 131.656 522.049 131.656 523.344V526.011C131.601 526.011 131.545 526.015 131.49 526.023C129.602 526.293 127.78 526.862 126.076 527.714L125.945 527.78C124.389 528.558 122.648 528.969 120.908 528.969C119.084 528.969 117.369 528.258 116.079 526.968C115.621 526.511 114.879 526.511 114.421 526.968C113.964 527.426 113.964 528.168 114.421 528.626C115.498 529.703 116.796 530.479 118.213 530.912L114.108 539.806C114.037 539.96 114 540.127 114 540.297V540.297ZM145.285 539.125L148.141 532.937L150.997 539.125H145.285ZM119.859 532.937L122.715 539.125H117.003L119.859 532.937Z" fill="white"/>
<path d="M152.828 558.656H145.914C145.914 557.362 144.865 556.312 143.57 556.312H124.43C123.135 556.312 122.086 557.362 122.086 558.656H115.172C114.525 558.656 114 559.181 114 559.828C114 560.475 114.525 561 115.172 561H152.828C153.475 561 154 560.475 154 559.828C154 559.181 153.475 558.656 152.828 558.656Z" fill="white"/>
<path d="M138.883 550.453H129.117C127.823 550.453 126.773 551.502 126.773 552.797V553.969H141.227V552.797C141.227 551.502 140.177 550.453 138.883 550.453Z" fill="white"/>
</g>
<g filter="url(#filter1_d_32920_286967)">
<circle cx="517" cy="89" r="40" fill="url(#paint1_linear_32920_286967)"/>
</g>
<g clip-path="url(#clip1_32920_286967)">
<path d="M507.278 93.7201L508.854 94.2635C511.907 95.3162 512.005 99.6524 508.935 100.801C508.935 101.626 508.32 102.147 507.645 102.147C506.978 102.147 506.355 101.633 506.355 100.801C505.037 100.308 504.095 99.0356 504.095 97.5472C504.095 96.8345 504.673 96.2569 505.386 96.2569C506.098 96.2569 506.676 96.8345 506.676 97.5472C506.676 98.0394 507.077 98.44 507.569 98.44H507.721C508.729 98.44 508.958 97.029 508.012 96.7031L506.437 96.1597C503.384 95.1071 503.285 90.7708 506.355 89.6219C506.355 88.7976 506.971 88.2761 507.645 88.2761C508.313 88.2761 508.935 88.7898 508.935 89.6219C510.254 90.1154 511.195 91.3877 511.195 92.8761C511.195 93.5887 510.617 94.1664 509.905 94.1664C509.192 94.1664 508.614 93.5887 508.614 92.8761C508.614 92.3838 508.214 91.9832 507.721 91.9832H507.569C506.562 91.9832 506.333 93.3941 507.278 93.7201ZM518.29 95.2116C518.29 101.081 513.515 105.857 507.645 105.857C501.775 105.857 497 101.081 497 95.2116C497 89.3418 501.775 84.5665 507.645 84.5665C513.515 84.5665 518.29 89.3419 518.29 95.2116ZM515.71 95.2116C515.71 90.7648 512.092 87.1471 507.645 87.1471C503.198 87.1471 499.581 90.7648 499.581 95.2116C499.581 99.6585 503.198 103.276 507.645 103.276C512.092 103.276 515.71 99.6585 515.71 95.2116ZM535.71 103.276H534.823V81.9858C534.823 81.2732 534.245 80.6955 533.532 80.6955C532.82 80.6955 532.242 81.2732 532.242 81.9858V103.276H525.71V87.1471C525.71 86.4344 525.132 85.8568 524.419 85.8568C523.707 85.8568 523.129 86.4344 523.129 87.1471V103.276H517.645C516.932 103.276 516.355 103.854 516.355 104.566C516.355 105.279 516.932 105.857 517.645 105.857H535.71C536.422 105.857 537 105.279 537 104.566C537 103.854 536.422 103.276 535.71 103.276ZM516.864 86.0434L521.476 81.4316L523.507 83.4627C524.011 83.9666 524.828 83.9666 525.332 83.4627L532.242 76.5525V77.1471C532.242 77.8598 532.82 78.4374 533.532 78.4374C534.245 78.4374 534.823 77.8598 534.823 77.1471C534.823 73.0523 534.829 73.3998 534.808 73.2553C534.746 72.8151 534.457 72.4236 534.026 72.2452C533.706 72.1132 533.805 72.1471 529.823 72.1471C529.11 72.1471 528.532 72.7248 528.532 73.4374C528.532 74.1501 529.11 74.7277 529.823 74.7277H530.417L524.419 80.7255L522.388 78.6944C521.884 78.1905 521.067 78.1905 520.563 78.6944L515.039 84.2186C514.535 84.7224 514.535 85.5394 515.039 86.0433C515.543 86.5473 516.36 86.5473 516.864 86.0434Z" fill="white" fill-opacity="0.86"/>
</g>
<path opacity="0.6" d="M522.564 349.691C461.174 373.611 392.18 454.721 368.763 530.518C345.346 606.314 376.251 648.491 437.641 624.63C499.032 600.769 568.04 519.586 591.442 443.804C614.845 368.022 583.969 325.772 522.564 349.691Z" fill="#7B61FF"/>
<g style="mix-blend-mode:overlay" opacity="0.2">
<path d="M522.564 349.692C539.52 343.089 554.148 341.525 565.929 344.32L577.421 479.205C563.503 507.85 545.758 534.465 524.675 558.317L507.517 356.612C512.398 354.022 517.422 351.711 522.564 349.692ZM455.175 616.334L437.829 413.283C420.679 432.364 405.627 453.237 392.932 475.542L406.201 631.291C415.467 631.291 425.99 629.119 437.598 624.601C443.627 622.225 449.499 619.464 455.175 616.334Z" fill="white"/>
</g>
<path d="M522.564 349.691C461.174 373.611 392.18 454.721 368.763 530.518C345.346 606.314 376.251 648.491 437.641 624.63C499.032 600.769 568.04 519.586 591.442 443.804C614.845 368.022 583.969 325.772 522.564 349.691Z" stroke="#7B61FF" stroke-miterlimit="10"/>
<path d="M401.055 540.682C401.055 541.435 401.185 542.13 401.287 542.868C401.388 543.607 401.576 544.664 401.72 545.518C405.565 565.919 422.116 574.273 446.979 564.586C473.836 554.118 503.093 525.494 522.477 493.09L476.221 444.398L393.105 465.392C393.105 465.392 396.82 511.724 400.752 538.93C400.911 539.502 401.012 540.089 401.055 540.682Z" fill="#20364F"/>
<path d="M476.164 444.398L393.047 465.392C393.047 465.392 393.886 475.846 395.187 489.745C404.915 491.526 420.526 494.089 429.662 494.089C429.662 494.089 464.658 522.641 488.927 535.687C501.867 522.963 513.14 508.645 522.478 493.075L476.164 444.398Z" fill="#142130"/>
<path d="M539.505 455.807C546.979 431.598 545.287 413.094 536.412 403.22C535.559 402.322 534.764 401.54 534.128 400.961C527.956 395.763 511.81 384.788 511.81 384.788L421.466 465.392C421.466 465.392 453.267 505.687 492.758 531.864C513.472 510.493 531.223 482.593 539.505 455.807Z" fill="#20364F"/>
<path d="M526.062 394.793C519.326 389.899 511.81 384.788 511.81 384.788L421.466 465.392C421.466 465.392 430.428 476.743 444.753 491.324C479.546 481.71 518.864 448.495 526.062 394.793Z" fill="#142130"/>
<path d="M107.893 322.92C107.893 322.92 89.4631 310.555 87.2804 308.934C85.0977 307.312 68.9225 300.811 66.1761 299.363C63.4296 297.915 63.0104 302.346 65.381 305.589C67.7517 308.832 75.7453 312.901 78.3905 314.276C80.2544 315.181 82.0387 316.242 83.7244 317.447L84.4616 318.012C82.6114 317.882 81.1515 317.766 80.5299 317.693C77.8413 317.418 60.6109 320.126 57.5175 320.299C54.4241 320.473 56.3177 324.484 60.0182 326.091C63.7187 327.698 72.6519 327.076 75.673 326.916C77.736 326.731 79.8113 326.731 81.8742 326.916C82.9005 327.018 85.4157 327.539 87.3816 327.973C85.1121 328.19 83.2908 328.364 82.568 328.408C79.865 328.596 63.3429 334.199 60.3218 334.894C57.3007 335.589 59.8592 339.238 63.7621 340.136C67.6649 341.033 76.3813 338.948 79.3301 338.282C81.3341 337.754 83.3799 337.401 85.4446 337.225C87.8512 337.479 90.2279 337.964 92.542 338.673C89.8245 339.223 85.8493 340.049 85.0688 340.382C83.8545 340.888 77.7545 344.971 75.5863 346.028C73.418 347.085 74.56 348.924 76.6126 349.88C77.8269 350.434 79.1525 350.7 80.4864 350.658C81.8202 350.615 83.1261 350.264 84.3026 349.634C86.76 348.186 88.379 347.418 88.379 347.418L98.8733 349.981C102.805 352.037 111.652 357.539 114.557 359.045C117.462 360.551 120.541 362.288 125.976 360.724L133.305 346.709C133.305 346.709 106.968 323.369 107.893 322.92Z" fill="#E88E80"/>
<path d="M159.874 366.936C156.679 365.98 131.354 359.986 125.182 360.797C116.841 361.912 108.269 347.766 106.101 343.422C103.933 339.078 100.131 331.347 99.2927 329.986L96.8642 328.046C95.831 327.938 94.7896 327.938 93.7564 328.046C92.4699 328.234 89.1163 329.074 86.5289 328.219C85.4445 327.816 84.479 327.145 83.7212 326.27C82.9634 325.394 82.4376 324.342 82.1924 323.21C82.1924 322.051 83.4355 321.762 84.9244 321.617C86.8122 321.175 88.6594 320.575 90.4462 319.822C93.1248 319.391 95.8291 319.14 98.541 319.069C101.903 319.548 105.145 320.658 108.096 322.341C109.541 323.485 120.339 330.927 122.999 333.272C125.659 335.618 130.472 335.459 132.033 335.3L159.874 337.008V366.936Z" fill="#FFCEBA"/>
<path d="M129.836 335.357V360.869L128.477 360.797C128.477 360.797 129.662 368.89 129.836 369.484C130.009 370.078 130.197 370.483 131.744 370.744C133.291 371.004 149.451 372.742 149.451 372.742C149.451 372.742 150.796 376.897 153.325 378.533C155.929 379.225 158.696 378.936 161.102 377.723C161.102 377.723 228.621 386.193 245.837 389.204C263.053 392.216 268.243 391.144 269.818 390.536C271.394 389.928 283.782 378.953 287.641 375.449C291.501 371.945 334.504 330.16 334.504 330.16V267.901H284.577C284.577 267.901 248.728 329.928 247.529 331.376C246.329 332.824 243.553 332.693 242.946 333.91C242.346 335.367 241.825 336.855 241.385 338.369C239.398 337.393 237.209 336.897 234.996 336.921C232.351 337.283 214.036 338.369 202.241 338.253C190.446 338.137 168.026 336.443 164.297 335.719C160.567 334.995 158.269 333.186 155.739 333.548C153.825 333.914 151.964 334.522 150.203 335.357L131.527 334.329C130.443 334.358 129.836 334.315 129.836 335.357Z" fill="url(#paint2_linear_32920_286967)"/>
<path d="M287.165 297.264C287.165 297.264 282.12 348.736 279.937 382.356C283.059 379.634 286.095 376.941 287.67 375.493C291.53 372.003 334.534 330.203 334.534 330.203V297.264H287.165Z" fill="url(#paint3_linear_32920_286967)"/>
<path d="M287.165 297.264C287.165 297.264 282.12 348.736 279.937 382.356C283.059 379.634 286.095 376.941 287.67 375.493C291.53 372.003 334.534 330.203 334.534 330.203V297.264H287.165Z" fill="black" fill-opacity="0.2"/>
<path d="M309.078 247.355C309.078 247.355 292.339 259.43 288.248 262.804C284.158 266.178 282.221 274.633 281.859 276.443C281.498 278.253 285.112 296.583 296.43 318.794C307.748 341.004 339.795 398.297 375.701 432.815C377.624 446.323 385.82 469.243 386.774 469.967C387.728 470.691 409.425 479.625 444.363 472.139C479.3 464.654 520.483 426.053 521.697 381.646L503.382 371.28C503.382 371.28 466.999 295.512 457.849 276.689C448.699 257.867 438.089 247.239 426.771 243.142C415.452 239.044 369.673 229.387 369.673 229.387L309.078 247.355Z" fill="url(#paint4_linear_32920_286967)"/>
<path d="M401.764 322.978C405.898 341.8 387.641 385.787 353.354 408.099C360.271 416.805 367.735 425.06 375.701 432.815C377.624 446.323 385.82 469.243 386.774 469.967C387.728 470.691 409.425 479.625 444.363 472.139C458.543 469.113 473.764 460.932 486.918 449.335C488.263 408.418 474.314 339.296 463.443 311.438L401.764 322.978Z" fill="url(#paint5_linear_32920_286967)"/>
<path d="M401.764 322.978C405.898 341.8 387.641 385.787 353.354 408.099C360.271 416.805 367.735 425.06 375.701 432.815C377.624 446.323 385.82 469.243 386.774 469.967C387.728 470.691 409.425 479.625 444.363 472.139C458.543 469.113 473.764 460.932 486.918 449.335C488.263 408.418 474.314 339.296 463.443 311.438L401.764 322.978Z" fill="black" fill-opacity="0.2"/>
<path d="M330.529 443.297C330.529 443.297 296.922 446.396 294.999 446.497C292.895 446.833 290.872 447.555 289.029 448.625C287.988 449.219 279.633 452.477 278.087 453.23C276.024 454.446 274.272 456.127 272.97 458.138C272.044 459.832 268.633 466.145 267.462 468.273C266.314 470.264 264.999 472.153 263.53 473.92C262.938 474.572 264.268 477.163 266.552 477.105C268.835 477.047 271.105 476.208 273.779 472.646C276.453 469.084 279.72 464.48 280.313 464.045C282.67 463.11 285.084 462.327 287.54 461.7C287.815 461.7 287.54 462.293 286.832 462.858C286.124 463.423 282.322 466.579 281.556 467.202C280.606 468.128 279.922 469.293 279.576 470.575C278.409 474.218 276.989 477.774 275.326 481.217C273.475 484.518 272.666 485.894 273.201 486.386C273.736 486.879 275.687 489.412 279.489 487.11C283.29 484.808 284.505 482.578 286.109 479.219C287.714 475.86 287.815 474.586 288.726 473.934C289.636 473.283 294.32 469.808 294.941 469.88C295.563 469.953 290.157 479.422 289.781 480.479C289.405 481.536 288.639 488.5 287.815 491.628C286.991 494.755 286.369 495.971 287.728 496.782C289.087 497.593 291.949 497.825 295.129 492.221C298.309 486.618 297.89 484.432 299.336 482.651C300.933 480.537 302.671 478.534 304.539 476.656C304.843 476.656 302.458 484.866 302.299 485.966C302.265 488.655 302.488 491.341 302.964 493.988C303.289 495.573 303.506 497.179 303.614 498.795C303.614 499.75 307.257 500.518 309.223 497.101C311.189 493.684 309.425 488.746 310.451 487.371C311.478 485.995 314.528 481.71 315.12 481.217C315.745 480.64 316.533 480.271 317.375 480.16C318.084 480.16 323.909 478.712 329.836 477.395C335.762 476.077 340.966 472.182 345.274 467.433C350.607 464.248 352.805 463.09 356.563 459.427L341.371 436.188L330.529 443.297Z" fill="#FFCEBA"/>
<path d="M409.511 248.933C398.858 254.363 393.018 269.928 396.863 296.467C400.708 323.007 412.402 369.223 412.402 369.223C412.402 369.223 409.642 370.917 410.003 372.003L410.726 374.175C410.726 374.175 357.603 415.802 356.389 417.004C355.175 418.205 352.053 418.09 350.737 419.784C349.422 421.478 348.685 426.777 348.685 426.777C348.685 426.777 331.454 439.924 330.5 440.778C330.219 441.03 330.005 441.349 329.879 441.706C329.752 442.063 329.718 442.446 329.778 442.819C329.778 442.819 344.594 466.594 345.187 467.433C345.686 468.005 346.365 468.388 347.112 468.52C347.859 468.652 348.628 468.524 349.292 468.157C350.737 467.202 368.56 454.895 368.56 454.895C368.56 454.895 376.626 456.705 377.956 455.488C379.452 453.577 380.746 451.515 381.816 449.335C381.816 449.335 455.652 401.917 460.35 398.789C465.048 395.662 466.739 389.972 466.493 384.672C466.247 379.373 463.718 313.958 463.125 306.24C462.532 298.523 457.704 274.749 447.702 262.804C437.699 250.859 425.932 240.564 409.511 248.933Z" fill="url(#paint6_linear_32920_286967)"/>
<path d="M357.387 199.459C357.609 212.173 359.638 224.79 363.415 236.93C363.415 236.93 353.889 269.986 328.723 279.643C321.856 274.098 314.441 258.764 313.444 254.783C312.099 246.819 307.401 199.459 307.401 199.459H357.387Z" fill="#FFCEBA"/>
<path d="M323.996 266.366H336.224L341.284 265.135L348.208 270.391C345.533 276.845 341.972 282.893 337.627 288.359H324.805C324.805 288.359 317.491 277.992 314.282 270.521V265.367H321.191L323.996 266.366Z" fill="#20364F"/>
<path d="M354.452 213.431V199.459H307.401C307.401 199.459 312.099 246.819 313.444 254.783C313.545 255.174 313.718 255.68 313.921 256.231C317.747 259.214 322.116 261.422 326.786 262.732C338.841 253.639 351.388 236.568 354.452 213.431Z" fill="#E88E80"/>
<path d="M336.225 266.322C336.887 266.278 337.537 266.121 338.147 265.859C341.544 267.582 350.275 272.519 363.414 283.552C369.196 271.158 375.311 240.391 375.484 235.772C374.342 231.969 372.668 228.347 370.512 225.014C370.512 225.014 361.304 218.586 360.755 218.311C360.196 218.091 359.614 217.935 359.02 217.847C359.02 217.847 360.032 228.895 360.032 231.153C354.452 246.544 344.175 258.634 336.225 266.322Z" fill="url(#paint7_linear_32920_286967)"/>
<path d="M336.225 266.322C336.887 266.278 337.537 266.121 338.147 265.859C341.544 267.582 350.275 272.519 363.414 283.552C369.196 271.158 375.311 240.391 375.484 235.772C374.342 231.969 372.668 228.347 370.512 225.014C370.512 225.014 361.304 218.586 360.755 218.311C360.196 218.091 359.614 217.935 359.02 217.847C359.02 217.847 360.032 228.895 360.032 231.153C354.452 246.544 344.175 258.634 336.225 266.322Z" fill="white" fill-opacity="0.2"/>
<path d="M323.995 266.366H320.035C315.284 270.065 311.651 275.012 309.54 280.656C308.456 268.451 306.91 248.991 306.91 248.716C308.519 245.916 310.271 243.2 312.157 240.579L312.793 245.285C315.619 252.759 319.384 259.843 323.995 266.366Z" fill="url(#paint8_linear_32920_286967)"/>
<path d="M323.995 266.366H320.035C315.284 270.065 311.651 275.012 309.54 280.656C308.456 268.451 306.91 248.991 306.91 248.716C308.519 245.916 310.271 243.2 312.157 240.579L312.793 245.285C315.619 252.759 319.384 259.843 323.995 266.366Z" fill="white" fill-opacity="0.2"/>
<path d="M257.852 175.881C258.835 181.673 261.524 202.334 262.767 209.935C264.01 217.537 276.615 240.645 297.95 247.218C326.672 246.422 350.292 229.134 356.493 206.301C366.93 200.958 378.176 175.244 367.97 146.185C357.765 117.126 333.192 100.866 297.994 109.163C266.973 116.431 250.162 130.678 257.852 175.881Z" fill="#FFCEBA"/>
<path d="M356.389 113.67C363.891 116.102 375.412 122.024 377.71 134.505C380.009 146.986 382.885 152.546 387.829 154.124C387.28 157.02 382.639 158.279 381.194 158.033C381.238 161.371 380.938 164.704 380.298 167.98L359.222 179.288C359.222 179.288 356.331 189.597 355.377 189.713C354.423 189.829 353.252 182.778 352.949 181.026C345.721 178.637 336.629 168.139 333.738 155.832C332.654 160.654 331.57 166.938 330.601 166.938C329.633 166.938 324.183 158.033 323.504 149.795C317.953 158.974 305.826 162.826 290.489 165.359C288.928 165.606 291.096 160.06 293.264 156.918C285.429 160.292 266.522 165.852 254.843 163.072C249.061 164.274 241.327 159.09 241.342 157.107C241.342 156.021 245.317 156.136 246.343 153.241C247.369 150.345 248.569 147.449 250.318 146.421C246.285 144.133 240.026 140.948 239 126.035C243.568 126.643 252.732 125.123 254.481 120.967C252.482 119.787 250.838 118.088 249.724 116.049C248.609 114.01 248.066 111.707 248.15 109.384C250.737 111.078 264.889 109.384 270.974 104.737C275.595 101.386 280.835 98.9894 286.388 97.6845C291.942 96.3795 297.699 96.1928 303.325 97.1352C299.942 93.5734 301.157 87 301.157 87C303.686 89.5917 307.661 92.3716 318.618 92.3137C329.575 92.2558 344.637 92.4875 349.639 108.545C353.556 106.793 357.473 101.667 357.473 101.667C358.789 104.404 358.427 111.165 356.389 113.67Z" fill="#20364F"/>
<path d="M377.711 134.505C376.534 128.525 373.121 123.222 368.17 119.679C371.986 127.932 343.597 141.498 317.578 144.857C307.817 149.056 299.472 155.983 293.539 164.809C307.416 162.304 318.315 158.323 323.49 149.766C324.169 158.004 329.633 166.909 330.587 166.909C331.541 166.909 332.64 160.625 333.724 155.803C336.615 168.11 345.649 178.608 352.935 180.997C353.238 182.778 354.38 189.829 355.363 189.684C356.346 189.539 359.208 179.259 359.208 179.259L380.284 167.951C380.923 164.675 381.224 161.342 381.18 158.004C382.625 158.25 387.265 156.991 387.815 154.095C382.914 152.546 380.023 147 377.711 134.505Z" fill="#142130"/>
<path d="M284.635 216.472C283.348 217.688 283.825 220.28 285.242 223.508C286.659 226.737 291.024 234.44 305.233 231.066C319.443 227.693 322.753 213.692 318.055 208.61C313.357 203.528 294.869 206.698 284.635 216.472Z" fill="#801515"/>
<path d="M320.035 215.183C306.404 209.652 291.226 221.38 290.055 229.503C293.076 231.559 297.789 232.833 305.233 231.066C315.149 228.721 319.746 221.25 320.035 215.183Z" fill="#CE4731"/>
<path d="M284.635 216.472C284.333 216.799 284.111 217.191 283.986 217.618C283.861 218.045 283.835 218.495 283.912 218.933C286.008 219.686 288.624 219.281 291.631 218.224C295.49 216.877 306.505 212.91 313.443 206.481C305.927 205.135 292.715 208.783 284.635 216.472Z" fill="white"/>
<path d="M286.008 184.676C286.008 184.676 286.297 193.161 286.369 194.334C286.442 195.506 288.884 199.039 289.029 199.387C288.032 199.951 283.579 198.619 283.363 196.752C283.111 192.559 284.027 188.378 286.008 184.676Z" fill="#E88E80"/>
<path d="M295.1 198.156C295.1 198.156 294.117 195.897 295.693 195.868C298.367 195.868 299.581 196.795 299.205 197.056C297.985 197.842 296.55 198.227 295.1 198.156Z" fill="#E88E80"/>
<path d="M357.387 157.108C365.132 159.441 372.495 162.894 379.243 167.359C379.634 167.67 379.935 168.079 380.115 168.545C380.295 169.01 380.349 169.516 380.269 170.009C380.269 171.167 377.508 184.676 377.262 185.473C377.017 186.269 375.701 186.848 374.068 186.428C372.434 186.008 357.387 180.405 357.387 180.405V157.108Z" fill="#20364F"/>
<path d="M357.387 186.182C358.095 181.114 359.15 174.599 366.06 174.237C372.969 173.875 375.86 180.694 374.299 189.541C372.377 200.516 359.844 207.364 354.51 206.337L357.387 186.182Z" fill="#FFCEBA"/>
<path d="M470.136 399.745C442.194 375.623 411.419 374.812 390.879 372.727C364.86 370.063 328.303 373.06 337.627 288.316H324.805C319.327 313.364 312.663 357.018 336.224 385.136C359.786 413.254 408.702 390.826 438.335 434.262C438.335 434.262 459.294 438.114 477.363 438.114C476.799 425.044 474.365 412.122 470.136 399.745Z" fill="#20364F"/>
<rect y="177" width="112" height="112" rx="20" fill="url(#paint9_linear_32920_286967)" fill-opacity="0.15"/>
<g clip-path="url(#clip2_32920_286967)">
<path fill-rule="evenodd" clip-rule="evenodd" d="M33.212 246.038H80.788C81.0383 246.037 81.278 245.937 81.4551 245.76C81.6321 245.583 81.732 245.343 81.7331 245.093V211.734C81.7321 211.483 81.6322 211.244 81.4552 211.067C81.2781 210.889 81.0383 210.79 80.788 210.789H33.212C32.9617 210.79 32.7219 210.889 32.5449 211.067C32.3678 211.244 32.2679 211.483 32.2669 211.734V245.093C32.268 245.343 32.3679 245.583 32.5449 245.76C32.7219 245.937 32.9617 246.037 33.212 246.038ZM49.3487 248.473L50.0478 250.625H63.9522L64.6513 248.473H49.3487ZM67.2067 248.473H84.9781C84.9837 248.473 84.989 248.476 84.9928 248.48C84.9969 248.484 84.9993 248.489 84.9997 248.495V251.127C84.9956 252.209 84.5641 253.245 83.799 254.01C83.034 254.776 81.9975 255.207 80.9156 255.211H33.0842C32.0022 255.207 30.9658 254.776 30.2007 254.011C29.4356 253.245 29.004 252.209 29 251.127V248.495C29.0004 248.489 29.0029 248.484 29.007 248.48C29.0107 248.476 29.016 248.473 29.0215 248.473H46.7933L47.9855 252.143C48.0525 252.405 48.2048 252.638 48.4184 252.803C48.6321 252.969 48.8949 253.059 49.1654 253.059H64.8343V253.057C65.0909 253.057 65.3409 252.976 65.5484 252.825C65.756 252.674 65.9105 252.462 65.9899 252.218L67.2067 248.473Z" fill="url(#paint10_linear_32920_286967)"/>
<path fill-rule="evenodd" clip-rule="evenodd" d="M49.3486 248.473L50.0478 250.625H63.9522L64.6513 248.473H49.3486Z" fill="white"/>
</g>
<g filter="url(#filter2_b_32920_286967)">
<rect x="557" y="223" width="96" height="96" rx="16" fill="#FF9A03" fill-opacity="0.15"/>
</g>
<path d="M625 271C625 268.374 624.483 265.773 623.478 263.346C622.472 260.92 620.999 258.715 619.142 256.858C617.285 255.001 615.08 253.528 612.654 252.522C610.227 251.517 607.626 251 605 251C599.696 251 594.609 253.107 590.858 256.858C587.107 260.609 585 265.696 585 271C585 276.304 587.107 281.391 590.858 285.142C594.609 288.893 599.696 291 605 291C610.304 291 615.391 288.893 619.142 285.142C622.893 281.391 625 276.304 625 271ZM620.86 269H615C614.67 264.296 613.059 259.773 610.34 255.92C613.133 256.912 615.595 258.66 617.453 260.97C619.311 263.279 620.49 266.059 620.86 269ZM599.16 273H611C610.488 277.941 608.382 282.582 605 286.22C601.62 282.597 599.562 277.939 599.16 273ZM599.16 269C599.626 264.084 601.675 259.451 605 255.8C608.409 259.412 610.52 264.056 611 269H599.16ZM599.88 255.86C597.147 259.734 595.51 264.273 595.14 269H589.14C589.518 266.023 590.725 263.212 592.624 260.889C594.523 258.565 597.038 256.823 599.88 255.86ZM589.14 273H595.14C595.469 277.723 597.096 282.263 599.84 286.12C597.008 285.153 594.504 283.41 592.613 281.091C590.721 278.772 589.518 275.969 589.14 273ZM610.24 286.1C612.977 282.241 614.621 277.715 615 273H620.9C620.522 275.96 619.323 278.756 617.439 281.071C615.556 283.386 613.062 285.128 610.24 286.1Z" fill="url(#paint11_linear_32920_286967)"/>
<g filter="url(#filter3_d_32920_286967)">
<circle cx="486.5" cy="604.5" r="22.5" fill="#38C976"/>
</g>
<g filter="url(#filter4_d_32920_286967)">
<circle cx="187.5" cy="69.5" r="11.5" fill="#38C976"/>
</g>
<ellipse cx="301.839" cy="175.855" rx="2.86285" ry="5.40937" transform="rotate(-10.9558 301.839 175.855)" fill="#142130"/>
<path d="M298.257 166.656C296.759 167.443 294.201 170.079 293.19 171.878C293.447 169.917 294.527 165.277 296.825 163.377C300.009 160.745 307.41 164.757 307.091 164.823C306.693 164.906 300.129 165.671 298.257 166.656Z" fill="#142130"/>
<path d="M266.466 175.944C268.235 175.689 272.876 176.929 274.858 177.843C273.419 176.322 269.611 173.013 266.466 172.811C262.11 172.531 260.809 177.675 261.122 177.534C261.513 177.357 264.256 176.263 266.466 175.944Z" fill="#142130"/>
<ellipse cx="271.053" cy="184.025" rx="2.20185" ry="4.69185" transform="rotate(-10.9558 271.053 184.025)" fill="#142130"/>
<defs>
<filter id="filter0_d_32920_286967" x="31" y="438" width="206" height="206" filterUnits="userSpaceOnUse" color-interpolation-filters="sRGB">
<feFlood flood-opacity="0" result="BackgroundImageFix"/>
<feColorMatrix in="SourceAlpha" type="matrix" values="0 0 0 0 0 0 0 0 0 0 0 0 0 0 0 0 0 0 127 0" result="hardAlpha"/>
<feOffset/>
<feGaussianBlur stdDeviation="24.5"/>
<feComposite in2="hardAlpha" operator="out"/>
<feColorMatrix type="matrix" values="0 0 0 0 1 0 0 0 0 0.509804 0 0 0 0 0.180392 0 0 0 0.63 0"/>
<feBlend mode="normal" in2="BackgroundImageFix" result="effect1_dropShadow_32920_286967"/>
<feBlend mode="normal" in="SourceGraphic" in2="effect1_dropShadow_32920_286967" result="shape"/>
</filter>
<filter id="filter1_d_32920_286967" x="428" y="0" width="178" height="178" filterUnits="userSpaceOnUse" color-interpolation-filters="sRGB">
<feFlood flood-opacity="0" result="BackgroundImageFix"/>
<feColorMatrix in="SourceAlpha" type="matrix" values="0 0 0 0 0 0 0 0 0 0 0 0 0 0 0 0 0 0 127 0" result="hardAlpha"/>
<feOffset/>
<feGaussianBlur stdDeviation="24.5"/>
<feComposite in2="hardAlpha" operator="out"/>
<feColorMatrix type="matrix" values="0 0 0 0 1 0 0 0 0 0.509804 0 0 0 0 0.180392 0 0 0 1 0"/>
<feBlend mode="normal" in2="BackgroundImageFix" result="effect1_dropShadow_32920_286967"/>
<feBlend mode="normal" in="SourceGraphic" in2="effect1_dropShadow_32920_286967" result="shape"/>
</filter>
<filter id="filter2_b_32920_286967" x="545" y="211" width="120" height="120" filterUnits="userSpaceOnUse" color-interpolation-filters="sRGB">
<feFlood flood-opacity="0" result="BackgroundImageFix"/>
<feGaussianBlur in="BackgroundImageFix" stdDeviation="6"/>
<feComposite in2="SourceAlpha" operator="in" result="effect1_backgroundBlur_32920_286967"/>
<feBlend mode="normal" in="SourceGraphic" in2="effect1_backgroundBlur_32920_286967" result="shape"/>
</filter>
<filter id="filter3_d_32920_286967" x="445" y="563" width="83" height="83" filterUnits="userSpaceOnUse" color-interpolation-filters="sRGB">
<feFlood flood-opacity="0" result="BackgroundImageFix"/>
<feColorMatrix in="SourceAlpha" type="matrix" values="0 0 0 0 0 0 0 0 0 0 0 0 0 0 0 0 0 0 127 0" result="hardAlpha"/>
<feOffset/>
<feGaussianBlur stdDeviation="9.5"/>
<feComposite in2="hardAlpha" operator="out"/>
<feColorMatrix type="matrix" values="0 0 0 0 0.207843 0 0 0 0 0.835294 0 0 0 0 0.647059 0 0 0 0.94 0"/>
<feBlend mode="normal" in2="BackgroundImageFix" result="effect1_dropShadow_32920_286967"/>
<feBlend mode="normal" in="SourceGraphic" in2="effect1_dropShadow_32920_286967" result="shape"/>
</filter>
<filter id="filter4_d_32920_286967" x="157" y="39" width="61" height="61" filterUnits="userSpaceOnUse" color-interpolation-filters="sRGB">
<feFlood flood-opacity="0" result="BackgroundImageFix"/>
<feColorMatrix in="SourceAlpha" type="matrix" values="0 0 0 0 0 0 0 0 0 0 0 0 0 0 0 0 0 0 127 0" result="hardAlpha"/>
<feOffset/>
<feGaussianBlur stdDeviation="9.5"/>
<feComposite in2="hardAlpha" operator="out"/>
<feColorMatrix type="matrix" values="0 0 0 0 0.207843 0 0 0 0 0.835294 0 0 0 0 0.647059 0 0 0 0.94 0"/>
<feBlend mode="normal" in2="BackgroundImageFix" result="effect1_dropShadow_32920_286967"/>
<feBlend mode="normal" in="SourceGraphic" in2="effect1_dropShadow_32920_286967" result="shape"/>
</filter>
<linearGradient id="paint0_linear_32920_286967" x1="101.827" y1="584.427" x2="166.116" y2="497.629" gradientUnits="userSpaceOnUse">
<stop stop-color="#FF9E0F"/>
<stop offset="1" stop-color="#FF7C0F"/>
</linearGradient>
<linearGradient id="paint1_linear_32920_286967" x1="493.168" y1="121.168" x2="540.789" y2="56.8737" gradientUnits="userSpaceOnUse">
<stop stop-color="#FF9E0F"/>
<stop offset="1" stop-color="#FF7C0F"/>
</linearGradient>
<linearGradient id="paint2_linear_32920_286967" x1="170.116" y1="379.156" x2="226.99" y2="250.88" gradientUnits="userSpaceOnUse">
<stop stop-color="#FF9E0F"/>
<stop offset="1" stop-color="#FF7C0F"/>
</linearGradient>
<linearGradient id="paint3_linear_32920_286967" x1="290.971" y1="374.026" x2="343.382" y2="328.624" gradientUnits="userSpaceOnUse">
<stop stop-color="#FF9E0F"/>
<stop offset="1" stop-color="#FF7C0F"/>
</linearGradient>
<linearGradient id="paint4_linear_32920_286967" x1="330.312" y1="451.055" x2="477.576" y2="256.972" gradientUnits="userSpaceOnUse">
<stop stop-color="#FF9E0F"/>
<stop offset="1" stop-color="#FF7C0F"/>
</linearGradient>
<linearGradient id="paint5_linear_32920_286967" x1="380.366" y1="459.087" x2="481.734" y2="347.327" gradientUnits="userSpaceOnUse">
<stop stop-color="#FF9E0F"/>
<stop offset="1" stop-color="#FF7C0F"/>
</linearGradient>
<linearGradient id="paint6_linear_32920_286967" x1="357.39" y1="446.771" x2="493.567" y2="333.849" gradientUnits="userSpaceOnUse">
<stop stop-color="#FF9E0F"/>
<stop offset="1" stop-color="#FF7C0F"/>
</linearGradient>
<linearGradient id="paint7_linear_32920_286967" x1="344.159" y1="277.12" x2="384.121" y2="244.881" gradientUnits="userSpaceOnUse">
<stop stop-color="#FF9E0F"/>
<stop offset="1" stop-color="#FF7C0F"/>
</linearGradient>
<linearGradient id="paint8_linear_32920_286967" x1="310.363" y1="276.733" x2="331.928" y2="264.32" gradientUnits="userSpaceOnUse">
<stop stop-color="#FF9E0F"/>
<stop offset="1" stop-color="#FF7C0F"/>
</linearGradient>
<linearGradient id="paint9_linear_32920_286967" x1="22.6358" y1="278.036" x2="89.3053" y2="188.023" gradientUnits="userSpaceOnUse">
<stop stop-color="#FF9E0F"/>
<stop offset="1" stop-color="#FF7C0F"/>
</linearGradient>
<linearGradient id="paint10_linear_32920_286967" x1="40.3178" y1="250.862" x2="64.4656" y2="209.763" gradientUnits="userSpaceOnUse">
<stop stop-color="#FF9E0F"/>
<stop offset="1" stop-color="#FF7C0F"/>
</linearGradient>
<linearGradient id="paint11_linear_32920_286967" x1="593.084" y1="287.084" x2="616.895" y2="254.937" gradientUnits="userSpaceOnUse">
<stop stop-color="#FF9E0F"/>
<stop offset="1" stop-color="#FF7C0F"/>
</linearGradient>
<clipPath id="clip0_32920_286967">
<rect width="40" height="40" fill="white" transform="translate(114 521)"/>
</clipPath>
<clipPath id="clip1_32920_286967">
<rect width="40" height="40" fill="white" transform="translate(497 69)"/>
</clipPath>
<clipPath id="clip2_32920_286967">
<rect width="56" height="56" fill="white" transform="translate(29 205)"/>
</clipPath>
</defs>
</svg>
