<svg width="72" height="72" viewBox="0 0 72 72" fill="none" xmlns="http://www.w3.org/2000/svg">
<rect width="72" height="72" rx="36" fill="url(#paint0_linear_32916_284035)" fill-opacity="0.2"/>
<path d="M27.7334 26.5999C28.4001 26.3999 29.0667 26.3333 29.7334 26.3333C30.8001 26.3333 31.8667 26.5999 32.8001 27.0666C32.1334 25.5999 30.4667 24.9333 29.0001 25.5333C28.4667 25.7999 28.0667 26.1333 27.7334 26.5999Z" fill="url(#paint1_linear_32916_284035)"/>
<path d="M39.2 27.0667C40.1333 26.6 41.2 26.3334 42.2666 26.3334C42.9333 26.3334 43.6 26.4667 44.2666 26.6C43.6666 25.8 42.8 25.3334 41.8 25.3334C40.6666 25.3334 39.6 26 39.2 27.0667Z" fill="url(#paint2_linear_32916_284035)"/>
<path d="M39.2 33.3333C41.8666 31.5999 45.3333 31.5333 48 33.1999L45.9333 29.0666C45.8667 28.9333 45.8 28.8666 45.6667 28.7999C45.6667 28.7999 44.6 27.7333 42.2 27.7333C40.6667 27.7333 39.7333 28.1333 38.9333 28.8666C38.8 28.9333 38.7333 29.1333 38.6667 29.2666L38.3333 31.3333H37.6C37.4 31.1999 37.2667 31.0666 37.0667 30.9999C36.4 30.7333 35.6667 30.7333 35 30.9999C34.8 31.0666 34.6 31.1999 34.4667 31.3333H33.7333L33.3333 29.1999C33.3333 29.1333 33.2667 28.9999 33.2667 28.9999C32 27.9333 30.8 27.7333 29.8 27.7333C28.6667 27.7333 28.0667 27.6666 26.3333 28.7999C26.2 28.8666 26.1333 28.9333 26.0667 29.0666L24.0667 33.1999C26.7333 31.5999 30.1333 31.5999 32.8 33.3333C33.2667 33.6666 36 36.9999 36 36.9999C36 36.9999 38.6666 33.6666 39.2 33.3333Z" fill="url(#paint3_linear_32916_284035)"/>
<path d="M28.3333 33.3334C24.4666 33.3334 21.3333 36.4667 21.3333 40.3334C21.3333 44.2 24.4666 47.3334 28.3333 47.3334C32.1999 47.3334 35.3333 44.2 35.3333 40.3334C35.3333 36.4667 32.1999 33.3334 28.3333 33.3334ZM28.3333 44.9334C25.7999 44.9334 23.6666 42.8667 23.6666 40.2667C23.6666 37.7334 25.7333 35.6 28.3333 35.6C30.9333 35.6 32.9999 37.6667 32.9999 40.2667C32.9999 42.8667 30.8666 44.9334 28.3333 44.9334Z" fill="url(#paint4_linear_32916_284035)"/>
<path d="M43.6667 33.3334C39.8001 33.3334 36.6667 36.4667 36.6667 40.3334C36.6667 44.2 39.8001 47.3334 43.6667 47.3334C47.5334 47.3334 50.6667 44.2 50.6667 40.3334C50.6667 36.4667 47.5334 33.3334 43.6667 33.3334ZM43.6667 44.9334C41.1334 44.9334 39.0001 42.8667 39.0001 40.2667C39.0001 37.7334 41.0667 35.6 43.6667 35.6C46.2667 35.6 48.3334 37.6667 48.3334 40.2667C48.3334 42.8667 46.2001 44.9334 43.6667 44.9334Z" fill="url(#paint5_linear_32916_284035)"/>
<defs>
<linearGradient id="paint0_linear_32916_284035" x1="14.5516" y1="64.9516" x2="57.4105" y2="7.08631" gradientUnits="userSpaceOnUse">
<stop stop-color="#FF9E0F"/>
<stop offset="1" stop-color="#FF7C0F"/>
</linearGradient>
<linearGradient id="paint1_linear_32916_284035" x1="28.7574" y1="26.895" x2="29.2821" y2="24.8476" gradientUnits="userSpaceOnUse">
<stop stop-color="#FF9E0F"/>
<stop offset="1" stop-color="#FF7C0F"/>
</linearGradient>
<linearGradient id="paint2_linear_32916_284035" x1="40.224" y1="26.897" x2="40.7376" y2="24.8699" gradientUnits="userSpaceOnUse">
<stop stop-color="#FF9E0F"/>
<stop offset="1" stop-color="#FF7C0F"/>
</linearGradient>
<linearGradient id="paint3_linear_32916_284035" x1="28.9037" y1="36.0927" x2="31.9602" y2="25.4353" gradientUnits="userSpaceOnUse">
<stop stop-color="#FF9E0F"/>
<stop offset="1" stop-color="#FF7C0F"/>
</linearGradient>
<linearGradient id="paint4_linear_32916_284035" x1="24.1627" y1="45.9628" x2="32.4964" y2="34.7113" gradientUnits="userSpaceOnUse">
<stop stop-color="#FF9E0F"/>
<stop offset="1" stop-color="#FF7C0F"/>
</linearGradient>
<linearGradient id="paint5_linear_32916_284035" x1="39.4962" y1="45.9628" x2="47.8299" y2="34.7113" gradientUnits="userSpaceOnUse">
<stop stop-color="#FF9E0F"/>
<stop offset="1" stop-color="#FF7C0F"/>
</linearGradient>
</defs>
</svg>
