<svg width="34" height="34" viewBox="0 0 34 34" fill="none" xmlns="http://www.w3.org/2000/svg">
<rect x="1" y="1" width="32" height="32" rx="16" stroke="#CFDBD5" stroke-opacity="0.6" stroke-linecap="square"/>
<path d="M15.1326 10.9883C18.4372 10.9883 21.1443 13.6953 21.1443 17C21.1443 20.3047 18.4372 23.0117 15.1326 23.0117C14.8865 23.0117 14.6404 22.9766 14.3943 22.9414C15.8357 21.3242 16.6443 19.2148 16.6443 17C16.6443 14.7852 15.8357 12.6758 14.3943 11.0586C14.6404 11.0234 14.8865 10.9883 15.1326 10.9883ZM15.1326 9.51172C13.7966 9.51172 12.4958 9.86328 11.406 10.4961C13.6208 11.7969 15.1326 14.2227 15.1326 17C15.1326 19.7773 13.6208 22.2031 11.406 23.5039C12.4958 24.1367 13.7966 24.4883 15.1326 24.4883C19.281 24.4883 22.656 21.1484 22.656 17C22.656 12.8516 19.281 9.51172 15.1326 9.51172Z" fill="#27187E"/>
</svg>
