<svg width="72" height="72" viewBox="0 0 72 72" fill="none" xmlns="http://www.w3.org/2000/svg">
<rect width="72" height="72" rx="36" fill="url(#paint0_linear_32916_284025)" fill-opacity="0.2"/>
<g clip-path="url(#clip0_32916_284025)">
<path d="M39.7521 36.9383C39.7521 39.5246 37.648 41.6287 35.0617 41.6287C32.4754 41.6287 30.3712 39.5246 30.3712 36.9383C30.3712 34.3519 32.4754 32.2477 35.0617 32.2477C36.0165 32.2477 36.9051 32.5352 37.6469 33.0272L40.367 30.307C40.3057 30.2622 40.244 30.2175 40.1812 30.1736C38.3365 28.8845 36.4887 28.233 34.6811 28.233C34.5155 28.233 34.3504 28.2385 34.1855 28.2494C32.0045 28.3978 29.9727 29.3688 28.4656 30.9832C26.9548 32.5991 26.123 34.7137 26.123 36.9383C26.123 39.325 27.053 41.5695 28.7417 43.2582C30.4304 44.9469 32.6749 45.8768 35.0616 45.8768C37.4484 45.8768 39.6929 44.9468 41.3815 43.2582C43.0702 41.5695 44.0001 39.325 44.0001 36.9383C44.0001 34.9737 43.2067 33.0875 41.7744 31.5512L38.9725 34.353C39.4647 35.0948 39.7521 35.9835 39.7521 36.9383Z" fill="url(#paint1_linear_32916_284025)"/>
<path d="M34.3988 36.2754L36.2758 34.3984C35.908 34.2219 35.4963 34.1228 35.0618 34.1228C33.5093 34.1228 32.2463 35.3859 32.2463 36.9384C32.2463 38.4908 33.5093 39.7538 35.0618 39.7538C36.6142 39.7538 37.8772 38.4908 37.8772 36.9384C37.8772 36.5039 37.7782 36.0921 37.6017 35.7242L35.7247 37.6012L34.3988 36.2754Z" fill="url(#paint2_linear_32916_284025)"/>
<path d="M44.2677 29.0581L43.1012 30.2246C44.8852 32.1134 45.8753 34.4674 45.8753 36.9383C45.8753 39.826 44.7503 42.5412 42.7075 44.584C40.6646 46.6269 37.9493 47.752 35.0618 47.752C32.1742 47.752 29.4589 46.6269 27.416 44.584C25.3731 42.5412 24.2481 39.8259 24.2481 36.9383C24.2481 34.2366 25.2594 31.6671 27.0956 29.7033C28.9277 27.7405 31.4012 26.5596 34.0599 26.3786C36.4631 26.2198 38.8831 26.979 41.2553 28.6368C41.4093 28.7444 41.5591 28.8553 41.7061 28.9681L42.942 27.7323L43.1399 24.2203C40.7478 22.6943 37.9678 21.8766 35.0618 21.8766C31.0387 21.8766 27.2563 23.4433 24.4116 26.288C21.5667 29.1328 20 32.9151 20 36.9383C20 40.9614 21.5667 44.7438 24.4115 47.5885C27.2563 50.4333 31.0386 52 35.0618 52C39.0849 52 42.8673 50.4333 45.712 47.5885C48.5567 44.7437 50.1234 40.9614 50.1234 36.9383C50.1234 34.0323 49.3056 31.2523 47.7797 28.8601L44.2677 29.0581Z" fill="url(#paint3_linear_32916_284025)"/>
<path d="M44.8528 27.1471L48.6839 26.9312L51.9999 23.6151L48.3848 20L45.0688 23.316L44.8528 27.1471Z" fill="url(#paint4_linear_32916_284025)"/>
</g>
<defs>
<linearGradient id="paint0_linear_32916_284025" x1="14.5516" y1="64.9516" x2="57.4105" y2="7.08631" gradientUnits="userSpaceOnUse">
<stop stop-color="#FF9E0F"/>
<stop offset="1" stop-color="#FF7C0F"/>
</linearGradient>
<linearGradient id="paint1_linear_32916_284025" x1="29.7361" y1="44.1496" x2="40.1979" y2="29.8381" gradientUnits="userSpaceOnUse">
<stop stop-color="#FF9E0F"/>
<stop offset="1" stop-color="#FF7C0F"/>
</linearGradient>
<linearGradient id="paint2_linear_32916_284025" x1="33.3844" y1="39.2026" x2="36.7363" y2="34.6771" gradientUnits="userSpaceOnUse">
<stop stop-color="#FF9E0F"/>
<stop offset="1" stop-color="#FF7C0F"/>
</linearGradient>
<linearGradient id="paint3_linear_32916_284025" x1="26.0881" y1="49.0511" x2="44.0195" y2="24.8414" gradientUnits="userSpaceOnUse">
<stop stop-color="#FF9E0F"/>
<stop offset="1" stop-color="#FF7C0F"/>
</linearGradient>
<linearGradient id="paint4_linear_32916_284025" x1="46.2973" y1="26.4475" x2="50.5517" y2="20.7034" gradientUnits="userSpaceOnUse">
<stop stop-color="#FF9E0F"/>
<stop offset="1" stop-color="#FF7C0F"/>
</linearGradient>
<clipPath id="clip0_32916_284025">
<rect width="32" height="32" fill="white" transform="translate(20 20)"/>
</clipPath>
</defs>
</svg>
