<svg width="28" height="28" viewBox="0 0 28 28" fill="none" xmlns="http://www.w3.org/2000/svg">
<rect width="28" height="28" rx="14" fill="#F4F4F6"/>
<path d="M13.9031 17.942C11.6759 17.942 9.86377 16.1301 9.86377 13.9027C9.86377 11.6754 11.6759 9.86328 13.9031 9.86328C16.1306 9.86328 17.9425 11.6754 17.9425 13.9027C17.9425 16.1301 16.1306 17.942 13.9031 17.942Z" fill="black"/>
<path d="M12.7881 9.09276C12.7369 9.09276 12.6875 9.07045 12.6538 9.03023C12.6118 8.98036 12.6009 8.91134 12.6255 8.85092L13.7404 6.10941C13.7673 6.04338 13.8315 6 13.903 6C13.9745 6 14.0388 6.04338 14.0656 6.10941L15.1807 8.85092C15.2053 8.91134 15.1942 8.98036 15.1522 9.03023C15.1104 9.08011 15.044 9.10294 14.9805 9.08872C14.2701 8.93399 13.5354 8.93399 12.8254 9.08872C12.8131 9.09153 12.8006 9.09276 12.7881 9.09276Z" fill="black"/>
<path d="M13.903 21.8067C13.8315 21.8067 13.7673 21.7635 13.7404 21.6973L12.6255 18.9557C12.6009 18.8953 12.6118 18.8263 12.6538 18.7764C12.6958 18.7266 12.7618 18.7041 12.8256 18.718C13.5356 18.8729 14.2702 18.8729 14.9806 18.718C15.0444 18.7039 15.1106 18.7267 15.1524 18.7764C15.1944 18.8261 15.2054 18.8953 15.1809 18.9557L14.0658 21.6973C14.0388 21.7635 13.9745 21.8067 13.903 21.8067Z" fill="black"/>
<path d="M8.91713 15.1934C8.89483 15.1934 8.87235 15.1892 8.85092 15.1806L6.10941 14.0656C6.04338 14.0385 6 13.9742 6 13.9028C6 13.8313 6.04338 13.767 6.10959 13.7401L8.8511 12.6253C8.91134 12.6007 8.98053 12.6116 9.03041 12.6535C9.08029 12.6955 9.10277 12.7617 9.08889 12.8253C9.01144 13.1802 8.9721 13.5429 8.9721 13.9028C8.9721 14.2626 9.01144 14.6251 9.08889 14.9804C9.10277 15.044 9.08029 15.1102 9.03041 15.1522C8.99809 15.1794 8.95788 15.1934 8.91713 15.1934Z" fill="black"/>
<path d="M18.889 15.1934C18.8484 15.1934 18.808 15.1794 18.7759 15.1522C18.726 15.1104 18.7035 15.0442 18.7174 14.9804C18.7947 14.6253 18.834 14.2626 18.834 13.9028C18.834 13.5429 18.7947 13.1802 18.7174 12.8253C18.7035 12.7617 18.726 12.6955 18.7759 12.6535C18.8256 12.6116 18.8946 12.6007 18.9552 12.6253L21.6967 13.7401C21.7629 13.767 21.8061 13.8313 21.8061 13.9028C21.8061 13.9742 21.7629 14.0385 21.6967 14.0654L18.9552 15.1804C18.9338 15.189 18.9113 15.1934 18.889 15.1934Z" fill="black"/>
<path d="M9.58914 11.3417C9.58422 11.3417 9.57913 11.3416 9.57421 11.341C9.50923 11.3354 9.45268 11.2943 9.42739 11.2344L8.27722 8.50749C8.24947 8.44163 8.2644 8.36559 8.3148 8.31501C8.36538 8.26443 8.4416 8.24985 8.50729 8.27742L11.2342 9.42759C11.2943 9.45288 11.3354 9.50943 11.3408 9.57424C11.3464 9.63922 11.3155 9.70192 11.2607 9.73704C10.9546 9.93357 10.6706 10.1621 10.4162 10.4164C10.1618 10.6708 9.93319 10.9548 9.73684 11.2609C9.70435 11.3115 9.6485 11.3417 9.58914 11.3417Z" fill="black"/>
<path d="M19.3672 19.543C19.3442 19.543 19.321 19.5386 19.2989 19.5293L16.5721 18.3791C16.512 18.3537 16.4709 18.2971 16.4655 18.2323C16.4599 18.1673 16.4908 18.1046 16.5456 18.0693C16.852 17.8725 17.1362 17.6438 17.39 17.39C17.6438 17.1364 17.8724 16.8521 18.0693 16.5456C18.1046 16.4908 18.1664 16.4597 18.2323 16.4655C18.2971 16.471 18.3536 16.5122 18.3791 16.5721L19.5293 19.2989C19.5569 19.3648 19.5421 19.441 19.4915 19.4914C19.4578 19.5253 19.4128 19.543 19.3672 19.543Z" fill="black"/>
<path d="M18.2169 11.3416C18.1574 11.3416 18.1017 11.3116 18.0691 11.261C17.8722 10.9544 17.6435 10.6704 17.3897 10.4164C17.1356 10.1623 16.8515 9.93364 16.5453 9.73712C16.4904 9.702 16.4596 9.6393 16.4653 9.57432C16.4707 9.50933 16.512 9.45296 16.5719 9.42767L19.2986 8.2775C19.3641 8.24975 19.4405 8.2645 19.4911 8.31508C19.5417 8.36566 19.5564 8.44171 19.5289 8.50757L18.3787 11.2345C18.3532 11.2946 18.2967 11.3357 18.2319 11.3411C18.227 11.3415 18.222 11.3416 18.2169 11.3416Z" fill="black"/>
<path d="M8.43884 19.5432C8.39318 19.5432 8.34822 19.5253 8.31467 19.4918C8.26409 19.4412 8.24917 19.3651 8.27709 19.2993L9.42726 16.5725C9.45255 16.5125 9.5091 16.4714 9.57391 16.4659C9.63889 16.4584 9.70159 16.4912 9.73671 16.546C9.93323 16.8519 10.1619 17.1361 10.416 17.3904C10.67 17.6444 10.954 17.8729 11.2606 18.0697C11.3154 18.105 11.3463 18.1677 11.3407 18.2327C11.3351 18.2975 11.294 18.3541 11.2341 18.3795L8.50716 19.5297C8.48503 19.5388 8.46202 19.5432 8.43884 19.5432Z" fill="black"/>
</svg>
