<svg width="20" height="20" viewBox="0 0 20 20" fill="none" xmlns="http://www.w3.org/2000/svg">
<path d="M17.2857 5.34934C16.75 5.61921 16.2143 5.70917 15.5893 5.79913C16.2143 5.4393 16.6607 4.89956 16.8393 4.17991C16.3036 4.53974 15.6786 4.71965 14.9643 4.89956C14.4286 4.35983 13.625 4 12.8214 4C11.3036 4 9.96429 5.34935 9.96429 6.96856C9.96429 7.23843 9.96429 7.41834 10.0536 7.59825C7.64286 7.5083 5.41071 6.33886 3.98214 4.53974C3.71429 4.98952 3.625 5.4393 3.625 6.069C3.625 7.05852 4.16071 7.95808 4.96429 8.49782C4.51786 8.49782 4.07143 8.3179 3.625 8.13799V8.13799C3.625 9.57729 4.60714 10.7467 5.94643 11.0166C5.67857 11.1066 5.41071 11.1066 5.14286 11.1066C4.96429 11.1066 4.78571 11.1066 4.60714 11.0166C4.96429 12.186 6.03571 13.0856 7.375 13.0856C6.39286 13.8952 5.14286 14.345 3.71429 14.345C3.44643 14.345 3.26786 14.345 3 14.345C4.33929 15.1546 5.85714 15.6943 7.46429 15.6943C12.8214 15.6943 15.7679 11.1965 15.7679 7.32838C15.7679 7.23843 15.7679 7.05852 15.7679 6.96856C16.3929 6.51878 16.9286 5.97904 17.2857 5.34934Z" fill="#F9FAFB"/>
</svg>
