<svg width="303" height="275" viewBox="0 0 303 275" fill="none" xmlns="http://www.w3.org/2000/svg">
<path d="M262.536 275L242.349 268.881L222.163 275L201.976 268.881L181.789 275L161.602 268.881L141.416 275L121.229 268.881L101.042 275L80.8464 268.881L60.6596 275L40.4729 268.881L20.2771 275L0 268.855L0.17161 268.552L20.2771 274.645L40.4729 268.526L60.6596 274.645L80.8464 268.526L101.042 274.645L121.229 268.526L141.416 274.645L161.602 268.526L181.789 274.645L201.976 268.526L222.163 274.645L242.349 268.526L262.536 274.645L282.723 268.526L303 274.671L302.828 274.974L282.723 268.881L262.536 275Z" fill="#287E74" fill-opacity="0.36"/>
<path d="M262.536 269.163L242.349 263.044L222.163 269.163L201.976 263.044L181.789 269.163L161.602 263.044L141.416 269.163L121.229 263.044L101.042 269.163L80.8464 263.044L60.6596 269.163L40.4729 263.044L20.2771 269.163L0 263.018L0.17161 262.715L20.2771 268.808L40.4729 262.689L60.6596 268.808L80.8464 262.689L101.042 268.808L121.229 262.689L141.416 268.808L161.602 262.689L181.789 268.808L201.976 262.689L222.163 268.808L242.349 262.689L262.536 268.808L282.723 262.689L303 268.835L302.828 269.137L282.723 263.044L262.536 269.163Z" fill="#287E74" fill-opacity="0.36"/>
<path d="M262.536 263.327L242.349 257.207L222.163 263.327L201.976 257.207L181.789 263.327L161.602 257.207L141.416 263.327L121.229 257.207L101.042 263.327L80.8464 257.207L60.6596 263.327L40.4729 257.207L20.2771 263.327L0 257.181L0.17161 256.879L20.2771 262.972L40.4729 256.853L60.6596 262.972L80.8464 256.853L101.042 262.972L121.229 256.853L141.416 262.972L161.602 256.853L181.789 262.972L201.976 256.853L222.163 262.972L242.349 256.853L262.536 262.972L282.723 256.853L303 262.998L302.828 263.3L282.723 257.207L262.536 263.327Z" fill="#287E74" fill-opacity="0.36"/>
<path d="M262.536 257.49L242.349 251.371L222.163 257.49L201.976 251.371L181.789 257.49L161.602 251.371L141.416 257.49L121.229 251.371L101.042 257.49L80.8464 251.371L60.6596 257.49L40.4729 251.371L20.2771 257.49L0 251.345L0.17161 251.042L20.2771 257.135L40.4729 251.016L60.6596 257.135L80.8464 251.016L101.042 257.135L121.229 251.016L141.416 257.135L161.602 251.016L181.789 257.135L201.976 251.016L222.163 257.135L242.349 251.016L262.536 257.135L282.723 251.016L303 257.162L302.828 257.464L282.723 251.371L262.536 257.49Z" fill="#287E74" fill-opacity="0.36"/>
<path d="M262.536 251.653L242.349 245.534L222.163 251.653L201.976 245.534L181.789 251.653L161.602 245.534L141.416 251.653L121.229 245.534L101.042 251.653L80.8464 245.534L60.6596 251.653L40.4729 245.534L20.2771 251.653L0 245.508L0.17161 245.199L20.2771 251.298L40.4729 245.172L60.6596 251.298L80.8464 245.172L101.042 251.298L121.229 245.172L141.416 251.298L161.602 245.172L181.789 251.298L201.976 245.172L222.163 251.298L242.349 245.172L262.536 251.298L282.723 245.172L303 251.325L302.828 251.627L282.723 245.534L262.536 251.653Z" fill="#287E74" fill-opacity="0.36"/>
<path d="M262.536 245.817L242.349 239.691L222.163 245.817L201.976 239.691L181.789 245.817L161.602 239.691L141.416 245.817L121.229 239.691L101.042 245.817L80.8464 239.691L60.6596 245.817L40.4729 239.691L20.2771 245.817L0 239.665L0.17161 239.362L20.2771 245.462L40.4729 239.336L60.6596 245.462L80.8464 239.336L101.042 245.462L121.229 239.336L141.416 245.462L161.602 239.336L181.789 245.462L201.976 239.336L222.163 245.462L242.349 239.336L262.536 245.462L282.723 239.336L303 245.488L302.828 245.791L282.723 239.691L262.536 245.817Z" fill="#287E74" fill-opacity="0.36"/>
<path d="M262.536 239.98L242.349 233.854L222.163 239.98L201.976 233.854L181.789 239.98L161.602 233.854L141.416 239.98L121.229 233.854L101.042 239.98L80.8464 233.854L60.6596 239.98L40.4729 233.854L20.2771 239.98L0 233.828L0.17161 233.526L20.2771 239.625L40.4729 233.499L60.6596 239.625L80.8464 233.499L101.042 239.625L121.229 233.499L141.416 239.625L161.602 233.499L181.789 239.625L201.976 233.499L222.163 239.625L242.349 233.499L262.536 239.625L282.723 233.499L303 239.651L302.828 239.954L282.723 233.854L262.536 239.98Z" fill="#287E74" fill-opacity="0.36"/>
<path d="M262.536 234.143L242.349 228.018L222.163 234.143L201.976 228.018L181.789 234.143L161.602 228.018L141.416 234.143L121.229 228.018L101.042 234.143L80.8464 228.018L60.6596 234.143L40.4729 228.018L20.2771 234.143L0 227.991L0.17161 227.689L20.2771 233.782L40.4729 227.663L60.6596 233.782L80.8464 227.663L101.042 233.782L121.229 227.663L141.416 233.782L161.602 227.663L181.789 233.782L201.976 227.663L222.163 233.782L242.349 227.663L262.536 233.782L282.723 227.663L303 233.808L302.828 234.117L282.723 228.018L262.536 234.143Z" fill="#287E74" fill-opacity="0.36"/>
<path d="M262.536 228.3L242.349 222.181L222.163 228.3L201.976 222.181L181.789 228.3L161.602 222.181L141.416 228.3L121.229 222.181L101.042 228.3L80.8464 222.181L60.6596 228.3L40.4729 222.181L20.2771 228.3L0 222.155L0.17161 221.852L20.2771 227.945L40.4729 221.826L60.6596 227.945L80.8464 221.826L101.042 227.945L121.229 221.826L141.416 227.945L161.602 221.826L181.789 227.945L201.976 221.826L222.163 227.945L242.349 221.826L262.536 227.945L282.723 221.826L303 227.972L302.828 228.274L282.723 222.181L262.536 228.3Z" fill="#287E74" fill-opacity="0.36"/>
<path d="M262.536 222.464L242.349 216.344L222.163 222.464L201.976 216.344L181.789 222.464L161.602 216.344L141.416 222.464L121.229 216.344L101.042 222.464L80.8464 216.344L60.6596 222.464L40.4729 216.344L20.2771 222.464L0 216.318L0.17161 216.016L20.2771 222.109L40.4729 215.989L60.6596 222.109L80.8464 215.989L101.042 222.109L121.229 215.989L141.416 222.109L161.602 215.989L181.789 222.109L201.976 215.989L222.163 222.109L242.349 215.989L262.536 222.109L282.723 215.989L303 222.135L302.828 222.437L282.723 216.344L262.536 222.464Z" fill="#287E74" fill-opacity="0.36"/>
<path d="M262.536 216.627L242.349 210.508L222.163 216.627L201.976 210.508L181.789 216.627L161.602 210.508L141.416 216.627L121.229 210.508L101.042 216.627L80.8464 210.508L60.6596 216.627L40.4729 210.508L20.2771 216.627L0 210.481L0.17161 210.179L20.2771 216.272L40.4729 210.153L60.6596 216.272L80.8464 210.153L101.042 216.272L121.229 210.153L141.416 216.272L161.602 210.153L181.789 216.272L201.976 210.153L222.163 216.272L242.349 210.153L262.536 216.272L282.723 210.153L303 216.298L302.828 216.601L282.723 210.508L262.536 216.627Z" fill="#287E74" fill-opacity="0.36"/>
<path d="M262.536 210.79L242.349 204.671L222.163 210.79L201.976 204.671L181.789 210.79L161.602 204.671L141.416 210.79L121.229 204.671L101.042 210.79L80.8464 204.671L60.6596 210.79L40.4729 204.671L20.2771 210.79L0 204.645L0.17161 204.336L20.2771 210.435L40.4729 204.309L60.6596 210.435L80.8464 204.309L101.042 210.435L121.229 204.309L141.416 210.435L161.602 204.309L181.789 210.435L201.976 204.309L222.163 210.435L242.349 204.309L262.536 210.435L282.723 204.309L303 210.461L302.828 210.764L282.723 204.671L262.536 210.79Z" fill="#287E74" fill-opacity="0.36"/>
<path d="M262.536 204.954L242.349 198.834L222.163 204.954L201.976 198.834L181.789 204.954L161.602 198.834L141.416 204.954L121.229 198.834L101.042 204.954L80.8464 198.834L60.6596 204.954L40.4729 198.834L20.2771 204.954L0 198.808L0.17161 198.499L20.2771 204.599L40.4729 198.473L60.6596 204.599L80.8464 198.473L101.042 204.599L121.229 198.473L141.416 204.599L161.602 198.473L181.789 204.599L201.976 198.473L222.163 204.599L242.349 198.473L262.536 204.599L282.723 198.473L303 204.625L302.828 204.927L282.723 198.834L262.536 204.954Z" fill="#287E74" fill-opacity="0.36"/>
<path d="M60.6596 199.117L40.4729 192.991L20.2771 199.117L0 192.965L0.17161 192.662L20.2771 198.762L40.4729 192.636L60.6596 198.762L80.8464 192.636L101.042 198.762L121.229 192.636L141.416 198.762L161.602 192.636L181.789 198.762L201.976 192.636L222.163 198.762L242.349 192.636L262.536 198.762L282.723 192.636L303 198.788L302.828 199.091L282.723 192.991L262.536 199.117L242.349 192.991L222.163 199.117L201.976 192.991L181.789 199.117L161.602 192.991L141.416 199.117L121.229 192.991L101.042 199.117L80.8464 192.991L60.6596 199.117Z" fill="#287E74" fill-opacity="0.36"/>
<path d="M262.536 193.28L242.349 187.154L222.163 193.28L201.976 187.154L181.789 193.28L161.602 187.154L141.416 193.28L121.229 187.154L101.042 193.28L80.8464 187.154L60.6596 193.28L40.4729 187.154L20.2771 193.28L0 187.128L0.17161 186.826L20.2771 192.919L40.4729 186.799L60.6596 192.919L80.8464 186.799L101.042 192.919L121.229 186.799L141.416 192.919L161.602 186.799L181.789 192.919L201.976 186.799L222.163 192.919L242.349 186.799L262.536 192.919L282.723 186.799L303 192.945L302.828 193.254L282.723 187.154L262.536 193.28Z" fill="#287E74" fill-opacity="0.36"/>
<path d="M262.536 187.444L242.349 181.318L222.163 187.444L201.976 181.318L181.789 187.444L161.602 181.318L141.416 187.444L121.229 181.318L101.042 187.444L80.8464 181.318L60.6596 187.444L40.4729 181.318L20.2771 187.444L0 181.291L0.17161 180.989L20.2771 187.082L40.4729 180.963L60.6596 187.082L80.8464 180.963L101.042 187.082L121.229 180.963L141.416 187.082L161.602 180.963L181.789 187.082L201.976 180.963L222.163 187.082L242.349 180.963L262.536 187.082L282.723 180.963L303 187.108L302.828 187.417L282.723 181.318L262.536 187.444Z" fill="#287E74" fill-opacity="0.36"/>
<path d="M262.536 181.6L242.349 175.481L222.163 181.6L201.976 175.481L181.789 181.6L161.602 175.481L141.416 181.6L121.229 175.481L101.042 181.6L80.8464 175.481L60.6596 181.6L40.4729 175.481L20.2771 181.6L0 175.455L0.17161 175.153L20.2771 181.246L40.4729 175.126L60.6596 181.246L80.8464 175.126L101.042 181.246L121.229 175.126L141.416 181.246L161.602 175.126L181.789 181.246L201.976 175.126L222.163 181.246L242.349 175.126L262.536 181.246L282.723 175.126L303 181.272L302.828 181.574L282.723 175.481L262.536 181.6Z" fill="#287E74" fill-opacity="0.36"/>
<path d="M262.536 175.764L242.349 169.644L222.163 175.764L201.976 169.644L181.789 175.764L161.602 169.644L141.416 175.764L121.229 169.644L101.042 175.764L80.8464 169.644L60.6596 175.764L40.4729 169.644L20.2771 175.764L0 169.618L0.17161 169.316L20.2771 175.409L40.4729 169.289L60.6596 175.409L80.8464 169.289L101.042 175.409L121.229 169.289L141.416 175.409L161.602 169.289L181.789 175.409L201.976 169.289L222.163 175.409L242.349 169.289L262.536 175.409L282.723 169.289L303 175.435L302.828 175.737L282.723 169.644L262.536 175.764Z" fill="#287E74" fill-opacity="0.36"/>
<path d="M262.536 169.927L242.349 163.808L222.163 169.927L201.976 163.808L181.789 169.927L161.602 163.808L141.416 169.927L121.229 163.808L101.042 169.927L80.8464 163.808L60.6596 169.927L40.4729 163.808L20.2771 169.927L0 163.781L0.17161 163.479L20.2771 169.572L40.4729 163.453L60.6596 169.572L80.8464 163.453L101.042 169.572L121.229 163.453L141.416 169.572L161.602 163.453L181.789 169.572L201.976 163.453L222.163 169.572L242.349 163.453L262.536 169.572L282.723 163.453L303 169.598L302.828 169.901L282.723 163.808L262.536 169.927Z" fill="#287E74" fill-opacity="0.36"/>
<path d="M262.536 164.09L242.349 157.971L222.163 164.09L201.976 157.971L181.789 164.09L161.602 157.971L141.416 164.09L121.229 157.971L101.042 164.09L80.8464 157.971L60.6596 164.09L40.4729 157.971L20.2771 164.09L0 157.945L0.17161 157.636L20.2771 163.735L40.4729 157.61L60.6596 163.735L80.8464 157.61L101.042 163.735L121.229 157.61L141.416 163.735L161.602 157.61L181.789 163.735L201.976 157.61L222.163 163.735L242.349 157.61L262.536 163.735L282.723 157.61L303 163.762L302.828 164.064L282.723 157.971L262.536 164.09Z" fill="#287E74" fill-opacity="0.36"/>
<path d="M262.536 158.254L242.349 152.134L222.163 158.254L201.976 152.134L181.789 158.254L161.602 152.134L141.416 158.254L121.229 152.134L101.042 158.254L80.8464 152.134L60.6596 158.254L40.4729 152.134L20.2771 158.254L0 152.108L0.17161 151.799L20.2771 157.899L40.4729 151.773L60.6596 157.899L80.8464 151.773L101.042 157.899L121.229 151.773L141.416 157.899L161.602 151.773L181.789 157.899L201.976 151.773L222.163 157.899L242.349 151.773L262.536 157.899L282.723 151.773L303 157.925L302.828 158.227L282.723 152.134L262.536 158.254Z" fill="#287E74" fill-opacity="0.36"/>
<path d="M262.536 152.417L242.349 146.291L222.163 152.417L201.976 146.291L181.789 152.417L161.602 146.291L141.416 152.417L121.229 146.291L101.042 152.417L80.8464 146.291L60.6596 152.417L40.4729 146.291L20.2771 152.417L0 146.265L0.17161 145.963L20.2771 152.062L40.4729 145.936L60.6596 152.062L80.8464 145.936L101.042 152.062L121.229 145.936L141.416 152.062L161.602 145.936L181.789 152.062L201.976 145.936L222.163 152.062L242.349 145.936L262.536 152.062L282.723 145.936L303 152.088L302.828 152.391L282.723 146.291L262.536 152.417Z" fill="#287E74" fill-opacity="0.36"/>
<path d="M262.536 146.581L242.349 140.455L222.163 146.581L201.976 140.455L181.789 146.581L161.602 140.455L141.416 146.581L121.229 140.455L101.042 146.581L80.8464 140.455L60.6596 146.581L40.4729 140.455L20.2771 146.581L0 140.428L0.17161 140.126L20.2771 146.219L40.4729 140.1L60.6596 146.219L80.8464 140.1L101.042 146.219L121.229 140.1L141.416 146.219L161.602 140.1L181.789 146.219L201.976 140.1L222.163 146.219L242.349 140.1L262.536 146.219L282.723 140.1L303 146.245L302.828 146.554L282.723 140.455L262.536 146.581Z" fill="#287E74" fill-opacity="0.36"/>
<path d="M262.536 140.737L242.349 134.618L222.163 140.737L201.976 134.618L181.789 140.737L161.602 134.618L141.416 140.737L121.229 134.618L101.042 140.737L80.8464 134.618L60.6596 140.737L40.4729 134.618L20.2771 140.737L0 134.592L0.17161 134.289L20.2771 140.382L40.4729 134.263L60.6596 140.382L80.8464 134.263L101.042 140.382L121.229 134.263L141.416 140.382L161.602 134.263L181.789 140.382L201.976 134.263L222.163 140.382L242.349 134.263L262.536 140.382L282.723 134.263L303 140.409L302.828 140.717L282.723 134.618L262.536 140.737Z" fill="#287E74" fill-opacity="0.36"/>
<path d="M262.536 134.9L242.349 128.781L222.163 134.9L201.976 128.781L181.789 134.9L161.602 128.781L141.416 134.9L121.229 128.781L101.042 134.9L80.8464 128.781L60.6596 134.9L40.4729 128.781L20.2771 134.9L0 128.755L0.17161 128.453L20.2771 134.546L40.4729 128.426L60.6596 134.546L80.8464 128.426L101.042 134.546L121.229 128.426L141.416 134.546L161.602 128.426L181.789 134.546L201.976 128.426L222.163 134.546L242.349 128.426L262.536 134.546L282.723 128.426L303 134.572L302.828 134.874L282.723 128.781L262.536 134.9Z" fill="#287E74" fill-opacity="0.36"/>
<path d="M262.536 129.064L242.349 122.945L222.163 129.064L201.976 122.945L181.789 129.064L161.602 122.945L141.416 129.064L121.229 122.945L101.042 129.064L80.8464 122.945L60.6596 129.064L40.4729 122.945L20.2771 129.064L0 122.918L0.17161 122.616L20.2771 128.709L40.4729 122.59L60.6596 128.709L80.8464 122.59L101.042 128.709L121.229 122.59L141.416 128.709L161.602 122.59L181.789 128.709L201.976 122.59L222.163 128.709L242.349 122.59L262.536 128.709L282.723 122.59L303 128.735L302.828 129.038L282.723 122.945L262.536 129.064Z" fill="#287E74" fill-opacity="0.36"/>
<path d="M262.536 123.227L242.349 117.108L222.163 123.227L201.976 117.108L181.789 123.227L161.602 117.108L141.416 123.227L121.229 117.108L101.042 123.227L80.8464 117.108L60.6596 123.227L40.4729 117.108L20.2771 123.227L0 117.082L0.17161 116.779L20.2771 122.872L40.4729 116.753L60.6596 122.872L80.8464 116.753L101.042 122.872L121.229 116.753L141.416 122.872L161.602 116.753L181.789 122.872L201.976 116.753L222.163 122.872L242.349 116.753L262.536 122.872L282.723 116.753L303 122.899L302.828 123.201L282.723 117.108L262.536 123.227Z" fill="#287E74" fill-opacity="0.36"/>
<path d="M262.536 117.39L242.349 111.271L222.163 117.39L201.976 111.271L181.789 117.39L161.602 111.271L141.416 117.39L121.229 111.271L101.042 117.39L80.8464 111.271L60.6596 117.39L40.4729 111.271L20.2771 117.39L0 111.245L0.17161 110.936L20.2771 117.036L40.4729 110.91L60.6596 117.036L80.8464 110.91L101.042 117.036L121.229 110.91L141.416 117.036L161.602 110.91L181.789 117.036L201.976 110.91L222.163 117.036L242.349 110.91L262.536 117.036L282.723 110.91L303 117.062L302.828 117.364L282.723 111.271L262.536 117.39Z" fill="#287E74" fill-opacity="0.36"/>
<path d="M262.536 111.554L242.349 105.435L222.163 111.554L201.976 105.435L181.789 111.554L161.602 105.435L141.416 111.554L121.229 105.435L101.042 111.554L80.8464 105.435L60.6596 111.554L40.4729 105.435L20.2771 111.554L0 105.408L0.17161 105.099L20.2771 111.199L40.4729 105.073L60.6596 111.199L80.8464 105.073L101.042 111.199L121.229 105.073L141.416 111.199L161.602 105.073L181.789 111.199L201.976 105.073L222.163 111.199L242.349 105.073L262.536 111.199L282.723 105.073L303 111.225L302.828 111.528L282.723 105.435L262.536 111.554Z" fill="#287E74" fill-opacity="0.36"/>
<path d="M262.536 105.717L242.349 99.5913L222.163 105.717L201.976 99.5913L181.789 105.717L161.602 99.5913L141.416 105.717L121.229 99.5913L101.042 105.717L80.8464 99.5913L60.6596 105.717L40.4729 99.5913L20.2771 105.717L0 99.565L0.17161 99.2626L20.2771 105.362L40.4729 99.2363L60.6596 105.362L80.8464 99.2363L101.042 105.362L121.229 99.2363L141.416 105.362L161.602 99.2363L181.789 105.362L201.976 99.2363L222.163 105.362L242.349 99.2363L262.536 105.362L282.723 99.2363L303 105.388L302.828 105.691L282.723 99.5913L262.536 105.717Z" fill="#287E74" fill-opacity="0.36"/>
<path d="M262.536 99.8807L242.349 93.7548L222.163 99.8807L201.976 93.7548L181.789 99.8807L161.602 93.7548L141.416 99.8807L121.229 93.7548L101.042 99.8807L80.8464 93.7548L60.6596 99.8807L40.4729 93.7548L20.2771 99.8807L0 93.7285L0.17161 93.4262L20.2771 99.5192L40.4729 93.3999L60.6596 99.5192L80.8464 93.3999L101.042 99.5192L121.229 93.3999L141.416 99.5192L161.602 93.3999L181.789 99.5192L201.976 93.3999L222.163 99.5192L242.349 93.3999L262.536 99.5192L282.723 93.3999L303 99.5455L302.828 99.8544L282.723 93.7548L262.536 99.8807Z" fill="#287E74" fill-opacity="0.36"/>
<path d="M262.536 94.0373L242.349 87.918L222.163 94.0373L201.976 87.918L181.789 94.0373L161.602 87.918L141.416 94.0373L121.229 87.918L101.042 94.0373L80.8464 87.918L60.6596 94.0373L40.4729 87.918L20.2771 94.0373L0 87.8918L0.17161 87.5894L20.2771 93.6824L40.4729 87.5631L60.6596 93.6824L80.8464 87.5631L101.042 93.6824L121.229 87.5631L141.416 93.6824L161.602 87.5631L181.789 93.6824L201.976 87.5631L222.163 93.6824L242.349 87.5631L262.536 93.6824L282.723 87.5631L303 93.7087L302.828 94.011L282.723 87.918L262.536 94.0373Z" fill="#287E74" fill-opacity="0.36"/>
<path d="M262.536 88.2005L242.349 82.0813L222.163 88.2005L201.976 82.0813L181.789 88.2005L161.602 82.0813L141.416 88.2005L121.229 82.0813L101.042 88.2005L80.8464 82.0813L60.6596 88.2005L40.4729 82.0813L20.2771 88.2005L0 82.055L0.17161 81.7526L20.2771 87.8456L40.4729 81.7263L60.6596 87.8456L80.8464 81.7263L101.042 87.8456L121.229 81.7263L141.416 87.8456L161.602 81.7263L181.789 87.8456L201.976 81.7263L222.163 87.8456L242.349 81.7263L262.536 87.8456L282.723 81.7263L303 87.8719L302.828 88.1742L282.723 82.0813L262.536 88.2005Z" fill="#287E74" fill-opacity="0.36"/>
<path d="M262.536 82.364L242.349 76.2447L222.163 82.364L201.976 76.2447L181.789 82.364L161.602 76.2447L141.416 82.364L121.229 76.2447L101.042 82.364L80.8464 76.2447L60.6596 82.364L40.4729 76.2447L20.2771 82.364L0 76.2184L0.17161 75.9161L20.2771 82.0091L40.4729 75.8898L60.6596 82.0091L80.8464 75.8898L101.042 82.0091L121.229 75.8898L141.416 82.0091L161.602 75.8898L181.789 82.0091L201.976 75.8898L222.163 82.0091L242.349 75.8898L262.536 82.0091L282.723 75.8898L303 82.0354L302.828 82.3377L282.723 76.2447L262.536 82.364Z" fill="#287E74" fill-opacity="0.36"/>
<path d="M262.536 76.5273L242.349 70.408L222.163 76.5273L201.976 70.408L181.789 76.5273L161.602 70.408L141.416 76.5273L121.229 70.408L101.042 76.5273L80.8464 70.408L60.6596 76.5273L40.4729 70.408L20.2771 76.5273L0 70.3817L0.17161 70.0794L20.2771 76.1724L40.4729 70.0531L60.6596 76.1724L80.8464 70.0531L101.042 76.1724L121.229 70.0531L141.416 76.1724L161.602 70.0531L181.789 76.1724L201.976 70.0531L222.163 76.1724L242.349 70.0531L262.536 76.1724L282.723 70.0531L303 76.1987L302.828 76.501L282.723 70.408L262.536 76.5273Z" fill="#287E74" fill-opacity="0.36"/>
<path d="M262.536 70.6906L242.349 64.5713L222.163 70.6906L201.976 64.5713L181.789 70.6906L161.602 64.5713L141.416 70.6906L121.229 64.5713L101.042 70.6906L80.8464 64.5713L60.6596 70.6906L40.4729 64.5713L20.2771 70.6906L0 64.545L0.17161 64.2361L20.2771 70.3357L40.4729 64.2098L60.6596 70.3357L80.8464 64.2098L101.042 70.3357L121.229 64.2098L141.416 70.3357L161.602 64.2098L181.789 70.3357L201.976 64.2098L222.163 70.3357L242.349 64.2098L262.536 70.3357L282.723 64.2098L303 70.362L302.828 70.6643L282.723 64.5713L262.536 70.6906Z" fill="#287E74" fill-opacity="0.36"/>
<path d="M262.536 64.8541L242.349 58.7348L222.163 64.8541L201.976 58.7348L181.789 64.8541L161.602 58.7348L141.416 64.8541L121.229 58.7348L101.042 64.8541L80.8464 58.7348L60.6596 64.8541L40.4729 58.7348L20.2771 64.8541L0 58.7085L0.17161 58.3996L20.2771 64.4992L40.4729 58.3733L60.6596 64.4992L80.8464 58.3733L101.042 64.4992L121.229 58.3733L141.416 64.4992L161.602 58.3733L181.789 64.4992L201.976 58.3733L222.163 64.4992L242.349 58.3733L262.536 64.4992L282.723 58.3733L303 64.5254L302.828 64.8278L282.723 58.7348L262.536 64.8541Z" fill="#287E74" fill-opacity="0.36"/>
<path d="M262.536 59.0173L242.349 52.8914L222.163 59.0173L201.976 52.8914L181.789 59.0173L161.602 52.8914L141.416 59.0173L121.229 52.8914L101.042 59.0173L80.8464 52.8914L60.6596 59.0173L40.4729 52.8914L20.2771 59.0173L0 52.8651L0.17161 52.5628L20.2771 58.6624L40.4729 52.5365L60.6596 58.6624L80.8464 52.5365L101.042 58.6624L121.229 52.5365L141.416 58.6624L161.602 52.5365L181.789 58.6624L201.976 52.5365L222.163 58.6624L242.349 52.5365L262.536 58.6624L282.723 52.5365L303 58.6887L302.828 58.991L282.723 52.8914L262.536 59.0173Z" fill="#287E74" fill-opacity="0.36"/>
<path d="M262.536 53.1807L242.349 47.0549L222.163 53.1807L201.976 47.0549L181.789 53.1807L161.602 47.0549L141.416 53.1807L121.229 47.0549L101.042 53.1807L80.8464 47.0549L60.6596 53.1807L40.4729 47.0549L20.2771 53.1807L0 47.0286L0.17161 46.7262L20.2771 52.8192L40.4729 46.7L60.6596 52.8192L80.8464 46.7L101.042 52.8192L121.229 46.7L141.416 52.8192L161.602 46.7L181.789 52.8192L201.976 46.7L222.163 52.8192L242.349 46.7L262.536 52.8192L282.723 46.7L303 52.8455L302.828 53.1545L282.723 47.0549L262.536 53.1807Z" fill="#287E74" fill-opacity="0.36"/>
<path d="M262.536 47.3375L242.349 41.2182L222.163 47.3375L201.976 41.2182L181.789 47.3375L161.602 41.2182L141.416 47.3375L121.229 41.2182L101.042 47.3375L80.8464 41.2182L60.6596 47.3375L40.4729 41.2182L20.2771 47.3375L0 41.1919L0.17161 40.8896L20.2771 46.9826L40.4729 40.8633L60.6596 46.9826L80.8464 40.8633L101.042 46.9826L121.229 40.8633L141.416 46.9826L161.602 40.8633L181.789 46.9826L201.976 40.8633L222.163 46.9826L242.349 40.8633L262.536 46.9826L282.723 40.8633L303 47.0089L302.828 47.3112L282.723 41.2182L262.536 47.3375Z" fill="#287E74" fill-opacity="0.36"/>
<path d="M262.536 41.5007L242.349 35.3814L222.163 41.5007L201.976 35.3814L181.789 41.5007L161.602 35.3814L141.416 41.5007L121.229 35.3814L101.042 41.5007L80.8464 35.3814L60.6596 41.5007L40.4729 35.3814L20.2771 41.5007L0 35.3551L0.17161 35.0528L20.2771 41.1458L40.4729 35.0265L60.6596 41.1458L80.8464 35.0265L101.042 41.1458L121.229 35.0265L141.416 41.1458L161.602 35.0265L181.789 41.1458L201.976 35.0265L222.163 41.1458L242.349 35.0265L262.536 41.1458L282.723 35.0265L303 41.1721L302.828 41.4744L282.723 35.3814L262.536 41.5007Z" fill="#287E74" fill-opacity="0.36"/>
<path d="M262.536 35.6642L242.349 29.5449L222.163 35.6642L201.976 29.5449L181.789 35.6642L161.602 29.5449L141.416 35.6642L121.229 29.5449L101.042 35.6642L80.8464 29.5449L60.6596 35.6642L40.4729 29.5449L20.2771 35.6642L0 29.5186L0.17161 29.2162L20.2771 35.3092L40.4729 29.1899L60.6596 35.3092L80.8464 29.1899L101.042 35.3092L121.229 29.1899L141.416 35.3092L161.602 29.1899L181.789 35.3092L201.976 29.1899L222.163 35.3092L242.349 29.1899L262.536 35.3092L282.723 29.1899L303 35.3355L302.828 35.6379L282.723 29.5449L262.536 35.6642Z" fill="#287E74" fill-opacity="0.36"/>
<path d="M262.536 29.8274L242.349 23.7081L222.163 29.8274L201.976 23.7081L181.789 29.8274L161.602 23.7081L141.416 29.8274L121.229 23.7081L101.042 29.8274L80.8464 23.7081L60.6596 29.8274L40.4729 23.7081L20.2771 29.8274L0 23.6818L0.17161 23.3728L20.2771 29.4724L40.4729 23.3466L60.6596 29.4724L80.8464 23.3466L101.042 29.4724L121.229 23.3466L141.416 29.4724L161.602 23.3466L181.789 29.4724L201.976 23.3466L222.163 29.4724L242.349 23.3466L262.536 29.4724L282.723 23.3466L303 29.4987L302.828 29.8011L282.723 23.7081L262.536 29.8274Z" fill="#287E74" fill-opacity="0.36"/>
<path d="M262.536 23.9908L242.349 17.8715L222.163 23.9908L201.976 17.8715L181.789 23.9908L161.602 17.8715L141.416 23.9908L121.229 17.8715L101.042 23.9908L80.8464 17.8715L60.6596 23.9908L40.4729 17.8715L20.2771 23.9908L0 17.8452L0.17161 17.5363L20.2771 23.6359L40.4729 17.51L60.6596 23.6359L80.8464 17.51L101.042 23.6359L121.229 17.51L141.416 23.6359L161.602 17.51L181.789 23.6359L201.976 17.51L222.163 23.6359L242.349 17.51L262.536 23.6359L282.723 17.51L303 23.6622L302.828 23.9645L282.723 17.8715L262.536 23.9908Z" fill="#287E74" fill-opacity="0.36"/>
<path d="M262.536 18.1544L242.349 12.0285L222.163 18.1544L201.976 12.0285L181.789 18.1544L161.602 12.0285L141.416 18.1544L121.229 12.0285L101.042 18.1544L80.8464 12.0285L60.6596 18.1544L40.4729 12.0285L20.2771 18.1544L0 12.0022L0.17161 11.6999L20.2771 17.7994L40.4729 11.6736L60.6596 17.7994L80.8464 11.6736L101.042 17.7994L121.229 11.6736L141.416 17.7994L161.602 11.6736L181.789 17.7994L201.976 11.6736L222.163 17.7994L242.349 11.6736L262.536 17.7994L282.723 11.6736L303 17.8257L302.828 18.1281L282.723 12.0285L262.536 18.1544Z" fill="#287E74" fill-opacity="0.36"/>
<path d="M262.536 12.3175L242.349 6.1916L222.163 12.3175L201.976 6.1916L181.789 12.3175L161.602 6.1916L141.416 12.3175L121.229 6.1916L101.042 12.3175L80.8464 6.1916L60.6596 12.3175L40.4729 6.1916L20.2771 12.3175L0 6.16531L0.17161 5.86296L20.2771 11.956L40.4729 5.83667L60.6596 11.956L80.8464 5.83667L101.042 11.956L121.229 5.83667L141.416 11.956L161.602 5.83667L181.789 11.956L201.976 5.83667L222.163 11.956L242.349 5.83667L262.536 11.956L282.723 5.83667L303 11.9823L302.828 12.2912L282.723 6.1916L262.536 12.3175Z" fill="#287E74" fill-opacity="0.36"/>
<path d="M262.536 6.48079L242.349 0.354932L222.163 6.48079L201.976 0.354932L181.789 6.48079L161.602 0.354932L141.416 6.48079L121.229 0.354932L101.042 6.48079L80.8464 0.354932L60.6596 6.48079L40.4729 0.354932L20.2771 6.48079L0 0.328641L0.17161 0.0262913L20.2771 6.11929L40.4729 0L60.6596 6.11929L80.8464 0L101.042 6.11929L121.229 0L141.416 6.11929L161.602 0L181.789 6.11929L201.976 0L222.163 6.11929L242.349 0L262.536 6.11929L282.723 0L303 6.14558L302.828 6.4545L282.723 0.354932L262.536 6.48079Z" fill="#287E74" fill-opacity="0.36"/>
</svg>
